<svg xmlns="http://www.w3.org/2000/svg" height="768" preserveAspectRatio="none" style="display: block;" version="1.1" viewBox="0 0 2048 1170" width="1344">
<path d="M 0 0 L 2048 0 L 2048 1170 L 0 1170 L 0 0 z" fill="rgb(252,250,247)" transform="translate(0,0)"></path>
<path d="M 573.416 220.071 L 1353.03 220.109 C 1349.24 227.259 1344.57 234.396 1340.56 241.886 C 1258.27 243.303 1172.63 242.067 1089.99 242.063 L 593.932 241.964 L 594.08 448.953 L 594.014 962.919 L 814.24 962.969 C 811.707 969.568 804.248 979.496 799.919 985.679 C 775.498 986.357 747.828 985.697 723.167 985.665 L 573.437 985.095 L 573.416 220.071 z" fill="rgb(0,0,68)" transform="translate(0,0)"></path>
<path d="M 1394.26 219.87 L 1442.87 219.965 L 1442.82 985.334 C 1340.39 986.493 1235.85 985.54 1133.34 985.301 L 845.75 985.231 C 844.262 985.276 838.456 985.813 838.654 983.751 C 839.208 977.967 847.051 968.14 850.244 963.113 L 1421.92 962.625 L 1422.14 241.952 L 1380.4 242.068 C 1382.4 237.659 1391.24 224.594 1394.26 219.87 z" fill="rgb(0,0,68)" transform="translate(0,0)"></path>
<path d="M 767.532 300.483 L 1119.03 300.966 L 1226.76 300.934 C 1259.46 300.841 1289.52 300.129 1322.09 303.424 C 1318.44 311.997 1308.46 332.578 1303.76 340.044 C 1276.97 341.45 1243.2 340.161 1215.03 340.873 C 1193.54 340.884 1171.96 341.355 1150.55 339.646 C 1142.72 339.021 1134.87 339.029 1127.01 339.006 L 824.919 339.424 C 805.723 339.447 668.346 341.404 660.462 336.609 C 660.501 329.199 671.527 308.228 675.521 301.2 C 705.722 300.365 737.21 300.654 767.532 300.483 z" fill="rgb(0,0,68)" transform="translate(0,0)"></path>
<path d="M 674.987 609.184 C 725.204 608.279 780.877 610.002 831.7 610.062 C 988.477 609.982 1145.25 611.013 1302.02 613.153 C 1298.74 622.16 1288.96 639.023 1284.04 648.483 C 1281 653.074 1176.51 648.213 1163.87 648.166 C 1043.95 647.724 924.026 647.987 804.102 648.074 L 721.794 648.129 C 708.086 648.138 674.913 649.079 663.218 645.969 C 659.67 639.121 671.649 616.631 674.987 609.184 z" fill="rgb(0,0,68)" transform="translate(0,0)"></path>
<path d="M 676.791 751.44 C 718.106 750.44 762.193 751.218 803.624 751.29 L 1057.38 752.07 L 1201.69 752.072 C 1226.1 752.05 1262.06 750.942 1285.38 753.175 C 1294.57 759.042 1279.44 777.803 1276.76 785.45 C 1275.91 787.871 1274.38 788.348 1272.25 788.842 L 848.918 788.453 C 803.623 788.717 758.327 788.696 713.033 788.391 C 703.531 788.343 669.704 789.154 662.134 787.664 C 659.439 781.194 672.732 757.473 676.791 751.44 z" fill="rgb(0,0,68)" transform="translate(0,0)"></path>
<path d="M 676.43 800.77 L 1254.09 801.272 C 1250.47 809.88 1240.39 826.58 1235.55 836.045 L 1233.49 839.072 C 1230.19 840.605 1199.71 839.304 1192.61 839.249 L 1100.38 838.925 C 992.133 837.675 883.881 837.35 775.633 837.95 C 765.378 837.955 665.601 838.954 662.294 836.392 C 662.027 828.853 672.831 808.086 676.43 800.77 z" fill="rgb(0,0,68)" transform="translate(0,0)"></path>
<path d="M 1086.56 520.533 C 1113.59 519.596 1143.98 520.177 1171.28 520.173 C 1168.37 529.001 1156.13 550.168 1151 558.086 C 1112.37 558.651 1072.71 557.961 1033.97 558.016 L 742.5 557.913 C 720.175 557.948 680.278 561.439 660.395 552.376 C 663.582 543.495 669.582 529 674.064 520.984 C 718.189 520.324 761.98 521.484 806.003 521.518 L 1086.56 520.533 z" fill="rgb(0,0,68)" transform="translate(0,0)"></path>
<path d="M 991.647 429.513 L 1197.2 429.305 C 1239.6 429.354 1284.57 428.278 1326.59 430.112 C 1322.55 440.12 1312.28 459.106 1304.45 466.272 C 1252.56 467.373 1200.66 467.944 1148.75 467.984 C 1138.62 468.464 1124.4 465.533 1112.66 465.365 C 1015.44 463.971 918.114 466.752 821.026 465.139 C 819.668 465.116 816.875 462.208 816.342 460.644 C 816.878 453.171 826.068 436.249 830.82 430.205 C 841.965 429.482 864.13 430.179 876.208 430.105 C 914.689 430.203 953.17 430.006 991.647 429.513 z" fill="rgb(0,0,68)" transform="translate(0,0)"></path>
<path d="M 683.13 704.523 C 755.465 702.65 833.531 704.222 906.183 704.561 L 1156.33 704.173 C 1153.98 713.95 1147.32 730.74 1142.55 739.839 C 1142.11 740.694 1140.56 740.687 1139.25 740.949 C 1087.78 741.002 673.727 744.166 667.278 740.691 C 665.783 739.885 665.573 738.503 665.006 737.04 C 665.315 731.529 673.95 713.26 677.38 707.615 C 679.155 704.696 680.209 705.05 683.13 704.523 z" fill="rgb(0,0,68)" transform="translate(0,0)"></path>
<path d="M 677.04 856.125 C 740.12 854.98 805.74 856.361 868.953 856.599 L 1121.4 857.096 C 1116.75 867.252 1108.91 883.628 1103.41 892.997 L 796.515 893.756 C 778.045 893.696 670.333 895.636 660.573 890.535 C 660.731 884.07 673.089 862.105 677.04 856.125 z" fill="rgb(0,0,68)" transform="translate(0,0)"></path>
<path d="M 1042.81 344.456 C 1052.84 343.517 1071.34 343.918 1081.87 343.917 L 1151.76 344.007 C 1148.22 353.746 1139.97 368.792 1134.95 378.372 C 1095.52 379.55 1051.36 378.434 1011.55 378.469 L 768.75 378.976 C 754.486 378.976 665.639 380.894 660.577 376.205 C 659.645 368.976 669.208 352.013 672.814 345.101 L 916.574 345.024 L 995.373 345.024 C 1010.24 345.011 1028.21 345.395 1042.81 344.456 z" fill="rgb(0,0,68)" transform="translate(0,0)"></path>
<path d="M 1305.94 383.428 C 1311.12 382.683 1327.51 382.902 1333.3 382.887 L 1385.47 382.805 C 1382.03 392.024 1371.2 409.773 1365.61 417.918 C 1356.29 419.215 1338.5 418.754 1328.64 418.759 L 1267.53 418.827 L 1052.5 418.988 C 1043.21 418.992 976.634 420.296 973.504 418.587 C 972.334 413.392 985.409 391.045 988.715 385.236 L 1190.56 384.215 C 1224.24 384.193 1274.19 385.757 1305.94 383.428 z" fill="rgb(0,0,68)" transform="translate(0,0)"></path>
<path d="M 683.115 658.408 C 717.716 657.442 755.601 658.061 790.435 657.922 L 1039.68 657.732 C 1035.28 668.004 1026.79 685.758 1021.22 694.945 L 769.943 695.186 L 712.233 695.004 C 700.505 694.965 678.794 695.535 668 692.952 C 664.517 687.804 678.691 661.9 683.115 658.408 z" fill="rgb(0,0,68)" transform="translate(0,0)"></path>
<path d="M 1119.26 476.459 L 1342.9 475.955 C 1350.41 475.939 1356.97 475.075 1362.19 480.278 C 1362.64 484.76 1346.46 510.518 1342.77 517.102 C 1326.14 517.54 1303.43 518.22 1287.16 517.093 C 1280.15 512.059 1229.74 514.278 1218.46 514.273 L 1094.34 514.114 C 1079.31 514.136 1063.8 514.199 1048.83 513.74 C 1030.83 513.188 1051.49 484.067 1055.95 477.02 C 1077.05 476.976 1098.16 476.789 1119.26 476.459 z" fill="rgb(0,0,68)" transform="translate(0,0)"></path>
<path d="M 737.562 385.487 C 816.759 384.219 897.741 385.001 977.065 385.028 C 972.726 396.417 966.324 408.41 960.721 419.33 L 896.909 419.767 L 723.149 420.151 C 704.693 420.077 677.24 423.64 659.97 418.694 L 659.317 416.703 C 660.465 408.592 669.44 392.632 674.562 386.045 C 695.56 385.69 716.561 385.504 737.562 385.487 z" fill="rgb(0,0,68)" transform="translate(0,0)"></path>
<path d="M 870.535 563.547 C 898.893 565.021 939.01 564.026 968.131 564.056 L 1155.35 563.853 C 1152.77 572.002 1144.46 594.012 1140.87 601.303 C 1082.3 601.918 1021.81 600.936 963.019 601.013 L 897.928 601.103 C 886.599 601.114 874.871 601.297 863.553 600.775 C 860.75 600.645 858.846 599.115 856.688 597.408 C 855.596 592.506 867.584 569.31 870.535 563.547 z" fill="rgb(0,0,68)" transform="translate(0,0)"></path>
<path d="M 838.955 471.089 C 878.28 470.225 920.163 471.709 959.845 471.316 C 977.791 471.139 1024.89 470.298 1039.97 472.315 L 1040.69 473.266 C 1040.62 480.7 1026.97 502.769 1022.91 510.045 C 1016.29 514.052 860.021 508.74 840.151 509.912 C 837.255 510.083 827.464 508.146 824.338 507.141 C 821.506 500.706 834.875 476.636 838.955 471.089 z" fill="rgb(0,0,68)" transform="translate(0,0)"></path>
<path d="M 1174.3 568.108 C 1207.41 567.2 1249.5 569.726 1283.73 569.989 L 1352.92 570.271 C 1367.98 570.345 1381.48 569.934 1396.51 571.379 C 1392.65 580.789 1383.61 595.975 1377.97 604.367 C 1371.29 608.837 1187.61 603.226 1158.84 603.028 C 1163.1 591.705 1169.19 579.214 1174.3 568.108 z" fill="rgb(0,0,68)" transform="translate(0,0)"></path>
<path d="M 1171.01 856.414 C 1233.44 855.902 1295.88 855.732 1358.32 855.904 C 1354.56 864.421 1345.8 886.992 1339.28 892.398 C 1318.79 894.259 1166.93 894.38 1157.52 890.936 C 1156.12 890.422 1155.36 889.736 1154.84 888.346 C 1153.78 885.508 1154.78 882.928 1155.92 880.307 C 1159.3 872.522 1162.72 859.626 1171.01 856.414 z" fill="rgb(0,0,68)" transform="translate(0,0)"></path>
<path d="M 797.917 563.5 C 816.42 562.598 842.474 563.01 861.099 563.357 C 856.805 574.641 848.787 590.026 843.378 601.158 C 807.385 602.435 763.19 601.291 726.5 601.328 C 716.179 601.291 668.829 604.823 665.457 595.806 C 666.471 587.471 675.995 572.213 680.496 564.25 C 719.05 564.124 759.517 564.6 797.917 563.5 z" fill="rgb(0,0,68)" transform="translate(0,0)"></path>
<path d="M 1251.48 704.498 C 1291.1 704.785 1330.12 704.176 1369.68 704.101 C 1364.08 716.563 1358.25 728.923 1352.2 741.174 C 1336.76 741.442 1320.74 741.248 1305.25 741.275 C 1271.87 741.327 1238.15 739.489 1204.73 739.617 C 1199.66 739.636 1185.74 740.583 1183.43 736.439 C 1184.71 729.448 1194.75 711.957 1198.63 704.812 C 1214.59 704.038 1235.16 704.56 1251.48 704.498 z" fill="rgb(0,0,68)" transform="translate(0,0)"></path>
<path d="M 1538.8 158.961 C 1585.63 159.887 1633.45 158.728 1680.47 159.085 C 1677.71 167.164 1664.58 199.384 1657.97 201.558 L 1580.21 201.571 C 1559.48 201.599 1538.64 202.436 1518.2 199.048 C 1522.45 188.129 1532.1 168.373 1538.8 158.961 z" fill="rgb(0,0,68)" transform="translate(0,0)"></path>
<path d="M 675.061 473.372 C 712.367 473.036 749.889 474.67 787.243 473.836 C 799.251 473.568 812.012 473.542 823.979 474.044 C 819.679 485.462 812.227 499.032 807.131 510.918 C 766.693 511.44 725.756 510.677 685.279 510.919 C 678.403 510.96 664.415 510.105 659.483 505.044 C 659.65 498.742 670.889 478.522 675.061 473.372 z" fill="rgb(0,0,68)" transform="translate(0,0)"></path>
<path d="M 673.937 428.102 C 720.218 427.878 766.499 428.098 812.775 428.762 C 809.29 439.8 801.917 452.183 796.297 462.558 C 792.826 466.144 699.409 463.366 687.494 464.228 C 681.183 464.685 666.717 463.71 661.496 459.279 C 660.936 454.096 671.195 433.967 673.937 428.102 z" fill="rgb(0,0,68)" transform="translate(0,0)"></path>
<path d="M 1074.94 658.248 C 1088.73 658.205 1194.73 657.736 1201.55 660.424 C 1201.32 666.491 1188.66 686.514 1184.6 691.809 C 1144.87 694.284 1098.51 691.736 1058.08 692.736 C 1061.38 682.181 1069.23 667.621 1074.94 658.248 z" fill="rgb(0,0,68)" transform="translate(0,0)"></path>
<path d="M 1536.66 68.5499 C 1552.52 67.7708 1573.3 67.9769 1589.21 68.532 C 1583.63 81.2072 1574.99 97.5333 1568.8 110.437 C 1555.31 111.403 1534.54 110.822 1520.5 110.846 C 1506.49 110.893 1482.71 111.575 1469.62 110.15 C 1473.14 101.043 1485.97 78.9168 1491.24 69.2192 L 1536.66 68.5499 z" fill="rgb(0,0,68)" transform="translate(0,0)"></path>
<path d="M 1215.54 346.525 C 1241.17 345.682 1269.24 345.989 1295.06 345.767 C 1292.59 354.769 1283.79 370.336 1279.01 378.997 L 1234.75 379.146 L 1157.12 379.138 C 1162.3 367.345 1167.32 358.179 1173.47 346.91 C 1185.31 346.136 1203.26 346.58 1215.54 346.525 z" fill="rgb(0,0,68)" transform="translate(0,0)"></path>
<path d="M 1205.22 522.483 C 1214.4 521.861 1228.49 522.713 1238.17 522.797 L 1304.88 523.186 C 1299.64 533.681 1292.08 546.604 1286.36 556.989 C 1285.19 559.121 1283.28 558.948 1281.25 559.158 L 1180.85 558.797 C 1185.7 548.27 1190.78 536.185 1196.83 526.389 C 1199.04 522.804 1201.41 523.105 1205.22 522.483 z" fill="rgb(0,0,68)" transform="translate(0,0)"></path>
<path d="M 1705.17 65.0643 L 1782.13 65.0811 C 1775.48 76.9576 1769.74 89.4068 1763.42 101.507 C 1740.2 102.58 1711.05 102.013 1687.31 102.297 C 1690.97 92.1226 1699.96 74.7897 1705.17 65.0643 z" fill="rgb(35,252,219)" transform="translate(0,0)"></path>
<path d="M 1357.18 435.491 C 1370.33 435.277 1384.01 434.833 1397.11 435.444 C 1393.37 444.946 1385.45 462.214 1378.7 469.575 C 1376.47 472.006 1373.1 471.697 1369.83 471.722 L 1329.11 472.073 C 1334.27 461.433 1340.17 447.682 1347.49 438.532 C 1350.13 435.229 1353.08 435.798 1357.18 435.491 z" fill="rgb(0,0,68)" transform="translate(0,0)"></path>
<metadata><recraft-signature>{"signed_by": "recraft", "signature_b64": "sp3SYoZqUeBdhXDSX3g/VYILpdB0U6B3zyGyPNSlbwEdq3sa17KcsNxg6LuLTEV3EL1zVXuxpbAT3PSjpQm8BA==", "signing_algo": "Ed25519", "generation_timestamp": 1781848969, "identifier": "5f75b563-83dd-4ae9-976c-09207a0f48e0"}</recraft-signature></metadata></svg>