<svg xmlns="http://www.w3.org/2000/svg" height="768" preserveAspectRatio="none" style="display: block;" version="1.1" viewBox="0 0 2048 1170" width="1344">
<path d="M 0 0 L 2048 0 L 2048 1170 L 0 1170 L 0 0 z" fill="rgb(252,250,247)" transform="translate(0,0)"></path>
<path d="M 649.577 305.266 C 673.044 304.084 706.192 305.234 730.28 305.344 L 886.249 305.837 L 1390 306.967 C 1397.65 307.03 1400.46 306.249 1405.86 311.747 C 1410.59 325.156 1407.75 470.323 1407.88 494.95 C 1408.47 604.789 1407.65 715.272 1407.76 825.162 C 1407.77 840.003 1411.63 855.286 1396.04 861.052 L 894.528 860.033 L 733.332 859.86 C 706.582 859.869 679.306 860.63 652.631 859.909 C 648.085 859.786 644.787 857.478 641.874 854.127 C 638.984 844.325 640.123 803.085 640.203 790.777 C 640.463 764.182 640.564 737.586 640.506 710.99 L 640.01 322.829 C 640.089 313.024 640.381 309.698 649.577 305.266 z" fill="rgb(0,0,68)" transform="translate(0,0)"></path>
<path d="M 669.134 335.045 L 1378.69 334.995 C 1377.92 386.457 1378.86 439.89 1378.77 491.533 L 1378.13 829.741 L 670.032 830.124 C 669.361 787.259 669.823 743.633 669.65 700.695 L 669.134 335.045 z" fill="rgb(252,250,247)" transform="translate(0,0)"></path>
<path d="M 730.57 725.173 C 871.549 724.43 1012.53 724.764 1153.5 726.175 L 1271.13 726.665 C 1284.02 726.714 1300.73 726.024 1313.47 726.781 C 1324.68 727.446 1330.61 739.109 1317.69 747.223 C 1278.25 749.539 1226.52 748.276 1186.12 748.284 L 910.621 746.981 L 772.04 746.155 C 764.085 746.088 756.144 746.001 748.187 746.138 C 740.029 746.279 727.998 748.299 723.234 739.561 C 722.052 737.352 721.857 734.747 722.699 732.387 C 724.188 728.196 726.924 726.896 730.57 725.173 z" fill="rgb(0,0,68)" transform="translate(0,0)"></path>
<path d="M 730.686 606.014 C 754.504 604.973 785.918 605.902 810.172 605.912 L 965.301 605.894 L 1243.26 606.52 C 1266.37 606.73 1289.49 606.96 1312.6 606.525 C 1317.65 606.43 1322.98 609.458 1324.63 614.384 C 1325.46 616.863 1325.22 619.576 1323.98 621.875 C 1322.1 625.351 1319.61 626.325 1316.06 627.355 C 1250.87 628.172 1184.32 627.29 1118.98 627.193 L 903.131 627.551 L 785.122 627.534 C 771.449 627.561 757.763 627.445 744.066 627.94 C 737.492 628.327 728.371 628.112 724.197 621.967 C 719.664 615.293 725.45 609.33 730.686 606.014 z" fill="rgb(0,0,68)" transform="translate(0,0)"></path>
<path d="M 730.682 516.068 C 744.172 515.395 763.103 515.948 777.046 515.959 L 865.454 516.005 L 1144.49 516.754 L 1266.47 516.997 C 1279.57 517.007 1292.69 517.171 1305.82 516.7 C 1312.01 516.478 1320.76 516.7 1324.45 522.994 C 1328.51 529.913 1323.47 534.966 1317.6 538.252 L 957.704 537.554 L 807.03 537.568 C 784.67 537.534 761.965 537.462 739.599 537.676 C 734.994 537.314 728.634 535.91 725.617 531.997 C 720.866 525.833 726.186 519.722 730.682 516.068 z" fill="rgb(0,0,68)" transform="translate(0,0)"></path>
<path d="M 897.594 665.484 C 914.658 664.866 935.024 665.435 952.302 665.458 L 1049.93 665.411 C 1080.97 665.401 1112.36 664.951 1143.33 666.505 C 1152.78 666.98 1184.92 664.644 1191.05 669.695 C 1194.45 674.585 1194.43 679.956 1190.37 684.754 C 1189.03 686.187 1186 687.697 1184.05 687.746 C 1168.11 688.144 1151.78 687.967 1135.85 687.978 L 1023.25 687.941 C 995.72 687.895 733.604 689.966 728.193 686.699 C 725.666 685.172 723.348 681.977 722.818 679.024 C 722.274 675.999 723.287 672.654 725.167 670.266 C 726.944 668.008 728.789 667.166 731.559 666.685 C 743.367 664.635 757.443 666.088 769.513 666.106 L 851.265 666.24 C 864.091 666.262 885.554 666.956 897.594 665.484 z" fill="rgb(0,0,68)" transform="translate(0,0)"></path>
<path d="M 1086.3 458.544 C 1096.09 457.273 1121.24 457.819 1131.91 457.812 C 1164.81 457.577 1197.72 457.891 1230.62 458.755 C 1257.75 459.279 1284.94 458.873 1312.07 459.493 C 1317.56 459.619 1323.88 462.248 1324.16 468.547 C 1324.57 477.973 1318.09 479.938 1310.17 479.992 C 1282.02 480.183 1253.86 479.791 1225.71 479.699 L 1068.24 479.24 L 914.728 479.331 C 890.732 479.336 866.752 479.024 842.753 479.359 C 833.189 479.492 827.173 474.097 830.511 464.359 C 832.772 457.764 846.924 459.274 852.329 459.044 C 867.429 459.036 882.936 459.055 898.237 459.049 L 1036.33 459.016 C 1046.6 459.023 1077.47 460.345 1086.3 458.544 z" fill="rgb(0,0,68)" transform="translate(0,0)"></path>
<path d="M 730.816 546.03 C 747.804 545.436 767.564 545.969 784.89 545.998 L 894.106 546.145 C 968.955 546.009 1043.63 544.708 1118.35 548.507 C 1129.29 549.064 1131.14 561.783 1119.88 567.384 L 854.937 567.713 L 776.72 567.563 C 762.983 567.533 748.853 567.811 735.121 567.205 C 719.179 566.503 719.64 555.059 730.816 546.03 z" fill="rgb(0,0,68)" transform="translate(0,0)"></path>
<path d="M 730.57 401.055 C 749.966 400 776.52 400.804 796.638 400.838 L 918.429 401.004 L 1011.98 401.164 C 1027.03 401.095 1042.04 400.946 1057.14 400.907 C 1064.91 400.886 1075.26 400.577 1080.94 407.118 C 1082.61 409.032 1082.93 411.682 1082.5 414.128 C 1081.79 418.172 1078.64 420.475 1075.46 422.673 C 1060.49 423.672 1042.79 422.367 1027.68 422.071 C 1003.64 421.756 979.603 421.614 955.563 421.644 L 817.645 420.912 C 792.968 420.876 768.27 421.072 743.592 421.116 C 729.636 421.14 712.186 413.701 730.57 401.055 z" fill="rgb(0,0,68)" transform="translate(0,0)"></path>
<path d="M 729.785 430.132 C 747.708 429.255 771.872 429.947 790.197 429.956 L 903.798 430.031 L 993.803 430.123 C 1009.93 430.152 1026.57 429.925 1042.65 430.651 C 1045.67 430.79 1048.22 431.474 1050.39 433.787 C 1055.54 439.28 1051.66 445.081 1047.5 449.029 C 1039.53 450.95 1011.91 449.91 1002.02 449.909 L 920.846 449.882 C 881.508 449.985 842.169 449.759 802.835 449.204 C 781.161 449.082 759.316 449.245 737.642 448.697 C 732.395 448.564 725.941 448.139 725.115 441.592 C 724.49 436.631 726.736 433.574 729.785 430.132 z" fill="rgb(0,0,68)" transform="translate(0,0)"></path>
<path d="M 1031.44 636.182 L 1221 636.601 L 1289.02 635.767 C 1297.4 635.746 1309.69 635.098 1317.71 636.167 C 1328.46 637.598 1326.66 651.727 1318.26 657.364 C 1306.53 658.503 1283.31 657.702 1270.39 657.647 L 1178.97 657.307 L 1082.55 657.246 C 1066.25 657.237 1049.3 657.617 1033.07 656.847 C 1021.47 656.296 1020.7 642.643 1031.44 636.182 z" fill="rgb(0,0,68)" transform="translate(0,0)"></path>
<path d="M 731.171 635.334 C 822.966 633.287 917.701 636.778 1009.58 636.885 C 1011.38 636.887 1013.96 640.405 1014.63 641.982 C 1015.87 644.887 1015.85 648.175 1014.59 651.068 C 1013.03 654.717 1010.48 655.748 1007.11 657.187 L 797.564 657.258 C 781.211 657.248 747.098 657.761 729.502 656.496 C 723.489 656.063 716.918 641.405 731.171 635.334 z" fill="rgb(0,0,68)" transform="translate(0,0)"></path>
<path d="M 891.539 576.075 C 906.947 574.971 930.145 575.664 946.034 575.654 L 1045.33 575.555 L 1112.3 575.672 C 1117.91 575.72 1135.26 575.569 1139.52 576.528 C 1149.06 585.265 1164.02 573.406 1172.65 583.663 C 1176.24 587.92 1172.9 594.22 1168.13 597.385 C 1104.08 596.628 1038.29 597.59 973.992 597.462 L 921.665 597.381 C 913.666 597.359 902.095 598.026 894.417 597.007 C 881.55 595.3 883.217 583.222 891.539 576.075 z" fill="rgb(0,0,68)" transform="translate(0,0)"></path>
<path d="M 1100.96 402.178 C 1102.54 402.04 1104.11 401.936 1105.69 401.866 C 1138.23 400.473 1174.94 402.767 1207.81 402.812 L 1275.47 402.837 C 1284.96 402.839 1316.21 400.676 1324.02 406.862 C 1329.81 411.446 1324.61 419.681 1319.2 424.168 C 1251.34 424.81 1182.39 423.714 1114.46 423.173 C 1109.33 422.709 1099.08 423.608 1095.83 418.868 C 1091.53 412.603 1096.07 406.13 1100.96 402.178 z" fill="rgb(0,0,68)" transform="translate(0,0)"></path>
<path d="M 729.411 488.142 L 861.704 488.48 C 886.059 488.481 910.505 488.29 934.84 488.877 C 946.926 489.168 947.504 501.347 938.686 508.007 C 933.91 508.491 929.663 508.525 924.884 508.538 C 862.252 508.744 799.605 508.543 736.974 508.267 C 722.689 508.204 718.253 496.102 729.411 488.142 z" fill="rgb(0,0,68)" transform="translate(0,0)"></path>
<path d="M 964.534 488.115 L 1100.74 488.302 C 1122.32 488.334 1145.02 488.021 1166.59 488.804 C 1169.38 489.016 1171.45 489.626 1173.29 491.844 C 1178.13 497.697 1173.86 503.859 1169.32 507.894 C 1160.21 508.714 1146.69 508.296 1137.27 508.289 L 1079.84 508.245 L 1009.4 508.293 C 996.932 508.293 984.496 508.398 972.018 508.1 C 965.044 507.934 958.206 506.553 959.277 497.673 C 959.797 493.357 961.664 491.136 964.534 488.115 z" fill="rgb(0,0,68)" transform="translate(0,0)"></path>
<path d="M 923.595 697.18 C 995.637 695.115 1069.92 698.011 1142.15 697.499 C 1145.19 697.477 1147.57 699.232 1149.6 701.31 C 1152.7 707.552 1149.41 711.848 1144.59 715.499 C 1143.94 715.561 1143.29 715.612 1142.65 715.654 C 1126.23 716.544 1104.76 715.714 1088.07 715.588 L 1011.53 715.561 L 955.041 715.443 C 946.315 715.419 917.945 718.93 918.286 706.613 C 918.407 702.245 920.58 699.908 923.595 697.18 z" fill="rgb(0,0,68)" transform="translate(0,0)"></path>
<path d="M 728.476 756.128 C 731.455 755.996 734.571 755.936 737.552 755.939 C 803.555 756.015 869.629 755.477 935.614 756.201 C 946.018 756.315 944.921 768.296 937.624 774.646 C 870.079 776.814 799.521 773.985 731.657 774.602 C 720.921 774.699 719.976 763.403 728.476 756.128 z" fill="rgb(0,0,68)" transform="translate(0,0)"></path>
<path d="M 728.602 697.039 C 774.98 696.358 848.507 696.547 897.592 697.781 C 903.831 697.938 906.71 710.633 896.327 716.009 L 781.733 716.622 C 765.298 716.658 748.078 717.234 731.799 716.117 C 720.72 715.357 721.273 703.955 728.602 697.039 z" fill="rgb(0,0,68)" transform="translate(0,0)"></path>
<path d="M 727.761 576.133 C 769.604 573.519 815.933 577.127 858.131 576.1 C 870.215 575.806 871.429 588.408 864.455 596.807 C 832.11 600.399 791.395 595.357 758.304 597.336 C 750.514 597.802 740.92 597.21 733.046 596.749 C 720.253 595.999 720.41 584.406 727.761 576.133 z" fill="rgb(0,0,68)" transform="translate(0,0)"></path>
<path d="M 1141.64 548.044 C 1151.53 547.226 1163.54 547.64 1173.61 547.596 C 1206.73 547.449 1239.89 547.792 1273 548.052 C 1287.07 548.163 1292.24 558.76 1280.74 567.768 C 1279.51 567.882 1278.28 567.967 1277.04 568.023 C 1234.23 569.58 1187.64 566.207 1144.5 566.47 C 1135.51 566.525 1132.63 555.44 1141.64 548.044 z" fill="rgb(0,0,68)" transform="translate(0,0)"></path>
<path d="M 969.549 756.084 L 1065.44 755.963 C 1078.41 755.966 1091.36 755.946 1104.37 756.025 C 1112.01 756.072 1123.26 755.783 1121.03 767.036 C 1120.32 770.583 1118.35 772.375 1115.91 774.777 C 1115.22 774.822 1114.53 774.88 1113.84 774.879 C 1073.45 774.836 1033.06 775.013 992.665 775.031 C 985.946 775.034 979.149 775.199 972.489 774.473 C 967.873 773.969 964.464 770.133 964.811 765.481 C 965.017 760.936 966.416 759.005 969.549 756.084 z" fill="rgb(0,0,68)" transform="translate(0,0)"></path>
<path d="M 1192.67 578.135 C 1225.23 575.223 1263.61 579.557 1296.71 577.839 C 1302.88 577.936 1309.1 577.681 1315.22 578.464 C 1328.13 580.115 1326.45 591.742 1318.6 598.638 C 1286.11 601.754 1247.24 597.222 1214.15 598.997 C 1208.39 598.605 1201.47 599.509 1195.8 598.372 C 1182.82 595.77 1184.86 584.995 1192.67 578.135 z" fill="rgb(0,0,68)" transform="translate(0,0)"></path>
<path d="M 1193.26 697.324 L 1280.28 697.063 C 1291.22 697.037 1307.05 696.158 1317.33 697.645 C 1326.34 698.947 1327.34 711.894 1316.62 717.756 C 1284.82 718.395 1225.22 717.837 1190.56 716.313 C 1185.75 716.101 1179.67 702.515 1193.26 697.324 z" fill="rgb(0,0,68)" transform="translate(0,0)"></path>
<path d="M 1194.17 489.222 C 1234.9 488.681 1276.14 488.926 1316.84 489.656 C 1325.33 489.808 1329.24 503.465 1319.03 509.258 C 1280.26 510.936 1239.76 508.571 1200.84 509.206 C 1186.72 509.436 1182.8 496.683 1194.17 489.222 z" fill="rgb(0,0,68)" transform="translate(0,0)"></path>
<path d="M 1211.06 667.175 C 1213.42 666.857 1216.15 666.726 1218.6 666.725 C 1250.91 666.796 1283.5 665.928 1315.77 667.057 C 1328.03 667.486 1327.64 680.591 1318.53 687.875 C 1287.34 690.014 1252.64 686.756 1221.21 688.142 C 1205.58 688.831 1199.76 676.46 1211.06 667.175 z" fill="rgb(0,0,68)" transform="translate(0,0)"></path>
<path d="M 730.35 459.334 C 752.211 459.046 779.334 457.87 801.159 460.328 C 811.516 461.495 814.327 474.607 802.846 479.845 C 782.336 479.671 761.805 479.824 741.306 479.586 C 735.61 479.312 727.792 480.041 724.8 473.885 C 721.327 466.741 724.517 462.662 730.35 459.334 z" fill="rgb(0,0,68)" transform="translate(0,0)"></path>
<path d="M 1242.1 756.389 C 1267.43 756.274 1293.52 755.437 1318.71 756.947 C 1324.71 757.307 1330.05 769.582 1318.77 774.974 C 1295.95 775.089 1272.41 775.516 1249.56 774.868 C 1244.57 774.726 1238.19 772.657 1235.39 768.181 C 1233.68 762.261 1237.3 758.747 1242.1 756.389 z" fill="rgb(0,0,68)" transform="translate(0,0)"></path>
<path d="M 1256.64 432.142 C 1265.94 432.05 1346.93 424.541 1319.75 450.044 C 1318.38 450.164 1317 450.256 1315.63 450.319 C 1307.04 450.641 1228.28 456.797 1256.64 432.142 z" fill="rgb(0,0,68)" transform="translate(0,0)"></path>
<path d="M 1159.43 430.089 C 1172.09 429.117 1185.6 429.781 1198.35 429.497 C 1206.99 429.304 1217.99 428.55 1224.94 434.325 C 1228.08 440.925 1225.05 443.603 1219.97 447.828 C 1210.85 448.796 1134.01 454.411 1159.43 430.089 z" fill="rgb(0,0,68)" transform="translate(0,0)"></path>
<path d="M 1346.53 405.055 C 1352.51 404.654 1368.89 403.513 1373.1 408.455 C 1376.65 412.623 1374.47 418.671 1370.35 421.914 C 1365.2 422.294 1349.21 423.911 1345.42 420.563 C 1340.16 415.915 1342.49 409.55 1346.53 405.055 z" fill="rgb(0,0,68)" transform="translate(0,0)"></path>
<path d="M 1224.58 276.144 C 1281.45 273.689 1341.92 277.042 1399.06 276.347 C 1406.88 276.252 1410.17 288.286 1399.94 294.226 C 1343.86 295.314 1284.48 294.625 1228.1 294.059 C 1217.75 293.955 1216.06 283.579 1224.58 276.144 z" fill="rgb(0,0,68)" transform="translate(0,0)"></path>
<path d="M 1433.27 363.311 C 1445.9 363.167 1463.45 362.463 1475.49 364.041 C 1483.01 365.026 1484.63 377.657 1473.69 382.756 C 1460.76 382.765 1443.38 382.943 1431.02 381.676 C 1425.18 381.078 1420.95 368.073 1433.27 363.311 z" fill="rgb(0,0,68)" transform="translate(0,0)"></path>
<path d="M 645.265 880.104 C 665.724 879.439 690.134 880.587 710.796 881.382 C 714.136 881.511 715.415 883.362 716.782 886.039 C 716.531 889.052 715.033 890.307 713.079 892.707 C 705.017 894.112 655.425 894.488 645.595 891.675 C 642.991 890.93 642.484 888.939 641.762 886.789 C 642.192 883.253 642.915 882.697 645.265 880.104 z" fill="rgb(13,148,136)" transform="translate(0,0)"></path>
<path d="M 1173.25 277.362 C 1178.46 277.275 1198.63 276.38 1201.98 278.071 C 1209.86 282.054 1207.09 290.896 1197.88 293.453 C 1190.45 293.519 1167.94 296.56 1165.78 288.011 C 1164.27 282.058 1167.9 278.818 1173.25 277.362 z" fill="rgb(0,0,68)" transform="translate(0,0)"></path>
<metadata><recraft-signature>{"signed_by": "recraft", "signature_b64": "Hr+TA0Sruk9hqY8oY9NnWMh5Qc8MKk12snysixuGL+sIcbuyGtOjcKMc96OYVEoMN2ru2L+ZreBbBmbakJVBDg==", "signing_algo": "Ed25519", "generation_timestamp": 1781848970, "identifier": "6b8f63f3-8392-4e3c-9478-9e0b93b8d87b"}</recraft-signature></metadata></svg>