<svg xmlns="http://www.w3.org/2000/svg" height="768" preserveAspectRatio="none" style="display: block;" version="1.1" viewBox="0 0 2048 1170" width="1344">
<path d="M 0 0 L 2048 0 L 2048 1170 L 0 1170 L 0 0 z" fill="rgb(252,250,247)" transform="translate(0,0)"></path>
<path d="M 717.671 151.213 C 749.648 149.836 791.725 151.111 824.797 151.093 L 1041.43 151.046 L 1228.43 151.01 C 1260.72 151.004 1293.07 150.784 1325.35 151.313 C 1330.64 151.4 1339.71 151.323 1339.87 158.272 C 1340.26 175.176 1340.14 192.115 1340.16 209.028 L 1340.17 313.115 L 1340.11 781.535 L 1340.13 906.151 C 1340.13 922.257 1340.42 940.223 1339.75 956.439 C 1339.66 958.685 1336.56 960.706 1334.7 962.011 L 927.489 961.893 L 798.42 962.045 C 771.959 962.101 743.24 962.897 716.731 961.16 C 711.574 960.822 712.166 947.301 712.128 943.28 L 712.083 422.339 L 712.093 244.852 L 712.098 188.177 C 712.102 178.607 711.98 168.735 712.288 159.163 C 712.419 155.121 714.61 153.754 717.671 151.213 z" fill="rgb(0,0,68)" transform="translate(0,0)"></path>
<path d="M 743.006 182.28 L 1309.63 182.275 C 1311 270.627 1309.9 361.793 1309.83 450.42 L 1309.94 931.362 L 742.882 931.364 L 742.737 397.004 L 743.006 182.28 z" fill="rgb(252,250,247)" transform="translate(0,0)"></path>
<path d="M 812.336 264.342 L 1105.52 264.301 L 1193.01 264.422 C 1205.95 264.414 1227.5 263.576 1239.36 264.891 C 1247.06 269.975 1247.08 288.413 1237.75 292.496 L 949.048 292.603 L 862.709 292.539 C 847.405 292.523 832.14 292.752 816.814 292.047 C 806.221 291.56 806.373 283.261 807.044 274.845 C 807.529 268.768 807.859 267.981 812.336 264.342 z" fill="rgb(0,0,68)" transform="translate(0,0)"></path>
<path d="M 811.345 307.048 C 896.269 305.9 983.576 306.955 1068.69 306.902 L 1177.19 306.81 C 1196.32 306.794 1215.45 306.679 1234.58 306.964 C 1243.85 307.103 1244.43 315.463 1243.96 322.781 C 1243.62 328.14 1243.64 331.113 1239.76 335.008 C 1159.89 336.665 1074.25 335.096 993.997 335.066 L 879.579 335.018 C 859.565 335.008 839.362 335.13 819.364 334.797 C 816.661 334.39 810.374 335.002 808.818 332.259 C 804.993 325.517 805.477 312.283 811.345 307.048 z" fill="rgb(0,0,68)" transform="translate(0,0)"></path>
<path d="M 813.96 689.422 L 1117.12 689.412 L 1189.99 689.494 C 1203.43 689.514 1228.09 688.672 1240.04 691.466 C 1244.98 696.593 1245.87 716.053 1234.25 717.932 L 953.461 717.357 L 864.135 717.664 C 848.653 717.721 824.895 718.48 810.221 716.84 C 803.864 712.186 805.264 699.669 807.867 693.233 C 808.859 690.783 811.739 690.214 813.96 689.422 z" fill="rgb(0,0,68)" transform="translate(0,0)"></path>
<path d="M 810.535 605.104 C 832.796 604.083 860.417 604.78 883.002 604.775 L 1013.71 604.727 L 1159.19 604.663 C 1183.59 604.653 1208.15 604.565 1232.55 604.701 C 1237.09 604.726 1238.37 604.678 1241.54 607.022 C 1245.1 613.723 1244.74 627.149 1238.9 632.42 L 1237.81 632.537 C 1228.86 633.428 1201.13 632.732 1191.28 632.744 L 1091.84 632.847 L 913.438 632.895 C 882.423 632.889 851.325 632.954 820.312 632.758 C 817.192 632.415 812.029 633.08 809.801 630.555 C 804.67 624.74 805.437 610.603 810.535 605.104 z" fill="rgb(0,0,68)" transform="translate(0,0)"></path>
<path d="M 1058.42 349.5 L 1183.19 349.402 C 1193.01 349.428 1236.4 347.568 1241.39 351.74 C 1246.56 359.853 1246.24 377.813 1233.05 377.795 C 1208.2 377.76 1183.36 377.638 1158.51 377.654 L 993.5 377.652 L 866.562 377.429 C 856.277 377.357 814.578 379.012 808.676 374.752 C 805.749 371.285 805.37 354.876 809.607 351.7 C 811.904 349.978 813.993 349.672 816.78 349.64 C 844.221 349.326 871.686 349.581 899.132 349.638 L 1058.42 349.5 z" fill="rgb(0,0,68)" transform="translate(0,0)"></path>
<path d="M 809.542 775.029 C 823.48 774.172 842.63 774.791 857.146 774.793 L 946.812 774.82 L 1213.73 774.873 C 1218.87 774.885 1237.66 773.869 1240.17 777.682 C 1244.14 783.725 1243.38 797.213 1237.72 802.41 C 1227.26 803.969 1206.75 802.817 1195.25 802.818 L 1103.99 802.834 C 1010.65 803.658 917.315 803.698 823.981 802.953 C 809.795 802.713 803.944 803.635 805.426 786.066 C 805.912 780.301 805.352 779.352 809.542 775.029 z" fill="rgb(0,0,68)" transform="translate(0,0)"></path>
<path d="M 817.141 647.506 C 914.967 645.837 1015.79 647.108 1113.8 647.16 L 1189.05 647.173 C 1201.87 647.182 1230.27 646.3 1241.06 649.195 C 1245.65 654.671 1244.75 667.122 1240.96 672.975 C 1239.54 675.178 1236.58 674.941 1234.25 675.122 L 935.106 675.183 L 861.033 675.224 C 848.336 675.223 820.697 676.159 809.39 673.106 C 804.191 667.034 805.095 656.186 809.242 649.788 C 811.841 647.403 813.669 647.667 817.141 647.506 z" fill="rgb(0,0,68)" transform="translate(0,0)"></path>
<path d="M 812.043 477.299 L 1093.68 477.249 L 1185.16 477.271 C 1195.02 477.274 1235.64 475.827 1241.34 479.59 C 1245.32 486.505 1244.84 499.574 1238.84 505.157 L 960.745 505.148 C 913.227 505.204 865.454 505.419 817.917 505.251 C 815.007 505.241 811.247 505.175 809.004 503.388 C 805.085 497.238 806.848 489.622 806.944 482.397 C 806.978 479.813 809.893 478.603 812.043 477.299 z" fill="rgb(0,0,68)" transform="translate(0,0)"></path>
<path d="M 810.326 435.098 C 830.345 434.263 853.963 434.788 874.201 434.764 L 989.658 434.658 C 1070.66 434.603 1151.87 434.625 1232.88 434.89 C 1235.57 435.098 1240.04 434.794 1241.6 437.611 C 1245.27 444.256 1244.88 457.277 1238.9 462.161 C 1212.09 462.764 1183.31 462.277 1156.37 462.371 L 996.94 462.861 L 879.329 462.676 C 859.003 462.611 838.747 462.603 818.357 462.348 C 810.95 462.255 806.783 460.961 806.417 451.909 C 806.153 445.387 805.979 440.116 810.326 435.098 z" fill="rgb(0,0,68)" transform="translate(0,0)"></path>
<path d="M 810.361 562.179 C 829.986 561.162 856.257 561.895 876.231 561.88 L 1002.77 561.996 L 1147.46 562.21 C 1175.17 562.168 1203.01 561.92 1230.72 562.16 C 1233.6 562.508 1239 561.933 1240.99 564.235 C 1244.3 568.073 1244.14 573.182 1243.66 577.997 C 1243.04 584.145 1243.51 585.297 1239.03 589.577 C 1227.62 590.7 1203.17 589.986 1190.4 589.988 L 1095.28 589.99 C 1004.96 589.982 914.553 590.026 824.235 589.842 C 821.347 589.617 812.292 589.992 810.196 588.356 C 806.383 585.382 806.691 577.977 806.955 573.584 C 807.246 568.761 807.08 566.156 810.361 562.179 z" fill="rgb(0,0,68)" transform="translate(0,0)"></path>
<path d="M 810.524 732.293 L 1086.7 732.018 L 1181.55 732.072 C 1198.92 732.087 1216.68 731.843 1234.06 732.48 C 1237.83 732.618 1238.13 732.491 1240.9 734.655 C 1244.4 741.404 1243.52 754.554 1237.78 759.929 C 1213.56 760.725 1184.84 759.979 1160.37 759.961 L 1013.16 759.923 L 886.649 759.965 C 864.039 760.009 841.224 760.188 818.61 759.98 C 815.655 759.953 810.027 759.882 807.835 757.486 C 804.237 753.553 806.022 743.064 805.764 737.87 C 805.64 735.386 808.609 733.719 810.524 732.293 z" fill="rgb(0,0,68)" transform="translate(0,0)"></path>
<path d="M 809.567 520.064 C 810.464 519.981 811.363 519.918 812.264 519.874 C 833.82 519.003 860.104 519.725 882.087 519.744 L 1015.1 519.854 L 1159.83 519.814 C 1183.88 519.8 1208.07 519.705 1232.12 519.835 C 1234.88 520.211 1239.65 519.438 1241.45 522.084 C 1244.2 526.128 1243.96 531.464 1243.54 536.188 C 1243.04 541.779 1243.59 543.792 1239.42 547.821 C 1218.9 548.606 1193.15 547.838 1172.22 547.762 L 1051.65 547.515 L 907.566 547.618 C 895.532 547.666 814.582 549.254 809.538 545.953 C 805.309 540.535 805.34 524.909 809.567 520.064 z" fill="rgb(0,0,68)" transform="translate(0,0)"></path>
<path d="M 810.453 392.232 C 833.662 391.691 858.988 392.265 882.343 392.341 L 1011.1 392.541 C 1083.59 392.558 1156.17 392.1 1228.66 392.17 C 1231.94 392.174 1238.54 392.138 1241.12 393.823 C 1244.97 399.405 1244.39 414.359 1240.18 419.767 C 1237.55 420.083 1234.94 420.179 1232.29 420.189 C 1210.09 420.265 1187.88 420.243 1165.68 420.245 L 1025.29 420.232 L 887.213 420.136 C 863.417 420.11 839.636 420.135 815.842 419.847 C 802.719 419.688 804.204 398.809 810.453 392.232 z" fill="rgb(0,0,68)" transform="translate(0,0)"></path>
<path d="M 1012.67 825.435 C 1038.74 825.38 1231.72 823.485 1239.31 826.324 C 1240.99 826.952 1241.8 827.981 1242.56 829.523 C 1243.97 832.351 1244.69 836.256 1243.48 839.27 C 1242.3 842.195 1239.92 843.072 1237.14 844.073 L 1074.8 844.05 C 1053.62 844.032 1031.27 844.768 1010.32 842.983 C 1004.46 842.484 1001.25 829.601 1012.67 825.435 z" fill="rgb(6,196,199)" transform="translate(0,0)"></path>
<metadata><recraft-signature>{"signed_by": "recraft", "signature_b64": "5idqQGr/0+kgwzU3dIcfJuL10IZgd90oHBqZkDxzT6vQsDe90JjJvnxxaHDmFI4tQFwogVhThzMdidL0d0k7AA==", "signing_algo": "Ed25519", "generation_timestamp": 1781848970, "identifier": "609d7a2a-501c-4c42-9ac1-edcf03ec5206"}</recraft-signature></metadata></svg>