<svg xmlns="http://www.w3.org/2000/svg" height="768" preserveAspectRatio="none" style="display: block;" version="1.1" viewBox="0 0 2048 1170" width="1344">
<path d="M 0 0 L 2048 0 L 2048 1170 L 0 1170 L 0 0 z" fill="rgb(252,250,247)" transform="translate(0,0)"></path>
<path d="M 702.822 171.131 L 1345.69 171.14 L 1345.98 999.019 L 702.826 999.025 L 702.822 171.131 z" fill="rgb(0,0,68)" transform="translate(0,0)"></path>
<path d="M 721.883 190.207 L 1326.89 190.375 L 1326.8 979.605 L 721.954 979.67 C 720.506 873.067 721.936 763.711 721.892 656.775 L 721.883 190.207 z" fill="rgb(252,250,247)" transform="translate(0,0)"></path>
<path d="M 801.883 752.332 C 819.937 751.486 842.738 752.144 861.367 752.124 L 980.422 752.032 L 1150.22 752.049 C 1177.7 752.135 1226.99 750.56 1255.39 754.977 C 1256.99 755.226 1260.53 761.161 1260.57 763.525 C 1260.73 772.796 1257.24 777.079 1248.25 778.005 C 1227.66 779.401 1201.96 778.729 1180.93 778.71 L 1074.31 778.873 L 891.046 778.636 C 875.153 778.594 812.066 780.509 793.843 776.687 C 789.121 775.696 782.509 757.691 801.883 752.332 z" fill="rgb(0,0,68)" transform="translate(0,0)"></path>
<path d="M 800.468 655.336 C 819.544 654.477 844.167 655.094 863.564 655.083 L 982.537 655.037 C 1067.62 655.006 1152.89 654.871 1237.99 655.169 C 1241.84 655.182 1250.36 655.465 1253.86 656.841 C 1256.55 658.215 1259.59 661.474 1259.99 664.515 C 1261.13 673.369 1257.26 679.627 1248.72 681.473 C 1223.14 682.147 1194.89 681.54 1169.13 681.535 L 1032.79 681.828 L 890.551 681.619 C 863.375 681.582 836.086 681.667 808.911 681.364 C 804.351 681.075 799.325 680.942 795.055 679.194 C 788.438 676.486 787.962 669.559 790.565 663.781 C 792.899 658.598 795.422 657.27 800.468 655.336 z" fill="rgb(0,0,68)" transform="translate(0,0)"></path>
<path d="M 802.403 590.379 C 837.01 590.473 1246.17 587.764 1253.97 590.894 C 1256.65 591.999 1258.72 594.231 1259.61 596.995 C 1262.15 604.735 1258.1 613.475 1250.21 616.135 C 1221.06 617.184 1189.14 616.737 1159.76 616.781 L 1002.16 616.649 L 873.152 616.948 C 855.168 617.018 814.611 618.754 795.277 615.022 C 790.187 614.039 788.568 602.925 792.056 598.201 C 795.522 593.508 795.823 592.388 802.403 590.379 z" fill="rgb(0,0,68)" transform="translate(0,0)"></path>
<path d="M 1089.17 784.508 C 1127.13 784.221 1165.09 784.197 1203.05 784.439 C 1218.79 784.476 1234.75 784.041 1250.31 784.177 C 1261.37 784.274 1261.74 800.585 1254.68 806.7 C 1248.32 812.208 1244.43 811.091 1236.82 811.241 C 1207.01 811.826 1177.29 811.386 1147.5 811.23 L 960.5 810.918 L 858.282 811.06 C 840.062 811.075 821.898 811.245 803.68 810.748 C 784.843 810.235 785.814 785.821 803.109 785.034 C 812.691 784.597 822.71 784.74 832.327 784.696 L 891.77 784.573 L 1089.17 784.508 z" fill="rgb(0,0,68)" transform="translate(0,0)"></path>
<path d="M 1118.51 557.498 L 1204.69 557.774 C 1214.81 557.819 1250.78 556.082 1256.66 561.359 C 1259.11 563.584 1260.55 566.713 1260.65 570.023 C 1260.75 573.745 1257.76 580.148 1254.39 581.259 C 1241.07 585.653 1220.82 584.104 1206.98 584.082 L 1141.98 584.034 L 933.5 584.308 L 839.097 584.198 C 826.86 584.133 814.377 584.31 802.136 584.298 C 796.718 584.292 788.8 579.746 788.579 573.589 C 788.215 563.404 795.428 558.941 804.83 558.822 C 816.871 558.41 828.517 558.602 840.387 558.557 L 907.775 558.241 L 1118.51 557.498 z" fill="rgb(0,0,68)" transform="translate(0,0)"></path>
<path d="M 803.73 687.475 C 853.319 687.74 1249.61 685.651 1255.24 689.054 C 1257.77 690.58 1259.4 693.579 1259.74 696.442 C 1260.26 700.887 1258.28 705.681 1255.63 709.174 C 1253.01 712.618 1250.27 713.545 1246.16 714.113 C 1189.29 712.273 1125.11 713.348 1068.05 713.795 L 916.272 713.816 C 879.615 713.791 842.991 713.963 806.335 713.501 C 779.875 713.167 785.951 690.131 803.73 687.475 z" fill="rgb(0,0,68)" transform="translate(0,0)"></path>
<path d="M 1107.69 622.495 L 1201.72 622.621 C 1217.98 622.654 1234.31 622.497 1250.53 622.996 C 1258.4 623.777 1260 628.353 1259.93 635.01 C 1259.74 655.217 1232.52 649.293 1216.84 649.135 C 1196.46 648.915 1176.07 648.818 1155.69 648.845 L 943.5 649.302 L 850.739 649.079 C 840.028 649.076 800.808 650.9 793.743 645.765 C 791.24 643.955 789.612 641.176 789.257 638.107 C 788.263 629.467 794.349 623.971 802.699 623.76 C 814.156 623.471 825.589 623.529 837.049 623.518 L 901.171 623.337 L 1107.69 622.495 z" fill="rgb(0,0,68)" transform="translate(0,0)"></path>
<path d="M 800.899 720.176 C 823.071 719.451 849.032 720.106 871.43 720.104 L 1009.36 720.036 L 1155.88 719.837 C 1176.34 719.797 1233.41 717.808 1256.06 722.484 C 1263.06 723.929 1264.91 741.345 1249.48 745.907 C 1229.43 746.998 1202.32 746.17 1181.8 746.124 L 1056.32 745.878 C 970.167 745.783 883.759 746.913 797.692 745.405 C 790.067 745.271 781.909 728.179 800.899 720.176 z" fill="rgb(0,0,68)" transform="translate(0,0)"></path>
<path d="M 840.021 494.5 L 1121.99 494.09 L 1209.76 494.023 C 1220.93 494.003 1249.07 491.272 1256.54 497.704 C 1259.37 500.148 1260.98 503.708 1260.95 507.444 C 1260.81 525.796 1223.58 520.042 1210.41 519.852 L 928.47 520.172 L 838.991 520.422 C 829.324 520.421 797.173 523.088 792.115 515.714 C 774.048 489.374 827.425 494.469 840.021 494.5 z" fill="rgb(0,0,68)" transform="translate(0,0)"></path>
<path d="M 807.821 817.493 L 1087.81 817.284 L 1190.77 817.711 C 1208.7 817.74 1226.33 817.505 1244.62 817.693 C 1261.82 817.869 1265.67 825.399 1255.39 839.777 C 1252.78 843.434 1248.53 843.354 1244.25 843.467 C 1204.75 842.687 1163.53 843.156 1123.94 843.161 L 917.633 843.146 C 881.397 843.128 844.949 843.396 808.706 843.307 C 805.407 843.006 797.088 843.211 794.726 841.101 C 780.977 828.82 794.979 818.136 807.821 817.493 z" fill="rgb(0,0,68)" transform="translate(0,0)"></path>
<path d="M 1008.73 526.5 L 1166.79 526.022 C 1193.97 525.972 1221.03 525.754 1248.34 526.174 C 1260.84 526.367 1263.63 538.681 1257.94 548.086 C 1256.6 550.313 1251.3 551.882 1248.58 551.898 C 1225.55 552.036 1202.5 551.888 1179.46 551.845 L 1041.5 551.939 L 869.907 552.432 C 847.534 552.314 824.242 552.683 801.855 551.935 C 799.032 551.84 795.98 550.575 793.801 548.742 C 791.229 546.594 789.701 543.449 789.602 540.1 C 789.2 523.023 814.407 527.013 825.174 526.974 L 870.39 526.747 L 1008.73 526.5 z" fill="rgb(0,0,68)" transform="translate(0,0)"></path>
<path d="M 915.695 462.511 L 1136.64 461.964 L 1205.35 461.868 C 1219.36 461.815 1233.36 461.584 1247.41 462.035 C 1253.32 461.846 1261.39 463.966 1260.9 471.451 C 1260.23 481.758 1254.03 486.278 1244.52 486.943 C 1231.53 487.852 1218.5 487.585 1205.79 487.618 L 1135.5 487.766 L 914.873 488.254 L 842.37 488.364 C 829.687 488.373 816.997 488.516 804.302 488.255 C 797.523 487.944 791.166 487.09 790.605 478.968 C 790.08 471.37 794.68 463.73 802.651 463.299 C 814.064 462.683 826.579 462.917 838.037 462.862 L 915.695 462.511 z" fill="rgb(0,0,68)" transform="translate(0,0)"></path>
<path d="M 804.167 849.465 L 1075.94 849.706 L 1183.46 849.616 C 1196.81 849.634 1244.42 847.43 1256.8 853.729 C 1264.23 857.509 1260.68 873.982 1245.04 875.421 L 953.044 875.132 L 858.678 875.156 C 840.6 875.227 822.529 875.471 804.439 875.233 C 798.54 875.574 789.495 872.743 788.994 865.53 C 788.253 854.838 795.607 850.899 804.167 849.465 z" fill="rgb(0,0,68)" transform="translate(0,0)"></path>
<path d="M 1013.84 431.5 C 1091.65 430.428 1169.76 431.879 1247.6 430.731 C 1266.38 430.454 1263.81 455.309 1242.54 455.663 C 1221.06 456.019 1199.02 455.802 1177.67 455.855 L 1034.5 456.073 L 883.243 456.492 C 855.886 456.618 827.74 457.06 800.368 456.471 C 797.718 456.414 794.529 455.74 792.467 453.966 C 790.437 452.233 789.235 449.723 789.157 447.055 C 788.509 429.25 813.491 432.757 824.527 432.658 C 839.757 432.403 854.988 432.253 870.219 432.21 L 1013.84 431.5 z" fill="rgb(0,0,68)" transform="translate(0,0)"></path>
<path d="M 1075.48 401.5 L 1192.23 400.858 C 1210.12 400.737 1228.27 400.217 1246.14 400.547 C 1265.9 400.912 1266.49 422.789 1246.8 424.584 C 1236.91 425.485 1226.35 425.133 1216.39 425.222 L 1158.68 425.621 L 975.68 426.24 L 853.061 426.884 C 837.113 426.914 820.952 427.437 805.037 427.175 C 784.426 426.835 786.02 404.756 804.596 403.054 C 813.733 402.218 823.847 402.627 833.124 402.54 L 890.096 402.129 L 1075.48 401.5 z" fill="rgb(0,0,68)" transform="translate(0,0)"></path>
<path d="M 989.771 342.508 L 1159.75 341.76 C 1189.42 341.702 1219.08 341.371 1248.74 341.74 C 1266.95 341.967 1262.15 365.074 1250.6 365.246 C 1229.87 365.555 1208.96 365.582 1188.22 365.66 L 1058.5 365.983 L 889.793 366.806 C 860.903 367.062 832.063 367.687 803.171 367.305 C 781.476 367.019 791.121 344.338 804.382 343.841 C 823.721 343.116 843.512 343.148 862.893 343.035 L 989.771 342.508 z" fill="rgb(0,0,68)" transform="translate(0,0)"></path>
<path d="M 1064.36 371.504 L 1190.33 371.035 C 1209.32 371.002 1228.4 370.599 1247.38 370.946 C 1268.17 371.326 1265.32 392.356 1248.74 394.419 C 1241.66 395.3 1230 394.841 1222.58 394.935 L 1162.22 395.14 L 987.5 395.606 L 864.363 396.256 C 844.187 396.466 823.934 397.128 803.771 396.787 C 784.544 396.46 787.015 374.596 803.02 372.897 C 812.747 371.864 823.542 372.323 833.403 372.306 L 887.144 372.234 C 946.216 372.338 1005.29 372.095 1064.36 371.504 z" fill="rgb(0,0,68)" transform="translate(0,0)"></path>
<path d="M 1238.47 312.49 C 1243.57 312.406 1255.02 311.59 1257.74 315.342 C 1270.12 332.47 1245.29 335.519 1236.83 335.777 C 1218.89 336.324 1202.02 336.087 1184.88 336.081 L 1086.27 336.14 C 995.962 337.11 905.652 337.468 815.343 337.214 C 809.6 337.324 797.817 338.069 793.956 333.116 C 774.397 308.027 839.785 314.022 849.775 313.868 C 883.926 313.204 918.084 312.944 952.242 313.087 L 1238.47 312.49 z" fill="rgb(0,0,68)" transform="translate(0,0)"></path>
<path d="M 1198.73 283.529 C 1211.75 283.237 1256.48 277.634 1259.65 291.572 C 1264.69 313.697 1216.4 307.018 1202.76 307.003 L 1116.85 307.003 L 853.25 308.046 C 836.494 308.174 805.728 311.344 791.677 302.134 C 790.489 301.17 789.097 298.954 789.243 297.393 C 790.787 280.933 818.856 285.191 831.276 285.139 C 852.133 285.137 872.99 285.013 893.845 284.766 C 995.433 282.865 1097.2 284.702 1198.73 283.529 z" fill="rgb(0,0,68)" transform="translate(0,0)"></path>
<path d="M 1131.38 254.497 L 1206.63 254.307 C 1221.57 254.15 1236.54 253.865 1251.48 254.05 C 1256.13 254.042 1261.17 258.055 1260.93 262.973 C 1260.56 270.69 1254.53 276.576 1246.97 277.025 C 1237.04 277.614 1227.32 277.405 1217.46 277.383 C 1198.44 277.275 1179.43 277.274 1160.41 277.38 L 921.869 278.136 C 894.893 278.662 867.913 278.911 840.932 278.883 C 829.52 278.925 817.519 279.743 806.169 278.806 C 785.83 277.127 786.037 256.72 806.052 255.342 C 816.563 254.618 828.331 255.133 838.954 255.119 L 908.123 255.047 L 1131.38 254.497 z" fill="rgb(0,0,68)" transform="translate(0,0)"></path>
<path d="M 961.782 905.334 C 1005.7 904.732 1050.19 905.515 1094.15 905.538 C 1097.15 905.54 1097.85 906.172 1099.92 908.001 C 1101.04 912.306 1100.18 913.616 1096.99 916.082 C 1082.91 916.072 964.919 917.798 960.542 914.93 C 958.698 913.722 958.699 912.959 958.179 910.953 C 958.929 907.84 959.392 907.523 961.782 905.334 z" fill="rgb(10,239,219)" transform="translate(0,0)"></path>
<metadata><recraft-signature>{"signed_by": "recraft", "signature_b64": "4qrWJ3pEJruX5YOxAEBF1udSEaHC2sSvE3rZ3YXP6oTJvMpHP0V083lXqL066MvDoLUZNPSZkj/Yt+ykLpKOCQ==", "signing_algo": "Ed25519", "generation_timestamp": 1781848970, "identifier": "42866f25-0362-456b-b3f1-3f3b82e2c0a1"}</recraft-signature></metadata></svg>