<?xml version="1.0" encoding="UTF-8" standalone="no"?>
<svg
   version="1.1"
   viewBox="0 0 1563 1701"
   width="1563"
   height="1701"
   id="svg26"
   sodipodi:docname="v1-isotipo-gainco (1).svg"
   inkscape:version="1.4 (e7c3feb1, 2024-10-09)"
   inkscape:export-filename="v1-isotipo-gainco (1).svg"
   inkscape:export-xdpi="96"
   inkscape:export-ydpi="96"
   xmlns:inkscape="http://www.inkscape.org/namespaces/inkscape"
   xmlns:sodipodi="http://sodipodi.sourceforge.net/DTD/sodipodi-0.dtd"
   xmlns="http://www.w3.org/2000/svg"
   xmlns:svg="http://www.w3.org/2000/svg">
  <defs
     id="defs26" />
  <sodipodi:namedview
     id="namedview26"
     pagecolor="#ffffff"
     bordercolor="#000000"
     borderopacity="0.25"
     inkscape:showpageshadow="2"
     inkscape:pageopacity="0.0"
     inkscape:pagecheckerboard="0"
     inkscape:deskcolor="#d1d1d1"
     inkscape:zoom="0.23376227"
     inkscape:cx="1815.9474"
     inkscape:cy="652.37217"
     inkscape:window-width="1712"
     inkscape:window-height="1040"
     inkscape:window-x="0"
     inkscape:window-y="39"
     inkscape:window-maximized="1"
     inkscape:current-layer="svg26" />
  <path
     d="m 724,0 h 19 l 3,4 16,47 9,24 8,24 14,38 11,34 6.00003,20 4,4 13,2 h 48 l 4,-8 6,-15 6,-12 9,-20 14,-29 16,-36 19,-40 12,-27 4,-7 5,-1 20,8 30.99997,12 25,10 18,8 2,3 -1,29 -2,39 -3,34 -1,3 -2,33 -3,24 -1,15 -1,5 -2,34 v 7 l 10,6 18,10 18,13 4,3 5,-2 14,-9 10,-9 17,-13 14,-12 13,-10 17,-13 13,-11 11,-9 17,-14 11,-9 9,-7 6,1 38,28 18,14 17,12 2,2 -2,10 -8,19 -9,20 -13,30 -11,27 -10,22 -10,13 -11,12 -9,11 -9,10 -8,10 -11,13 -9,11 -9,10 -7,8 -10,12 -7,8 -9,10 -9,11 -9,10 -9,11 -13,16 -10,11 -11,14 -3,3 h -2 l -2,4 -5,6 -5,8 -18,-18 -13,-17 -8,-8 -4,-5 -5,-5 -13,-12 -15,-12 -16,-12 -12.99997,-10 -9,-8 -21,-14 -19,-12 -16,-9 -23,-12 -22,-8 -27,-7 L 809,410 l -8,-4 -3,-7 -5,-24 -6,-28 -43,-1 -1,9 -6,36 -6,18 -4,4 -9,2 -21,3 -21,6 -18,6 -20,6 -34,16 -15,9 -15,10 -18,13 -11,9 -13,11 -11,9 -12,11 -8,7 -18,18 -11,15 -12,19 -13,22 -14,24 -14,27 -12,30 -7,24 -9,35 -5,27 -2,17 -2,30 v 43 l 3,34.99995 3,21 5,22 4,14 6,25 9,27.00005 11,28 10,20 13,23 15,26 13,17 12,13 7,7 7,8 11,11.0001 7,8 16,17 4,5 11,9 16,12 20,13 27,15 25,12 26,10 18,6 27,5 19,2 7,1 h 16 l 10,2 h 26 l 5,-1 24.00003,-1 11,-2 23,-1 9,-3 23,-7 20,-7 16,-6 15,-7 23,-12 12,-7 21,-14 16.99997,-13 9,-6 h 2 l 2,-7 20,-20 9,-10 9,-12.0001 15,-22 15,-20 10,-14 9,-13 8,-14 8,-17 13,-36 6,-16.00005 4,-10 h -28 l -64,-2 -107.99997,-1 -53,-1 -179.00003,-2 -1,-3 V 750 l 1,-6 h 623 l 83,1 39,5 43,6 48,6 15,3 -1,61 -1,68.99995 -9,3 -38,10 -46,13 -50,14 -41,12 h -3 l -1,28 -3,35.00005 -2,20 1,8 7,7 15,11 14,11 14,10 17,14 12,9 18,14 14,11 12,9 11,10 1,5 -6,16.0001 -18,40 -15,33 -3,1 -13,-3 -29,-7 -40,-8 -38,-9 -38,-7 -17,-3 h -3 l -18,30 -8,11 -8,13 1,9 16,33 13,28 23,47 13,28 12,23 4,10 -1,5 -5,8 -9,10 -11,14 -12,13 -7,8 -10,13 -7,6 -7,12 -8,1 -12,-9 -14,-12 -11,-9 -15,-13 -13,-10 -13,-11 -14,-11 -9,-8 -9,-7 -13,-11 -11,-9 -15,-12 -8,-7 -8,-6 -10,9 -12,11 -11,13 -6,8 -1,2 v 27 l 1,73 3,48 2,16 2,9 v 39 l -8,5 -19,8 -25,11 -15.99997,8 -4,-1 -9,-9 -8,-14 -8,-11 -14,-22 -13,-19 -15,-23 -14,-22 -11,-16 -21,-33 -11,-16 -5,-6 -7,-2 -15,1 -21,4 -5.00003,3 -6,18 -12,40 -12,38 -9,29 -9,27 -8,27 -8,24 -6,2 -20,3 -30,1 -27,2 h -12 l -2,-6 -8,-47 -4,-20 -5,-35 -3,-24 -9,-48 -5,-39 -3,-19 -3,-8 -26,-9 -16,-4 h -5 l -12,15 -11,16 -10,13 -10,14 -14,19 -12,15 -7,10 -24,32 -10,14 -13,18 -11,15 -4,2 -6,-4 -9,-8 -11,-9 -13,-12 -11,-9 -14,-11 -15,-13 -6,-5 -1,-7 4,-15 12,-36 6,-20 8,-25 8,-29 17,-51 5,-13 4,-16 -1,-7 -15,-14 -15,-15 -4,-1 -16,8 -37,18 -26,11 -22,10 -23,11 -40,18 -16,8 h -6 l -26,-36 -8,-10 -12,-17 -13,-18 -2,-5 1,-7 4,-6 12,-15 13,-17 28,-38 13,-16 10,-14 8,-10 24,-32.0001 10,-13 9,-13 v -8 l -11,-31 -6,-12 h -17 l -35,4 -9,2 -58,6 -58,5 -28,4 -14,3 -2,-7 -6,-58 -4,-28 -3,-24.00005 2,-6 9,-7 22,-12 23,-13 14,-8 24,-13 16,-9 24,-14 L 153,886 173,876 v -8 l -2,-16 v -7 l 1,-3 1,-23 V 795 L 164,792 138,779 116,767 99,758 83,750 66,742 44,730 22,719 0,707 v -8 l 7,-24 12,-41 9,-28 2,-2 73,-1 h 125 l 4,-9 7,-24 3,-13 1,-15 -12,-16 -10,-13 -8,-9 -11,-14 -10,-13 -9,-11 -14,-18 -11,-14 -13,-16 -9,-11 -13,-16 -6,-7 -1,-5 8,-17 11,-19 11,-21 12,-22 7,-11 4,-1 18,8 46,23 19,10 39,19 15,8 23,11 33,17 3,1 2,-6 6,-10 13,-16 11,-12 7,-7 v -7 l -10,-35 -23,-69 -7,-25 -7,-20 -12,-40 -2,-5 5,-4 14,-10 21,-16 16,-12 17,-12 4,1 11,13 7,7 9,11 7,7 7,8 7,7 7,8 22,24 8,8 9,11 9,9 7,8 10,11 9,11 9,10 6,4 4,-2 21,-7 25,-7 h 2 l 4,-39 3,-16 7,-48 5,-47 9,-60 2,-5 31,-2 34,-3 z"
     fill="#151391"
     id="path2" />
  <path
     d="m 199,787 h 2 v 87 l 2,24.99995 6,41 10,55 12,48.00005 -1,3 -9,2 -71,6 -54,5 -55,7 h -6 l -1,-1 -4,-35 -3,-37.00005 v -10 l 4,-3 16,-8 27,-14 24,-14 29,-16 26,-14 22,-12 L 196,890 198,788 Z"
     fill="#a2a2d5"
     id="path3" />
  <path
     d="m 270,1141 4,2 12,22 7,11 14,25 16,24 13,17 12,16 13,15 3,5 v 4 l -28,11 -19,9 -36,16 -29,14 -41,18 -19,8 -4,-2 -21,-28 -9,-13 -8,-13 1,-4 8,-11 12,-16 10,-14 14,-18 13,-17 28,-38 12,-15 12,-16 z"
     fill="#a2a2d5"
     id="path4" />
  <path
     d="m 1358,770 h 45 l 38,3 44,6 46,7 8,1 2,2 -1,41 -2,42 -2,5 -25,6 -25,7 -37,9.99995 -42,12 -36,10 -14,4 L 1360,864 v -36 l -2,-42 z"
     fill="#a2a2d5"
     id="path5" />
  <path
     d="M 979.00003,32 1024,50 l 16,8 -1,9 -1,2 -3,40 -3,74 -1,27 -3,31 -3,23 v 11 l -6,-2 -26.99997,-11 -34,-13 -31,-10 -22,-6 -20,-3 -10,-1 h -19 v -2 l 13,-1 7,-3 6,-4 8,-2 4,-2 14,-31 15,-33 13,-27 7,-16 15,-33 19,-39 z"
     fill="#a2a2d5"
     id="path6" />
  <path
     d="m 633,1451 22,3 36,6 39,7 43,4 15,1 -3,11 -21,65 -20,65 -12,36 -8,23 -3,3 -52,1 -1,-1 -7,-54 -7,-43 -5,-32 -9,-56 -7,-36 z"
     fill="#a2a2d5"
     id="path7" />
  <path
     d="m 176,319 5,1 19,10 36,18 19,10 29,15 23,11 30,15 24,11 v 3 l -9,10 -13,18 -10,14 -14,19 -13,20 -21,32 -5,11 -1,3 -3,-1 -10,-14 -11,-14 -10,-13 -9,-12 -11,-13 -13,-17 -11,-14 -14,-17 -8,-10 -11,-13 -10,-12 -7,-11 v -6 l 8,-16 13,-24 z"
     fill="#a2a2d5"
     id="path8" />
  <path
     d="m 426,1343 4,1 15,10 17,12 29,19 24,15 22,11 14,6 -12,12 -24,32 -14,20 -8,10 -10,13 -10,14 -13,17 -14,19 -10,13 -15,20 -5,-1 -10,-8 -14,-12 -11,-9 -11,-10 -4,-3 1,-10 17,-53 6,-20 10,-31 10,-33 14,-47 z"
     fill="#a2a2d5"
     id="path9" />
  <path
     d="m 1218,1255 h 2 l 1,7 11,20 11,23 13,28 19,40 14,30 8,17 4,12 v 5 l -11,13 -9,11 -8,9 -9,11 -6,8 -5,-1 -13,-9 -14,-11 -13,-11 -14,-12 -13,-10 -13,-11 -11,-9 -16,-13 -14,-11 -14,-12 -10,-8 -4,-4 5,-5 12,-10 10,-8 11,-9 14,-12 7,-7 8,-7 14,-14 7,-8 10,-11 13,-17 z"
     fill="#a2a2d5"
     id="path10" />
  <path
     d="m 717,26 h 11 l 11,33 15,43 16,43 15,46 4,18 v 5 l -6,2 -44,6 -41,5 -38,7 -21,6 h -2 l 2,-12 6,-34 8,-68 8,-59 5,-38 3,-1 z"
     fill="#a2a2d5"
     id="path11" />
  <path
     d="m 1027,1411 h 3 l -4,10 -1,6 v 29 l 2,17 2,52 1,7 2,62 1,13 v 20 l -8,6 -19,9 -6.99997,3 -5,-1 -8,-11 -30,-45 -16,-25 -21,-32 -26,-39 -10,-16 -8,-15 1,-3 29,-5 24,-6 26,-7 20,-7 L 1014,1418 Z"
     fill="#a2a2d5"
     id="path12" />
  <path
     d="m 97,631 h 137 l -1,7 -8,27 -6,18 -3,15 -12,68 -2,17 -2,3 -8,-7 -37,-19 -19,-10 -27,-14 -23,-11 -23,-12 -26,-14 -7,-4 1,-10 5,-19 11,-34 z"
     fill="#a2a2d5"
     id="path13" />
  <path
     d="m 1253,212 4,1 19,14 18,13 6,5 -1,8 -7,19 -14,31 -11,27 -7,16 -6,10 -11,13 -9,10 -9,11 -12,13 -9,11 -12,13 -9,11 -24,28 -9,11 -7,7 -6,8 -11,12 -7,9 -12,14 -8,10 -8,9 h -4 l 2,-6 10,-13 12,-16 9,-11 10,-13 13,-16 13,-17 12,-15 14,-19 12,-14 2,-4 -4,-2 -34,-34 -14,-11 -13,-11 -13,-10 -6,-5 1,-4 10,-9 11,-9 13,-11 14,-11 16,-13 16,-12 15,-13 11,-9 15,-12 13,-10 z"
     fill="#a2a2d5"
     id="path14" />
  <path
     d="m 410,113 4,1 16,16 7,8 12,13 7,7 7,8 7,7 7,8 12,14 14,15 7,7 9,11 14,14 11,14 8,11 v 4 l -20,10 -22,12 -26,15 -11,7 -14,10 -12,9 -14,12 -7,7 -7,5 2,-4 12,-12 1,-4 -5,-19 -12,-36 -15,-47 -8,-26 -7,-21 -8,-26 -6,-18 1,-5 14,-9 11,-8 9,-7 z"
     fill="#a2a2d5"
     id="path15" />
  <path
     d="m 1342,1010.9999 1,3 -1,5 -1,17.0001 1,9 6,8 11,10 26,20 12,10 18,13 14,11 11,9 13,11 19,13 3,3 -2,6 -14,34 -7,13 -4,3 -32,-6 -46,-10 -73,-16 -19,-4 -1,-4 11,-21 7,-14 13,-32 10,-25 11,-29 8,-26.0001 z"
     fill="#a2a2d5"
     id="path16" />
  <path
     d="m 1174,441 1,2 h -2 l -2,4 -6,8 -7,8 -9,13 -8,7 -4,6 -12,14 -9,11 -7,11 -11,13 -7,8 h -4 l 2,-6 10,-13 12,-16 9,-11 10,-13 13,-16 8,-7 8,-11 4,-5 6,-5 z"
     fill="#e8e8f4"
     id="path21" />
  <path
     d="m 199,787 h 2 l -1,79 -3,1 v -29 l 1,-50 z"
     fill="#a2a2d5"
     id="path22" />
  <path
     d="m 197,838 h 2 l 1,16 v 12 l -3,1 z"
     fill="#c1c1e2"
     id="path23" />
  <path
     d="m 1033,1165 v 3 l -14,14 -3,7 -6,2 6,-8 7,-8 z"
     fill="#a2a2d5"
     id="path24" />
  <path
     d="m 1342,1010.9999 1,3 -2,12.0001 -2,5 h -1 l -1,-9.0001 z"
     fill="#b0b0db"
     id="path25" />
  <path
     d="m 864.00003,1265 4,1 -18,5 -3,1 -7,-1 v -1 l 17,-3 z"
     fill="#a2a2d5"
     id="path26" />
</svg>
