<?xml version="1.0" encoding="UTF-8" standalone="no"?>
<svg
   version="1.1"
   viewBox="0 0 2000 1939"
   width="2000"
   height="1939"
   id="svg26"
   sodipodi:docname="v1-logotipo-gainco.svg"
   inkscape:version="1.4 (e7c3feb1, 2024-10-09)"
   xmlns:inkscape="http://www.inkscape.org/namespaces/inkscape"
   xmlns:sodipodi="http://sodipodi.sourceforge.net/DTD/sodipodi-0.dtd"
   xmlns="http://www.w3.org/2000/svg"
   xmlns:svg="http://www.w3.org/2000/svg">
  <defs
     id="defs26" />
  <sodipodi:namedview
     id="namedview26"
     pagecolor="#ffffff"
     bordercolor="#000000"
     borderopacity="0.25"
     inkscape:showpageshadow="2"
     inkscape:pageopacity="0.0"
     inkscape:pagecheckerboard="0"
     inkscape:deskcolor="#d1d1d1"
     inkscape:zoom="0.26388005"
     inkscape:cx="1830.3771"
     inkscape:cy="-623.38931"
     inkscape:window-width="1440"
     inkscape:window-height="870"
     inkscape:window-x="0"
     inkscape:window-y="34"
     inkscape:window-maximized="0"
     inkscape:current-layer="svg26" />
  <path
     transform="translate(0)"
     d="m0 0h2e3v1939h-2e3z"
     fill="#FCFCFC"
     id="path1" />
  <path
     transform="translate(953,131)"
     d="m0 0h19l3 4 16 47 9 24 8 24 14 38 11 34 6 20 4 4 13 2h48l4-8 6-15 6-12 9-20 14-29 16-36 19-40 12-27 4-7 5-1 20 8 31 12 25 10 18 8 2 3-1 29-2 39-3 34-1 3-2 33-3 24-1 15-1 5-2 34v7l10 6 18 10 18 13 4 3 5-2 14-9 10-9 17-13 14-12 13-10 17-13 13-11 11-9 17-14 11-9 9-7 6 1 38 28 18 14 17 12 2 2-2 10-8 19-9 20-13 30-11 27-10 22-10 13-11 12-9 11-9 10-8 10-11 13-9 11-9 10-7 8-10 12-7 8-9 10-9 11-9 10-9 11-13 16-10 11-11 14-3 3h-2l-2 4-5 6-5 8-18-18-13-17-8-8-4-5-5-5-13-12-15-12-16-12-13-10-9-8-21-14-19-12-16-9-23-12-22-8-27-7-41-8-8-4-3-7-5-24-6-28-43-1-1 9-6 36-6 18-4 4-9 2-21 3-21 6-18 6-20 6-34 16-15 9-15 10-18 13-11 9-13 11-11 9-12 11-8 7-18 18-11 15-12 19-13 22-14 24-14 27-12 30-7 24-9 35-5 27-2 17-2 30v43l3 35 3 21 5 22 4 14 6 25 9 27 11 28 10 20 13 23 15 26 13 17 12 13 7 7 7 8 11 11 7 8 16 17 4 5 11 9 16 12 20 13 27 15 25 12 26 10 18 6 27 5 19 2 7 1h16l10 2h26l5-1 24-1 11-2 23-1 9-3 23-7 20-7 16-6 15-7 23-12 12-7 21-14 17-13 9-6h2l2-7 20-20 9-10 9-12 15-22 15-20 10-14 9-13 8-14 8-17 13-36 6-16 4-10h-28l-64-2-108-1-53-1-179-2-1-3v-219l1-6h623l83 1 39 5 43 6 48 6 15 3-1 61-1 69-9 3-38 10-46 13-50 14-41 12h-3l-1 28-3 35-2 20 1 8 7 7 15 11 14 11 14 10 17 14 12 9 18 14 14 11 12 9 11 10 1 5-6 16-18 40-15 33-3 1-13-3-29-7-40-8-38-9-38-7-17-3h-3l-18 30-8 11-8 13 1 9 16 33 13 28 23 47 13 28 12 23 4 10-1 5-5 8-9 10-11 14-12 13-7 8-10 13-7 6-7 12-8 1-12-9-14-12-11-9-15-13-13-10-13-11-14-11-9-8-9-7-13-11-11-9-15-12-8-7-8-6-10 9-12 11-11 13-6 8-1 2v27l1 73 3 48 2 16 2 9v39l-8 5-19 8-25 11-16 8-4-1-9-9-8-14-8-11-14-22-13-19-15-23-14-22-11-16-21-33-11-16-5-6-7-2-15 1-21 4-5 3-6 18-12 40-12 38-9 29-9 27-8 27-8 24-6 2-20 3-30 1-27 2h-12l-2-6-8-47-4-20-5-35-3-24-9-48-5-39-3-19-3-8-26-9-16-4h-5l-12 15-11 16-10 13-10 14-14 19-12 15-7 10-24 32-10 14-13 18-11 15-4 2-6-4-9-8-11-9-13-12-11-9-14-11-15-13-6-5-1-7 4-15 12-36 6-20 8-25 8-29 17-51 5-13 4-16-1-7-15-14-15-15-4-1-16 8-37 18-26 11-22 10-23 11-40 18-16 8h-6l-26-36-8-10-12-17-13-18-2-5 1-7 4-6 12-15 13-17 28-38 13-16 10-14 8-10 24-32 10-13 9-13v-8l-11-31-6-12h-17l-35 4-9 2-58 6-58 5-28 4-14 3-2-7-6-58-4-28-3-24 2-6 9-7 22-12 23-13 14-8 24-13 16-9 24-14 19-10 20-10v-8l-2-16v-7l1-3 1-23v-24l-9-3-26-13-22-12-17-9-16-8-17-8-22-12-22-11-22-12v-8l7-24 12-41 9-28 2-2 73-1h125l4-9 7-24 3-13 1-15-12-16-10-13-8-9-11-14-10-13-9-11-14-18-11-14-13-16-9-11-13-16-6-7-1-5 8-17 11-19 11-21 12-22 7-11 4-1 18 8 46 23 19 10 39 19 15 8 23 11 33 17 3 1 2-6 6-10 13-16 11-12 7-7v-7l-10-35-23-69-7-25-7-20-12-40-2-5 5-4 14-10 21-16 16-12 17-12 4 1 11 13 7 7 9 11 7 7 7 8 7 7 7 8 22 24 8 8 9 11 9 9 7 8 10 11 9 11 9 10 6 4 4-2 21-7 25-7h2l4-39 3-16 7-48 5-47 9-60 2-5 31-2 34-3z"
     fill="#151391"
     id="path2" />
  <path
     transform="translate(428,918)"
     d="m0 0h2v87l2 25 6 41 10 55 12 48-1 3-9 2-71 6-54 5-55 7h-6l-1-1-4-35-3-37v-10l4-3 16-8 27-14 24-14 29-16 26-14 22-12 21-12 2-102z"
     fill="#A2A2D5"
     id="path3" />
  <path
     transform="translate(499,1272)"
     d="m0 0 4 2 12 22 7 11 14 25 16 24 13 17 12 16 13 15 3 5v4l-28 11-19 9-36 16-29 14-41 18-19 8-4-2-21-28-9-13-8-13 1-4 8-11 12-16 10-14 14-18 13-17 28-38 12-15 12-16z"
     fill="#A2A2D5"
     id="path4" />
  <path
     transform="translate(1587,901)"
     d="m0 0h45l38 3 44 6 46 7 8 1 2 2-1 41-2 42-2 5-25 6-25 7-37 10-42 12-36 10-14 4 3-62v-36l-2-42z"
     fill="#A2A2D5"
     id="path5" />
  <path
     transform="translate(1208,163)"
     d="m0 0 45 18 16 8-1 9-1 2-3 40-3 74-1 27-3 31-3 23v11l-6-2-27-11-34-13-31-10-22-6-20-3-10-1h-19v-2l13-1 7-3 6-4 8-2 4-2 14-31 15-33 13-27 7-16 15-33 19-39z"
     fill="#A2A2D5"
     id="path6" />
  <path
     transform="translate(862,1582)"
     d="m0 0 22 3 36 6 39 7 43 4 15 1-3 11-21 65-20 65-12 36-8 23-3 3-52 1-1-1-7-54-7-43-5-32-9-56-7-36z"
     fill="#A2A2D5"
     id="path7" />
  <path
     transform="translate(405,450)"
     d="m0 0 5 1 19 10 36 18 19 10 29 15 23 11 30 15 24 11v3l-9 10-13 18-10 14-14 19-13 20-21 32-5 11-1 3-3-1-10-14-11-14-10-13-9-12-11-13-13-17-11-14-14-17-8-10-11-13-10-12-7-11v-6l8-16 13-24z"
     fill="#A2A2D5"
     id="path8" />
  <path
     transform="translate(655,1474)"
     d="m0 0 4 1 15 10 17 12 29 19 24 15 22 11 14 6-12 12-24 32-14 20-8 10-10 13-10 14-13 17-14 19-10 13-15 20-5-1-10-8-14-12-11-9-11-10-4-3 1-10 17-53 6-20 10-31 10-33 14-47z"
     fill="#A2A2D5"
     id="path9" />
  <path
     transform="translate(1447,1386)"
     d="m0 0h2l1 7 11 20 11 23 13 28 19 40 14 30 8 17 4 12v5l-11 13-9 11-8 9-9 11-6 8-5-1-13-9-14-11-13-11-14-12-13-10-13-11-11-9-16-13-14-11-14-12-10-8-4-4 5-5 12-10 10-8 11-9 14-12 7-7 8-7 14-14 7-8 10-11 13-17z"
     fill="#A2A2D5"
     id="path10" />
  <path
     transform="translate(946,157)"
     d="m0 0h11l11 33 15 43 16 43 15 46 4 18v5l-6 2-44 6-41 5-38 7-21 6h-2l2-12 6-34 8-68 8-59 5-38 3-1z"
     fill="#A2A2D5"
     id="path11" />
  <path
     transform="translate(1256,1542)"
     d="m0 0h3l-4 10-1 6v29l2 17 2 52 1 7 2 62 1 13v20l-8 6-19 9-7 3-5-1-8-11-30-45-16-25-21-32-26-39-10-16-8-15 1-3 29-5 24-6 26-7 20-7 39-15z"
     fill="#A2A2D5"
     id="path12" />
  <path
     transform="translate(326,762)"
     d="m0 0h137l-1 7-8 27-6 18-3 15-12 68-2 17-2 3-8-7-37-19-19-10-27-14-23-11-23-12-26-14-7-4 1-10 5-19 11-34z"
     fill="#A2A2D5"
     id="path13" />
  <path
     transform="translate(1482,343)"
     d="m0 0 4 1 19 14 18 13 6 5-1 8-7 19-14 31-11 27-7 16-6 10-11 13-9 10-9 11-12 13-9 11-12 13-9 11-24 28-9 11-7 7-6 8-11 12-7 9-12 14-8 10-8 9h-4l2-6 10-13 12-16 9-11 10-13 13-16 13-17 12-15 14-19 12-14 2-4-4-2-34-34-14-11-13-11-13-10-6-5 1-4 10-9 11-9 13-11 14-11 16-13 16-12 15-13 11-9 15-12 13-10z"
     fill="#A2A2D5"
     id="path14" />
  <path
     transform="translate(639,244)"
     d="m0 0 4 1 16 16 7 8 12 13 7 7 7 8 7 7 7 8 12 14 14 15 7 7 9 11 14 14 11 14 8 11v4l-20 10-22 12-26 15-11 7-14 10-12 9-14 12-7 7-7 5 2-4 12-12 1-4-5-19-12-36-15-47-8-26-7-21-8-26-6-18 1-5 14-9 11-8 9-7z"
     fill="#A2A2D5"
     id="path15" />
  <path
     transform="translate(1571,1142)"
     d="m0 0 1 3-1 5-1 17 1 9 6 8 11 10 26 20 12 10 18 13 14 11 11 9 13 11 19 13 3 3-2 6-14 34-7 13-4 3-32-6-46-10-73-16-19-4-1-4 11-21 7-14 13-32 10-25 11-29 8-26z"
     fill="#A2A2D5"
     id="path16" />
  <path
     transform="translate(2e3 1789)"
     d="m0 0h1v150h-151v-1l24-3 21-6 12-5 14-7 11-7 13-10 11-10 7-8 11-15 9-15 7-16 6-20 3-16z"
     id="path17"
     style="fill:#ffffff" />
  <path
     transform="translate(0,1789)"
     d="m0 0h1l2 17 5 21 6 16 8 16 7 11 10 13 10 11 8 7 15 11 13 8 18 8 20 6 17 3 11 1v1h-151z"
     id="path18"
     style="fill:#ffffff" />
  <path
     transform="translate(1851)"
     d="m0 0h149v150h-1l-3-23-6-21-5-12-7-14-7-11-10-13-10-11-8-7-15-11-15-9-16-7-20-6-16-3-10-1z"
     id="path19"
     style="fill:#ffffff" />
  <path
     d="M 0,0 H 149 L 0.80784266,1 127,4 106,10 89,17 75,25 61,35 51,44 45,49 38,57 27,72 18,87 C 18,87 -0.39939672,0.40542954 11,103 L 5,123 2,140 1,150 H 0 Z"
     id="path20"
     sodipodi:nodetypes="ccccccccccccccccccc"
     style="fill:#ffffff" />
  <path
     transform="translate(1403,572)"
     d="m0 0 1 2h-2l-2 4-6 8-7 8-9 13-8 7-4 6-12 14-9 11-7 11-11 13-7 8h-4l2-6 10-13 12-16 9-11 10-13 13-16 8-7 8-11 4-5 6-5z"
     fill="#E8E8F4"
     id="path21" />
  <path
     transform="translate(428,918)"
     d="m0 0h2l-1 79-3 1v-29l1-50z"
     fill="#A2A2D5"
     id="path22" />
  <path
     transform="translate(426,969)"
     d="m0 0h2l1 16v12l-3 1z"
     fill="#C1C1E2"
     id="path23" />
  <path
     transform="translate(1262,1296)"
     d="m0 0v3l-14 14-3 7-6 2 6-8 7-8z"
     fill="#A2A2D5"
     id="path24" />
  <path
     transform="translate(1571,1142)"
     d="m0 0 1 3-2 12-2 5h-1l-1-9z"
     fill="#B0B0DB"
     id="path25" />
  <path
     transform="translate(1093,1396)"
     d="m0 0 4 1-18 5-3 1-7-1v-1l17-3z"
     fill="#A2A2D5"
     id="path26" />
</svg>
