<svg xmlns="http://www.w3.org/2000/svg" height="768" preserveAspectRatio="none" style="display: block;" version="1.1" viewBox="0 0 2048 1170" width="1344">
<path d="M 0 0 L 22.7185 0 L 27.0946 0 L 64.7084 0 L 71.3715 0 L 243.19 0 L 258.73 0 L 299.625 0 L 303.706 0 L 315.519 0 L 319.477 0 L 361.451 0 L 372.449 0 L 398.847 0 L 420.889 0 L 473.323 0 L 497.277 0 L 537.556 0 L 550.007 0 L 586.16 0 L 590.701 0 L 645.745 0 L 649.629 0 L 675.322 0 L 679.798 0 L 725.49 0 L 809.163 0 L 855.149 0 L 950.66 0 L 998.957 0 L 1003.45 0 L 1061.16 0 L 1065.83 0 L 1141.04 0 L 1148.64 0 L 2048 0 L 2048 1170 L 1527.48 1170 L 1522.09 1170 L 1483.75 1170 L 1451.78 1170 L 1440.43 1170 L 1410.81 1170 L 1398.88 1170 L 1368.68 1170 L 1355.32 1170 L 1323.48 1170 L 1310.63 1170 L 1276.59 1170 L 1267.15 1170 L 1234.23 1170 L 1223.16 1170 L 1193.77 1170 L 1145.16 1170 L 1140.82 1170 L 1033.35 1170 L 1029.21 1170 L 787.947 1170 L 784.05 1170 L 733.323 1170 L 729.02 1170 L 701.551 1170 L 684.763 1170 L 636.142 1170 L 583.596 1170 L 520.034 1170 L 508.871 1170 L 470.249 1170 L 466.448 1170 L 449.224 1170 L 370.263 1170 L 341.699 1170 L 300.7 1170 L 287.742 1170 L 279.417 1170 L 119.682 1170 L 116.309 1170 L 70.3709 1170 L 63.2487 1170 L 35.979 1170 L 19.9868 1170 L 0 1170 L 0 1150.46 L 0 1142.35 L 0 1120.82 L 0 1117.12 L 0 1014.83 L 0 1010.13 L 0 996.301 L 0 992.101 L 0 819.1 L 0 814.694 L 0 713.004 L 0 664.008 L 0 647.121 L 0 596.712 L 0 578.822 L 0 563.25 L 0 517.745 L 0 512.719 L 0 378.118 L 0 374.149 L 0 269.61 L 0 165.487 L 0 111.085 L 0 107.234 L 0 0 z" fill="rgb(0,0,68)" transform="translate(0,0)"></path>
<path d="M 1148.64 0 L 2048 0 L 2048 1170 L 1527.48 1170 L 1522.09 1170 L 1483.75 1170 L 1451.78 1170 L 1440.43 1170 L 1410.81 1170 L 1398.88 1170 L 1368.68 1170 L 1355.32 1170 L 1323.48 1170 L 1310.63 1170 L 1276.59 1170 L 1267.15 1170 L 1234.23 1170 L 1223.16 1170 L 1193.77 1170 L 1145.16 1170 L 1140.82 1170 L 1033.35 1170 C 1035.08 1135.67 1030.37 1113.39 1025.84 1080.21 C 1022.75 1057.54 1027.06 1020.4 1031.41 997.303 C 1072.25 1007.9 1115.38 1016.21 1156.24 1027.6 C 1175.61 1033 1214.4 1042.92 1231.81 1052.31 C 1245.03 1016.93 1254.91 978.963 1268.04 943.313 C 1278.38 915.255 1287.79 885.087 1296.71 856.556 C 1301.36 841.686 1317.11 802.298 1313.34 788.603 C 1304.02 785.853 1286.19 783.295 1275.87 781.405 L 1206.36 768.608 C 1178.04 763.5 1147.38 755.576 1120.06 751.344 C 1093.61 702.407 1059.56 691.709 1029.79 648.67 C 1009.67 619.592 1002.41 577.257 991.567 543.917 C 988.33 533.963 984.134 524.614 979.962 515.004 C 1012.53 536.388 1035.25 564.441 1060.61 593.433 C 1081.1 617.176 1101.83 640.712 1122.79 664.039 C 1127.47 658.915 1132.03 652.617 1136.29 647.255 C 1197.93 569.577 1266.24 499.269 1307.3 407.497 C 1315 390.287 1325.11 373.026 1332.03 355.047 C 1314.2 346.599 1295.77 334.495 1278.38 326.334 C 1238.06 307.419 1197.79 289.796 1156.08 274.301 C 1177.99 214.325 1211.36 168.979 1271.28 143.481 C 1288.4 136.193 1326.31 121.3 1299.91 100.238 C 1288.04 90.7692 1274.89 84.4483 1263.04 75.6852 C 1226.06 48.3339 1187.15 24.8766 1148.64 0 z" fill="rgb(252,250,247)" transform="translate(0,0)"></path>
<path d="M 1118.69 1107.21 C 1162.52 1104.24 1212.34 1103.13 1253.57 1087.57 C 1314.7 1064.49 1363.96 1011.01 1412.83 969.389 C 1437.3 1019.72 1468.85 1068.22 1492.45 1119.49 C 1499.97 1135.84 1513.99 1153.29 1522.09 1170 L 1483.75 1170 L 1451.78 1170 L 1440.43 1170 L 1410.81 1170 L 1398.88 1170 L 1368.68 1170 L 1355.32 1170 L 1323.48 1170 L 1310.63 1170 L 1276.59 1170 L 1267.15 1170 L 1234.23 1170 L 1223.16 1170 L 1193.77 1170 L 1145.16 1170 C 1137.32 1152.22 1125.24 1125.43 1118.69 1107.21 z" fill="rgb(252,250,247)" transform="translate(0,0)"></path>
<path d="M 1383.2 1038.09 C 1390.96 1034.21 1399.26 1030.23 1406.8 1026.02 C 1431.3 1075.4 1458.59 1121.62 1483.75 1170 L 1451.78 1170 C 1442.55 1148.97 1430.15 1130.03 1420.18 1109.61 C 1408.59 1085.86 1394.23 1061.92 1383.2 1038.09 z" fill="rgb(0,0,68)" transform="translate(0,0)"></path>
<path d="M 1375.56 1044.83 C 1396.61 1087.02 1419.6 1128.51 1440.43 1170 L 1410.81 1170 C 1392.54 1134.36 1369.39 1094.31 1353.78 1058.28 C 1360.92 1053.86 1368.36 1049.08 1375.56 1044.83 z" fill="rgb(0,0,68)" transform="translate(0,0)"></path>
<path d="M 1318.48 1080.64 C 1327.39 1074.87 1336.41 1069.27 1345.53 1063.83 C 1358.53 1093.23 1381.64 1142.39 1398.88 1170 L 1368.68 1170 C 1351.45 1139.88 1334.6 1111.45 1318.48 1080.64 z" fill="rgb(0,0,68)" transform="translate(0,0)"></path>
<path d="M 1287.07 1103.67 C 1295.3 1097.96 1304.32 1092.08 1311.4 1085.07 C 1326.35 1115.82 1339.03 1140.06 1355.32 1170 L 1323.48 1170 C 1311.5 1147.81 1299.36 1125.7 1287.07 1103.67 z" fill="rgb(0,0,68)" transform="translate(0,0)"></path>
<path d="M 1256.16 1121.43 L 1278.03 1108.12 C 1288.93 1128.52 1300.36 1149.33 1310.63 1170 L 1276.59 1170 C 1269.61 1154.05 1262.21 1137.7 1256.16 1121.43 z" fill="rgb(0,0,68)" transform="translate(0,0)"></path>
<path d="M 1218.48 1132.08 C 1227.51 1130.44 1237.04 1128.99 1246 1127.11 C 1252.92 1141.16 1260.75 1155.82 1267.15 1170 L 1234.23 1170 C 1228.89 1157.56 1223.95 1144.66 1218.48 1132.08 z" fill="rgb(0,0,68)" transform="translate(0,0)"></path>
<path d="M 1178.14 1137.27 C 1188.51 1135.45 1198.13 1134.67 1208.34 1133.2 C 1212.6 1144.38 1218.43 1158.86 1223.16 1170 L 1193.77 1170 C 1190.35 1160.95 1182.74 1145.87 1178.14 1137.27 z" fill="rgb(0,0,68)" transform="translate(0,0)"></path>
<path d="M 1113.05 1103.15 C 1189.11 1098.45 1249.55 1098.7 1312.34 1049.29 C 1329.03 1036.16 1345 1022.93 1361.23 1009.07 C 1370.11 1001.49 1379.14 994.277 1388.03 986.529 C 1395.6 979.927 1406.76 968.128 1414.11 962.864 C 1429.06 993.549 1446.21 1020.83 1461.64 1050.68 C 1483.28 1092.55 1502.4 1129.74 1527.48 1170 L 1522.09 1170 C 1513.99 1153.29 1499.97 1135.84 1492.45 1119.49 C 1468.85 1068.22 1437.3 1019.72 1412.83 969.389 C 1363.96 1011.01 1314.7 1064.49 1253.57 1087.57 C 1212.34 1103.13 1162.52 1104.24 1118.69 1107.21 C 1125.24 1125.43 1137.32 1152.22 1145.16 1170 L 1140.82 1170 C 1131.4 1149.84 1121.13 1124.06 1113.05 1103.15 z" fill="rgb(0,0,68)" transform="translate(0,0)"></path>
<path d="M 1455.27 463.833 L 1456.57 464.225 C 1458.25 466.817 1459.32 484.893 1459.74 489.407 C 1462.36 517.655 1468.91 544.048 1478.91 570.658 C 1488.91 597.975 1502.21 623.965 1518.53 648.048 C 1530.36 665.663 1542.34 680.175 1551.8 699.625 C 1568 732.922 1572.58 762.802 1576.52 798.736 C 1521.94 820.998 1467.1 842.649 1412.03 863.684 L 1364.62 881.457 C 1358.69 883.734 1340.81 893.219 1335.77 890.539 L 1335.19 887.25 C 1334.26 840.845 1328.16 775.134 1309.21 732.265 C 1299.58 714.633 1285.42 691.541 1272.04 676.463 C 1241.19 641.691 1224.64 614.413 1205.24 572.102 C 1223.91 563.689 1242.11 553.917 1260.65 545.518 C 1294.29 529.493 1329.38 515.556 1363.1 499.799 C 1392.28 486.165 1427.43 477.959 1455.27 463.833 z" fill="rgb(0,0,68)" transform="translate(0,0)"></path>
<path d="M 1451.92 470.983 L 1453.31 471.795 C 1455.59 484.266 1455.97 497.185 1457.95 509.755 C 1463.01 541.841 1473.4 571.802 1486.96 601.255 C 1494.49 617.619 1503.18 633.861 1513.28 648.795 C 1520.94 660.111 1529.49 670.839 1536.93 682.296 C 1559.24 716.64 1567.1 756.264 1572.05 796.281 L 1412.86 858.522 C 1391.17 866.947 1369.12 876.706 1347.07 883.988 C 1344.58 884.808 1342.47 885.726 1339.88 884.921 L 1339.15 882.25 C 1338.8 838.065 1332.33 770.889 1313.72 731.134 C 1304.45 711.332 1290.94 693.301 1277.55 676.09 C 1266.17 661.461 1253.36 647.767 1242.63 632.662 C 1230 614.859 1220.41 594.731 1211.16 575.014 C 1267.51 547.531 1324.38 520.355 1382.5 496.76 C 1405.34 487.486 1428.82 479.607 1451.92 470.983 z" fill="rgb(252,250,247)" transform="translate(0,0)"></path>
<path d="M 1431.27 508.898 C 1432.3 509.036 1432.77 509.454 1433.62 510.018 C 1440.27 553.262 1463.43 602.07 1486.08 639.263 C 1498.08 658.972 1512.11 678.607 1521.33 699.753 C 1532.14 724.528 1536.12 752.862 1541.53 779.249 C 1525.38 786.65 1508.04 792.667 1491.53 799.317 L 1367.56 849.023 C 1366.42 849.282 1365.83 849.214 1364.69 849.073 C 1361.56 843.63 1356.87 806.312 1354.98 797.611 C 1351.88 783.571 1347.76 769.777 1342.64 756.341 C 1333.34 732.145 1321.14 708.538 1307.81 686.309 C 1288.26 653.677 1263.76 626.075 1258.88 586.974 C 1273.69 577.036 1291.37 569.728 1307.53 562.236 C 1348.3 543.329 1390.06 526.788 1431.27 508.898 z" fill="rgb(13,148,136)" transform="translate(0,0)"></path>
<path d="M 1472.52 646.023 C 1477.16 653.902 1482.19 661.465 1487.31 669.035 C 1474.87 673.691 1462.71 680.171 1450.51 685.525 C 1415.43 700.921 1380.66 716.903 1345.24 731.522 C 1343.98 732.134 1343.88 731.831 1342.58 731.486 C 1338.29 724.917 1335.18 717.361 1331.83 710.265 C 1378.93 689.302 1425.22 666.647 1472.52 646.023 z" fill="rgb(0,0,68)" transform="translate(0,0)"></path>
<path d="M 1432.38 574.944 C 1436.73 576.855 1442.56 593.006 1444.87 597.988 C 1427.08 605.44 1409.61 613.981 1392.02 621.927 L 1305 660.79 C 1299.63 653.414 1294.75 645.69 1290.39 637.669 C 1338.18 618.05 1385.06 595.724 1432.38 574.944 z" fill="rgb(0,0,68)" transform="translate(0,0)"></path>
<path d="M 1449.64 609.991 C 1453.81 611.665 1461.11 629.4 1463.55 634.118 C 1418.66 655.281 1372.55 674.239 1327.24 694.526 C 1326.16 695.043 1325.72 694.712 1324.58 694.484 C 1320.19 687.7 1317.46 678.76 1314.38 671.248 C 1333.6 663.086 1352.34 653.871 1371.33 645.207 L 1449.64 609.991 z" fill="rgb(0,0,68)" transform="translate(0,0)"></path>
<path d="M 1493.63 681.976 C 1499.26 686.218 1503.82 696.779 1507.3 702.855 C 1461.09 725.787 1410.76 741.384 1363.06 761.036 C 1361.91 761.479 1360.96 761.456 1359.74 761.502 C 1355.48 756.955 1353.09 748.184 1350.63 742.331 C 1398.44 722.554 1446.11 702.435 1493.63 681.976 z" fill="rgb(0,0,68)" transform="translate(0,0)"></path>
<path d="M 1507.7 717.03 C 1511.89 721.202 1514.15 735.804 1515.98 742.019 C 1502.65 746.184 1489.42 751.87 1476.28 756.645 C 1442.02 768.815 1408.13 781.982 1374.64 796.128 L 1365.9 774.072 C 1413.4 755.744 1460.39 735.893 1507.7 717.03 z" fill="rgb(0,0,68)" transform="translate(0,0)"></path>
<path d="M 1417.15 541.054 C 1421.7 545.694 1425.06 555.908 1427.91 561.954 L 1286.1 624.005 C 1281.66 620.328 1277.56 608.701 1274.84 603.278 C 1294.36 596.452 1313.17 586.818 1332.03 578.319 C 1360.29 565.644 1388.67 553.222 1417.15 541.054 z" fill="rgb(0,0,68)" transform="translate(0,0)"></path>
<path d="M 1520.21 756.092 C 1522.89 758.515 1524.61 771.212 1525.57 775.362 C 1477.83 794.577 1429.65 812.375 1382.22 832.426 C 1379.28 830.026 1377.97 813.868 1377.3 809.504 C 1425.16 792.309 1472.8 774.503 1520.21 756.092 z" fill="rgb(0,0,68)" transform="translate(0,0)"></path>
<path d="M 1384.66 43.5671 C 1390.47 46.1101 1435.28 82.3949 1444.62 89.731 C 1512.29 142.874 1600.94 176.837 1687.87 173.317 C 1667.95 207.825 1652.38 248.52 1636.55 284.99 C 1616.84 329.823 1596.63 374.435 1575.93 418.819 L 1567.79 412.839 C 1555.7 404.734 1541.5 396.574 1529.01 388.665 C 1512.47 377.988 1496.05 367.146 1479.73 356.14 C 1454.12 339.069 1427.82 320.499 1401.5 304.691 C 1358.54 278.892 1306.17 282.948 1257.68 282.835 C 1263.6 267.416 1275.69 243.744 1283.09 228.451 C 1302.67 187.272 1323.82 146.851 1346.47 107.276 C 1357.78 87.7816 1375.01 62.6804 1384.66 43.5671 z" fill="rgb(0,0,68)" transform="translate(0,0)"></path>
<path d="M 1386.09 49.5681 C 1388.46 50.892 1392.28 53.8528 1394.44 55.6024 C 1433.77 87.4757 1472.59 119.944 1519 141.231 C 1544.56 152.95 1570.12 161.751 1597.56 168.564 C 1626.84 175.835 1650.43 178.776 1680.45 177.832 C 1660.4 217.95 1645.6 253.618 1627.44 294.602 C 1610.01 333.742 1592.26 372.739 1574.2 411.589 L 1565.07 405.289 C 1519.2 377.782 1475.56 347.094 1430.74 317.95 C 1419.1 310.377 1407.58 302.707 1395.11 296.53 C 1382.91 290.569 1370.02 286.142 1356.73 283.35 C 1329.97 277.611 1292.84 278.523 1264.56 278.279 C 1271.53 260.29 1283.11 238.609 1291.49 220.784 C 1319.84 160.519 1351.41 106.318 1386.09 49.5681 z" fill="rgb(252,250,247)" transform="translate(0,0)"></path>
<path d="M 1603.55 199.472 C 1611.69 201.157 1620.3 204.136 1628.15 206.82 C 1621.5 225.36 1610.91 248.557 1603.13 267.327 C 1589.33 300.587 1575.03 334.797 1559.04 367.018 C 1556.52 366.518 1538.51 354.256 1534.88 351.9 C 1542.43 333.503 1552.58 312.995 1560.95 294.726 C 1575.54 263.151 1589.74 231.397 1603.55 199.472 z" fill="rgb(0,0,68)" transform="translate(0,0)"></path>
<path d="M 1394.15 102.503 C 1399.46 103.979 1411.79 111.824 1417.15 115.026 C 1416.15 117.522 1414.98 119.906 1413.79 122.319 C 1392.25 166.061 1371.83 210.421 1350.14 254.086 L 1348.5 254.609 C 1339.75 252.457 1331.31 249.942 1322.68 247.397 C 1329.09 231.435 1341.3 209.166 1349.02 192.441 C 1363.51 161.085 1376.03 132.005 1394.15 102.503 z" fill="rgb(0,0,68)" transform="translate(0,0)"></path>
<path d="M 1532.17 175.033 L 1558.76 184.758 C 1537.23 230.69 1518.53 282.757 1495.72 327.536 C 1492.4 327.455 1475.17 315.756 1471.19 313.217 C 1492.18 268.005 1511.05 220.735 1532.17 175.033 z" fill="rgb(0,0,68)" transform="translate(0,0)"></path>
<path d="M 1461.6 141.563 C 1470.38 145.468 1478.93 149.849 1487.24 154.685 C 1468.69 197.378 1448.2 246.095 1427.6 287.509 C 1418.7 282.107 1409.14 277.346 1399.88 272.56 L 1461.6 141.563 z" fill="rgb(0,0,68)" transform="translate(0,0)"></path>
<path d="M 1428.89 123.035 C 1435.26 125.599 1446.82 133.503 1452.59 137.35 C 1432.6 176.442 1410.42 230.899 1389.05 267.171 L 1387.48 267.406 L 1361.62 258.706 C 1380.57 216.701 1406.54 163.32 1428.89 123.035 z" fill="rgb(0,0,68)" transform="translate(0,0)"></path>
<path d="M 1496.55 158.771 C 1504.86 163.319 1512.93 166.586 1521.64 170.246 C 1515.84 182.686 1509.26 200.484 1503.64 213.675 C 1489.96 244.976 1476.74 276.475 1463.98 308.164 C 1454.33 301.835 1447.76 297.666 1437.52 292.13 C 1456.64 247.432 1476.31 202.976 1496.55 158.771 z" fill="rgb(0,0,68)" transform="translate(0,0)"></path>
<path d="M 1569.34 188.54 C 1577.19 192.333 1586.05 195.027 1594.37 197.769 L 1555.36 281.44 C 1545.82 302.44 1536.68 323.967 1526.64 344.686 C 1522.27 345.459 1508 336.223 1503 333.363 C 1510.9 318.554 1518.34 299.612 1525.49 283.911 L 1569.34 188.54 z" fill="rgb(0,0,68)" transform="translate(0,0)"></path>
<path d="M 203.743 209.087 C 223.347 202.889 241.379 195.005 261.325 189.644 C 292.035 181.39 322.437 169.45 352.441 158.796 C 386.977 146.532 423.302 135.174 457.176 121.386 C 463.338 136.385 468.691 151.67 474.218 166.911 C 501.819 243.023 529.959 318.869 556.435 395.386 C 563.074 414.573 569.929 432.967 578.111 451.563 C 552.074 461.51 525.924 471.158 499.666 480.506 C 486.933 484.954 461.621 491.952 450.299 497.738 C 400.03 523.425 345.621 551.302 298.18 581.574 C 293.588 573.554 287.742 562.379 282.281 555.252 C 260.612 526.979 243.33 496.242 224.003 466.586 C 208.429 442.69 194.854 421.991 181.878 396.279 C 148.429 407.14 131.616 424.177 104.442 443.483 C 85.5721 456.89 65.5425 469.061 46.4492 483.185 C 33.1468 493.026 14.0268 503.377 0 512.719 L 0 378.118 C 37.6974 374.73 75.5047 373.25 113.223 370.899 C 129.884 369.86 159.459 369.218 174.619 365.989 C 167.2 338.501 159.98 310.797 151.391 283.653 C 144.016 260.346 138.596 236.184 131.294 212.945 C 153.79 212.939 178.102 210.9 199.918 211.872 C 206.407 234.622 212.667 257.435 219.487 280.078 C 223.472 293.309 231.126 306.923 234.622 319.946 C 243.26 352.119 255.033 382.721 266.629 413.912 C 272.17 428.818 277.327 444.212 284.216 458.555 C 287.863 466.17 295.594 478.327 302.691 482.718 C 304.879 484.072 310.45 485.564 313.006 485.824 C 341.893 488.758 370.826 492.29 399.728 495.069 C 404.075 495.487 425.64 498.709 428.071 498.307 C 432.858 488.801 412.948 467.226 406.541 460.546 C 441.297 447.579 490.314 429.588 525.781 418.942 C 522.451 410.059 518.935 401.001 515.754 392.087 C 474.766 406.941 422.408 426.39 382.76 443.78 L 382.998 445.989 C 388.19 448.937 390.153 450.876 394.478 454.818 L 382.316 449.464 C 376.139 446.84 366.598 443.085 360.92 440.065 C 374.899 432.438 395.125 426.889 410.064 420.632 C 442.411 407.083 478.493 394.999 510.434 381.159 L 501.377 352.515 C 441.405 377.199 381.086 401.032 320.438 424.007 C 323.193 431.233 325.284 436.763 328.769 443.664 C 335.86 441.862 340.431 440.891 347.668 439.831 C 341.589 460.584 331.556 477.5 308.66 481.976 C 291.714 470.417 286.78 456.486 279.976 438.058 C 265.469 398.769 249.74 360.29 238.785 319.812 C 235.107 306.221 227.338 292.15 223.35 278.48 C 216.135 255.62 210.034 232.224 203.743 209.087 z" fill="rgb(252,250,247)" transform="translate(0,0)"></path>
<path d="M 443.279 206.036 C 446.046 207.177 454.267 227.319 456.108 231.436 C 397.963 253.142 339.526 278.861 281.288 301.555 L 280.371 301.707 C 276.821 299.553 271.054 279.377 269.357 274.108 L 443.279 206.036 z" fill="rgb(0,0,68)" transform="translate(0,0)"></path>
<path d="M 471.653 279.174 C 473.486 281.311 480.677 302.9 482.133 307.091 C 422.694 331.135 365.524 354.74 305.457 377.119 C 301.303 368.077 298.186 360.455 294.637 351.147 C 354.269 328.728 413.295 304.729 471.653 279.174 z" fill="rgb(0,0,68)" transform="translate(0,0)"></path>
<path d="M 459.588 242.111 C 461.883 247.265 466.767 262.876 468.901 269.053 C 453.42 276.884 419.777 289.127 402.198 296.034 C 366.967 309.876 326.943 327.768 291.326 338.934 C 288.365 332.661 284.803 319.604 282.909 312.879 C 341.65 289.717 400.743 264.289 459.588 242.111 z" fill="rgb(0,0,68)" transform="translate(0,0)"></path>
<path d="M 486.031 316.99 C 489.182 319.308 495.192 337.329 496.913 342.126 C 459.653 358.895 419.084 371.944 381.318 387.912 C 361.166 396.432 339.757 404.878 319.271 412.42 L 318.362 412.587 C 314.985 410.113 310.609 392.358 309.123 387.156 C 333.369 378.811 357.099 368.448 381.009 359.067 C 416.089 345.303 451.365 331.756 486.031 316.99 z" fill="rgb(0,0,68)" transform="translate(0,0)"></path>
<path d="M 429.88 172.093 L 431.29 172.605 C 434.522 180.059 437.485 188.141 440.414 195.764 C 414.809 206.704 388.451 214.799 362.729 225.232 C 331.347 237.962 299.637 249.411 268.264 262.174 C 265.38 260.6 259.175 240.561 257.384 235.714 C 297.142 221.77 336.739 205.91 376.373 191.533 C 393.936 185.162 412.193 177.671 429.88 172.093 z" fill="rgb(0,0,68)" transform="translate(0,0)"></path>
<path d="M 0 517.745 C 36.2069 494.934 69.9858 472.277 105.088 447.827 C 130.196 430.338 149.098 411.358 179.361 401.001 C 187.169 413.549 193.935 426.76 201.587 439.398 C 209.431 452.354 218.418 464.589 226.244 477.555 C 232.98 488.716 240.068 499.653 247.016 510.675 C 262.716 535.582 282.104 558.125 295.421 584.515 C 300.681 595.026 307.96 608.329 305.817 620.687 C 305.381 623.204 302.652 625.683 300.54 626.78 C 292.025 631.201 279.473 633.851 270.106 636.268 C 243.511 643.131 223.249 646.738 198.401 659.436 C 163.471 677.287 137.52 699.937 111.045 728.385 C 92.0885 748.754 79.5944 763.422 56.4796 779.8 C 47.4534 786.196 5.92964 803.939 3.49687 809.061 C 9.7326 810.766 43.8079 791.115 51.4004 787.16 C 65.3113 779.913 84.9185 761.341 95.7097 749.968 C 89.3873 791.515 83.5943 833.14 78.3321 874.834 C 75.7371 895.736 73.2929 922.677 69.6578 942.989 C 67.7775 953.496 54.1487 983.592 49.227 994.82 C 47.5036 972.609 47.5482 949.911 45.3744 927.944 C 41.7717 891.538 28.4172 839.967 0 814.694 L 0 713.004 L 0 664.008 L 0 647.121 L 0 596.712 L 0 578.822 L 0 563.25 L 0 517.745 z" fill="rgb(252,250,247)" transform="translate(0,0)"></path>
<path d="M 14.5233 551.271 C 42.1213 590.93 71.8498 638.888 98.5774 680.158 C 93.2381 685.664 84.8041 694.891 79.2799 699.81 L 23.6278 614.907 C 15.9959 603.242 7.00671 590.633 0 578.822 L 0 563.25 C 5.24802 559.165 9.53411 555.694 14.5233 551.271 z" fill="rgb(0,0,68)" transform="translate(0,0)"></path>
<path d="M 0 596.712 L 69.8879 707.664 C 64.0484 713.103 58.2403 718.658 52.0657 723.709 C 35.2912 699.583 16.845 670.052 0 647.121 L 0 596.712 z" fill="rgb(0,0,68)" transform="translate(0,0)"></path>
<path d="M 0 664.008 C 11.7329 679.782 33.0374 712.826 43.2303 730.699 L 22.8971 748.293 L 0 713.004 L 0 664.008 z" fill="rgb(0,0,68)" transform="translate(0,0)"></path>
<path d="M 161.356 451.868 L 162.932 451.981 C 165.507 454.518 180.758 480.199 183.81 485.414 C 205.326 522.175 228.131 559.01 249.111 595.997 L 231.765 600.481 C 228.229 601.458 227.293 601.746 223.466 601.853 C 222.777 601.355 149.136 477.303 141.299 464.002 L 161.356 451.868 z" fill="rgb(0,0,68)" transform="translate(0,0)"></path>
<path d="M 42.6959 530.732 C 49.7096 536.435 75.2516 579.767 82.4782 590.825 C 96.5278 612.325 110.599 633.764 126.148 654.224 L 105.897 672.997 C 98.7428 669.124 33.756 562.452 22.6558 544.684 L 42.6959 530.732 z" fill="rgb(0,0,68)" transform="translate(0,0)"></path>
<path d="M 131.417 469.922 C 138.75 484.088 147.859 497.594 156.324 511.117 L 196.146 574.653 C 202.235 584.311 209.341 593.816 214.692 603.874 C 207.488 606.153 200.357 608.759 193.211 611.219 L 190.643 611.527 C 179.835 598.858 171.218 582.557 162.215 568.426 C 144.62 540.81 126.295 513.198 110.313 484.627 C 117.531 479.941 124.51 475.055 131.417 469.922 z" fill="rgb(0,0,68)" transform="translate(0,0)"></path>
<path d="M 101.532 490.813 C 116.756 516.748 133.203 541.867 149.249 567.296 C 159.546 583.613 169.097 600.82 180.73 616.208 C 173.2 619.262 166.229 622.918 159.14 626.878 C 131.008 587.829 105.946 546.811 79.0396 506.945 C 86.112 501.079 93.9735 496.036 101.532 490.813 z" fill="rgb(0,0,68)" transform="translate(0,0)"></path>
<path d="M 70.0485 512.847 C 71.7161 513.107 72.037 513.9 73.0374 515.26 C 80.7741 525.772 87.617 537.26 94.904 548.119 C 113.675 576.09 132.415 604.388 152.384 631.51 C 146.507 636.733 140.574 642.768 133.993 647.045 C 113.409 620.557 94.225 592.379 75.1749 564.763 C 66.5404 552.246 56.1402 539.372 49.135 525.908 C 56.2125 521.768 63.0994 517.205 70.0485 512.847 z" fill="rgb(0,0,68)" transform="translate(0,0)"></path>
<path d="M 258.73 0 L 299.625 0 L 303.706 0 L 315.519 0 L 319.477 0 L 361.451 0 L 372.449 0 L 398.847 0 L 420.889 0 L 473.323 0 L 497.277 0 L 537.556 0 L 550.007 0 L 586.16 0 C 590.088 30.7829 587.435 56.0414 609.635 81.4141 C 629.157 103.725 642.118 113.233 668.96 124.87 C 619.376 172.975 556.415 207.891 512.479 260.321 C 494.714 213.352 478.324 163.404 459.726 116.874 L 370.935 148.118 C 352.706 154.444 332.707 160.886 314.976 167.908 L 313.167 168.305 C 288.458 177.937 266.899 184.077 241.503 191.076 C 231.188 193.919 206.125 206.016 196.698 206.898 C 178.548 208.596 147.627 209.623 130.093 208.254 C 126.791 195.576 123.434 183.087 120.789 170.247 C 117.774 158.701 116.39 149.579 114.587 137.863 L 116.231 134.633 C 116.689 138.823 116.886 141.893 118.17 145.931 C 119.429 151.449 121.979 161.567 121.588 166.909 C 154.96 168.293 188.37 168.51 221.757 167.56 C 236.2 167.267 250.771 167.461 265.171 166.451 C 263.563 139.031 263.761 108.872 263.019 81.0942 C 262.171 54.0352 260.741 26.9975 258.73 0 z" fill="rgb(252,250,247)" transform="translate(0,0)"></path>
<path d="M 361.451 0 L 372.449 0 L 398.847 0 L 420.889 0 L 473.323 0 L 497.277 0 L 537.556 0 L 550.007 0 C 556.784 40.0716 570.598 94.6363 601.629 123.125 C 593.138 135.576 583.155 143.708 571.593 153.34 C 547.809 173.151 523.101 191.113 502.03 213.973 C 498.282 203.17 494.302 192.449 490.093 181.817 C 488.305 176.185 484.351 167.003 482.077 161.233 C 480.452 155.787 476.302 145.804 474.16 140.126 C 471.544 131.207 467.325 123.17 464.699 113.353 C 460.599 109.901 444.164 117.15 437.907 118.526 C 430.525 121.465 422.894 124.392 415.583 127.451 C 409.859 128.626 404.861 130.687 399.416 132.74 C 371.119 99.8215 366.424 41.8484 361.451 0 z" fill="rgb(13,148,136)" transform="translate(0,0)"></path>
<path d="M 409.026 106.288 C 426.273 92.7391 442.301 80.0207 460.65 67.8989 C 487.818 49.9508 515.968 34.3329 543.616 17.141 C 544.429 26.3875 546.885 34.9888 549.214 43.9417 C 508.239 67.3774 473.897 87.1683 437.907 118.526 C 430.525 121.465 422.894 124.392 415.583 127.451 C 414.744 123.212 410.522 110.985 409.026 106.288 z" fill="rgb(0,0,68)" transform="translate(0,0)"></path>
<path d="M 497.277 0 L 537.556 0 C 527.933 7.36872 516.301 14.8931 506.274 22.0452 C 470.917 47.2632 437.711 69.7144 404.099 97.268 C 401.191 89.1722 398.376 81.0432 395.656 72.8825 C 428.725 44.5443 460.962 23.2799 497.277 0 z" fill="rgb(0,0,68)" transform="translate(0,0)"></path>
<path d="M 482.077 161.233 C 500.562 143.625 542.796 113 564.745 96.2043 L 575.102 117.901 C 553.303 135.111 513.322 165.956 490.093 181.817 C 488.305 176.185 484.351 167.003 482.077 161.233 z" fill="rgb(0,0,68)" transform="translate(0,0)"></path>
<path d="M 464.699 113.353 C 468.432 112.684 543.884 65.3858 553.208 60.0287 C 555.308 66.4876 557.622 73.0906 559.076 79.7087 C 535.232 95.1959 495.731 121.215 474.16 140.126 C 471.544 131.207 467.325 123.17 464.699 113.353 z" fill="rgb(0,0,68)" transform="translate(0,0)"></path>
<path d="M 420.889 0 L 473.323 0 C 446.698 19.5916 412.321 41.382 384.572 60.3676 L 377.755 29.0396 C 392.327 19.6505 406.708 9.96862 420.889 0 z" fill="rgb(0,0,68)" transform="translate(0,0)"></path>
<path d="M 372.449 0 L 398.847 0 C 392.308 5.51582 382.832 12.5658 375.849 17.3825 C 374.739 10.8307 373.815 6.38629 372.449 0 z" fill="rgb(0,0,68)" transform="translate(0,0)"></path>
<path d="M 299.625 0 L 303.706 0 L 315.519 0 L 319.477 0 C 328.637 45.5944 341.2 99.1678 361.598 140.793 L 360.657 141.828 C 347.976 140.724 325.953 47.0868 322.092 30.9359 C 317.163 30.2232 311.13 29.5237 306.391 28.3129 C 308.279 56.3212 309.913 84.346 311.292 112.384 C 311.864 123.862 312.751 153.974 314.632 164.412 L 310.102 166.796 C 306.208 114.023 306.244 51.4665 299.625 0 z" fill="rgb(0,0,68)" transform="translate(0,0)"></path>
<path d="M 303.706 0 L 315.519 0 C 316.988 8.88774 319.102 18.4093 321.021 27.22 C 315.125 26.5443 312.232 26.1973 306.276 26.1889 C 305.634 16.8202 305.052 9.25379 303.706 0 z" fill="rgb(252,250,247)" transform="translate(0,0)"></path>
<path d="M 1065.83 0 L 1141.04 0 C 1182.42 26.5433 1224.08 52.7442 1263.61 81.9037 C 1274.58 89.9977 1301.58 101.975 1304.46 113.64 C 1309.11 132.462 1257.28 125.216 1247.92 126.33 L 1256.45 117.763 C 1214.76 87.6184 1170.47 57.5956 1125.06 33.33 C 1116.88 28.9573 1104.88 22.0993 1096.78 18.4962 C 1093.48 27.3259 1090.03 36.1012 1086.45 44.8186 C 1125.69 61.9385 1163.59 82.0041 1199.8 104.843 C 1212.25 112.568 1224.98 122.313 1236.89 129.489 L 1222.97 133.772 C 1202.73 120.65 1184.23 107.066 1163.44 94.505 C 1136.41 78.1733 1110.71 66.1054 1082.13 52.7306 C 1078.13 61.5536 1074.7 69.8959 1069.47 78.0685 C 1095.03 92.3772 1121.19 105.301 1146.77 119.489 C 1162.23 128.068 1177.72 138.262 1192.54 147.92 L 1179.91 156.664 L 1178.41 154.459 C 1170.66 144.599 1084.98 98.8918 1065.63 86.8045 C 1061.32 94.0625 1056.03 101.699 1051.33 108.786 C 1087.99 130.298 1118.56 153.622 1158.27 175.055 C 1143.1 192.042 1135.69 205.466 1127.42 226.679 C 1125.5 231.613 1122.12 238.412 1122.28 243.606 L 1123.49 244.662 C 1124.1 244.435 1124.7 244.209 1125.31 243.983 C 1130.21 235.101 1136.68 213.478 1141.34 205.652 C 1149.45 192.013 1158.89 179.992 1170.26 170.138 C 1193.3 150.175 1221.91 133.588 1252.64 130.721 C 1263.83 129.677 1275.08 130.542 1286.15 131.21 C 1249.44 148.736 1222.29 160.829 1195.96 192.86 C 1174.02 219.554 1164.01 241.172 1151.93 273.019 C 1123.08 264.122 1084.46 255.088 1062.54 234.58 C 1041.71 215.084 1018.01 196.493 997.469 177.045 C 991.808 182.162 984.356 190.35 978.89 196.011 C 1008.22 223.391 1038.47 249.373 1068.02 276.429 L 1065.36 286.087 L 1046.91 289.929 L 1057.18 282.726 C 1038.28 265.855 1020.87 246.715 1002.24 229.481 C 992.304 220.283 982.324 211.135 972.403 201.915 C 966.204 207.045 959.368 212.088 952.935 216.986 C 975.968 240.067 988.946 246.916 1010.4 274.05 C 991.989 267.917 968.95 262.819 949.83 258.212 C 942.743 241.782 913.888 216.164 900.132 202.61 C 927.94 186.086 952.027 170.523 974.526 146.746 C 992.038 128.24 1004.16 108.208 1018.98 87.7304 C 1019.87 86.4878 1023.64 86.3051 1025.04 85.708 C 1028.66 84.6636 1025.1 80.0695 1025.52 79.2516 C 1030.19 70.1755 1042.82 50.9698 1047.05 43.1218 C 1055.11 28.1976 1060.25 14.8515 1065.83 0 z" fill="rgb(252,250,247)" transform="translate(0,0)"></path>
<path d="M 1021.67 148.219 C 1025.25 150.094 1049.46 168.926 1054.46 172.71 C 1074.87 188.37 1095.73 203.438 1117.01 217.895 C 1113.63 224.43 1105.1 237.075 1100.88 243.775 L 1099.75 244.383 C 1091.12 241.213 1072.67 225.417 1064.59 219.522 C 1043.66 204.242 1024.99 185.022 1006.49 166.886 L 1021.67 148.219 z" fill="rgb(0,0,68)" transform="translate(0,0)"></path>
<path d="M 1045.96 116.732 C 1075.29 139.717 1105.67 158.201 1137.09 178.076 C 1131.64 187.333 1126.34 196.674 1121.18 206.098 C 1118.21 204.287 1115.05 202.14 1112.22 200.103 C 1085.06 180.546 1055.67 161.521 1030.44 139.584 C 1035.79 132.389 1040.98 124.254 1045.96 116.732 z" fill="rgb(0,0,68)" transform="translate(0,0)"></path>
<path d="M 875.341 965.622 C 929.925 973.495 973.991 984.765 1027.55 996.514 C 1023.89 1020.34 1019.24 1057.56 1021.97 1080.74 C 1026.15 1116.22 1032.35 1133.18 1029.21 1170 L 787.947 1170 C 787.711 1125.56 792.291 1081.22 801.606 1037.77 C 805.327 1021.14 810.828 1003.18 815.424 986.592 C 825.116 993.046 848.839 1006.22 855.553 1013.6 L 856.736 1013.89 C 858.227 1010.42 859.665 1006.46 861.044 1002.9 C 909.116 1009.69 946.29 1015.63 995.229 1017.5 L 997.897 993.633 C 982.062 991.605 876.815 976.498 873.037 977.36 L 870.229 984.06 L 868.697 983.654 L 871.289 976.754 L 875.341 965.622 z" fill="rgb(252,250,247)" transform="translate(0,0)"></path>
<path d="M 840.343 1014.49 C 844.464 1014.94 849.139 1015.87 853.278 1016.59 C 854.745 1017.2 855.684 1017.23 857.26 1017.46 C 861.627 1016.49 891.912 1019.1 898.494 1019.56 L 992.915 1026.16 C 992.827 1034.58 992.452 1043.31 992.204 1051.75 C 970.288 1052.03 944.864 1050.09 922.718 1048.86 C 892.385 1047.41 862.06 1045.8 831.744 1044.04 C 833.83 1032.53 836.303 1025.37 840.343 1014.49 z" fill="rgb(0,0,68)" transform="translate(0,0)"></path>
<path d="M 856.736 1013.89 C 856.951 1015.09 857.096 1016.25 857.26 1017.46 C 855.684 1017.23 854.745 1017.2 853.278 1016.59 C 854.659 1015.26 854.72 1015.28 855.553 1013.6 L 856.736 1013.89 z" fill="rgb(80,83,137)" transform="translate(0,0)"></path>
<path d="M 829.983 1134.17 C 885.891 1134.57 941.786 1136.15 997.628 1138.9 C 998.225 1148.55 998.65 1158.21 998.902 1167.87 C 943.384 1168.17 887.369 1164.9 831.839 1163.17 C 831.061 1153.52 830.442 1143.85 829.983 1134.17 z" fill="rgb(0,0,68)" transform="translate(0,0)"></path>
<path d="M 830.894 1054.92 C 884.725 1057.1 938.314 1061.24 992.224 1061.08 C 992.411 1070.3 994.673 1082.18 992.825 1090.97 C 938.055 1088.94 883.4 1085.37 828.597 1083.82 C 828.87 1074.16 829.637 1064.51 830.894 1054.92 z" fill="rgb(0,0,68)" transform="translate(0,0)"></path>
<path d="M 828.887 1095.1 C 847.454 1094.12 866.839 1096.07 885.46 1096.74 L 992.443 1100.67 C 993.265 1110.12 995.028 1119.63 996.4 1129.02 C 975.915 1129.01 955.325 1127.51 934.857 1126.65 L 828.99 1122.63 L 828.887 1095.1 z" fill="rgb(0,0,68)" transform="translate(0,0)"></path>
<path d="M 679.798 0 L 725.49 0 L 809.163 0 L 855.149 0 L 950.66 0 L 998.957 0 C 1002.67 12.0156 1020.7 70.5664 1019.4 79.0074 C 1016.65 82.2225 1009.17 84.9392 1005.12 85.9344 C 911.231 109.005 816.842 128.073 723.149 152.125 C 713.033 116.819 700.497 82.7686 692.197 46.9008 C 688.671 31.663 684.677 14.7581 679.798 0 z" fill="rgb(252,250,247)" transform="translate(0,0)"></path>
<path d="M 855.149 0 L 950.66 0 L 952.899 9.7306 C 886.2 23.5443 811.635 44.4329 745.399 61.8321 C 741.828 51.393 738.52 40.2627 735.198 29.697 C 758.415 23.0663 781.81 17.0761 805.356 11.7334 C 820.301 8.30693 840.95 4.42156 855.149 0 z" fill="rgb(0,0,68)" transform="translate(0,0)"></path>
<path d="M 725.49 0 L 809.163 0 C 785.51 7.40911 756.387 14.3081 732.128 20.6429 C 729.954 13.7496 727.741 6.86853 725.49 1.13687e-13 z" fill="rgb(0,0,68)" transform="translate(0,0)"></path>
<path d="M 955.046 20.2709 C 957.282 22.1262 964.436 46.3541 965.999 50.8972 C 894.523 67.3651 829.472 82.4963 758.333 101.825 C 754.615 91.6533 750.989 81.4478 747.457 71.2098 C 765.233 65.3369 789.955 60.1441 808.649 55.3328 C 857.157 42.4601 905.97 30.7693 955.046 20.2709 z" fill="rgb(0,0,68)" transform="translate(0,0)"></path>
<path d="M 367.161 861.434 C 383.128 882.094 385.909 900.707 385.375 926.174 C 380.757 928.595 361.275 937.354 359.593 940.481 C 372.428 937.951 424.293 910.746 437.848 903.035 C 456.964 948.189 476.089 1000.77 496.934 1044.34 C 491.736 1061.7 486.709 1078.17 482.508 1095.81 C 476.718 1120.13 472.578 1145.94 466.448 1170 L 449.224 1170 L 370.263 1170 L 341.699 1170 L 300.7 1170 L 287.742 1170 C 270.844 1160.31 193.478 1150.63 227.824 1117.68 C 247.452 1122.69 271.63 1129.18 290.641 1135.68 L 293.92 1147 C 349.577 1128.13 407.17 1100.62 462.743 1083.85 L 454.148 1056.56 C 422.722 1069.76 391.004 1082.07 359.376 1094.76 C 343.265 1101.23 326.952 1107.96 310.575 1113.68 L 309.241 1112.63 C 312.554 1102.66 314.889 1091.68 317.74 1081.46 L 331.913 1032.27 C 341.503 997.834 351.606 963.071 358.722 928.029 C 363.068 906.624 363.552 882.423 367.161 861.434 z" fill="rgb(252,250,247)" transform="translate(0,0)"></path>
<path d="M 296.792 1154.84 C 353.417 1134.81 409.854 1114.25 466.096 1093.18 C 468.207 1101.37 470.415 1110.79 472.922 1118.76 C 443.267 1130.89 413.411 1142.52 383.368 1153.65 C 376.44 1156.27 345.625 1167.48 341.699 1170 L 300.7 1170 C 299.457 1165.05 298.225 1159.71 296.792 1154.84 z" fill="rgb(0,0,68)" transform="translate(0,0)"></path>
<path d="M 370.263 1170 C 398.367 1157.29 442.377 1140.08 471.798 1128.51 C 467.491 1140.83 463.331 1153.19 459.317 1165.61 L 449.224 1170 L 370.263 1170 z" fill="rgb(0,0,68)" transform="translate(0,0)"></path>
<path d="M 440.32 1024.93 L 441.29 1024.89 C 446.227 1028.27 449.352 1042.39 451.297 1048.15 C 435.066 1057.09 416.426 1063.54 399.168 1070.25 C 374.948 1079.73 350.64 1089 326.247 1098.03 L 314.973 1101.83 C 317.825 1091 321.528 1080.33 324.911 1069.66 C 363.595 1055.4 401.699 1039.43 440.32 1024.93 z" fill="rgb(0,0,68)" transform="translate(0,0)"></path>
<path d="M 427.851 990.057 L 430.162 990.576 C 433.546 998.099 435.379 1006.83 437.654 1014.77 C 405.051 1029.45 370.666 1041.32 337.263 1054.06 C 334.781 1055.13 331.968 1055.83 329.391 1056.69 C 332.324 1045.31 335.969 1034.05 339.326 1022.79 C 368.711 1011.55 398.221 1000.64 427.851 990.057 z" fill="rgb(0,0,68)" transform="translate(0,0)"></path>
<path d="M 419.946 961.109 C 423.067 964.724 425.101 976.226 426.669 981.164 L 349.421 1009.6 C 347.478 1010.17 346.821 1010.53 344.826 1010.01 C 343.27 1002.71 349.928 989.85 352.63 982.75 C 375.167 975.846 397.608 968.632 419.946 961.109 z" fill="rgb(0,0,68)" transform="translate(0,0)"></path>
<path d="M 554.43 969.867 L 674.583 996.485 C 697.995 1001.87 721.712 1008.03 745.19 1012.87 C 729.906 1065.04 715.358 1117.42 701.551 1170 L 684.763 1170 L 636.142 1170 L 583.596 1170 L 520.034 1170 L 508.871 1170 C 516.258 1140.48 523.431 1110.9 530.389 1081.28 C 533.666 1066.72 536.6 1051.15 539.725 1036.48 C 543.698 1017.82 553.065 988.39 554.43 969.867 z" fill="rgb(13,148,136)" transform="translate(0,0)"></path>
<path d="M 531.953 1121.34 C 586.701 1133.06 635.959 1141.68 690.502 1155.89 L 684.763 1170 L 636.142 1170 C 620.466 1165.13 598.362 1161.48 582.017 1158.08 C 563.229 1154.16 543.873 1149.59 525.121 1146.06 L 531.953 1121.34 z" fill="rgb(0,0,68)" transform="translate(0,0)"></path>
<path d="M 522.941 1157.35 C 543.005 1161.48 563.658 1165.49 583.596 1170 L 520.034 1170 L 522.941 1157.35 z" fill="rgb(0,0,68)" transform="translate(0,0)"></path>
<path d="M 559.038 1013.5 C 581.847 1017.72 604.501 1024.52 627.175 1029.62 C 646.213 1033.8 665.219 1038.12 684.192 1042.59 C 695.41 1045.22 707.543 1047.39 718.211 1051.74 C 716.434 1058.78 714.294 1065.76 712.324 1072.75 C 695.867 1069.73 679.519 1065.45 663.134 1062 C 626.076 1054.56 589.109 1046.68 552.242 1038.35 C 554.356 1030.03 556.763 1021.77 559.038 1013.5 z" fill="rgb(0,0,68)" transform="translate(0,0)"></path>
<path d="M 540.63 1086.39 C 594.511 1097.69 648.822 1106.94 702.826 1117.63 L 696.749 1142.65 C 677.233 1139.74 657.505 1134 638.199 1129.69 C 603.83 1122.35 569.527 1114.71 535.294 1106.77 C 536.849 1100.02 538.03 1092.82 540.63 1086.39 z" fill="rgb(0,0,68)" transform="translate(0,0)"></path>
<path d="M 549.586 1050.24 C 602.072 1063.03 655.706 1073.46 708.785 1083.56 C 707.537 1089.64 706.717 1099.17 703.676 1104.39 C 685.223 1099.97 666.152 1097.16 647.474 1093.78 C 612.729 1087.43 577.933 1081.36 543.09 1075.58 C 544.74 1067.07 547.348 1058.62 549.586 1050.24 z" fill="rgb(0,0,68)" transform="translate(0,0)"></path>
<path d="M 566.688 981.292 C 620.835 994.662 675.247 1006.93 729.891 1018.09 C 728.332 1025.24 726.214 1032.26 724.225 1039.29 C 704.206 1033.43 683 1029.55 662.631 1025.01 C 628.807 1017.77 595.114 1009.94 561.567 1001.5 C 563.521 994.843 565.039 988.035 566.688 981.292 z" fill="rgb(0,0,68)" transform="translate(0,0)"></path>
<path d="M 0 111.085 L 68.253 113.997 C 79.2271 114.566 97.8469 116.248 108.021 116.028 L 111.313 117.425 L 111.783 119.557 C 108.028 155.683 129.87 222.972 140.369 259.827 L 169.591 362.666 C 153.314 365.26 133.423 365.925 116.774 366.533 C 77.964 367.949 38.6889 372.527 0 374.149 L 0 269.61 L 0 165.487 L 0 111.085 z" fill="rgb(252,250,247)" transform="translate(0,0)"></path>
<path d="M 0 165.487 L 13.2012 165.71 C 18.6886 199.036 24.6504 232.281 31.0848 265.437 C 35.064 285.846 40.4865 309.851 43.6867 330.136 C 34.5229 330.118 21.0205 329.71 12.2522 330.704 C 8.59194 313.939 4.24625 284.506 0 269.61 L 0 165.487 z" fill="rgb(0,0,68)" transform="translate(0,0)"></path>
<path d="M 34.0427 164.403 C 37.4756 163.905 45.0007 163.699 48.7599 163.477 L 68.8813 263.512 C 70.8271 272.729 81.8834 320.979 81.4876 326.924 C 78.6191 328.616 75.2327 328.246 71.753 328.312 L 56.0448 329.095 C 46.3652 286.452 36.5301 244.382 29.7749 201.142 C 28.5052 193.015 24.6114 173.454 25.3055 165.933 C 27.3378 164.654 31.4562 164.627 34.0427 164.403 z" fill="rgb(0,0,68)" transform="translate(0,0)"></path>
<path d="M 68.6915 161.592 C 73.0435 161.104 78.8319 160.98 83.3098 160.754 C 91.391 215.796 105.499 271.218 118.817 325.161 C 115.021 325.78 109.719 325.949 105.752 326.188 L 94.1759 327.015 C 79.7863 274.001 70.8219 216.427 59.3031 162.412 L 68.6915 161.592 z" fill="rgb(0,0,68)" transform="translate(0,0)"></path>
<path d="M 0 0 L 22.7185 0 L 27.0946 0 L 64.7084 0 L 71.3715 0 L 243.19 0 L 258.73 0 C 260.741 26.9975 262.171 54.0352 263.019 81.0942 C 263.761 108.872 263.563 139.031 265.171 166.451 C 250.771 167.461 236.2 167.267 221.757 167.56 C 188.37 168.51 154.96 168.293 121.588 166.909 C 121.979 161.567 119.429 151.449 118.17 145.931 C 162.866 148.85 209.328 150.006 254.256 152.12 C 253.854 144.428 253.367 136.741 252.794 129.06 C 210.985 125.029 158.671 121.826 116.77 120.561 C 115.447 118.216 115.904 116.715 115.874 113.743 L 115.077 112.845 C 111.687 111.646 103.741 112.017 99.7918 112.025 L 96.6449 111.953 L 0 107.234 L 0 0 z" fill="rgb(13,148,136)" transform="translate(0,0)"></path>
<path d="M 0 0 L 22.7185 0 L 27.0946 0 L 64.7084 0 C 70.072 22.0445 72.2081 50.9175 75.4055 73.5252 C 76.9588 84.5078 77.4691 95.6907 80.0096 106.681 C 83.9478 107.233 92.4592 108.193 95.9565 109.164 L 96.9443 109.956 L 96.6449 111.953 L 0 107.234 L 0 0 z" fill="rgb(252,250,247)" transform="translate(0,0)"></path>
<path d="M 22.7185 0 L 27.0946 0 C 28.8874 11.102 37.8999 103.196 34.7713 106.917 C 30.995 102.185 25.0994 15.8504 22.7185 0 z" fill="rgb(0,0,68)" transform="translate(0,0)"></path>
<path d="M 92.4992 88.04 C 116.981 87.8315 140.568 90.4932 164.993 91.68 C 193.502 92.8033 222.035 93.2199 250.565 92.9296 L 252.365 116.106 C 204.15 114.937 164.647 115.193 116.557 110.563 C 111.13 109.704 102.653 109.964 96.9443 109.956 L 95.9565 109.164 C 94.8798 102.947 93.1073 94.1072 92.4992 88.04 z" fill="rgb(0,0,68)" transform="translate(0,0)"></path>
<path d="M 71.3715 0 L 243.19 0 C 238.852 1.38347 215.677 2.05793 209.776 2.3843 C 183.781 3.82204 157.55 4.78043 131.556 6.5421 C 113.089 7.79367 95.0367 11.4169 76.4466 12.222 C 74.5431 8.23182 72.9874 4.11413 71.3715 0 z" fill="rgb(0,0,68)" transform="translate(0,0)"></path>
<path d="M 237.104 11.4246 L 247.194 10.9976 L 247.881 37.8062 C 198.077 38.2461 143.142 43.1668 92.2646 44.8914 L 87.4551 44.7987 C 83.566 41.9709 82.4339 26.3319 81.2799 20.0855 C 128.835 19.8005 188.842 14.5934 237.104 11.4246 z" fill="rgb(0,0,68)" transform="translate(0,0)"></path>
<path d="M 203.47 52.5 C 217.722 52.0363 232.934 52.1411 247.261 52.0027 L 249.326 77.0988 C 220.173 80.2883 164.263 78.4591 133.836 77.9375 C 120.483 76.4397 103.327 76.8367 89.7188 76.9709 C 88.9517 69.1326 87.8444 61.8795 86.6509 54.0947 C 126.177 52.9343 164.194 53.365 203.47 52.5 z" fill="rgb(0,0,68)" transform="translate(0,0)"></path>
<path d="M 590.701 0 L 645.745 0 L 649.629 0 L 675.322 0 C 679.19 9.36997 710.655 127.131 710.568 130.121 L 710.544 130.809 C 710.181 142.622 704.989 163.637 703.242 176.812 C 697.94 216.816 690.997 256.857 685.578 296.824 C 664.206 292.334 640.827 285.825 619.551 282.433 C 597.891 279.378 575.834 277.674 554.234 274.254 C 546.67 273.056 520.896 273.034 516.148 269.074 C 515.852 268.167 515.588 267.208 515.615 266.242 C 516.149 247.1 643.637 155.537 664.854 134.972 C 667.675 132.238 673.665 126.343 673.349 122.021 C 673.208 120.087 669.071 119.564 667.401 118.96 C 654.573 114.315 643.824 107.9 633.436 99.1615 C 594.944 66.7831 594.791 47.3312 590.701 0 z" fill="rgb(252,250,247)" transform="translate(0,0)"></path>
<path d="M 645.745 0 L 649.629 0 C 653.958 31.5744 655.387 57.1439 677.109 81.556 C 680.891 80.9588 683.538 80.2479 687.232 81.2553 L 687.565 82.499 C 684.334 84.871 679.807 84.7882 675.706 85.1319 C 653.183 67.0838 649.825 26.8053 645.745 0 z" fill="rgb(0,0,68)" transform="translate(0,0)"></path>
<path d="M 599.773 202.985 C 619.414 207.124 638.716 210.546 658.298 214.501 C 656.835 224.658 656.089 232.363 655.446 242.614 L 639.299 238.897 C 618.176 234.503 595.781 232.381 575.072 226.88 C 582.293 218.113 591.073 210.251 599.773 202.985 z" fill="rgb(0,0,68)" transform="translate(0,0)"></path>
<path d="M 637.301 167.779 C 642.579 168.307 646.731 169.134 651.846 169.932 C 655.888 170.595 659.918 171.33 663.934 172.135 C 662.22 182.684 660.951 193.051 659.358 203.533 C 653.267 201.913 647.129 200.479 640.952 199.231 C 630.549 197.493 620.699 195.051 609.903 193.402 C 618.864 184.679 627.999 176.136 637.301 167.779 z" fill="rgb(0,0,68)" transform="translate(0,0)"></path>
<path d="M 669.732 136.711 C 672.355 139.208 666.753 157.017 665.695 161.687 C 661.638 160.922 656.448 160.183 652.266 159.491 C 651.259 159.317 649.562 159.349 648.938 158.413 C 648.547 159.635 668.883 137.619 669.732 136.711 z" fill="rgb(0,0,68)" transform="translate(0,0)"></path>
<path d="M 0 819.1 C 38.3194 860.907 43.4284 924.058 44.1381 978.156 C 44.3595 995.035 50.5339 993.174 41.8934 1010.62 C 32.5949 1029.4 25.4831 1044.56 12.9744 1061.47 C 30.5042 1068.68 49.939 1073.52 68.2614 1078.57 C 120.071 1092.84 171.644 1102.84 223.983 1116.21 C 213.909 1127.5 212.976 1139.83 225.019 1149.69 C 239.079 1161.19 262.772 1162.91 279.417 1170 L 119.682 1170 L 116.309 1170 L 70.3709 1170 L 63.2487 1170 L 35.979 1170 L 19.9868 1170 L 0 1170 L 0 1150.46 L 0 1142.35 L 0 1120.82 L 0 1117.12 L 0 1014.83 L 0 1010.13 L 0 996.301 L 0 992.101 L 0 819.1 z" fill="rgb(252,250,247)" transform="translate(0,0)"></path>
<path d="M 0 1120.82 C 21.0112 1120.78 74.8283 1121.33 95.7659 1125.13 L 116.309 1170 L 70.3709 1170 L 63.2487 1170 L 35.979 1170 L 19.9868 1170 L 0 1170 L 0 1150.46 L 0 1142.35 L 0 1120.82 z" fill="rgb(252,250,247)" transform="translate(0,0)"></path>
<path d="M 0 1142.35 C 13.9718 1130.99 35.4154 1132.31 52.8614 1133.13 C 58.3585 1145.77 64.8202 1157.62 70.3709 1170 L 63.2487 1170 L 35.979 1170 L 19.9868 1170 L 0 1170 L 0 1150.46 L 0 1142.35 z" fill="rgb(13,148,136)" transform="translate(0,0)"></path>
<path d="M 16.6987 1141.77 C 25.8502 1139.2 29.8083 1137.74 39.3301 1135.92 C 47.1937 1144.86 57.7152 1159.25 63.2487 1170 L 35.979 1170 C 29.0886 1160.17 24.4774 1151.09 16.6987 1141.77 z" fill="rgb(0,0,68)" transform="translate(0,0)"></path>
<path d="M 0 1150.46 C 1.2234 1149.81 4.96957 1147.59 5.51638 1148.25 C 9.0381 1152.52 17.4157 1165.86 19.9868 1170 L 0 1170 L 0 1150.46 z" fill="rgb(0,0,68)" transform="translate(0,0)"></path>
<path d="M 0 1117.12 C 35.6424 1117.23 62.571 1118.99 97.9437 1121.18 L 119.682 1170 L 116.309 1170 L 95.7659 1125.13 C 74.8283 1121.33 21.0112 1120.78 0 1120.82 L 0 1117.12 z" fill="rgb(0,0,68)" transform="translate(0,0)"></path>
<path d="M 0 992.101 C 8.08781 993.521 16.2174 994.692 24.3772 995.612 C 21.9164 998.236 20.4759 999.495 17.7298 1001.82 C 11.5025 1007.6 6.79401 1010.35 0 1014.83 L 0 1010.13 L 0 996.301 L 0 992.101 z" fill="rgb(0,0,68)" transform="translate(0,0)"></path>
<path d="M 0 996.301 C 4.87467 997.291 11.1422 998.36 16.0551 999.12 C 10.8379 1002.74 5.4308 1006.92 0 1010.13 L 0 996.301 z" fill="rgb(252,250,247)" transform="translate(0,0)"></path>
<path d="M 532.837 930.513 C 592.336 943.503 652.155 954.977 712.238 964.925 C 736.479 968.908 760.458 971.434 785.007 975.641 C 779.821 1012.32 773.685 1042.51 761.437 1077.78 C 750.777 1108.47 738.432 1138.96 729.02 1170 L 701.551 1170 C 715.358 1117.42 729.906 1065.04 745.19 1012.87 C 721.712 1008.03 697.995 1001.87 674.583 996.485 L 554.43 969.867 C 553.065 988.39 543.698 1017.82 539.725 1036.48 C 536.6 1051.15 533.666 1066.72 530.389 1081.28 C 523.431 1110.9 516.258 1140.48 508.871 1170 L 470.249 1170 C 477.277 1138.87 483.036 1108.16 491.313 1077.31 C 504.51 1028.13 518.861 979.463 532.837 930.513 z" fill="rgb(252,250,247)" transform="translate(0,0)"></path>
<path d="M 441.548 901.791 C 479.991 880.421 516.508 860.031 554.62 837.991 C 546.127 862.461 540.161 875.134 528.878 898.858 C 544.846 902.963 571.644 906.802 588.47 909.494 C 665.708 921.851 716.637 926.668 785.045 968.48 C 785.804 968.932 790.904 971.906 791.246 972.212 C 799.142 976.508 806.031 980.369 813.653 985.118 C 795.332 1018.18 786.157 1107.97 784.332 1147.27 C 778.791 1146.53 762.187 1144.42 758.29 1148.16 C 764.594 1149.82 775.414 1148.86 784.201 1150.45 L 784.05 1170 L 733.323 1170 C 748.361 1118.2 773.225 1068.72 782.5 1015.03 C 784.654 1002.56 786.344 989.947 788.837 977.565 C 787.76 972.224 787.04 972.582 782.488 971.102 C 773.696 971.01 749.49 966.523 740.244 965.023 C 670.207 953.655 598.968 942.111 529.973 925.638 C 520.387 962.419 508.72 1001.19 498.132 1037.9 C 488.293 1019.81 483.508 1004.41 475.738 985.459 L 441.548 901.791 z" fill="rgb(252,250,247)" transform="translate(0,0)"></path>
<path d="M 1003.45 0 L 1061.16 0 C 1047.16 33.0179 1043.14 41.24 1024.01 72.4915 C 1018.92 50.3078 1009.98 22.1916 1003.45 0 z" fill="rgb(252,250,247)" transform="translate(0,0)"></path>
<path d="M 1178.41 154.459 L 1179.91 156.664 C 1176.1 159.964 1168.31 166.175 1164.11 169.498 C 1163.98 169.602 1163.89 169.518 1163.72 169.423 L 1163.7 169.214 C 1165.46 166.644 1175.85 156.815 1178.41 154.459 z" fill="rgb(193,194,220)" transform="translate(0,0)"></path>
<path d="M 310.575 1113.68 C 309.28 1119.53 306.699 1127.44 304.662 1133.09 L 303.92 1133.57 L 303.891 1133.74 L 304.326 1133.78 L 303.762 1134.4 C 303.661 1134.38 303.559 1134.35 303.457 1134.33 C 303.256 1134.06 303.354 1134.28 303.349 1133.46 L 303.782 1133.57 C 302.988 1131.74 308.421 1115.77 309.241 1112.63 L 310.575 1113.68 z" fill="rgb(115,120,163)" transform="translate(0,0)"></path>
<path d="M 866.435 988.713 L 868.192 989.206 C 863.81 998.575 862.544 997.087 866.435 988.713 z" fill="rgb(80,83,137)" transform="translate(0,0)"></path>
<path d="M 113.866 130.266 C 116.558 130.644 115.9 131.998 116.231 134.633 L 114.587 137.863 C 114.039 134.682 113.968 133.395 113.866 130.266 z" fill="rgb(80,83,137)" transform="translate(0,0)"></path>
<path d="M 866.435 988.713 C 867.179 986.993 867.892 985.348 868.697 983.654 L 870.229 984.06 C 869.269 986.106 868.902 987.055 868.192 989.206 L 866.435 988.713 z" fill="rgb(141,145,178)" transform="translate(0,0)"></path>
<path d="M 720.325 157.568 C 788.011 137.711 862.919 124.596 931.833 107.998 C 959.276 101.388 986.242 96.303 1013.39 88.0735 C 972.81 145.765 957.91 165.149 893.271 201.54 C 909.751 218.983 931.982 236.9 944.942 256.675 C 870.723 240.76 817.348 227.44 745.666 200.543 C 729.553 239.481 702.221 310.782 700.812 352.831 C 705.298 343.723 715.076 299.756 718.995 286.37 C 727.65 256.805 736.258 235.095 747.84 206.255 C 782.277 218.797 826.273 233.5 861.77 242.307 C 909.925 254.256 957.699 262.945 1005.71 277.199 C 1003.76 285.506 1000.03 296.169 997.495 304.65 L 980.232 362.805 C 963.444 419.229 948.08 476.068 934.156 533.267 C 914.443 540.698 889.893 551.941 870.155 560.495 L 868.87 561.321 C 844.043 573.996 815.71 588.249 789.874 597.908 C 770.029 605.326 748.32 609.561 728.118 616.952 C 730.059 625.118 735.744 640.077 738.531 648.52 C 747.117 674.527 756.043 699.379 767.575 724.244 C 728.275 703.511 689.24 688.178 647.854 672.165 C 648.565 620.767 660.931 559.473 676.242 510.494 C 692.11 459.732 707.486 435.235 708.102 379.107 C 670.244 352.71 631.219 336.861 587.012 324.386 C 572.103 320.179 552.597 316.453 538.771 310.574 C 527.341 305.714 521.754 286.094 518.037 275.025 C 552.908 280.175 590.419 280.956 625.333 287.55 C 646.673 291.579 668.169 296.665 689.388 301.392 C 690.567 284.071 695.018 259.069 697.653 241.457 C 702.546 206.88 707.884 172.367 713.665 137.927 C 715.972 143.762 718.307 151.461 720.325 157.568 z" fill="rgb(252,250,247)" transform="translate(0,0)"></path>
<path d="M 769.964 246.748 C 809.464 257.461 850.16 270.863 889.469 282.54 C 911.298 289.025 932.84 296.581 955.028 301.813 C 931.204 384.083 910.454 467.795 886.055 550.636 C 880.475 554.077 874.903 555.72 870.155 560.495 L 868.87 561.321 C 864.054 561.329 858.101 564.925 851.877 563.201 C 812.703 552.347 774.063 539.279 735.043 527.774 C 723.571 524.392 710.142 520.643 699.249 516.006 C 724.414 426.679 747.989 336.912 769.964 246.748 z" fill="rgb(13,148,136)" transform="translate(0,0)"></path>
<path d="M 739.614 405.357 C 792.161 420.378 848.675 439.973 900.855 457.092 C 898.362 465.235 896.065 473.437 893.967 481.691 C 875.83 474.799 853.252 468.406 834.425 462.563 C 800.767 452.016 767.027 441.733 733.208 431.715 C 735.513 423.149 737.545 414.022 739.614 405.357 z" fill="rgb(0,0,68)" transform="translate(0,0)"></path>
<path d="M 758.857 330.572 C 813.263 348.208 867.455 364.431 921.751 382.836 C 919.496 390.127 917.298 397.436 915.157 404.762 C 886.817 395.405 853.3 386.997 824.273 378.282 C 805.669 372.695 769.545 361.511 751.163 358.32 L 758.857 330.572 z" fill="rgb(0,0,68)" transform="translate(0,0)"></path>
<path d="M 728.719 444.513 C 780.454 459.81 838.691 479.101 890.028 496.787 C 888.005 503.817 884.669 512.644 882.222 519.694 C 869.693 514.982 852.868 510.013 839.878 505.88 C 800.278 493.695 760.594 481.785 720.829 470.151 C 723.211 461.73 726.111 452.911 728.719 444.513 z" fill="rgb(0,0,68)" transform="translate(0,0)"></path>
<path d="M 717.122 483.282 C 743.274 489.957 769.121 499.211 794.82 507.443 C 822.799 516.406 851.004 524.626 878.946 533.687 C 876.637 541.388 874.219 549.056 871.693 556.689 C 852.106 552.572 831.896 544.691 812.695 538.743 C 778.322 528.036 743.792 517.836 709.117 508.147 C 711.975 499.927 714.499 491.58 717.122 483.282 z" fill="rgb(0,0,68)" transform="translate(0,0)"></path>
<path d="M 748.535 367.618 C 802.005 385.641 859.623 401.273 911.475 419.529 C 909.152 426.653 906.993 434.462 904.85 441.694 C 896.207 442.737 765.627 398.431 742.314 392.998 L 748.535 367.618 z" fill="rgb(0,0,68)" transform="translate(0,0)"></path>
<path d="M 769.956 292.599 C 823.445 309.562 878.018 326.229 931.017 344.013 C 928.853 351.107 926.834 359.404 924.883 366.651 C 871.958 348.547 816.348 334.18 762.451 318.77 L 769.956 292.599 z" fill="rgb(0,0,68)" transform="translate(0,0)"></path>
<path d="M 779.024 258.385 C 830.764 275.733 887 290.14 939.911 307.457 C 938.531 313.004 935.28 321.936 933.381 327.613 C 931.588 327.994 786.396 282.922 773.064 279.043 C 776.13 271.051 777.329 266.664 779.024 258.385 z" fill="rgb(0,0,68)" transform="translate(0,0)"></path>
<path d="M 673.778 544.765 C 674.159 544.791 674.541 544.812 674.922 544.844 C 683.24 545.549 799.17 584.665 800.92 586.006 C 801.426 586.394 801.741 586.983 802.151 587.472 L 801.846 590.951 C 786.784 585.178 770.905 580.781 755.631 575.486 C 734.633 568.207 713.796 559.97 692.464 553.736 C 687.608 552.317 676.949 551.11 673.342 547.887 L 673.778 544.765 z" fill="rgb(0,0,68)" transform="translate(0,0)"></path>
<path d="M 608.116 661.262 C 660.981 679.95 720.639 704.578 770.343 730.621 C 777.162 743.455 783.277 755.374 791.748 767.15 C 823.626 811.464 865.777 845.086 905.944 881.312 C 920.755 894.67 936.598 904.452 953.903 914.468 C 965.432 906.553 976.284 901.379 988.948 895.421 C 983.626 907.75 975.709 925.021 971.631 937.453 L 997.412 946.064 C 999.805 938.3 1019.17 880.642 1022.87 878.486 C 1023.76 877.967 1024.75 877.569 1025.7 877.176 C 1034.29 872.725 1049.56 865.143 1058.52 862.137 C 1062.64 859.998 1067.58 857.884 1071.85 855.932 C 1077.19 852.749 1087.07 848.737 1092.74 846.408 C 1104.49 840.075 1132.35 827.476 1145.16 823.133 C 1139.05 799.949 1132.5 777.113 1121.97 755.43 C 1158.45 763.728 1195.12 771.165 1231.96 777.736 C 1256.76 782.295 1288.33 787.257 1312.53 792.946 C 1294.93 849.434 1276.86 905.497 1257.52 961.422 C 1247.9 989.225 1239.42 1019.29 1229.43 1046.69 C 1179.65 1027.65 1133.63 1017.26 1081.94 1004.99 C 1026.82 992.148 971.619 979.618 916.35 967.402 C 919.511 958.613 938.828 914.931 938.647 910.977 L 937.481 910.853 C 934.071 914.021 934.478 914.589 929.148 914.296 C 920.458 913.819 909.946 913.045 901.37 914.891 C 906.032 917.479 925.536 917.037 932.393 917.923 C 925.346 934.614 918.926 949.937 912.85 966.978 C 900.956 965.208 888.266 963.757 876.555 961.887 C 881.835 946.268 898.762 902.36 900.36 889.426 L 899.793 888.789 C 894.658 896.429 880.042 939.762 876.061 951.181 C 869.501 970.155 862.495 988.972 855.05 1007.62 C 846.685 1000.54 828.068 989.941 817.862 983.328 C 787.68 963.772 746.29 939.903 712.361 929.772 C 656.277 913.027 593.066 906.746 534.865 896.366 C 567.979 820.977 592.549 742.118 608.116 661.262 z" fill="rgb(252,250,247)" transform="translate(0,0)"></path>
<path d="M 1071.85 855.932 C 1077.19 852.749 1087.07 848.737 1092.74 846.408 L 1092.82 848.601 C 1095.39 852.123 1096.15 852.548 1100.29 853.902 C 1101.71 856.437 1101.12 857.7 1100.04 861.095 C 1096.48 872.288 1092.61 883.605 1088.85 894.726 C 1081.04 917.361 1073.36 940.041 1065.81 962.763 C 1057.55 960.829 1049.54 959.018 1041.41 956.581 C 1047.52 935.699 1054.05 914.941 1060.98 894.318 C 1064.46 883.812 1070.77 866.981 1072.95 856.626 L 1071.85 855.932 z" fill="rgb(0,0,68)" transform="translate(0,0)"></path>
<path d="M 1071.85 855.932 C 1077.19 852.749 1087.07 848.737 1092.74 846.408 L 1092.82 848.601 C 1087.08 851.605 1079.16 854.559 1072.95 856.626 L 1071.85 855.932 z" fill="rgb(193,194,220)" transform="translate(0,0)"></path>
<path d="M 1025.7 877.176 C 1034.29 872.725 1049.56 865.143 1058.52 862.137 C 1058.81 863.602 1058.9 863.599 1058.58 864.998 C 1049.88 893.616 1040.28 926.815 1030.14 954.752 C 1022.4 952.815 1013.85 950.845 1006.28 948.563 C 1011.62 930.772 1023.67 895.755 1027.16 878.966 L 1025.7 877.176 z" fill="rgb(0,0,68)" transform="translate(0,0)"></path>
<path d="M 1025.7 877.176 C 1034.29 872.725 1049.56 865.143 1058.52 862.137 C 1058.81 863.602 1058.9 863.599 1058.58 864.998 C 1053.63 865.357 1031.55 875.895 1027.16 878.966 L 1025.7 877.176 z" fill="rgb(115,120,163)" transform="translate(0,0)"></path>
<path d="M 1239.98 812.661 C 1248.55 814.938 1257.03 817.629 1265.53 820.164 C 1255.15 847.735 1246.89 876.607 1237.98 904.717 C 1227.33 938.333 1216.05 971.676 1206.84 1005.74 C 1198.75 1002.1 1190.19 999.358 1181.84 996.378 C 1189.88 966.823 1199.82 937.604 1208.61 908.242 C 1218.05 876.685 1226.38 842.673 1239.98 812.661 z" fill="rgb(0,0,68)" transform="translate(0,0)"></path>
<path d="M 1201.61 806.156 L 1228.57 813.483 C 1215.77 851.026 1203.56 888.77 1191.97 926.702 C 1185.13 948.483 1177.87 970.2 1172.15 992.307 C 1166.31 992.603 1152.16 986.655 1146.14 984.785 C 1152.52 959.293 1160.92 934.005 1168.72 908.924 C 1179.25 874.53 1190.21 840.271 1201.61 806.156 z" fill="rgb(0,0,68)" transform="translate(0,0)"></path>
<path d="M 1166.59 798.615 C 1175.14 799.778 1183.54 802.211 1191.9 804.34 C 1173.76 863.976 1153.19 923.167 1136.22 983.118 C 1127.3 980.731 1118.12 978.963 1109.11 976.921 C 1128.05 917.408 1148.26 858.317 1166.59 798.615 z" fill="rgb(0,0,68)" transform="translate(0,0)"></path>
<path d="M 674.106 719.314 C 682.911 722.801 691.809 726.051 700.79 729.059 C 690.448 764.07 680.336 799.148 670.455 834.292 C 665.85 850.459 662.022 867.269 656.362 883.076 C 647.277 880.592 638.147 878.27 628.978 876.112 C 644.351 824.228 661.987 772.031 674.106 719.314 z" fill="rgb(0,0,68)" transform="translate(0,0)"></path>
<path d="M 712.489 732.375 C 721.634 735.4 730.871 738.138 740.188 740.583 C 724.098 790.849 708.415 841.245 693.142 891.765 L 692.381 893.048 C 686.743 894.097 673.718 887.918 667.829 885.973 C 675.8 853.111 685.331 820.881 695.324 788.581 C 701.106 769.889 707.59 751.317 712.489 732.375 z" fill="rgb(0,0,68)" transform="translate(0,0)"></path>
<path d="M 643.181 707.217 L 666.712 717.043 C 652.526 769.944 634.615 822.004 617.309 873.945 L 592.191 867.269 L 643.181 707.217 z" fill="rgb(0,0,68)" transform="translate(0,0)"></path>
<path d="M 751.629 743.61 L 775.306 752.027 C 759.65 802.472 743.366 852.72 726.458 902.76 C 718.437 899.986 710.454 897.783 702.155 896.02 C 717.865 845.003 735.258 794.427 751.629 743.61 z" fill="rgb(0,0,68)" transform="translate(0,0)"></path>
<path d="M 785.045 762.863 L 803.931 789.903 C 797.732 812.482 789.406 834.851 781.959 857.073 C 775.55 876.198 769.822 898.252 760.422 916.077 L 758.788 915.516 C 751.203 912.695 743.763 909.777 736.417 906.375 C 747.684 877.07 756.921 846.716 766.431 816.788 C 772.18 798.697 777.635 780.365 785.045 762.863 z" fill="rgb(0,0,68)" transform="translate(0,0)"></path>
<path d="M 1144.1 830.948 L 1144.79 831.551 C 1146.52 837.349 1106.08 956.2 1101.1 971.912 L 1084.75 967.4 C 1081.89 966.57 1078.88 966.114 1076.93 963.708 C 1079.5 950.878 1085.15 937.71 1089.2 925.188 C 1097.86 898.78 1106.24 872.281 1114.33 845.695 C 1124.36 841.003 1134.29 836.086 1144.1 830.948 z" fill="rgb(0,0,68)" transform="translate(0,0)"></path>
<path d="M 811.351 805.472 C 818.125 810 824.376 819.8 830.395 825.866 C 826.299 841.04 802.206 928.026 793.251 934.004 C 786.355 930.393 778.957 927.413 771.863 924.186 C 783.866 884.238 797.034 844.65 811.351 805.472 z" fill="rgb(0,0,68)" transform="translate(0,0)"></path>
<path d="M 839.265 835.35 C 846.547 839.758 853.405 848.084 859.51 854.141 C 851.691 876.033 845.406 898.437 838.358 920.584 C 834.634 932.287 831.122 944.96 825.563 955.919 C 818.592 950.204 811.445 945.123 803.874 940.231 C 816.516 905.484 827.72 870.458 839.265 835.35 z" fill="rgb(0,0,68)" transform="translate(0,0)"></path>
<path d="M 107.548 736.756 C 139.91 739.385 170.686 748.048 202.306 754.795 C 259.387 766.974 316.239 779.673 373.538 790.817 C 369.783 815.216 366.219 839.645 362.846 864.1 C 359.459 890.422 356.712 916.425 351.523 942.518 C 342.91 985.828 328.98 1028.8 316.724 1071.24 C 310.672 1092.19 306.627 1114.14 298.965 1134.57 L 287.241 1130.68 C 199.004 1102.3 106.789 1089.11 18.8295 1060.17 C 36.2768 1035.88 66.6687 971.121 73.641 942.581 C 78.521 922.606 79.2151 898.033 81.8167 877.204 C 87.4155 833.093 93.4414 789.037 99.8936 745.043 L 107.548 736.756 z" fill="rgb(252,250,247)" transform="translate(0,0)"></path>
<path d="M 124.439 857.747 C 187.451 870.354 250.329 883.624 313.062 897.556 C 310.879 907.789 309.205 918.095 307.508 928.416 C 271.973 922.917 236.594 912.982 201.724 904.255 C 174.291 897.389 146.826 891.51 119.205 885.505 C 120.683 876.204 122.429 866.947 124.439 857.747 z" fill="rgb(0,0,68)" transform="translate(0,0)"></path>
<path d="M 97.9699 973.597 C 128.461 978.825 159.017 986.873 189.275 993.497 C 221.242 1000.5 253.636 1006.29 285.287 1014.58 C 282.248 1024.53 279.655 1034.64 276.924 1044.69 L 89.9538 999.902 L 97.9699 973.597 z" fill="rgb(0,0,68)" transform="translate(0,0)"></path>
<path d="M 88.0177 1010.54 C 109.421 1014.31 131.145 1020.8 152.281 1026 C 192.496 1035.9 232.681 1045.72 272.442 1057.36 C 269.027 1066.27 266.705 1075.58 264.195 1084.77 C 257.857 1086 217.719 1072.57 208.501 1069.95 C 166.19 1057.93 122.547 1051.05 80.4294 1038.21 C 83.567 1029.19 85.6861 1019.79 88.0177 1010.54 z" fill="rgb(0,0,68)" transform="translate(0,0)"></path>
<path d="M 132.2 820.21 C 194.205 834.01 257.086 843.31 319.043 856.941 C 317.042 866.258 315.848 875.897 314.303 885.31 C 294.064 880.828 273.335 878.111 252.971 874.142 L 126.395 848.481 C 128.189 839.036 129.843 829.533 132.2 820.21 z" fill="rgb(0,0,68)" transform="translate(0,0)"></path>
<path d="M 118.627 895.493 C 180.312 910.955 242.666 923.922 304.223 939.727 C 301.647 948.242 299.613 956.96 297.407 965.579 C 280.304 962.381 263.289 958.004 246.252 954.397 C 201.162 945.047 156.157 935.29 111.243 925.13 C 113.864 915.292 116.326 905.411 118.627 895.493 z" fill="rgb(0,0,68)" transform="translate(0,0)"></path>
<path d="M 108.57 935.603 C 170.39 950.374 233.077 961.779 294.69 977.353 C 292.377 986.161 290.124 994.985 287.933 1003.82 C 257.155 995.802 225.682 989.898 194.57 983.233 C 163.273 976.529 131.808 968.887 100.129 964.256 C 102.799 954.663 105.613 945.111 108.57 935.603 z" fill="rgb(0,0,68)" transform="translate(0,0)"></path>
<path d="M 137.834 779.902 C 200.157 794.217 262.125 810.124 324.387 824.743 C 322.991 832.085 321.86 839.494 320.627 846.867 C 301.762 844.156 282.9 839.79 264.173 836.189 C 220.52 827.796 177.347 818.864 134.085 808.598 C 135.384 799.039 136.633 789.474 137.834 779.902 z" fill="rgb(0,0,68)" transform="translate(0,0)"></path>
<path d="M 977.07 519.977 C 984.171 524.08 1001.82 594.743 1005.74 606.926 C 1016.17 639.359 1034.13 665.581 1059.45 688.239 C 1075.41 702.519 1091.25 715.938 1103.73 733.545 C 1122.62 760.189 1131.34 789.212 1139.82 820.319 C 1076.6 847.693 1013.31 876.944 952.68 909.606 C 942.479 901.022 929.765 896.286 919.406 887.865 C 875.225 847.224 823.127 808.694 790.303 757.832 C 763.429 716.188 748.04 665.641 732.886 618.774 C 754.935 611.216 777.736 606.444 799.593 598.136 C 826.983 587.724 852.101 572.742 878.789 560.841 C 911.194 546.391 944.833 534.678 977.07 519.977 z" fill="rgb(252,250,247)" transform="translate(0,0)"></path>
<path d="M 1000.64 682.977 L 1001.94 683.032 C 1006.97 685.756 1014.45 697.979 1019.08 703.033 C 1000.27 712.067 866.439 779.697 858.243 778.346 L 836.603 756.025 C 858.087 749.745 879.394 737.727 899.821 728.375 L 1000.64 682.977 z" fill="rgb(0,0,68)" transform="translate(0,0)"></path>
<path d="M 979.576 648.994 C 984.575 651.33 992.039 668.301 995.072 673.778 C 940.186 696.229 886.686 722.238 832.352 746.026 C 828.277 744.977 819.469 726.28 816.63 721.652 C 844.301 710.762 871.317 697.966 898.434 685.769 C 925.504 673.594 952.844 661.898 979.576 648.994 z" fill="rgb(0,0,68)" transform="translate(0,0)"></path>
<path d="M 1025.84 711.915 C 1031.18 712.543 1042.05 727.684 1045.97 732.079 C 1030.65 741.718 1014.08 749.259 997.824 757.146 C 979.98 765.847 962.182 774.643 944.431 783.534 C 933.043 789.211 906.919 804.358 896.625 807.784 L 893.442 805.963 C 884.681 800.682 876.418 794.866 868.228 788.747 C 920.027 761.758 973.288 737.395 1025.84 711.915 z" fill="rgb(0,0,68)" transform="translate(0,0)"></path>
<path d="M 947.898 585.001 C 952.27 587.791 957.398 601.657 959.991 606.779 C 907.224 631.757 852.137 652.157 798.855 676.075 C 798.713 676.041 798.561 676.035 798.428 675.973 C 794.664 674.222 787.921 653.439 786.057 648.904 C 806.514 639.407 828.304 631.763 849.302 623.443 C 882.072 610.46 914.792 597.102 947.898 585.001 z" fill="rgb(0,0,68)" transform="translate(0,0)"></path>
<path d="M 963.695 618.35 C 968.383 623.271 972.125 633.969 975.586 640.274 C 921.642 665.118 867.338 688.429 812.843 711.995 C 808.557 708.976 803.559 691.493 801.371 685.919 C 832.623 673.305 863.774 660.447 894.824 647.345 C 917.837 637.855 941.103 628.809 963.695 618.35 z" fill="rgb(0,0,68)" transform="translate(0,0)"></path>
<path d="M 1075.54 773.974 C 1075.83 774.038 1076.13 774.061 1076.41 774.165 C 1079.19 775.204 1088.96 793.623 1091.11 797.223 C 1043.41 822.264 994.98 845.931 947.333 871.128 C 942.205 863.08 936.488 855.423 930.228 848.219 C 946.583 838.369 964.012 829.975 980.953 821.172 C 1012.29 804.891 1043.6 789.02 1075.54 773.974 z" fill="rgb(0,0,68)" transform="translate(0,0)"></path>
<path d="M 1051.11 740.814 L 1052.45 740.826 C 1059 743.698 1066.4 756.949 1070.66 763.026 C 1054.83 772.081 1037.43 779.656 1021.03 787.691 C 988.675 803.545 956.651 819.401 925.424 837.425 L 924.602 837.742 C 920.848 836.303 910.294 820.583 906.308 816.133 C 923.955 804.91 943.195 795.921 961.781 786.382 L 1051.11 740.814 z" fill="rgb(0,0,68)" transform="translate(0,0)"></path>
<path d="M 1073.23 272.541 C 1072.95 268.186 1075.52 253.314 1078.48 250.346 L 1080.4 251.547 C 1113.59 267.892 1152.43 275.842 1186.96 290.447 C 1217.3 303.278 1248.56 316.733 1278.29 330.946 C 1294.55 338.715 1311.34 348.895 1327.51 357.091 C 1302.86 408.639 1275.65 466.289 1241.13 511.729 C 1203.12 561.74 1160.52 608.467 1122.49 658.982 C 1105.57 639.229 1088.45 619.641 1071.15 600.222 C 1044.57 570.072 998.202 512.014 954.79 498.521 C 954.376 498.501 953.962 498.481 953.548 498.461 C 956.094 502.619 975.495 511.954 980.925 515.419 C 967.198 520.345 952.374 526.645 938.917 531.155 C 942.502 517.173 968.371 410.564 974.35 405.036 C 985.214 403.641 988.925 397.349 997.202 392.816 C 1045.26 366.496 1061.86 325.27 1073.23 272.541 z" fill="rgb(13,148,136)" transform="translate(0,0)"></path>
<path d="M 1080.4 251.547 C 1113.59 267.892 1152.43 275.842 1186.96 290.447 C 1217.3 303.278 1248.56 316.733 1278.29 330.946 C 1294.55 338.715 1311.34 348.895 1327.51 357.091 C 1302.86 408.639 1275.65 466.289 1241.13 511.729 C 1203.12 561.74 1160.52 608.467 1122.49 658.982 C 1105.57 639.229 1088.45 619.641 1071.15 600.222 C 1044.57 570.072 998.202 512.014 954.79 498.521 C 954.376 498.501 953.962 498.481 953.548 498.461 C 956.094 502.619 975.495 511.954 980.925 515.419 C 967.198 520.345 952.374 526.645 938.917 531.155 C 942.502 517.173 968.371 410.564 974.35 405.036 C 985.214 403.641 988.925 397.349 997.202 392.816 C 1045.26 366.496 1061.86 325.27 1073.23 272.541 C 1076.75 303.007 1077.81 332.288 1069.7 361.559 C 1059.07 399.949 1034.31 397.776 1006.3 411.546 C 983.686 422.661 970.195 465.455 964.049 488.668 C 978.423 498.747 997.607 504.933 1009.71 514.155 C 1047.17 542.687 1088.4 579.061 1120.64 613.038 C 1133.8 597.263 1147.99 575.911 1161.27 561.719 C 1182.38 539.157 1196.52 519.619 1214.79 495.352 C 1245.49 454.577 1271.48 423.991 1280.74 372.315 C 1279.63 371.823 1278.53 371.319 1277.44 370.803 C 1262.61 363.83 1243.52 350.697 1228.98 343.039 C 1201.36 328.497 1090.07 278.465 1080.4 251.547 z" fill="rgb(252,250,247)" transform="translate(0,0)"></path>
<path d="M 994.435 449.32 C 998.03 451.034 1007.94 458.377 1011.75 460.837 C 1043.6 481.361 1069.27 507.084 1096.82 532.609 C 1104.92 540.111 1123.83 557.466 1132.89 562.473 C 1128.44 568.972 1124.1 575.547 1119.88 582.195 L 1117.92 584.873 C 1115.72 584.6 1027.88 501.49 1016.23 491.584 C 1006.71 483.489 996.538 476.434 986.049 469.666 C 988.319 463.374 991.807 455.609 994.435 449.32 z" fill="rgb(0,0,68)" transform="translate(0,0)"></path>
<path d="M 1016.87 424.757 C 1035.01 438.85 1055.67 451.372 1074.52 465.168 C 1103.99 486.734 1124.94 510.624 1150.46 535.834 C 1145.93 540.327 1141.62 545.205 1137.32 549.933 C 1123.52 539.292 1105.46 521.98 1091.31 510.103 C 1062.45 485.665 1032.36 462.719 1001.16 441.355 L 1016.87 424.757 z" fill="rgb(0,0,68)" transform="translate(0,0)"></path>
<path d="M 1093.04 319.191 C 1141.74 340.988 1201.71 377.391 1251.26 402.978 C 1249.12 408.1 1245.58 414.464 1242.97 419.5 L 1238.89 427.096 C 1219.34 413.653 1197.74 402.251 1178.05 388.496 C 1149.47 368.533 1119.19 350.703 1090.52 330.847 L 1093.04 319.191 z" fill="rgb(0,0,68)" transform="translate(0,0)"></path>
<path d="M 1043.8 411.01 C 1055.47 410.314 1164.52 501.328 1180.24 514.921 C 1177.35 518.06 1167.64 529.145 1164.34 530.084 C 1121.92 485.866 1074.42 453.682 1024.16 419.099 C 1030.75 416.494 1037.29 413.797 1043.8 411.01 z" fill="rgb(0,0,68)" transform="translate(0,0)"></path>
<path d="M 1077.22 392.951 C 1079.41 393.808 1097.81 407.342 1101.05 409.809 C 1131.55 433.026 1164.75 456.948 1193.96 481.539 C 1191.6 486.872 1188.58 499.768 1183.76 501.884 L 1179.92 498.781 C 1142.65 470.117 1095.73 429.991 1058.31 405.332 C 1065 401.346 1070.8 397.358 1077.22 392.951 z" fill="rgb(0,0,68)" transform="translate(0,0)"></path>
<path d="M 1093 296.832 C 1127.13 315.914 1169.31 329.147 1204.82 346.432 C 1222.13 354.859 1241.71 363.284 1259.41 370.733 C 1258 378.027 1257.34 384.124 1256.54 391.507 C 1254.76 391.623 1106.06 316.509 1091.81 310.483 C 1092.31 306.045 1092.63 301.305 1093 296.832 z" fill="rgb(0,0,68)" transform="translate(0,0)"></path>
<path d="M 1089.74 336.667 C 1109.25 352.47 1136.32 369.794 1157.03 384.864 C 1181.37 402.571 1208.24 423.046 1233.62 438.594 C 1230.63 442.075 1227.41 445.593 1224.35 449.034 L 1217.12 456.229 C 1203.91 443.915 1187.01 430.927 1173.13 419.109 C 1144.91 395.095 1116.31 372.237 1086.81 349.809 L 1089.74 336.667 z" fill="rgb(0,0,68)" transform="translate(0,0)"></path>
<path d="M 1084.8 359.443 C 1095.13 365.524 1126.02 392.827 1136.92 402.138 C 1159.22 421.203 1185.94 441.629 1206.93 461.297 L 1198.76 470.447 C 1197.05 470.714 1195.63 469.407 1194.26 468.289 C 1156.14 437.216 1117.71 408.573 1077.29 380.566 C 1079.86 374.073 1082.44 366.125 1084.8 359.443 z" fill="rgb(0,0,68)" transform="translate(0,0)"></path>
<path d="M 985.022 479.312 C 995.413 486.539 1005.64 492.511 1016.92 498.252 C 1016.72 499.013 1016.53 499.776 1016.34 500.541 C 1015.51 503.989 1014.87 508.734 1012.61 511.522 C 1001.61 505.347 990.283 500.115 979.022 494.457 C 980.977 489.39 983.22 484.438 985.022 479.312 z" fill="rgb(0,0,68)" transform="translate(0,0)"></path>
<path d="M 300.061 584.606 C 335.697 563.345 371.844 542.953 408.469 523.447 C 418.738 518.011 440.961 505.561 450.528 501.961 C 435.798 604.926 479.507 635.233 542.115 702.86 C 556.988 718.715 570.188 736.059 581.507 754.619 C 574.235 778.739 565.494 810.382 556.5 833.383 C 499.619 865.06 448.088 895.102 389.206 924.278 C 389.168 897.526 386.695 878.337 367.503 857.803 C 370.722 837.564 373.611 810.718 377.498 791.671 L 377.836 788.993 L 376.143 787.088 C 356.828 755.043 298.143 713.423 286.763 687.586 C 280.065 672.38 278.589 654.194 277.596 637.807 C 284.699 635.314 298.209 632.359 305.94 630.431 C 308.47 625.455 310.298 622.637 310.547 617.099 C 309.311 603.71 304.982 596.789 300.061 584.606 z" fill="rgb(13,148,136)" transform="translate(0,0)"></path>
<path d="M 300.061 584.606 C 335.697 563.345 371.844 542.953 408.469 523.447 C 418.738 518.011 440.961 505.561 450.528 501.961 C 435.798 604.926 479.507 635.233 542.115 702.86 C 556.988 718.715 570.188 736.059 581.507 754.619 C 574.235 778.739 565.494 810.382 556.5 833.383 C 499.619 865.06 448.088 895.102 389.206 924.278 C 389.168 897.526 386.695 878.337 367.503 857.803 C 370.722 837.564 373.611 810.718 377.498 791.671 C 382.055 796.203 412.083 850.844 419.176 861.877 C 440.86 856.093 465.078 834.726 484.716 822.796 C 507.404 808.757 530.889 796.048 555.052 784.734 C 556.141 748.698 551.233 731.559 525.601 706.342 C 517.552 697.918 509.457 685.045 501.125 677.236 C 463.234 641.722 437.448 611.795 425.866 560.054 C 400.146 573.865 371.136 583.86 344.993 597.534 C 337.633 601.298 330.502 605.493 323.635 610.096 C 320.257 612.388 313.13 618.785 311.496 619.426 L 310.547 617.099 C 309.311 603.71 304.982 596.789 300.061 584.606 z" fill="rgb(252,250,247)" transform="translate(0,0)"></path>
<path d="M 445.437 647.73 L 446.994 647.748 C 453.28 652.506 458.653 659.903 463.87 665.865 C 426.238 689.294 386.935 708.571 347.729 729.117 C 346.4 729.67 345.854 729.514 344.436 729.42 C 339.088 725.45 334.934 719.974 330.621 714.944 C 368.178 691.339 406.468 668.924 445.437 647.73 z" fill="rgb(0,0,68)" transform="translate(0,0)"></path>
<path d="M 423.932 624.875 C 428.525 625.662 437.691 636.774 441.874 640.47 C 424.274 654.106 402.771 664.237 382.953 674.319 C 363.001 684.381 343.114 694.572 323.293 704.892 L 322.737 705.062 C 317.155 703.42 310.093 690.932 306.647 686.134 C 346.113 666.432 385.214 646.009 423.932 624.875 z" fill="rgb(0,0,68)" transform="translate(0,0)"></path>
<path d="M 518.584 717.978 C 522.911 724.249 525.622 732.851 528.608 739.915 C 488.071 758.99 449.978 783.751 410.17 804.367 C 405.732 798.943 401.715 793.058 397.569 787.401 C 437.953 764.287 477.694 740.217 518.584 717.978 z" fill="rgb(0,0,68)" transform="translate(0,0)"></path>
<path d="M 411.267 593.888 C 413.895 595.323 418.194 611.701 419.96 615.905 C 404.591 626.177 387.748 634.263 371.336 642.712 L 308.345 675.401 C 306.751 676.107 306.51 676.22 304.799 675.977 C 302.372 669.296 302.246 661.149 301.295 654.069 C 333.646 632.442 376.122 611.939 411.267 593.888 z" fill="rgb(0,0,68)" transform="translate(0,0)"></path>
<path d="M 471.203 673.041 C 476.119 676.328 480.266 682.773 483.966 687.37 C 447.259 712.747 408.576 734.813 369.528 756.347 C 364.591 750.38 359.724 744.356 354.926 738.276 C 392.65 714.736 431.452 692.967 471.203 673.041 z" fill="rgb(0,0,68)" transform="translate(0,0)"></path>
<path d="M 490.264 692.04 C 496.415 694.945 504.704 705.516 509.816 710.643 C 471.869 731.722 434.185 753.271 396.772 775.284 C 394.795 776.677 393.509 777.59 391.073 777.852 C 385.537 774.773 382.378 767.887 379.093 762.61 C 395.404 751.798 412.398 741.896 428.926 731.406 C 449.451 718.379 469.549 704.794 490.264 692.04 z" fill="rgb(0,0,68)" transform="translate(0,0)"></path>
<path d="M 531.609 746.916 C 535.524 751.67 537.434 761.02 539.418 766.876 C 523.861 776.509 436.746 835.133 429.998 834.17 C 426.17 828.094 422.422 821.969 418.753 815.795 C 455.655 792.078 492.978 767.684 531.609 746.916 z" fill="rgb(0,0,68)" transform="translate(0,0)"></path>
<path d="M 530.12 307.494 C 535.738 311.37 545.634 322.852 554.836 329.377 C 580.721 347.732 602.561 351.871 629.602 363.02 C 624.878 379.594 613.24 402.098 607.333 418.892 C 600.33 438.802 599.147 447.037 589.135 466.09 C 606.547 473.974 627.567 482.012 645.492 488.871 C 648.377 481.409 651.265 471.193 653.7 463.379 C 640.531 456.291 617.006 447.181 602.838 442.142 L 606.75 430.819 C 618.253 437.937 641.887 448.894 654.695 455.343 L 658.527 431.903 C 653.989 429.357 616.149 410.837 615.803 410.343 C 616.865 407.122 616.643 405.894 618.99 404.132 C 624.878 405.55 653.569 419.603 660.996 423.074 C 662.734 416.043 666.192 406.372 668.509 399.286 C 660.753 395.65 639.228 381.498 629.326 375.942 C 633.442 366.36 636.762 360.412 624.568 356.57 C 596.497 347.724 570.253 337.139 547.343 318.255 C 591.404 327.865 634.064 343.042 674.294 363.422 C 684.508 368.879 693.613 374.743 703.365 380.925 C 702.734 436.629 686.175 461.557 670.855 512.3 C 655.637 562.706 645.02 617.897 643.741 670.561 C 599.821 654.031 549.798 639.902 502.588 640.106 C 460.847 602.202 450.268 554.829 455.413 500.026 C 469.275 494.759 485.382 489.843 499.613 484.865 C 527.576 474.957 555.416 464.703 583.125 454.106 C 578.744 441.206 571.746 426.926 567.144 413.576 C 555.105 378.66 541.159 342.599 530.12 307.494 z" fill="rgb(252,250,247)" transform="translate(0,0)"></path>
<path d="M 479.464 527.418 C 526.435 536.118 574.596 551.427 619.665 567.258 C 617.992 575.348 616.186 583.41 614.249 591.442 C 597.53 588.011 580.556 581.774 564.126 576.985 C 534.365 568.309 504.699 560.258 474.462 553.396 C 475.852 544.645 477.407 536.038 479.464 527.418 z" fill="rgb(0,0,68)" transform="translate(0,0)"></path>
<path d="M 507.004 493.827 C 518.365 499.898 533.191 501.819 545.58 505.699 C 573.021 514.584 600.389 523.692 627.682 533.022 L 622.234 557.857 L 609.482 553.967 C 568.386 539.675 525.996 531.774 484.563 519.081 C 490.431 509.358 498.038 500.797 507.004 493.827 z" fill="rgb(0,0,68)" transform="translate(0,0)"></path>
<path d="M 474.258 561.871 C 497.28 567.948 520.639 572.781 543.609 579.05 C 566.597 585.324 589.345 592.984 612.172 599.868 C 610.401 606.091 609.251 612.428 608.034 618.776 C 607.834 619.84 607.377 620.823 606.982 621.828 C 602.483 622.938 519.899 598.659 511.034 595.654 C 500.423 592.058 490.217 587.594 479.987 583.054 C 477.803 576.024 475.813 569.069 474.258 561.871 z" fill="rgb(0,0,68)" transform="translate(0,0)"></path>
<path d="M 567.729 473.24 C 580.986 471.417 626.421 491.845 640.473 498.076 C 636.961 506.573 633.533 515.104 630.189 523.667 L 606.721 515.949 L 552.775 497.222 C 542.729 493.731 531.89 490.673 522.462 485.734 C 536.486 479.146 552.624 476.131 567.729 473.24 z" fill="rgb(0,0,68)" transform="translate(0,0)"></path>
<path d="M 277.596 637.807 C 278.589 654.194 280.065 672.38 286.763 687.586 C 298.143 713.423 356.828 755.043 376.143 787.088 C 318.025 776.049 261.79 763.904 204.068 751.161 C 171.424 743.955 144.758 736.814 111.397 733.239 C 162.668 679.889 190.471 659.443 262.415 642.183 C 256.59 645.61 252.147 648.463 246.584 652.307 C 245.247 697.119 271.224 728.622 301.236 758.843 C 304.632 762.262 307.678 766.128 311.704 768.824 L 312.798 768.151 C 312.231 762.114 284.562 736.003 278.549 728.396 C 259.033 703.709 251.323 684.969 250.049 653.79 C 256.478 649.406 270.755 641.251 277.596 637.807 z" fill="rgb(252,250,247)" transform="translate(0,0)"></path>
<path d="M 490.099 642.004 C 528.912 643.096 567.081 650.094 604.496 660.324 C 599.73 684.095 594.121 707.69 587.68 731.064 C 586.209 737.383 584.307 743.667 582.611 749.934 C 557.774 708.863 521.101 678.052 490.099 642.004 z" fill="rgb(252,250,247)" transform="translate(0,0)"></path>
<path d="M 1003.84 301.063 C 1018.93 310.3 1034.73 321.521 1050.22 331.226 C 1040.16 355.705 1025.03 369.155 1003.93 383.869 C 993.491 389.92 983.729 396.619 973.725 403.336 C 980.529 377.004 988.786 350.752 996.117 324.535 C 998.257 316.885 1000.83 308.331 1003.84 301.063 z" fill="rgb(252,250,247)" transform="translate(0,0)"></path>
<path d="M 352.184 441.287 C 364.189 445.234 376.468 450.984 388.479 455.187 C 406.499 461.492 418.701 477.173 425.771 494.609 C 417.34 493.257 409.722 492.133 401.237 491.223 C 376.515 488.143 347.019 485.281 321.916 482.652 C 338.112 471.936 346.676 459.593 352.184 441.287 z" fill="rgb(252,250,247)" transform="translate(0,0)"></path>
<path d="M 1061.54 291.275 C 1061.62 291.252 1064.79 290.301 1064.52 291.362 C 1061.44 303.313 1057.14 316.149 1052.59 327.612 C 1044.46 322.63 1036.32 316.853 1028.31 311.999 C 1021.21 307.046 1012.65 302.37 1006.26 296.755 C 1028.89 295.733 1039.2 295.073 1061.54 291.275 z" fill="rgb(252,250,247)" transform="translate(0,0)"></path>
<path d="M 452.928 551.061 C 456.465 573.033 466.507 602.739 479.939 620.764 C 483.044 624.931 491.945 633.971 495.894 638.074 C 492.325 639.486 486.708 638.074 484.258 635.076 C 465.89 612.594 453.247 580.16 452.061 551.566 L 452.928 551.061 z" fill="rgb(252,250,247)" transform="translate(0,0)"></path>
<path d="M 1010.57 274.397 C 1015.79 278.795 1022.41 285.11 1026.03 291.039 C 1026.65 292.04 1023.47 291.948 1023.25 291.953 C 1017.48 292.142 1011.72 292.369 1005.96 292.634 C 1007.48 286.452 1008.83 280.567 1010.57 274.397 z" fill="rgb(252,250,247)" transform="translate(0,0)"></path>
<path d="M 452.061 551.566 C 451.423 549.673 450.112 545.054 451.607 543.429 C 453.509 544.685 453.023 549.13 452.928 551.061 L 452.061 551.566 z" fill="rgb(80,83,137)" transform="translate(0,0)"></path>
<path d="M 352.898 435.99 C 358.057 437.001 357.36 437.092 361.617 440.037 C 358.92 439.507 357.147 439.444 354.972 437.683 L 352.898 435.99 z" fill="rgb(115,120,163)" transform="translate(0,0)"></path>
<metadata><recraft-signature>{"signed_by": "recraft", "signature_b64": "7BqNKhMS1XYuKc7hxiKCbdf44+fT/86KhTHoK+0jCVUOLMWsNhR+Z+rw2kE6HmVLLId/JQgOazq73mtQhE2RAg==", "signing_algo": "Ed25519", "generation_timestamp": 1781848354, "identifier": "b541d7ea-ded5-4d85-b6f0-8c8ba0bd9a8b"}</recraft-signature></metadata></svg>