<svg xmlns="http://www.w3.org/2000/svg" height="768" preserveAspectRatio="none" style="display: block;" version="1.1" viewBox="0 0 2048 1170" width="1344">
<defs>
	<linearGradient gradientUnits="userSpaceOnUse" id="Gradient1" x1="211.354" x2="210.705" y1="1165.91" y2="1163.33">
		<stop class="stop0" offset="0" stop-color="rgb(135,134,151)" stop-opacity="1"></stop>
		<stop class="stop1" offset="1" stop-color="rgb(190,193,205)" stop-opacity="1"></stop>
	</linearGradient>
</defs>
<path d="M 0 0 L 45.3281 0 L 114.134 0 L 116.453 0 L 151.94 0 L 154.239 0 L 186.915 0 L 189.241 0 L 231.114 0 L 263.926 0 L 267.352 0 L 347.575 0 L 351.775 0 L 378.608 0 L 442.072 0 L 450.136 0 L 514.094 0 L 628.156 0 L 636.223 0 L 664.35 0 L 783.005 0 L 785.391 0 L 825.404 0 L 828.479 0 L 883.615 0 L 916.076 0 L 920.151 0 L 1026.36 0 L 1030.09 0 L 1044.05 0 L 1137.82 0 L 1145.53 0 L 1201.97 0 L 1217.14 0 L 1220.27 0 L 1734.45 0 L 1738.23 0 L 1762.19 0 L 1824.09 0 L 1827.21 0 L 1864.1 0 L 1866.98 0 L 1911.64 0 L 1914.22 0 L 1956.75 0 L 1959.33 0 L 2000.51 0 L 2003 0 L 2048 0 L 2048 44.9733 L 2048 72.8087 L 2048 77.1318 L 2048 1170 L 905.616 1170 L 898.681 1170 L 878.385 1170 L 874.689 1170 L 843.617 1170 L 839.737 1170 L 814.081 1170 L 784.567 1170 L 780.405 1170 L 748.01 1170 L 744.264 1170 L 708.05 1170 L 704.271 1170 L 665.474 1170 L 661.912 1170 L 624.962 1170 L 621.214 1170 L 578.874 1170 L 575.095 1170 L 506.545 1170 L 344.852 1170 L 341.303 1170 L 312.985 1170 L 204.939 1170 L 199.842 1170 L 122.895 1170 L 118.509 1170 L 79.5655 1170 L 62.2064 1170 L 58.9235 1170 L 0 1170 L 0 637.956 L 0 628.867 L 0 446.669 L 0 356.058 L 0 337.515 L 0 333.493 L 0 0 z" fill="rgb(252,250,247)" transform="translate(0,0)"></path>
<path d="M 664.35 0 L 783.005 0 L 785.391 0 L 825.404 0 L 828.479 0 L 883.615 0 C 899.435 29.25 913.421 59.213 927.789 89.196 L 791.273 171.854 C 760.262 190.873 729.531 210.846 698.079 229.145 C 689.785 212.668 678.552 183.187 670.74 165.261 C 650.934 120.022 630.721 74.9628 610.102 30.0884 C 624.955 20.5731 647.635 9.84964 664.35 0 z" fill="rgb(0,0,68)" transform="translate(0,0)"></path>
<path d="M 783.005 0 L 785.391 0 C 797.596 24.1676 810.122 48.1716 822.966 72.0055 C 826.207 78.1659 837.938 99.6228 839.606 105.502 C 835.565 103.582 787.622 10.6925 783.005 0 z" fill="rgb(252,250,247)" transform="translate(0,0)"></path>
<path d="M 825.404 0 L 828.479 0 C 833.527 9.49423 871.974 79.8027 871.644 83.0855 C 867.277 79.4157 830.558 9.44528 825.404 0 z" fill="rgb(252,250,247)" transform="translate(0,0)"></path>
<path d="M 669.247 31.5434 C 675.274 34.5726 713.821 122.228 720.96 134.054 C 723.084 137.572 733.747 160.593 734.983 165.361 C 731.395 164.203 724.061 146.402 722.112 142.331 L 701.893 100.381 C 694.738 85.5903 673.249 44.2425 669.247 31.5434 z" fill="rgb(252,250,247)" transform="translate(0,0)"></path>
<path d="M 743.347 1.1791 C 746.925 2.97157 805.627 118.654 806.076 126.2 C 802.271 121.806 744.22 5.79259 743.347 1.1791 z" fill="rgb(252,250,247)" transform="translate(0,0)"></path>
<path d="M 708.527 24.4548 C 713.436 25.8392 728.713 61.0344 731.923 67.747 C 744.111 93.1695 756.61 118.442 769.417 143.558 C 768.726 143.406 768.329 143.351 767.649 143.048 C 763.445 141.174 713.973 37.679 708.527 24.4548 z" fill="rgb(252,250,247)" transform="translate(0,0)"></path>
<path d="M 1734.45 0 L 1738.23 0 L 1762.19 0 L 1824.09 0 L 1827.21 0 L 1864.1 0 L 1866.98 0 L 1911.64 0 L 1914.22 0 L 1956.75 0 L 1959.33 0 L 2000.51 0 L 2003 0 L 2048 0 L 2048 44.9733 L 2048 72.8087 L 2048 77.1318 L 1923.81 165.779 C 1903.76 180.183 1877.32 198.092 1858.35 213.193 C 1853.72 205.36 1848.42 196.807 1844.17 188.849 L 1770.89 62.2267 C 1760.72 44.7525 1742.83 17.1152 1734.45 0 z" fill="rgb(0,0,68)" transform="translate(0,0)"></path>
<path d="M 2048 44.9733 L 2048 72.8087 C 1987.14 115.573 1918.1 163.181 1859.6 208.015 C 1855.27 201.085 1850.74 194.136 1847.08 186.835 C 1851.64 181.826 1882.12 159.6 1888.6 154.796 C 1940.43 116.331 1993.6 79.7006 2048 44.9733 z" fill="rgb(252,250,247)" transform="translate(0,0)"></path>
<path d="M 1824.09 0 L 1827.21 0 C 1840.59 26.2513 1859.44 54.2849 1873.83 80.2315 C 1880.46 92.1824 1888.81 103.959 1893.96 116.656 C 1890.55 115.621 1830.9 11.7062 1824.09 0 z" fill="rgb(252,250,247)" transform="translate(0,0)"></path>
<path d="M 1864.1 0 L 1866.98 0 C 1874.85 15.3335 1921.18 84.6716 1922.45 92.8549 C 1916.99 87.0405 1904.88 66.7786 1900.08 58.9455 C 1888.22 39.5835 1875.18 19.6747 1864.1 0 z" fill="rgb(252,250,247)" transform="translate(0,0)"></path>
<path d="M 1911.64 0 L 1914.22 0 C 1923.39 17.3695 1944.92 55.5497 1950.97 72.5641 L 1950.62 73.2539 C 1939.79 56.6934 1921.37 18.6898 1911.64 0 z" fill="rgb(252,250,247)" transform="translate(0,0)"></path>
<path d="M 1738.23 0 L 1762.19 0 C 1756.36 4.35063 1750.98 7.86891 1744.8 11.6297 C 1742.56 7.76519 1740.47 3.82317 1738.23 0 z" fill="rgb(252,250,247)" transform="translate(0,0)"></path>
<path d="M 1956.75 0 L 1959.33 0 C 1962.64 7.03431 1984.83 51.4149 1983.72 54.0917 C 1982.51 54.3633 1981.4 52.5188 1981.01 51.6044 C 1973.44 34.1844 1964.71 17.2569 1956.75 0 z" fill="rgb(252,250,247)" transform="translate(0,0)"></path>
<path d="M 2000.51 0 L 2003 0 C 2005.21 4.98783 2021.43 34.0535 2019.6 36.0389 C 2017.37 35.6105 2002.42 4.16165 2000.51 0 z" fill="rgb(203,204,212)" transform="translate(0,0)"></path>
<path d="M 1792.93 16.925 C 1796.28 19.2696 1865.45 130.48 1866.24 135.159 C 1863.26 133.326 1794 23.8178 1792.93 16.925 z" fill="rgb(252,250,247)" transform="translate(0,0)"></path>
<path d="M 44.2745 1035.12 L 191.722 956.295 C 209.504 991.159 228 1025.65 247.196 1059.76 C 268.54 1096.84 291.55 1133.02 312.985 1170 L 204.939 1170 L 199.842 1170 L 122.895 1170 L 118.509 1170 L 79.5655 1170 L 55.1497 1077.52 C 52.0786 1065.83 46.3052 1046.19 44.2745 1035.12 z" fill="rgb(0,0,68)" transform="translate(0,0)"></path>
<path d="M 118.509 1170 C 128.347 1163.36 142.57 1156.4 153.366 1150.87 C 172.236 1141.18 191.174 1131.63 210.179 1122.21 C 216.876 1118.84 232.06 1109.84 237.914 1108.16 L 239.09 1108.58 C 233.759 1114.19 139.343 1160.59 122.895 1170 L 118.509 1170 z" fill="rgb(203,204,212)" transform="translate(0,0)"></path>
<path d="M 212.967 1163.17 C 220.553 1158.86 249.426 1144.07 258.682 1140.97 C 258.986 1140.87 259.115 1141.07 259.361 1141.35 C 259.404 1141.57 259.408 1141.84 259.241 1141.93 C 248.516 1147.92 224.967 1159.63 215.039 1164.27 L 212.967 1163.17 z" fill="rgb(203,204,212)" transform="translate(0,0)"></path>
<path d="M 199.842 1170 C 203.568 1167.91 209.032 1164.79 212.967 1163.17 L 215.039 1164.27 C 211.365 1166.63 208.284 1167.8 204.939 1170 L 199.842 1170 z" fill="url(#Gradient1)" transform="translate(0,0)"></path>
<path d="M 230.255 1072.16 L 230.505 1073.41 C 226.366 1078.36 112.734 1134.79 95.9263 1144.07 L 96.0593 1142.18 C 101.824 1136.55 215.557 1078.74 230.255 1072.16 z" fill="rgb(203,204,212)" transform="translate(0,0)"></path>
<path d="M 197.133 1012.03 L 197.959 1012.9 C 195.998 1015.9 85.7023 1070.14 72.8008 1076.76 L 72.1005 1075.89 C 75.5343 1070.38 182.481 1018.88 197.133 1012.03 z" fill="rgb(252,250,247)" transform="translate(0,0)"></path>
<path d="M 206.25 1043.87 C 207.218 1043.82 207.491 1044.02 208.334 1044.45 C 204.478 1048.36 98.9299 1101.69 86.4208 1108.24 L 84.8709 1108.86 L 83.7325 1108.06 C 86.3896 1103.49 192.582 1050.73 206.25 1043.87 z" fill="rgb(203,204,212)" transform="translate(0,0)"></path>
<path d="M -2.27374e-13 356.058 C 33.3127 334.313 67.078 313.269 101.273 292.941 C 117.655 283.086 139.614 270.994 155.097 260.706 C 164.899 277.535 174.513 294.463 183.431 311.781 C 197.491 339.084 215.143 365.013 228.999 392.361 C 201.643 406.744 174.317 423.196 147.784 439.151 C 110.192 461.756 74.9756 489.682 37.5458 512.557 C 26.2431 490.611 13.5957 467.309 0 446.669 L 0 356.058 z" fill="rgb(9,254,219)" transform="translate(0,0)"></path>
<path d="M 9.03003 361.612 C 11.9347 363.161 22.7611 387.354 25.1739 392.238 L 55.1865 453.204 C 57.9519 458.888 68.3091 477.697 67.9986 482.7 L 67.1232 482.222 C 66.6887 481.988 65.2181 481.204 64.8352 480.437 C 45.7376 442.203 26.7908 403.519 8.33473 364.974 C 8.6234 363.578 8.85517 362.457 9.03003 361.612 z" fill="rgb(0,0,68)" transform="translate(0,0)"></path>
<path d="M 63.1618 332.392 C 64.6563 333.111 65.8656 333.508 66.7015 335.045 C 83.7082 366.307 100.137 397.921 116.451 429.554 C 118.76 434.03 121.398 438.72 122.955 443.501 L 119.861 442.186 C 117.212 438.222 105.751 417.229 103.925 412.754 C 98.9965 400.677 62.743 338.9 63.1618 332.392 z" fill="rgb(0,0,68)" transform="translate(0,0)"></path>
<path d="M 87.4544 313.416 L 90.2021 314.236 C 93.6869 318.06 146.805 417.026 147.189 423.406 C 144.501 422.767 90.5163 322.872 87.4544 313.416 z" fill="rgb(0,0,68)" transform="translate(0,0)"></path>
<path d="M 34.6168 352.428 C 36.1453 352.623 36.9621 352.92 38.4262 353.338 C 43.3565 361.787 91.8089 455.404 93.1186 462.281 C 92.4883 462.22 92.1334 462.222 91.5058 461.974 C 88.9594 460.967 37.5316 360.913 34.6168 352.428 z" fill="rgb(0,0,68)" transform="translate(0,0)"></path>
<path d="M 142.543 277.595 C 146.521 280.055 201.802 383.114 202.085 388.534 C 198.707 386.75 197.488 384.04 195.779 380.772 C 178.29 347.321 159.597 314.449 142.255 280.95 C 142.255 280.95 142.518 277.89 142.543 277.595 z" fill="rgb(0,0,68)" transform="translate(0,0)"></path>
<path d="M 116.979 297.715 C 120.682 298.548 175.375 395.28 177.228 403.419 L 175.208 402.833 C 171.198 399.191 118.042 303.269 116.979 297.715 z" fill="rgb(0,0,68)" transform="translate(0,0)"></path>
<path d="M 45.3281 0 L 114.134 0 L 116.453 0 L 151.94 0 L 154.239 0 L 186.915 0 L 189.241 0 L 231.114 0 C 241.61 23.8615 256.597 51.3505 268.875 74.8123 C 200.747 109.976 141.51 147.224 76.2914 187.006 C 52.7064 130.286 29.7071 73.3245 7.29689 16.1301 C 17.7546 11.9938 35.6752 5.1233 45.3281 0 z" fill="rgb(0,0,68)" transform="translate(0,0)"></path>
<path d="M 114.134 0 L 116.453 0 L 118.936 5.00468 C 130.745 27.3901 142.319 49.8987 153.657 72.5266 C 157.37 79.9275 165.973 95.9383 167.984 102.982 L 167.292 103.29 C 162.778 97.2326 153.562 77.6415 149.782 70.0905 C 139.208 48.836 128.405 27.6957 117.377 6.67332 L 114.134 0 z" fill="rgb(252,250,247)" transform="translate(0,0)"></path>
<path d="M 151.94 0 L 154.239 0 C 159.305 10.6874 194.997 83.172 194.763 88.7057 C 181.347 65.2691 163.513 25.3582 151.94 0 z" fill="rgb(252,250,247)" transform="translate(0,0)"></path>
<path d="M 186.915 0 L 189.241 0 C 195.946 13.4423 203.371 26.7725 210.425 40.0442 C 216.082 50.6877 223.277 61.1829 226.779 72.7461 C 222.268 69.1226 191.281 8.74023 186.915 0 z" fill="rgb(252,250,247)" transform="translate(0,0)"></path>
<path d="M 77.8219 5.26158 L 80.7433 6.2153 C 86.5406 14.5819 104.69 50.7741 109.682 61.0538 C 117.356 76.8567 135.855 110.035 141.505 125.404 C 136.503 123.483 89.6908 24.2236 82.1562 12.9004 C 81.4632 11.859 78.6594 6.66028 77.8219 5.26158 z" fill="rgb(252,250,247)" transform="translate(0,0)"></path>
<path d="M 49.2439 20.5521 C 54.5232 23.2688 84.4835 88.1846 91.0718 98.9671 C 94.5242 104.617 106.872 129.47 109.516 136.536 C 109.298 136.445 109.07 136.376 108.862 136.264 C 104.522 133.931 53.0592 31.1771 49.2439 20.5521 z" fill="rgb(252,250,247)" transform="translate(0,0)"></path>
<path d="M 506.545 1170 C 522.018 1160.02 537.593 1151.24 553.393 1141.87 C 610.892 1107.77 669.77 1074.85 724.846 1036.93 C 754.376 1087.22 782.549 1122.89 814.081 1170 L 784.567 1170 L 780.405 1170 L 748.01 1170 L 744.264 1170 L 708.05 1170 L 704.271 1170 L 665.474 1170 L 661.912 1170 L 624.962 1170 L 621.214 1170 L 578.874 1170 L 575.095 1170 L 506.545 1170 z" fill="rgb(9,254,219)" transform="translate(0,0)"></path>
<path d="M 780.405 1170 C 766.187 1145.59 751.667 1121.36 736.847 1097.31 C 733.585 1091.93 716.64 1064.62 715.257 1059.85 L 716.992 1059.21 C 721.848 1063.38 776.975 1157.08 784.567 1170 L 780.405 1170 z" fill="rgb(0,0,68)" transform="translate(0,0)"></path>
<path d="M 744.264 1170 C 737.485 1159.04 690.087 1082.25 691.433 1076.21 C 697.763 1081.13 705.977 1098.93 710.307 1106.33 C 721.021 1124.66 731.817 1143 742.878 1161.13 C 744.486 1163.76 746.823 1167.24 748.01 1170 L 744.264 1170 z" fill="rgb(0,0,68)" transform="translate(0,0)"></path>
<path d="M 704.271 1170 C 698.627 1161 659.023 1099.21 658.865 1095.45 L 659.779 1094.65 C 664.655 1098.5 703.478 1161.49 708.05 1170 L 704.271 1170 z" fill="rgb(0,0,68)" transform="translate(0,0)"></path>
<path d="M 661.912 1170 C 651.472 1154.1 640.761 1136.85 632.197 1120.06 C 631.855 1119.39 633.403 1118.51 634.452 1118.94 C 636.558 1119.81 637.084 1122.23 638.222 1124.29 C 646.825 1139.88 656.716 1154.48 665.474 1170 L 661.912 1170 z" fill="rgb(0,0,68)" transform="translate(0,0)"></path>
<path d="M 621.214 1170 L 620.871 1169.37 C 614.941 1158.56 605.536 1148.13 600.353 1137.23 C 600.145 1136.8 602.423 1135.33 603.302 1136.67 C 610.095 1146.99 619.53 1159.03 624.962 1170 L 621.214 1170 z" fill="rgb(0,0,68)" transform="translate(0,0)"></path>
<path d="M 575.095 1170 C 573.497 1166.41 562.916 1149.45 570.276 1152.03 C 571.402 1152.43 578.109 1167.93 578.874 1170 L 575.095 1170 z" fill="rgb(0,0,68)" transform="translate(0,0)"></path>
<path d="M 636.223 0 L 664.35 0 C 647.635 9.84964 624.955 20.5731 610.102 30.0884 C 630.721 74.9628 650.934 120.022 670.74 165.261 C 678.552 183.187 689.785 212.668 698.079 229.145 C 729.531 210.846 760.262 190.873 791.273 171.854 L 927.789 89.196 C 913.421 59.213 899.435 29.25 883.615 0 L 916.076 0 C 919.491 7.85874 927.481 21.7534 931.671 29.8721 C 942.668 51.5256 953.801 73.1095 965.071 94.6226 C 869.992 143.796 773.258 200.114 680.396 253.281 C 663.335 219.681 646.376 180.949 629.909 146.53 C 612.455 110.051 591.723 68.3093 575.923 31.445 C 595.393 20.6246 616.307 11.4399 636.223 0 z" fill="rgb(252,250,247)" transform="translate(0,0)"></path>
<path d="M 1044.05 0 L 1137.82 0 L 1145.53 0 L 1201.97 0 C 1204.39 10.1532 1207.78 20.8136 1210.78 30.8688 C 1167.55 49.0829 1122.48 66.6031 1080.09 86.1135 C 1067.71 58.7579 1056.08 28.0567 1044.05 0 z" fill="rgb(9,254,219)" transform="translate(0,0)"></path>
<path d="M 1137.82 0 L 1145.53 0 C 1139.3 4.10768 1078.99 31.5056 1073.9 30.0711 L 1075.17 30.0883 L 1075.45 29.0955 C 1096.53 20.0407 1117.33 10.3376 1137.82 0 z" fill="rgb(0,0,68)" transform="translate(0,0)"></path>
<path d="M 1187.9 8.94105 C 1188.76 9.31671 1188.68 9.4923 1189.37 10.3258 C 1186.8 13.6301 1099.55 50.8291 1087.39 56.1079 C 1086.31 55.8855 1086.18 55.6208 1085.17 54.9827 L 1085.71 53.342 C 1089.81 51.0946 1105.13 45.2527 1110.96 42.6406 C 1136.52 31.2038 1162.17 19.9703 1187.9 8.94105 z" fill="rgb(0,0,68)" transform="translate(0,0)"></path>
<path d="M 378.608 0 L 442.072 0 L 450.136 0 L 514.094 0 C 507.833 4.22539 483.309 15.467 475.831 18.9974 C 451.004 30.4541 426.397 42.3807 402.023 54.7707 C 393.456 37.3484 387.262 18.0794 378.608 0 z" fill="rgb(9,254,219)" transform="translate(0,0)"></path>
<path d="M 442.072 0 L 450.136 0 C 437.199 7.11702 418.334 12.6318 404.972 19.9397 C 404.469 20.2146 403.526 18.2935 404.036 17.9683 C 415.305 10.7868 430.505 6.89453 442.072 0 z" fill="rgb(0,0,68)" transform="translate(0,0)"></path>
<path d="M 355.108 782.931 C 314.064 688.955 264.834 601.861 213.629 513.387 C 210.66 512.582 208.905 512.229 205.888 511.735 L 205.555 510.345 C 207.812 507.213 206.689 507.928 209.773 506.798 C 215.927 508.317 223.182 522.85 226.81 528.857 C 259.501 583.191 289.808 638.925 317.643 695.899 C 331.506 723.801 347.611 756.18 359.637 784.622 C 271.586 827.814 180.029 867.32 92.6909 911.416 C 70.4213 845.988 50.152 779.459 26.9302 714.336 C 18.5304 690.78 9.33359 660.814 0 637.956 L 0 628.867 C 8.21582 647.89 17.9296 678.713 24.9031 698.963 C 39.2155 739.934 53.1726 781.028 66.7726 822.241 C 75.3969 848.483 85.0526 880.942 94.6606 906.423 C 181.192 864.661 268.009 823.496 355.108 782.931 z" fill="rgb(0,0,68)" transform="translate(0,0)"></path>
<path d="M 628.156 0 L 636.223 0 C 616.307 11.4399 595.393 20.6246 575.923 31.445 C 591.723 68.3093 612.455 110.051 629.909 146.53 C 646.376 180.949 663.335 219.681 680.396 253.281 C 773.258 200.114 869.992 143.796 965.071 94.6226 C 953.801 73.1095 942.668 51.5256 931.671 29.8721 C 927.481 21.7534 919.491 7.85874 916.076 0 L 920.151 0 C 923.74 7.90537 930.598 19.7681 934.794 27.948 L 969.634 95.7843 C 943.437 111.961 909.439 128.128 881.888 143.773 C 815.608 181.409 743.449 218.519 678.784 258.623 L 571.185 29.9348 C 588.744 20.0868 609.904 9.87071 628.156 0 z" fill="rgb(0,0,68)" transform="translate(0,0)"></path>
<path d="M 1128.88 1023.76 L 997.692 851.247 L 955.681 796.122 C 947.939 786.06 943.867 777.996 933.514 770.202 C 934.266 766.652 936.712 764.516 940.082 763.238 L 941.278 763.974 C 940.169 769.426 940.116 769.258 943.683 774.275 C 949.847 782.945 956.585 791.533 963.017 800.023 L 1007.65 858.203 L 1134.18 1024.29 C 1103.99 1044.14 1071.55 1063.73 1040.85 1083.06 L 905.616 1170 L 898.681 1170 C 975.576 1121.26 1051.24 1071.66 1128.88 1023.76 z" fill="rgb(0,0,68)" transform="translate(0,0)"></path>
<path d="M 9.09495e-13 333.493 C 38.8371 309.054 77.8174 284.844 116.939 260.864 C 128.996 253.489 156.552 235.549 168.298 229.6 C 197.485 282.22 231.037 343.436 264.067 394.036 C 220.055 422.157 172.862 449.779 128.014 476.728 C 109.912 487.691 91.7424 498.542 73.5058 509.279 C 67.1864 512.997 53.9264 523.032 47.4301 521.991 L 45.7074 520.348 L 45.8968 518.248 C 49.1173 516.466 51.0126 518.732 53.9748 517.029 C 64.2002 511.147 74.3396 505.076 84.4774 499.038 L 149.072 460.281 L 216.421 419.647 C 229.255 411.937 247.744 401.394 259.638 392.706 C 228.547 344.502 194.231 284.516 167.197 233.913 C 112.012 267.671 54.0502 302.289 0 337.515 L 0 333.493 z" fill="rgb(0,0,68)" transform="translate(0,0)"></path>
<path d="M 734.113 1011.21 L 608.131 1086.16 C 578.24 1104.13 528.77 1132.74 504.659 1156.04 C 502.415 1154.56 502.138 1154.36 501.214 1151.85 C 502.321 1149.79 570.229 1105.4 578.152 1100.55 C 629.934 1068.81 682.938 1038.6 734.672 1006.72 C 748.843 1026.98 762.666 1049.99 776.418 1070.9 C 798.523 1104.13 820.924 1137.17 843.617 1170 L 839.737 1170 C 803.372 1119.42 767.585 1063.68 734.113 1011.21 z" fill="rgb(0,0,68)" transform="translate(0,0)"></path>
<path d="M 263.926 0 L 267.352 0 C 280.696 25.4967 297.195 57.4638 308.663 83.6007 C 271.115 104.837 228.668 125.628 190.344 146.497 C 165.021 160.422 139.627 174.218 114.164 187.884 C 107.886 191.277 88.1512 204.357 82.5644 203.06 C 80.1954 200.652 80.886 201.86 80.2127 198.196 L 81.4516 197.286 C 82.3267 197.792 85.2659 199.514 85.5618 199.36 C 98.8636 192.461 146.442 166.27 156.251 160.931 C 205.521 134.143 255.036 107.81 304.791 81.9333 C 293.232 56.1685 276.922 25.4928 263.926 0 z" fill="rgb(0,0,68)" transform="translate(0,0)"></path>
<path d="M 874.689 1170 L 771.425 964.626 C 767.858 957.576 740.648 905.858 740.124 901.843 C 741.384 899.026 743.887 897.985 746.978 898.525 L 747.563 899.847 L 744.387 902.53 C 744.133 908.32 866.005 1143.74 878.385 1170 L 874.689 1170 z" fill="rgb(0,0,68)" transform="translate(0,0)"></path>
<path d="M 341.303 1170 C 324.843 1138.99 307.09 1109.51 289.818 1078.99 C 269.805 1043.72 250.76 1007.9 232.704 971.585 C 227.166 960.439 214.79 937.879 213.224 926.372 C 214.623 927.43 242.137 983.429 245.844 990.617 C 264.412 1026.83 283.912 1062.56 304.326 1097.77 C 314.336 1114.76 324.094 1131.89 333.595 1149.17 C 336.137 1153.8 343.101 1165.83 344.852 1170 L 341.303 1170 z" fill="rgb(0,0,68)" transform="translate(0,0)"></path>
<path d="M 58.9235 1170 C 46.1781 1131.38 33.8477 1092.63 21.9343 1053.74 C 20.1124 1047.76 12.3398 1029.9 13.8687 1025.27 L 15.6534 1025.86 C 31.6947 1072.26 47.2459 1122.93 62.2064 1170 L 58.9235 1170 z" fill="rgb(0,0,68)" transform="translate(0,0)"></path>
<path d="M 1026.36 0 L 1030.09 0 C 1038.18 21.4884 1046.68 42.8181 1055.6 63.977 C 1059.51 73.4325 1067.21 90.6337 1069.78 99.9529 L 1069 100.151 C 1061.46 90.1916 1053.42 67.3543 1048.35 54.8432 C 1040.76 36.6646 1033.44 18.3818 1026.36 0 z" fill="rgb(0,0,68)" transform="translate(0,0)"></path>
<path d="M 347.575 0 L 351.775 0 C 356.601 9.30922 389.819 64.595 388.689 69.1549 L 389.862 70.1355 L 389.603 69.0206 L 388.886 69.4827 C 382.313 62.7943 354.346 11.7587 347.575 0 z" fill="rgb(0,0,68)" transform="translate(0,0)"></path>
<path d="M 1217.14 0 L 1220.27 0 C 1223.76 9.07633 1229.25 18.4556 1231.66 27.8194 C 1231.85 28.5217 1230.29 28.8154 1230.11 28.512 C 1225.06 20.3013 1221.25 8.95302 1217.14 0 z" fill="rgb(0,0,68)" transform="translate(0,0)"></path>
<path d="M 554.478 732.912 C 557.213 733.689 559.899 740.334 561.507 743.382 C 598.378 813.283 637.405 882.026 678.532 949.511 C 586.884 1002.71 491.572 1053.3 400.513 1107.14 L 388.188 1114.45 C 372.972 1085.25 358.208 1053.74 343.74 1023.98 C 322.288 980.227 301.112 936.334 280.213 892.31 C 309.457 876.543 342.953 856.191 372.129 839.353 C 433.38 804.681 494.168 769.198 554.478 732.912 z" fill="rgb(0,0,68)" transform="translate(0,0)"></path>
<path d="M 554.207 737.081 C 556.297 739.181 598.144 818.366 602.715 826.517 C 616.333 850.891 630.153 875.152 644.173 899.297 C 653.712 915.409 664.428 931.857 673.521 948.056 C 663.267 954.969 647.518 963.236 636.458 969.407 L 576.649 1002.99 L 399.161 1103.75 L 389.203 1109.66 C 355.445 1039.82 316.162 963.889 284.807 893.701 C 375.333 842.753 465.142 790.542 554.207 737.081 z" fill="rgb(252,250,247)" transform="translate(0,0)"></path>
<path d="M 538.279 763.875 C 539.448 764.261 540.358 765.427 540.921 766.52 C 570.862 824.604 599.792 884.177 632.814 940.548 C 620.995 949.664 599.77 962.543 586.504 971.372 C 545.396 998.284 504.146 1024.98 462.757 1051.46 C 446.163 1062.09 427.567 1072.87 411.571 1083.99 L 410.475 1084.3 C 407.432 1079.73 404.001 1070.06 401.429 1064.53 C 392.898 1046.02 384.226 1027.58 375.414 1009.2 C 365.052 987.566 354.313 966.116 343.2 944.858 C 335.476 929.874 324.717 910.134 319.074 894.51 C 385.934 858.521 449.466 815.7 515.447 778.07 C 523.108 773.701 531.186 769.096 538.279 763.875 z" fill="rgb(0,0,68)" transform="translate(0,0)"></path>
<path d="M 452.017 839.866 C 453.228 840.619 454.223 841.491 454.948 842.743 C 470.71 869.937 484.719 898.395 499.505 926.145 C 506.612 939.484 525.045 969.74 528.06 982.26 C 527.761 982.083 527.453 981.922 527.164 981.73 C 524.623 980.043 452.856 845.61 452.017 839.866 z" fill="rgb(252,250,247)" transform="translate(0,0)"></path>
<path d="M 379.111 891.493 C 379.27 891.56 379.435 891.614 379.588 891.695 C 380.772 892.317 381.804 893.194 382.609 894.263 C 389.328 903.319 452.812 1011.46 456.072 1021.27 C 455.923 1021.21 455.77 1021.16 455.624 1021.09 C 453.877 1020.24 453.009 1019.06 451.967 1017.49 C 437.322 995.398 424.916 970.982 411.491 948.055 C 401.956 931.77 385.319 908.2 379.111 891.493 z" fill="rgb(252,250,247)" transform="translate(0,0)"></path>
<path d="M 485.834 824.834 C 490.915 830.95 494.858 838.847 498.979 845.693 C 507.624 860.038 516.149 874.455 524.554 888.943 C 537.364 910.908 551.946 932.708 563.339 955.39 C 562.588 955.192 561.955 954.936 561.34 954.445 C 556.935 950.926 494.733 844.19 488.617 832.6 C 487.261 830.03 486.216 827.761 485.834 824.834 z" fill="rgb(252,250,247)" transform="translate(0,0)"></path>
<path d="M 518.028 806.426 C 525.365 809.222 577.172 906.056 586.99 919.538 C 588.662 921.834 592.867 929.695 593.88 932.781 C 589.509 930.551 523.443 817.51 518.028 806.426 z" fill="rgb(252,250,247)" transform="translate(0,0)"></path>
<path d="M 418.532 868.473 C 420.744 869.486 421.232 869.957 422.586 872.046 C 432.107 886.737 439.6 904.164 447.739 919.736 C 461.049 945.204 475.299 970.539 487.54 996.526 C 487.251 996.437 486.957 996.364 486.674 996.259 C 485.054 995.657 483.954 994.081 483.097 992.656 C 471.344 973.114 461.604 951.546 450.989 931.318 C 440.183 910.724 427.488 889.897 418.532 868.473 z" fill="rgb(252,250,247)" transform="translate(0,0)"></path>
<path d="M 185.956 518.131 C 191.84 524.013 223.277 584.646 228.772 594.687 L 322.295 764.411 C 316.6 767.438 305.455 771.888 299.212 774.711 L 252.799 795.776 C 212.45 813.986 172.195 832.406 132.037 851.033 C 121.492 855.87 110.391 861.209 99.5945 865.293 C 65.1094 778.957 38.065 689.9 9.34233 601.577 C 37.9805 587.035 68.9505 572.897 98.0693 558.82 C 125.878 545.376 157.564 529.713 185.956 518.131 z" fill="rgb(0,0,68)" transform="translate(0,0)"></path>
<path d="M 244.769 683.951 L 245.875 684.169 L 246.457 685.18 C 243.189 687.808 206.733 705.144 200.193 708.348 L 87.5377 763.946 L 86.8041 763.792 L 86.2662 762.67 C 89.509 759.649 125.795 742.386 131.458 739.61 L 244.769 683.951 z" fill="rgb(252,250,247)" transform="translate(0,0)"></path>
<path d="M 257.938 726.117 L 258.727 726.911 C 258.509 727.42 258.291 727.929 258.072 728.438 C 217.076 746.905 154.451 772.843 116.421 792.308 C 116.097 791.92 115.764 790.892 115.551 790.354 C 121.466 784.635 242.32 732.406 257.938 726.117 z" fill="rgb(252,250,247)" transform="translate(0,0)"></path>
<path d="M 194.744 584.056 L 195.509 585.294 C 192.526 588.925 68.3579 649.062 54.0862 656.105 L 53.1386 655.276 C 54.4315 651.926 90.3579 635.543 97.4269 632.049 L 194.744 584.056 z" fill="rgb(252,250,247)" transform="translate(0,0)"></path>
<path d="M 229.19 651.985 L 230.585 653.202 C 228.587 656.018 98.828 716.545 82.2973 724.463 L 80.7539 723.613 C 82.6135 720.245 211.029 660.73 229.19 651.985 z" fill="rgb(252,250,247)" transform="translate(0,0)"></path>
<path d="M 208.156 617.881 L 209.367 618.375 L 209.016 619.8 C 196.618 627.618 164.026 643.157 150.57 649.846 L 67.5307 691.668 L 66.8667 691.638 L 66.1801 690.612 C 70.504 686.191 193.08 625.696 208.156 617.881 z" fill="rgb(252,250,247)" transform="translate(0,0)"></path>
<path d="M 913.428 787.881 C 923.922 798.23 952.546 835.788 963.779 849.725 C 1004.94 900.793 1052.22 955.683 1090.6 1008.59 C 1069.76 1024.09 1040.78 1041.7 1018.64 1056.3 L 914.218 1126.21 C 903.641 1132.74 888.828 1143.75 878.247 1151.1 C 871.703 1133 857.953 1104.83 849.761 1086.79 L 796.838 968.651 C 786.84 946.603 770.991 914.328 762.78 892.327 C 779.358 878.773 806.522 860.678 824.592 848.354 C 853.608 828.567 884.015 806.821 913.428 787.881 z" fill="rgb(0,0,68)" transform="translate(0,0)"></path>
<path d="M 1031.92 968.924 L 1031.93 970.624 C 1024.49 978.798 992.708 998.461 981.788 1006 C 949.943 1027.99 918.574 1050.69 886.622 1072.51 C 886.442 1071.53 886.651 1070.75 886.807 1069.78 C 915.369 1048.83 944.763 1028.71 973.895 1008.55 C 993.091 995.26 1012.14 981.321 1031.92 968.924 z" fill="rgb(252,250,247)" transform="translate(0,0)"></path>
<path d="M 1003.79 934.844 L 1004.89 936.128 C 1004 938.526 877.633 1027.03 860.983 1040.1 C 860.262 1039.42 860.429 1039.23 860.319 1038.28 C 867.745 1029.62 887.731 1017.58 897.808 1010.33 C 933.001 984.977 968.331 959.815 1003.79 934.844 z" fill="rgb(252,250,247)" transform="translate(0,0)"></path>
<path d="M 976.869 906.061 L 977.42 906.874 C 976.406 911.199 858.252 995.343 844.596 1005.36 L 843.599 1004.25 C 845.424 1000.76 962.661 915.879 976.869 906.061 z" fill="rgb(252,250,247)" transform="translate(0,0)"></path>
<path d="M 954.914 879.059 L 954.816 880.012 C 952 884.256 838.112 962.316 823.737 972.21 L 823.457 971.087 C 823.684 970.473 823.729 969.756 824.139 969.246 C 826.321 966.53 942.911 885.437 954.914 879.059 z" fill="rgb(252,250,247)" transform="translate(0,0)"></path>
<path d="M 931.936 845.067 L 931.903 846.104 C 928.797 851.222 819.151 927.267 805.909 934.996 L 806.074 933.353 C 812.593 925.986 844.151 906.209 854.292 899.135 C 879.935 881.246 905.228 861.186 931.936 845.067 z" fill="rgb(252,250,247)" transform="translate(0,0)"></path>
<path d="M 1162.85 429.017 C 1181.45 451.149 1203.67 484.421 1220.88 508.715 L 1255.61 558.403 C 1263.03 568.979 1271.37 579.881 1278.18 590.766 C 1250.44 611.741 1222.24 629.743 1195.09 650.034 C 1149.49 684.117 1105.05 718.817 1058.67 752.188 L 1054.95 753.561 C 1051.19 751.853 1046.45 743.569 1043.77 739.712 L 1018.72 703.535 C 995.783 670.302 966.994 631.531 945.726 598.543 C 954.261 590.672 968.731 579.915 978.307 572.449 L 1035.91 527.595 C 1075.71 496.489 1121.96 458.005 1162.85 429.017 z" fill="rgb(0,0,68)" transform="translate(0,0)"></path>
<path d="M 1142.94 475.901 C 1147.29 479.124 1221.37 592.341 1226.04 601.875 L 1223.83 601.267 C 1221.06 598.176 1218.99 594.841 1216.76 591.366 C 1193.15 554.665 1168.68 518.505 1145.11 481.785 C 1143.88 479.867 1143.29 478.145 1142.94 475.901 z" fill="rgb(252,250,247)" transform="translate(0,0)"></path>
<path d="M 1026.42 562.493 C 1028.91 563.262 1104.17 678.126 1107.25 689.309 C 1103.78 687.951 1095.77 673.519 1093.12 669.238 C 1086.08 657.869 1078.97 646.552 1071.77 635.287 L 1043 590.129 C 1038.17 582.522 1030.01 570.366 1026.42 562.493 z" fill="rgb(252,250,247)" transform="translate(0,0)"></path>
<path d="M 1086.12 519.611 C 1090.74 522.008 1165.5 639.097 1166.1 643.054 C 1162.73 641.027 1090.19 529.027 1086.12 519.611 z" fill="rgb(252,250,247)" transform="translate(0,0)"></path>
<path d="M 994.743 585.673 C 997.708 586.649 1071.05 694.298 1074.05 702.999 C 1073.41 702.891 1073.46 702.938 1072.75 702.608 C 1069.92 701.293 998.449 594.805 994.743 585.673 z" fill="rgb(252,250,247)" transform="translate(0,0)"></path>
<path d="M 1056.14 542.741 C 1056.73 542.992 1058.26 543.823 1058.56 544.337 C 1066.73 558.688 1133.44 654.627 1133.59 662.284 C 1130.82 660.67 1057.04 547.315 1056.14 542.741 z" fill="rgb(252,250,247)" transform="translate(0,0)"></path>
<path d="M 1116.85 501.822 C 1120.36 503.795 1190.86 607.397 1193.03 614.223 C 1189.39 612.667 1118.87 507.605 1116.85 501.822 z" fill="rgb(252,250,247)" transform="translate(0,0)"></path>
<path d="M 1102.44 135.869 C 1105.15 136.714 1109.09 144.226 1110.6 146.847 C 1138.64 195.353 1168.36 243.005 1196.6 291.355 C 1173.11 306.184 964.83 445.17 958.283 444.561 C 925.081 388.926 894.279 329.85 860.186 274.448 C 891.067 258.043 921.226 237.507 952.142 220.839 C 1002.9 193.472 1052.54 164.77 1102.44 135.869 z" fill="rgb(0,0,68)" transform="translate(0,0)"></path>
<path d="M 941.047 252.746 C 941.286 252.859 941.531 252.962 941.764 253.085 C 944.539 254.548 1013.84 370.007 1016.47 378.399 C 1015.92 378.17 1015.89 378.174 1015.31 377.837 C 1013.32 376.69 943.002 260.032 941.047 252.746 z" fill="rgb(252,250,247)" transform="translate(0,0)"></path>
<path d="M 1077.86 172.846 C 1080.53 174.623 1144.7 285.154 1146.15 291.157 C 1141.85 288.118 1078.3 178.981 1077.86 172.846 z" fill="rgb(252,250,247)" transform="translate(0,0)"></path>
<path d="M 974.295 237.675 C 976.374 238.638 977.444 239.656 978.695 241.628 C 998.375 272.668 1017.04 304.336 1036.42 335.558 C 1040.46 342.064 1045.04 348.436 1048.3 355.358 C 1047.79 355.184 1047.74 355.185 1047.19 354.914 C 1043.12 352.905 977.887 247.386 974.295 237.675 z" fill="rgb(252,250,247)" transform="translate(0,0)"></path>
<path d="M 1010.54 214.489 C 1012.42 215.192 1013.5 215.895 1014.45 217.769 C 1034.35 256.852 1057.09 295.119 1076.38 334.451 C 1075.63 334.037 1074.73 333.53 1073.65 332.932 C 1054.8 298.371 1026.85 248.463 1010.54 214.489 z" fill="rgb(252,250,247)" transform="translate(0,0)"></path>
<path d="M 913.636 280.776 C 916.177 282.024 981.615 385.546 984.398 395.322 C 980.976 393.802 915.583 286.952 913.636 280.776 z" fill="rgb(252,250,247)" transform="translate(0,0)"></path>
<path d="M 1046.56 196.774 C 1048.51 197.786 1112.04 306.614 1113.15 313.22 C 1108.81 310.223 1046.68 201.247 1046.56 196.774 z" fill="rgb(252,250,247)" transform="translate(0,0)"></path>
<path d="M 485.684 90.9628 L 487.7 90.794 C 491.627 92.7297 502.524 115.243 505.17 120.501 C 524.22 158.363 544.926 191.608 568.083 226.977 C 525.378 255.947 481.74 283.042 438.95 311.851 C 407.166 333.251 375.243 355.022 343.075 375.799 L 339.075 368.559 C 327.381 348.447 317.958 326.485 306.425 306.616 C 286.915 273.003 269.391 235.564 248.701 203.008 C 255.642 199.538 262.804 196.173 269.832 192.873 C 341.775 159.093 412.867 122.798 485.684 90.9628 z" fill="rgb(9,254,219)" transform="translate(0,0)"></path>
<path d="M 307.221 187.583 C 311.411 188.841 315.779 199.76 318.003 204.085 C 323.679 215.197 329.415 226.279 335.211 237.329 L 364.148 291.585 C 369.151 300.857 374.385 310.222 379.187 319.591 C 380.984 323.096 380.745 322.755 380.055 326.059 C 379.363 325.352 377.73 323.607 377.088 322.466 C 352.609 279.009 329.951 234.395 306.597 190.319 C 306.847 189.224 307.055 188.312 307.221 187.583 z" fill="rgb(0,0,68)" transform="translate(0,0)"></path>
<path d="M 372.029 154.545 C 373.679 155.237 375.083 155.665 376.004 157.502 C 380.21 166.918 388.728 182.005 392.447 190.557 C 397.577 202.356 441.389 282.617 440.003 289.1 C 436.004 286.854 372.694 161.021 372.029 154.545 z" fill="rgb(0,0,68)" transform="translate(0,0)"></path>
<path d="M 475.769 103.428 C 477.284 103.708 477.637 104.179 478.871 105.122 C 486.362 121.738 536.997 223.004 535.892 232.025 C 532.948 230.649 476.542 112.091 475.769 103.428 z" fill="rgb(0,0,68)" transform="translate(0,0)"></path>
<path d="M 340.126 178.496 C 340.895 178.744 342.848 179.47 343.247 180.18 C 364.933 218.723 385.945 258.42 406.219 297.763 C 407.59 300.422 408.432 302.639 408.252 305.202 C 404.969 303.325 340.062 182.201 340.126 178.496 z" fill="rgb(0,0,68)" transform="translate(0,0)"></path>
<path d="M 409.129 143.487 L 411.839 144.535 C 415.715 150.455 421.393 163.097 424.567 169.795 L 447.298 218.446 C 451.152 226.643 469.461 263.273 470.943 269.769 C 462.805 266.53 421.238 167.824 412.307 152.796 C 410.893 150.418 409.212 146.419 409.129 143.487 z" fill="rgb(0,0,68)" transform="translate(0,0)"></path>
<path d="M 439.593 123.493 C 440.295 123.6 442.034 123.938 442.303 124.414 C 453.158 143.691 500.276 234.546 504.004 248.894 L 501.592 248.462 C 498.61 244.5 440 125.494 439.593 123.493 z" fill="rgb(0,0,68)" transform="translate(0,0)"></path>
<path d="M 516.252 372.922 C 517.997 373.819 602.607 501.789 612.621 516.362 C 593.987 529.312 572.185 541.692 552.296 555.449 C 499.265 592.258 447.254 630.514 396.319 670.172 C 394.986 671.328 395.74 670.878 393.865 671.165 C 390.971 668.329 368.531 629.67 364.777 623.363 L 301.222 517.812 C 362.97 473.716 424.153 429.051 489.267 389.965 C 498.327 384.526 507.518 378.86 516.252 372.922 z" fill="rgb(0,0,68)" transform="translate(0,0)"></path>
<path d="M 342.662 506.623 C 348.216 509.594 413.441 610.594 421.907 624.183 L 420.236 624.086 C 414.524 618.67 344.406 511.125 342.662 506.623 z" fill="rgb(252,250,247)" transform="translate(0,0)"></path>
<path d="M 502.38 403.502 C 506.435 405.703 512.268 418.146 514.817 422.759 L 534.771 458.482 C 541.308 470.295 563.734 508.546 568.281 519.428 C 568.16 519.372 568.04 519.314 567.918 519.26 C 567.764 519.192 567.604 519.137 567.453 519.063 C 563.474 517.132 506.043 413.478 502.38 403.502 z" fill="rgb(252,250,247)" transform="translate(0,0)"></path>
<path d="M 382.265 491.657 C 382.499 491.806 382.737 491.95 382.968 492.105 C 387.409 495.079 445.627 595.123 446.977 601.514 C 444.488 599.301 425.779 568.015 424.219 564.71 C 419.29 554.268 382.133 497.479 382.265 491.657 z" fill="rgb(252,250,247)" transform="translate(0,0)"></path>
<path d="M 413.7 466.802 C 417.292 469.138 476.218 566.684 480.09 576.353 C 477.516 575.604 416.344 475.509 413.7 466.802 z" fill="rgb(252,250,247)" transform="translate(0,0)"></path>
<path d="M 472.4 427.558 C 478.682 429.288 527.351 511.186 535.646 522.124 C 536.894 523.769 541.284 531.205 542.553 533.413 C 536.073 531.074 499.954 468.8 492.463 459.277 C 489.134 455.045 475.207 433.002 472.4 427.558 z" fill="rgb(252,250,247)" transform="translate(0,0)"></path>
<path d="M 444.831 449.692 C 449.831 451.709 508.248 544.684 513.332 554.422 C 509.174 553.224 493.624 527.196 490.509 522.39 L 461.718 477.376 C 456.967 469.951 448.084 456.904 444.831 449.692 z" fill="rgb(252,250,247)" transform="translate(0,0)"></path>
<path d="M 818.917 556.828 C 816.931 555.573 903.67 696.555 909.657 706.621 C 896.052 715.527 878.438 724.916 864.139 733.268 L 764.169 791.446 L 712.511 821.974 C 707.987 824.672 693.012 834.185 689.114 835.783 C 669.816 804.318 651.094 771.66 631.739 740.058 C 620.336 721.439 606.198 698.713 596.017 679.781 C 616.347 668.311 638.227 657.295 658.904 646.105 C 712.66 617.101 766.003 587.34 818.917 556.828 z" fill="rgb(9,254,219)" transform="translate(0,0)"></path>
<path d="M 662.607 656.754 C 665.319 658.069 732.578 779.116 733.627 785.196 C 731.628 784.456 730.761 784.153 729.654 782.233 C 706.627 742.269 684.495 701.702 662.943 660.923 C 662.237 659.588 662.322 658.19 662.607 656.754 z" fill="rgb(0,0,68)" transform="translate(0,0)"></path>
<path d="M 812.999 574.485 C 813.549 574.661 815.715 575.545 815.864 575.858 C 825.098 595.157 886.16 693.55 886.138 703.685 C 881.983 700.397 813.183 580.877 812.999 574.485 z" fill="rgb(0,0,68)" transform="translate(0,0)"></path>
<path d="M 727.372 627.483 C 728.102 627.615 728.538 627.658 729.255 627.971 C 732.443 629.359 796.978 739.206 799.465 747.448 C 798.612 747.254 798.693 747.311 797.776 746.898 C 794.747 745.535 731.305 638.209 727.372 627.483 z" fill="rgb(0,0,68)" transform="translate(0,0)"></path>
<path d="M 755.834 615.554 C 756.652 615.753 757.905 616.356 758.725 616.709 C 765.955 628.65 826.539 728.289 826.929 734.752 C 824.516 734.319 757.736 624.873 755.834 615.554 z" fill="rgb(0,0,68)" transform="translate(0,0)"></path>
<path d="M 635.239 672.37 C 636.22 672.687 637.489 673.347 638.455 673.801 C 652.345 695.457 667.056 729.487 680.06 752.656 C 683.932 759.556 699.417 790.101 700.925 795.522 L 699.474 795.352 C 697.596 793.85 637.253 679.402 635.239 672.37 z" fill="rgb(0,0,68)" transform="translate(0,0)"></path>
<path d="M 785.617 594.603 L 787.804 595.696 C 800.564 613.962 815.488 644.896 827.764 664.507 C 831.959 671.208 852.503 707.671 854.022 712.553 L 852.195 712.353 C 850.189 710.451 835.024 684.843 833.429 681.198 C 826.629 665.665 786.555 605.963 785.617 594.603 z" fill="rgb(0,0,68)" transform="translate(0,0)"></path>
<path d="M 695.826 646.714 C 696.182 646.828 696.55 646.91 696.893 647.058 C 699.274 648.087 759.612 750.405 763.106 761.795 L 760.592 761.441 C 757.948 758.374 740.927 728.652 738.643 723.861 C 732.244 710.437 695.968 655.627 695.826 646.714 z" fill="rgb(0,0,68)" transform="translate(0,0)"></path>
<path d="M 1297.19 691.807 C 1300.04 693.264 1304.84 701.779 1306.76 704.75 C 1331.91 743.562 1359.84 780.481 1386.66 818.14 C 1322.73 865.694 1258.47 912.802 1193.88 959.459 C 1162.68 915.766 1132.37 860.972 1103.59 814.117 C 1141.51 790.292 1179.63 766.765 1217.92 743.536 C 1242.54 728.365 1274.34 708.933 1297.19 691.807 z" fill="rgb(9,254,219)" transform="translate(0,0)"></path>
<path d="M 1146.54 795.617 C 1150.7 797.928 1171.02 830.416 1175.08 836.576 L 1207.21 885.332 C 1211.18 891.396 1225.32 910.964 1225.08 916.566 C 1224.06 915.794 1222.49 914.625 1221.8 913.571 C 1196.96 876.052 1172.14 838.477 1147.67 800.725 C 1146.58 799.046 1146.23 797.606 1146.54 795.617 z" fill="rgb(0,0,68)" transform="translate(0,0)"></path>
<path d="M 1288.09 706.52 C 1293.93 710.519 1317.36 752.477 1323.65 761.648 C 1334.21 777.022 1345.62 795.512 1356.13 811.282 C 1357.23 812.932 1357.31 815.068 1357.05 816.978 C 1356.75 816.824 1354.91 815.789 1354.63 815.37 C 1331.56 781.199 1309.55 745.725 1288.2 710.429 C 1288.16 708.749 1288.12 707.446 1288.09 706.52 z" fill="rgb(0,0,68)" transform="translate(0,0)"></path>
<path d="M 1177.53 781.547 C 1184.74 782.395 1234.96 873.444 1243.76 884.687 C 1245.08 886.377 1246.75 890.208 1247.36 892.384 L 1244.91 891.606 C 1237.33 883.142 1180.69 790.135 1177.53 781.547 z" fill="rgb(0,0,68)" transform="translate(0,0)"></path>
<path d="M 1265.34 720.493 L 1268.04 721.383 C 1272.72 726.623 1330.26 829.807 1331.36 834.442 L 1328.84 833.689 C 1325.24 829.724 1266.34 724.658 1265.34 720.493 z" fill="rgb(0,0,68)" transform="translate(0,0)"></path>
<path d="M 1213.55 766.449 C 1214.29 766.572 1215.97 766.918 1216.27 767.451 C 1224.34 781.709 1271.72 863.273 1273.69 872.507 C 1267.17 870.638 1225.03 786.358 1216.98 774.788 C 1215.73 772.991 1214.12 768.769 1213.55 766.449 z" fill="rgb(0,0,68)" transform="translate(0,0)"></path>
<path d="M 1241.44 747.534 C 1242.48 747.913 1243.75 748.418 1244.34 749.44 C 1262.89 781.457 1281.24 813.715 1298.86 846.256 C 1300.59 849.438 1300.5 849.764 1300.18 853.188 C 1294.79 848.648 1276.5 811.47 1271.19 802.915 C 1266.94 796.053 1240.78 751.694 1241.44 747.534 z" fill="rgb(0,0,68)" transform="translate(0,0)"></path>
<path d="M 1407.82 39.957 L 1409.72 39.8335 C 1410.39 40.2068 1411.07 40.5802 1411.75 40.9535 C 1435.01 93.4075 1478.86 186.061 1498.71 234.861 C 1492.14 237.992 1484.77 240.941 1478.03 243.753 C 1433.96 262.147 1390.48 283.013 1346.19 300.764 L 1334.83 305.289 C 1328.4 283.068 1319.05 261.09 1311.38 239.247 C 1295.44 193.852 1276.45 150.025 1258.65 105.431 C 1303.85 83.3344 1360.78 59.2021 1407.82 39.957 z" fill="rgb(0,0,68)" transform="translate(0,0)"></path>
<path d="M 1462.92 202.175 L 1463.53 202.909 C 1461.23 207.545 1353.21 251.265 1341.52 256.086 L 1340.73 255.549 C 1341.79 253.481 1344.04 252.565 1346.27 251.722 C 1385.54 236.899 1424.04 217.495 1462.92 202.175 z" fill="rgb(252,250,247)" transform="translate(0,0)"></path>
<path d="M 1449.4 172.971 L 1450.8 173.403 L 1450.4 174.668 C 1437.07 181.339 1417.88 188.828 1403.82 194.827 C 1380.25 204.85 1356.84 215.247 1333.6 226.014 L 1332.4 225.36 C 1334.89 220.747 1436.64 178.353 1449.4 172.971 z" fill="rgb(252,250,247)" transform="translate(0,0)"></path>
<path d="M 1428.05 111.932 L 1429.3 112.186 L 1429.39 113.394 C 1425.32 116.01 1403.99 124.125 1398.01 126.603 C 1369.31 138.501 1338.92 148.839 1310.82 162.031 C 1310.13 161.695 1309.9 161.235 1309.32 160.574 C 1311.18 158.141 1415.21 117.151 1428.05 111.932 z" fill="rgb(203,204,212)" transform="translate(0,0)"></path>
<path d="M 1433.63 144.156 L 1434.46 145.113 C 1432.52 147.672 1330.56 187.2 1318.32 191.906 L 1317.59 191.135 L 1318.16 189.708 C 1355.36 174.64 1396.22 157.95 1433.63 144.156 z" fill="rgb(252,250,247)" transform="translate(0,0)"></path>
<path d="M 1409.03 86.1624 L 1409.68 86.7861 C 1408.45 89.4512 1307.48 127.724 1296.96 131.872 L 1296.22 130.878 C 1296.53 130.334 1296.85 129.79 1297.17 129.247 C 1329 116.599 1379.21 97.0399 1409.03 86.1624 z" fill="rgb(252,250,247)" transform="translate(0,0)"></path>
<path d="M 1488.19 288.852 L 1489.37 288.994 C 1492.36 291.833 1498.42 305.591 1500.51 309.808 C 1520.55 350.329 1544.41 390.088 1568.2 428.507 C 1523.06 451.252 1479.13 474.766 1437.1 502.905 C 1428.7 508.53 1373.16 540.648 1369.72 545.164 C 1351.61 512.982 1331.91 481.961 1312.9 450.364 C 1304.69 436.716 1292.88 419.379 1286.13 405.615 C 1298.74 399.66 1312.83 391.159 1324.9 383.969 C 1378.96 351.779 1434.28 321.23 1488.19 288.852 z" fill="rgb(9,254,219)" transform="translate(0,0)"></path>
<path d="M 1322.59 393.476 C 1323.64 393.612 1325.5 394.157 1326.06 395.019 C 1332.32 404.639 1338.87 415.724 1344.75 425.486 C 1355.35 443.102 1365.81 460.798 1376.14 478.571 C 1379.5 484.329 1392.54 504.432 1391.93 509.964 C 1390.74 509.511 1389.69 508.942 1389.05 507.806 C 1370.01 474.228 1350.17 441.117 1330.39 407.971 C 1327.57 403.251 1324.67 398.584 1322.59 393.476 z" fill="rgb(0,0,68)" transform="translate(0,0)"></path>
<path d="M 1348.49 380.739 C 1351.12 382.211 1352.72 383.879 1354.81 387.265 C 1375.68 421.059 1397.64 454.775 1417.62 489.03 C 1417.4 490.262 1417.21 491.284 1417.07 492.096 C 1408.61 483.928 1359.75 398.735 1348.67 383.94 C 1348.6 382.698 1348.54 381.631 1348.49 380.739 z" fill="rgb(0,0,68)" transform="translate(0,0)"></path>
<path d="M 1466.85 315.705 L 1468.98 316.422 C 1473.21 320.944 1533.91 419.614 1535.19 424.355 C 1528.47 423.11 1478.37 334.961 1470.04 323.402 C 1468.59 321.391 1467.27 318.196 1466.85 315.705 z" fill="rgb(0,0,68)" transform="translate(0,0)"></path>
<path d="M 1440.25 330.63 C 1443.82 331.389 1444.57 333.779 1446.19 336.763 C 1464.14 369.872 1483.24 402.378 1501.21 435.464 C 1501.21 435.465 1501.08 438.016 1501.06 438.26 C 1497 436.363 1440.49 335.963 1440.25 330.63 z" fill="rgb(0,0,68)" transform="translate(0,0)"></path>
<path d="M 1409.64 349.473 L 1411.97 349.964 C 1416.51 353.311 1469.91 446.527 1471.94 454.697 L 1470.36 454.452 C 1467.57 452.233 1415.64 360.879 1409.64 349.473 z" fill="rgb(0,0,68)" transform="translate(0,0)"></path>
<path d="M 1380.46 368.447 C 1381.32 368.759 1382.46 369.446 1383.3 369.901 C 1399.74 399.035 1423.66 439.441 1439.46 470.077 C 1439.33 471.288 1439.22 472.313 1439.13 473.153 C 1438.33 472.566 1437.36 471.856 1436.87 470.974 C 1418.64 438.003 1399.63 405.468 1380.96 372.752 C 1380.17 371.365 1380.16 369.981 1380.46 368.447 z" fill="rgb(0,0,68)" transform="translate(0,0)"></path>
<path d="M 1598.49 508.897 C 1623.6 556.357 1646.89 605.256 1672.57 652.531 C 1657.16 660.894 1640.47 668.962 1624.81 677.19 L 1473.05 756.071 C 1469.94 757.602 1466.14 759.817 1463.03 761.511 C 1458.08 747.288 1450.15 728.914 1444.44 714.63 L 1404.4 615.266 C 1419.78 604.37 1455.05 587.947 1472.58 578.416 C 1514.81 555.446 1557.23 533.727 1598.49 508.897 z" fill="rgb(0,0,68)" transform="translate(0,0)"></path>
<path d="M 1517.9 574.792 C 1521.26 576.804 1564.46 670.581 1567.19 679.264 C 1563.6 677.316 1518.88 582.322 1517.9 574.792 z" fill="rgb(252,250,247)" transform="translate(0,0)"></path>
<path d="M 1432.05 612.855 C 1436.37 617.018 1479.84 715.843 1480.9 721.976 C 1477.5 718.909 1472.13 705.301 1469.96 700.396 L 1451.84 659.58 C 1448.53 652.185 1431.14 616.925 1432.05 612.855 z" fill="rgb(252,250,247)" transform="translate(0,0)"></path>
<path d="M 1484.03 589.617 C 1488.74 592.3 1531.81 679.115 1536.46 690.554 C 1535.67 690.193 1533.94 689.458 1533.53 688.612 C 1522.82 666.198 1511.17 644.328 1499.75 622.281 C 1494.58 612.316 1487.68 600.103 1484.03 589.617 z" fill="rgb(252,250,247)" transform="translate(0,0)"></path>
<path d="M 1578.71 544.749 C 1583.45 548.41 1623.98 631.382 1628.84 642.337 C 1627.26 642.366 1627.83 642.362 1626.25 641.558 C 1616.18 623.254 1606.55 601.743 1596.84 583.014 C 1592.94 575.497 1580.37 550.973 1578.71 544.749 z" fill="rgb(252,250,247)" transform="translate(0,0)"></path>
<path d="M 1551.28 564.484 C 1556.39 567.481 1572.68 606.035 1577.25 615.432 C 1583.58 628.432 1592.65 646.996 1597.46 660.531 C 1596.18 660.127 1594.71 659.365 1594.12 658.017 C 1584.22 635.448 1573.33 613.3 1563 590.938 C 1558.96 582.197 1554.5 573.501 1551.28 564.484 z" fill="rgb(252,250,247)" transform="translate(0,0)"></path>
<path d="M 1456.61 606.511 C 1458.45 607.361 1459.4 607.858 1460.36 609.837 C 1475.59 641.264 1491.54 672.568 1505.94 704.368 C 1501.64 702.007 1461.33 618.258 1456.61 606.511 z" fill="rgb(252,250,247)" transform="translate(0,0)"></path>
<path d="M 764.601 292.388 C 768.507 297.92 772.555 304.323 776.336 310.02 C 786.968 321.66 803.591 347.684 813.195 361.719 L 870.576 443.883 C 874.325 448.133 877.529 452.475 880.934 456.986 C 836.904 482.089 791.551 514.339 747.596 540.929 C 745.779 538.189 744.961 536.24 743.63 533.296 C 731.68 509.812 716.592 487.036 703.78 464.035 C 686.226 432.519 669.157 400.663 651.683 369.083 C 686.601 342.332 728.116 317.592 764.601 292.388 z" fill="rgb(0,0,68)" transform="translate(0,0)"></path>
<path d="M 868.801 448.718 C 868.724 447.28 868.222 445.688 867.863 444.253 C 869.396 444.68 868.657 444.524 870.576 443.883 C 874.325 448.133 877.529 452.475 880.934 456.986 C 836.904 482.089 791.551 514.339 747.596 540.929 C 745.779 538.189 744.961 536.24 743.63 533.296 C 774.788 510.966 806.748 490.004 838.519 468.57 C 848.535 461.813 858.505 455.044 868.801 448.718 z" fill="rgb(9,254,219)" transform="translate(0,0)"></path>
<path d="M 776.336 310.02 C 786.968 321.66 803.591 347.684 813.195 361.719 L 870.576 443.883 C 868.657 444.524 869.396 444.68 867.863 444.253 C 868.222 445.688 868.724 447.28 868.801 448.718 C 865.473 446.129 782.383 322.321 776.336 310.02 z" fill="rgb(9,254,219)" transform="translate(0,0)"></path>
<path d="M 819.861 393.089 L 820.396 393.673 C 819.399 396.063 736.963 454.717 726.611 462.411 L 725.754 461.619 C 726.981 457.805 808.935 400.34 819.861 393.089 z" fill="rgb(203,204,212)" transform="translate(0,0)"></path>
<path d="M 837.873 424.002 L 837.905 425.652 C 832.708 431.937 757.468 481.008 745.75 488.863 L 745.834 487.092 C 749.389 483.486 770.074 469.859 775.57 466.177 C 796.183 452.371 817.054 437.366 837.873 424.002 z" fill="rgb(203,204,212)" transform="translate(0,0)"></path>
<path d="M 798.051 368.121 L 798.362 368.501 C 797.716 372.234 723.484 424.953 713.644 432.253 L 712.732 431.502 C 714.291 427.423 788.525 375.018 798.051 368.121 z" fill="rgb(203,204,212)" transform="translate(0,0)"></path>
<path d="M 768.595 329.233 L 768.425 330.343 C 761.889 336.038 745.154 346.387 737.342 351.477 C 719.342 363.369 701.197 375.041 682.912 386.489 L 683.093 384.694 C 686.856 381.215 713.985 363.581 719.711 360.164 C 733.267 352.076 755.302 335.793 768.595 329.233 z" fill="rgb(203,204,212)" transform="translate(0,0)"></path>
<path d="M 777.489 347.893 L 778.381 348.617 C 776.472 352.021 703.647 403.341 694.632 409.613 L 693.733 408.572 C 695.409 405.801 769.541 353.605 777.489 347.893 z" fill="rgb(203,204,212)" transform="translate(0,0)"></path>
<path d="M 1774.34 288.732 C 1775.37 288.963 1776.5 289.82 1777.17 290.633 C 1816.7 338.142 1857.54 387.749 1899 433.571 C 1887.59 443.826 1872.19 455.228 1859.91 464.831 L 1791.17 518.808 L 1780.71 527.196 C 1743.57 472.833 1708 414.064 1671.84 358.766 C 1702.68 337.421 1746.1 310.832 1774.34 288.732 z" fill="rgb(9,254,219)" transform="translate(0,0)"></path>
<path d="M 1868.2 419.78 L 1869.76 420.998 C 1867.71 427.439 1785.27 492.592 1771.83 503.525 L 1770.36 502.426 C 1771.08 499.914 1857.73 428.734 1868.2 419.78 z" fill="rgb(0,0,68)" transform="translate(0,0)"></path>
<path d="M 1852.36 398.734 C 1852.8 398.886 1854 399.748 1854.45 400.049 C 1853.74 401.702 1768.45 469.613 1759.28 477.222 L 1758.45 477.598 L 1757.28 477.052 C 1758.17 471.878 1841.5 407.112 1852.36 398.734 z" fill="rgb(0,0,68)" transform="translate(0,0)"></path>
<path d="M 1834.47 378.74 C 1836.25 379.254 1835.48 378.784 1836.71 380.385 C 1834.79 383.804 1752.27 447.888 1742.5 455.694 L 1741.22 455.711 L 1740.67 454.574 C 1744.11 449.77 1769.56 430.248 1775.71 425.392 L 1834.47 378.74 z" fill="rgb(0,0,68)" transform="translate(0,0)"></path>
<path d="M 1818.37 358.82 L 1819.7 360.491 C 1818.55 363.486 1742.18 418.4 1730.45 427.186 C 1729.41 425.7 1729.76 426.205 1729.35 424.301 C 1734.56 419.248 1756.15 404.076 1762.85 399.267 C 1781.44 385.905 1799.95 372.422 1818.37 358.82 z" fill="rgb(0,0,68)" transform="translate(0,0)"></path>
<path d="M 1784.12 315.774 L 1785.65 316.439 L 1785.94 317.908 C 1780.95 322.563 1764.55 334.192 1758.15 339.053 C 1738.75 353.894 1719.28 368.636 1699.73 383.278 L 1698.15 382.464 C 1699.48 378.265 1774.76 322.639 1784.12 315.774 z" fill="rgb(0,0,68)" transform="translate(0,0)"></path>
<path d="M 1800.99 337.86 L 1802.34 339.388 C 1801.24 342.522 1785.45 351.875 1781.7 354.567 L 1716.28 402.193 C 1714.57 401.706 1715.36 402.12 1714.15 400.535 C 1715.73 397.488 1792.46 343.788 1800.99 337.86 z" fill="rgb(0,0,68)" transform="translate(0,0)"></path>
<path d="M 1676.75 55.8057 C 1680.33 58.0913 1693.77 74.2211 1697.47 78.1331 C 1722.26 104.284 1743.88 131.875 1766.53 159.794 C 1777.94 173.855 1789.38 190.109 1801.32 203.303 C 1764.66 225.382 1727.96 253.042 1691.28 276.002 C 1686.7 279.044 1682.01 282.729 1677.59 286.059 C 1668.26 268.887 1655.18 251.819 1644.26 235.251 C 1620.5 199.582 1597.2 163.613 1574.35 127.353 L 1640.34 81.9595 C 1650.31 75.1125 1668.22 63.5027 1676.75 55.8057 z" fill="rgb(9,254,219)" transform="translate(0,0)"></path>
<path d="M 1773.17 183.772 C 1773.56 183.953 1774.74 185.144 1775.14 185.521 C 1774.11 189.559 1747.22 207.364 1742.05 211.179 L 1669.63 264.905 L 1668.17 264.44 L 1667.81 262.789 C 1671.72 258.549 1688.52 247.139 1694.13 242.998 L 1739.86 208.966 C 1750.16 201.386 1763.69 192.002 1773.17 183.772 z" fill="rgb(0,0,68)" transform="translate(0,0)"></path>
<path d="M 1752.96 156.87 C 1753.66 157.486 1753.78 158.054 1754.26 158.979 C 1752.65 162.002 1664.84 225.385 1654.22 233.051 L 1653.22 230.997 C 1657.32 226.21 1681.45 209.048 1687.95 204.318 L 1752.96 156.87 z" fill="rgb(0,0,68)" transform="translate(0,0)"></path>
<path d="M 1733.59 131.869 C 1734.16 132.62 1734.11 132.964 1734.4 133.972 C 1732.08 137.363 1650.99 193.548 1642.54 199.539 L 1641.36 197.55 C 1644.24 193.261 1723.78 138.169 1733.59 131.869 z" fill="rgb(0,0,68)" transform="translate(0,0)"></path>
<path d="M 1715.4 112.847 C 1715.81 112.964 1716.86 113.736 1717.28 114.018 C 1715.45 117.735 1637.4 168.783 1627.81 174.765 L 1626.53 173.631 C 1628.31 170.02 1707.46 117.892 1715.4 112.847 z" fill="rgb(0,0,68)" transform="translate(0,0)"></path>
<path d="M 1694.42 91.8078 L 1695.27 92.0718 L 1695.62 93.2215 C 1693.15 95.9422 1690.14 97.9876 1687.15 100.085 C 1661.64 117.981 1636.76 136.829 1610.67 153.888 C 1609.68 153.644 1610.07 153.674 1609.16 152.572 C 1610.9 149.32 1685.63 97.2619 1694.42 91.8078 z" fill="rgb(0,0,68)" transform="translate(0,0)"></path>
<path d="M 1675.16 73.94 L 1676.67 75.9744 C 1675.34 79.6291 1606.88 126.512 1596.82 133.742 L 1595.64 133.065 C 1596.21 130.803 1596.69 130.314 1598.61 128.898 C 1623.85 110.365 1650.41 93.0965 1675.16 73.94 z" fill="rgb(0,0,68)" transform="translate(0,0)"></path>
<path d="M 1177.9 396.998 C 1182.34 401.907 1192.33 416.281 1196.61 422.146 L 1234.33 474.132 C 1262.73 513.383 1297.08 558.078 1323.66 597.648 C 1302.7 615.427 1271.74 636.258 1248.45 652.002 C 1215.18 674.588 1181.75 696.938 1148.17 719.051 C 1128.29 732.427 1108.25 745.564 1088.06 758.457 C 1081.79 762.513 1075.68 766.813 1069.46 770.917 C 1067.8 772.011 1067.32 771.337 1065.69 770.665 C 1063.87 767.439 1064.05 768.734 1064.41 765.58 L 1066.11 764.855 L 1067.78 766.364 C 1068.36 766.402 1068.94 766.439 1069.52 766.477 C 1121.13 732.716 1212.65 672.69 1259.71 640.239 C 1278.19 627.53 1296.42 614.447 1314.37 600.997 L 1318.98 596.888 C 1273.97 531.805 1223.47 466.868 1177.67 401.565 L 1010.55 521.608 C 990.111 536.1 957.7 556.661 937.244 572.916 C 936.006 573.899 937.76 577.075 938.183 580.098 L 937.012 580.736 C 934.547 578.557 933.114 575.153 931.534 572.157 C 967.606 548.259 1006.76 519.514 1041.99 494.311 L 1177.9 396.998 z" fill="rgb(0,0,68)" transform="translate(0,0)"></path>
<path d="M 1123.46 111.894 C 1126.2 112.459 1147.94 149.688 1151.27 155.092 L 1207.43 246.911 C 1216.41 261.52 1227.44 280.52 1237.04 294.188 C 1181.68 334.002 1125.29 372.37 1067.93 409.253 C 1057.75 415.768 970.937 469.872 968.437 469.289 C 966.905 466.322 966.512 462.397 968.966 459.974 C 969.728 461.481 970.469 463 971.189 464.528 C 975.6 462.996 1009.02 441.06 1015.72 437.051 C 1083.93 396.255 1150.02 350.747 1215.48 305.605 L 1232.45 293.765 C 1221.5 275.112 1209.09 256.043 1197.72 237.509 L 1123.33 115.785 C 1113.54 120.03 1103.9 124.695 1094.27 129.294 C 1020.74 164.417 946.749 198.688 877.777 242.376 C 872.513 245.711 858.001 253.334 854.435 257.384 C 854.754 259.074 855.058 260.767 855.345 262.463 L 853.75 263.552 L 852.437 262.881 C 851.53 260.886 850.414 259.14 850.817 257.054 C 856.429 249.784 877.649 238.661 886.193 233.255 C 925.941 208.109 966.614 187.746 1008.69 166.941 C 1046.64 147.957 1084.9 129.605 1123.46 111.894 z" fill="rgb(0,0,68)" transform="translate(0,0)"></path>
<path d="M 526.983 341.808 C 529.952 343.163 536.674 355.804 538.605 359.3 C 570.174 416.476 608.335 467.914 648.142 519.552 C 641.706 525.843 627.489 536.72 620.345 542.295 C 603.77 555.301 586.945 567.985 569.879 580.34 C 522.308 614.569 472.712 646.318 424.778 680.07 C 421.015 682.72 412.223 689.577 407.832 688.862 C 405.617 686.053 405.615 686.947 405.564 684.059 L 407.528 682.949 L 410.433 684.958 C 413.432 684.127 424.772 675.03 428.956 672.235 C 497.859 626.205 566.032 580.784 630.89 529.185 L 644.059 518.846 C 635.351 509.341 622.586 491.843 614.778 481.38 C 595.495 455.532 577.18 428.976 559.872 401.767 C 548.405 383.421 538.054 364.707 526.836 346.284 C 475.194 378.075 424.104 410.757 373.591 444.314 C 357.638 454.993 341.766 465.793 325.976 476.712 C 315.526 483.859 303.717 490.684 295.234 499.721 C 293.563 501.501 293.436 501.309 291.152 501.153 C 289.11 499.028 288.996 498.657 288.201 495.805 L 289.074 494.697 C 291.005 494.431 291.515 494.56 293.307 495.331 C 365.616 442.356 450.479 389.073 526.983 341.808 z" fill="rgb(0,0,68)" transform="translate(0,0)"></path>
<path d="M 833.683 523.969 C 854.468 564.229 871.295 596.6 896.407 635.61 C 913.669 662.426 931.846 687.792 949.042 714.161 C 941.134 719.214 930.371 724.892 922.066 729.765 L 847.309 773.072 L 744.761 832.111 C 737.97 836.036 704.866 856.997 700.28 856.875 C 698.489 854.391 696.982 853.014 697.122 850.08 L 698.496 849.45 L 701.61 852.059 C 702.327 852.062 703.215 852.065 704.272 852.07 C 721.34 842.367 742.47 829.665 758.943 820.1 L 938.629 716.429 L 944.475 712.835 C 902.367 654.499 864.883 592.962 832.364 528.786 C 751.357 571.628 671.902 619.383 591.977 664.207 C 588.426 666.198 592.664 666.709 590.839 670.742 L 589.195 670.879 C 586.795 668.024 587.442 669.409 586.937 665.493 C 589.602 660.537 621.984 643.05 628.914 639.061 L 768.968 559.422 C 790.34 547.495 812.621 536.044 833.683 523.969 z" fill="rgb(0,0,68)" transform="translate(0,0)"></path>
<path d="M 1609.76 486.921 L 1611.35 487.02 C 1613.5 488.569 1694.53 642.241 1704.24 661.107 C 1628.93 699.658 1550.58 745.585 1475.4 786.051 C 1472.61 781.527 1470.91 776.501 1469.01 771.535 C 1472.99 774.878 1474.19 777.061 1477.08 781.45 C 1541.62 747.199 1608.36 709.185 1672.53 673.754 L 1699.3 659.363 C 1691.59 642.803 1679.08 621.211 1670.27 604.589 L 1610.19 490.813 C 1582.51 502.051 1554.07 518.272 1527 531.4 C 1485.7 551.426 1445.05 573.21 1403.95 593.534 C 1400.46 595.259 1404.13 597.074 1401.64 600.618 L 1400.17 599.949 C 1398.1 596.448 1397.85 597.173 1397.82 593.543 C 1401.34 588.707 1592.11 494.624 1609.76 486.921 z" fill="rgb(0,0,68)" transform="translate(0,0)"></path>
<path d="M 500.399 54.08 C 502.623 57.6944 504.975 62.6401 507.018 66.4962 C 535.691 120.624 567.885 172.23 601.669 223.345 C 584.677 234.96 566.573 248.911 549.46 261.019 C 494.573 300.522 438.947 338.989 382.613 376.4 C 377.489 379.785 356.693 394.333 352.903 395.088 C 349.629 394.189 350.767 394.964 348.697 392.044 L 349.243 390.186 C 350.044 390.438 353.838 391.313 354.366 391.022 C 362.536 386.519 370.532 380.617 378.309 375.47 C 445.742 330.603 512.215 284.309 577.682 236.618 C 584.227 231.888 590.692 227.05 597.077 222.105 C 561.645 169.278 528.911 114.691 499.001 58.5538 C 479.034 67.9466 456.319 80.3208 436.388 90.4497 L 249.051 187.355 C 247.669 190.025 248.39 190.134 249.313 193.706 L 248.729 194.472 C 246.788 193.804 244.274 189.662 242.892 187.749 C 326.175 141.226 415.381 97.8877 500.399 54.08 z" fill="rgb(0,0,68)" transform="translate(0,0)"></path>
<path d="M 1424.89 9.02857 C 1428.07 9.66249 1435.22 29.2757 1436.82 33.1587 L 1456.14 80.0607 L 1495.52 175.925 C 1498.73 183.72 1520.39 233.196 1519.29 238.155 L 1517.05 238.609 C 1514.04 236.081 1513.09 224.578 1510.42 219.589 C 1506.3 211.887 1502.78 202.696 1499.45 194.548 C 1484.37 157.225 1469.05 120.003 1453.49 82.8829 C 1444.07 59.959 1434.5 35.3508 1424.44 12.8085 C 1362.55 35.1375 1294.36 62.7246 1233.29 87.3823 L 1232.15 88.5535 C 1233.36 95.6639 1248.51 127.964 1252.15 136.973 C 1268.26 176.88 1284.58 216.706 1301.09 256.448 C 1306.81 270.42 1312.44 284.219 1317.34 298.52 C 1318.29 301.282 1323.02 306.087 1325.12 308.237 C 1324.59 310.436 1324.6 309.804 1322.02 311.485 L 1319.83 310.99 C 1317.7 308.751 1236.32 107.893 1227.04 85.7657 C 1292.12 60.4792 1359.39 32.5633 1424.89 9.02857 z" fill="rgb(0,0,68)" transform="translate(0,0)"></path>
<path d="M 1303.24 662.786 C 1305.72 663.465 1316.13 681.039 1318.21 684.253 C 1349.31 732.424 1385.61 776.228 1420.05 821.796 C 1395.25 839.053 1369.61 859.429 1345.02 877.437 C 1304.02 907.939 1263.15 938.652 1222.19 969.217 C 1218.97 971.621 1210.46 980.428 1207.25 980.613 C 1204.32 978.769 1205.03 979.794 1204.02 976.887 L 1205.46 975.085 L 1207.3 976.162 C 1211.64 974.778 1246.15 947.022 1253.1 941.813 L 1395.87 835.296 L 1415.2 821.165 C 1405.88 807.193 1388 786.245 1377.17 771.885 C 1351.08 737.996 1326.43 703.018 1303.3 667.045 C 1239.97 714.101 1168.63 751.693 1102.33 794.602 C 1098.78 796.901 1098.35 798.937 1096.61 802.701 L 1095.11 802.326 L 1093.12 798.919 C 1093.8 796.636 1094.77 795.58 1096.82 794.23 C 1164.84 749.513 1238.12 711.521 1303.24 662.786 z" fill="rgb(0,0,68)" transform="translate(0,0)"></path>
<path d="M 1502.64 262.062 C 1511.87 279.325 1519.59 297.233 1529.4 314.65 C 1552.23 355.224 1576.5 393.128 1602.45 431.613 C 1562.36 455.703 1522.24 478.693 1481.48 501.59 C 1446.99 520.965 1412.08 542.013 1377.04 560.198 C 1374.88 557.484 1372.38 554.835 1372.02 551.517 L 1373.03 551.05 C 1374.82 552.669 1376.3 554.157 1377.99 555.879 C 1383.26 555.353 1573.12 445.465 1593.57 433.26 L 1596.55 431.206 C 1597.05 426.946 1576.26 398.508 1572.53 392.708 C 1546.03 352.212 1522.29 309.973 1501.47 266.279 C 1427.06 305.509 1350.83 344.176 1279.5 389.269 C 1278.28 390.044 1278.8 392.958 1278.76 394.618 C 1276.59 394.627 1277.13 394.425 1274.98 392.383 L 1275.04 390.418 C 1285.86 375.321 1476.06 275.029 1502.64 262.062 z" fill="rgb(0,0,68)" transform="translate(0,0)"></path>
<path d="M 1773.3 258.769 C 1776.72 259.929 1796.88 285.319 1800.46 289.581 L 1861.75 363.416 C 1877.04 381.751 1892.28 400.278 1907.3 418.855 C 1908.7 420.593 1910.3 422.986 1910.53 425.256 C 1910.7 426.891 1909.76 427.266 1908.36 428.847 L 1907.15 428.476 L 1907.86 425.605 C 1906.4 420.707 1786.61 277.479 1774.28 262.707 C 1733.67 292.07 1692.68 320.897 1651.32 349.179 C 1650.07 350.149 1650.4 349.972 1649.51 351.395 C 1658.9 368.959 1672.35 389.863 1682.92 406.974 L 1736.33 493.253 C 1743.69 505.134 1755.3 522.15 1761.57 533.773 L 1760.67 534.639 C 1755.81 532.875 1655.73 369.562 1644.99 350.118 C 1684.91 322.898 1735.46 288.61 1773.3 258.769 z" fill="rgb(0,0,68)" transform="translate(0,0)"></path>
<path d="M 1667.3 30.7599 L 1668.91 31.3128 L 1669.43 32.8099 C 1665.99 36.3058 1638.36 55.5527 1631.92 60.2715 L 1550.06 121.262 C 1584.72 175.663 1623.91 232.35 1660.25 286.107 C 1663.22 290.495 1663.22 287.216 1666.1 288.712 L 1665.56 291.409 C 1664.41 291.693 1663.03 292.159 1661.85 291.89 C 1656.51 290.667 1555.95 136.013 1545.86 120.281 C 1550.31 117.31 1554.74 114.014 1558.95 110.698 C 1594.26 82.9126 1631.25 57.4865 1667.3 30.7599 z" fill="rgb(0,0,68)" transform="translate(0,0)"></path>
<path d="M 773.573 266.589 C 774.126 266.812 775.595 267.323 776.074 268.026 C 817.847 329.354 858.456 391.504 899.851 453.097 C 899.927 454.678 899.988 455.945 900.034 456.899 C 895.042 453.716 839.23 368.04 832.365 357.774 L 795.566 302.776 C 791.833 297.215 772.952 270.953 773.573 266.589 z" fill="rgb(0,0,68)" transform="translate(0,0)"></path>
<path d="M 629.92 363.397 C 633.943 365.32 632.759 368.111 635.051 372.519 C 639.275 380.647 643.684 388.497 648.199 396.462 L 703.219 494.441 C 713.177 512.026 722.131 529.07 733.254 545.945 L 732.381 547.5 C 731.652 547.414 730.446 546.945 729.751 546.712 C 711.481 518.831 689.159 475.63 672.411 445.769 L 643.342 393.796 C 639.28 386.492 631.766 373.787 628.579 366.566 L 629.92 363.397 z" fill="rgb(0,0,68)" transform="translate(0,0)"></path>
<path d="M 1680.9 26.7757 C 1686.28 31.3334 1697.19 46.3157 1702.23 52.3578 C 1722.23 76.1551 1741.89 100.238 1761.2 124.599 C 1777.34 144.778 1794.38 165.531 1809.49 186.556 C 1811.62 189.518 1811.47 190.046 1811.22 193.131 C 1779.36 151.855 1746.81 111.119 1713.58 70.9408 C 1711.21 68.1137 1678.82 29.0086 1679.02 29.5948 L 1680.9 26.7757 z" fill="rgb(0,0,68)" transform="translate(0,0)"></path>
<metadata><recraft-signature>{"signed_by": "recraft", "signature_b64": "y3FG+qMRTCwc0TxkTaPtTiB/Lh/bDJ/o98nbF3PU9DZgiRFTY/lP0s8r7cEOsqa+UQYM9Z+5Q7Dyk4VaVxbTCQ==", "signing_algo": "Ed25519", "generation_timestamp": 1781848354, "identifier": "6dc568b1-81b7-4d2d-a5de-e114415e9013"}</recraft-signature></metadata></svg>