<?xml version="1.0" encoding="UTF-8"?><svg id="a" xmlns="http://www.w3.org/2000/svg" viewBox="0 0 1080 1080"><path d="M971.256,578.5l-11.828,191.904-3.901,70.112c-1.456,26.17-10.986,50.749-31.842,67.147-13.935,10.956-30.48,17.493-48.578,17.495l-629.732.068c-29.47.003-55.041-16.693-69.15-41.778-8.426-14.981-9.681-30.588-10.501-47.829l-8.404-176.71-8.706-154.513-3.676-69.72c-2.668-30.078,9.081-55.399,32.739-73.633l1.022-135.929c1.882-39.228,35.289-70.161,73.853-70.193l173.953-.146c27.974-.024,50.772,14.304,67.046,36.31l18.012,24.356c10.382,14.039,25.498,23.202,43.606,23.205l220.879.038,90.829.079c20.087.018,39.408,7.304,52.988,21.98l4.703,5.083c9.257,10.005,14.43,23.115,16.778,36.399l.357,8.158-.149,85.327c22.808,10.459,38.038,32.27,36.639,57.531l-6.936,125.258ZM904.995,391.006l.159-32.943c-1.733-32.092-28.077-54.245-59.563-54.299l-229.769-.389-201.686-.786-147.12-.239c-26.793-.044-49.129,20.124-55.313,46.19l189.902-.083c16.997-.007,32.303,4.789,44.331,16.458l15.213,14.76c7.881,6.52,18.111,11.297,28.977,11.298l414.869.031Z" fill="#004b7d"/><path d="M904.995,391.006l-414.869-.031c-10.866,0-21.096-4.778-28.977-11.298l-15.213-14.76c-12.028-11.669-27.334-16.466-44.331-16.458l-189.902.083c6.183-26.066,28.52-46.234,55.313-46.19l147.12.239,201.686.786,229.769.389c31.486.053,57.831,22.206,59.563,54.299l-.159,32.943Z" fill="#e5e6e7"/><path d="M456.764,796.807l-11.227.676-104.975,5.458c-9.631.501-18.363-5.592-22.38-13.215-3.907-7.414-5.18-18.274.706-25.802l66.756-85.376,35.203-44.78c1.908-2.427,3.974-5.5,6.982-6.572l37.662-13.421c46.488-18.265,91.07-39.119,135.909-61.172l56.362-27.72c2.121-1.043,6.272-3.22,7.792-.357l12.126,22.855,24.39,46.757,31.388,59.484c.807,1.53-.197,4.149-1.782,5.019-47.915,26.286-95.384,52.448-141.811,81.462-26.465,16.539-51.459,33.992-76.224,52.564-2.545,1.909-5.995,1.578-8.888,1.723l-47.99,2.416ZM344.575,785.108l13.793-7.245,62.135-32.003,49.934-25.18c10.214,7.289,23.533,12.294,36.29,7.234,10.999-4.362,20.416-12.784,23.219-25.609,3.194-14.614-3.224-28.765-13.93-36.38-13.104-9.321-28.338-8.007-39.78-1.18-14.021,8.366-17.207,24.186-16.101,38.572l-61.181,31.894-47.493,24.68-16.601,9.346c-4.091,2.303-3.736,8.944-1.455,12.566,2.004,3.182,6.86,5.57,11.171,3.306Z" fill="#e5e6e7"/><path d="M765.372,640.851c-1.674.967-3.665.874-4.911.319-1.368-.61-2.263-2.11-3.278-4.04l-65.932-125.328c-1.374-2.612.864-4.634,2.826-5.58l17.747-8.561c24.386-8.8,50.251.213,63.402,22.888l13.261,28.534,7.453,17.589c11.642,23.137,5.341,49.843-15.586,65.519l-14.982,8.659Z" fill="#e5e6e7"/></svg>