<svg xmlns="http://www.w3.org/2000/svg" height="768" preserveAspectRatio="none" style="display: block;" version="1.1" viewBox="0 0 2048 1170" width="1344">
<path d="M 0 0 L 2048 0 L 2048 1170 L 0 1170 L 0 0 z" fill="rgb(252,250,247)" transform="translate(0,0)"></path>
<path d="M 1026.04 341.85 C 1022.19 328.507 1017.42 314.731 1014.86 301.1 C 1013.97 296.357 1016.89 295.001 1021.01 294.041 C 1061.87 284.51 1103 276.113 1143.83 266.47 C 1170.15 260.141 1196.52 253.991 1222.92 248.022 C 1236.08 245.068 1255.21 240.108 1268.14 239.463 C 1271.93 242.421 1293.71 350.723 1296.77 365.557 C 1293.9 367.566 1289.4 369.712 1286.18 371.37 C 1279.38 333.21 1269.27 290.532 1261.53 251.905 L 1109.3 286.619 C 1083.17 292.403 1052.64 297.833 1027.22 304.516 C 1031.82 319.163 1036.1 334.616 1040.39 349.396 C 1050.93 352.977 1051.89 353.154 1049.22 363.686 C 1064.88 403.025 1068.72 443.744 1078.32 484.393 C 1090.22 534.833 1102.92 585.916 1115.92 636.076 C 1147.99 625.988 1180.05 616.622 1211.94 605.957 C 1206.56 595.418 1200.26 585.078 1194.23 574.876 C 1180.04 579.198 1154.47 587.603 1140.72 586.857 C 1130.53 586.305 1125.86 566.905 1145.6 564.456 C 1150.68 563.826 1179.26 556.429 1182.45 554.818 L 1182.86 553.169 C 1175.72 548.624 1134.69 569.752 1127.35 556.463 C 1113.24 530.929 1167.18 532.983 1180.79 524.535 L 1180.93 522.949 C 1172.78 519.159 1135.42 535.298 1122.42 533.6 C 1120.91 533.403 1120.04 532.98 1119.19 531.661 C 1116.84 527.977 1114.63 521.312 1115.67 516.925 C 1118.62 504.489 1167.63 501.113 1180.62 493.279 L 1180.74 490.826 C 1174.01 485.771 1117.8 513.885 1110.47 496.859 C 1097.9 467.652 1176.8 472.004 1181.89 459.759 C 1174.48 451.094 1117.15 475.845 1108.4 471.319 C 1104.57 469.339 1101.87 465.694 1100.67 461.589 C 1099.76 458.472 1099.89 454.913 1101.61 452.089 C 1103.32 449.278 1106.04 447.916 1108.97 446.75 C 1118 443.163 1128.35 441.591 1137.83 439.448 C 1152.5 436.205 1167.13 432.755 1181.7 429.1 L 1182.14 427.015 C 1184.82 425.444 1185.68 426.001 1189.1 426.021 C 1192.43 425.669 1195.01 425.439 1198.36 425.322 C 1199.63 424.982 1200.51 424.756 1201.76 424.324 C 1222.04 415.35 1243.6 402.133 1263.25 391.098 C 1297.78 371.839 1332.53 352.967 1367.49 334.485 C 1381.54 326.992 1404.08 313.932 1417.79 307.799 C 1459.21 370.52 1496.25 441.465 1535.78 505.934 C 1554.36 536.225 1569.72 565.928 1591.43 594.373 C 1589.72 598.483 1584.82 600.23 1580.7 602.17 C 1585.41 609.513 1590.47 617.138 1594.99 624.55 C 1591.25 626.507 1586.08 629.036 1582.68 631.31 C 1586.11 636.226 1592.8 645.324 1595.48 650.222 C 1590.54 653.21 1588.33 654.312 1582.97 656.467 L 1594.54 676.401 C 1591 678.214 1586.46 680.38 1583.11 682.353 C 1587.11 688.662 1591.48 695.253 1595.08 701.757 L 1583.43 708.068 C 1588.27 714.475 1591.82 718.898 1595.53 726.041 C 1580.1 735.715 1553.91 748.384 1536.72 757.444 L 1425.88 815.322 C 1410.13 823.5 1393.58 831.391 1378.09 839.867 C 1370.33 844.335 1362.66 848.186 1354.93 852.504 C 1352.6 854.044 1352.33 854.423 1349.65 854.74 C 1339.29 847.777 1225.31 639.893 1213.2 615.119 L 1203.25 618.355 C 1209.2 643.501 1217.31 668.883 1224.66 693.74 C 1235.97 732.613 1247.53 771.415 1259.32 810.144 C 1265.35 830.196 1271.98 851.102 1278.28 871.145 C 1280.06 876.821 1275.59 881.582 1270.02 883.084 C 1254.61 887.238 1239.11 891.378 1223.68 895.667 C 1180.23 907.77 1136.61 919.261 1092.84 930.137 C 1073.16 935.13 1047.82 942.262 1027.67 945.517 C 1027.28 946.059 1025.6 944.484 1025.52 944.218 C 1000.48 856.602 984.738 766.26 959.6 678.496 C 956.292 666.946 938.589 609.38 939.786 601.75 C 945.196 597.102 971.322 591.971 979.462 590.205 C 981.485 582.979 983.492 574.293 984.945 566.933 C 998.822 496.661 1020.72 431.169 1046 364.32 C 997.496 341.19 947.894 319.992 899.193 297.268 C 873.15 285.116 847.192 273.16 820.843 261.691 C 819.118 268.36 817.679 275.516 816.261 282.279 C 799.406 362.67 773.382 440.62 750.312 519.354 C 745.62 535.367 740.668 552.174 731.947 566.504 L 740.497 579.118 C 757.391 585.597 774.195 592.31 791.104 598.742 C 793.731 599.741 797.524 599.539 800.343 599.608 C 803.665 599.688 804.017 602.013 805.324 604.559 C 803.51 606.722 801.397 609.476 799.27 611.239 C 792.909 612.489 701.315 663.585 690.388 669.76 C 744.273 767.164 792.335 872.762 845.078 971.457 C 886.4 948.084 930.818 928.527 972.898 906.559 C 977.891 903.953 995.328 891.806 998.979 900.914 C 996.695 910.075 985.177 912.67 977.772 916.622 C 965.902 922.957 953.768 928.865 941.751 934.922 L 882.293 965.09 C 874.592 969.02 848.022 984.247 840.454 983.467 C 834.474 979.795 808.894 923.057 803.31 911.457 L 754.654 812.151 C 742.639 787.556 730.611 761.861 717.824 737.779 C 707.043 717.475 682.651 685.707 674.653 664.434 C 685.006 656.661 711.069 644.932 723.229 639.066 C 746.743 627.895 769.881 615.947 792.603 603.243 C 776.679 597.839 761.002 591.829 744.871 586.432 C 749.032 592.746 759.312 604.443 754.611 611.082 C 753.139 611.72 751.84 612.369 750.197 612.08 C 745.281 611.218 704.697 538.719 697.771 527.754 C 692.597 519.564 686.769 511.821 680.929 504.099 C 651.629 518.572 622.095 535.388 593.385 551.179 L 471.234 618.013 C 473.663 623.888 479.795 635.056 483.006 641.3 C 494.163 662.617 505.594 683.789 517.298 704.811 L 588.338 836.537 C 600.378 858.952 612.741 880.057 624.128 902.954 C 636.006 897.013 740.942 841.817 744.141 841.704 C 747.109 841.599 748.027 842.478 750.169 844.253 C 750.978 846.89 751.534 847.308 750.452 850.104 C 749.892 851.335 748.716 852.63 747.527 853.228 C 716.736 868.72 686.149 884.633 655.546 900.494 C 644.085 906.434 632.722 912.58 620.995 917.976 C 615.605 911.517 605.618 892.172 601.124 883.907 L 570.762 828.171 L 504.256 704.84 C 493.584 685.193 460.333 629.197 456.603 612.029 C 462.713 607.558 478.031 599.799 485.441 595.782 L 539.055 566.529 C 585 541.249 637.005 510.053 682.737 487.045 C 684.94 474.111 700.154 470.656 710.855 466.256 C 714.328 465.188 717.589 464.587 720.719 466.581 C 742.486 480.448 697.184 498.245 687.32 499.335 C 700.755 518.028 713.088 538.598 726.459 557.721 C 729.124 551.947 731.501 545.313 733.637 539.245 C 765.501 448.758 787.175 354.176 809.266 260.891 C 810.185 257.012 811.897 251.531 814.733 248.753 C 817.503 247.807 821.219 249.188 823.806 250.395 C 890.685 281.611 959.152 310.791 1026.04 341.85 z" fill="rgb(0,0,68)" transform="translate(0,0)"></path>
<path d="M 1201.76 424.324 C 1222.04 415.35 1243.6 402.133 1263.25 391.098 C 1297.78 371.839 1332.53 352.967 1367.49 334.485 C 1381.54 326.992 1404.08 313.932 1417.79 307.799 C 1459.21 370.52 1496.25 441.465 1535.78 505.934 C 1554.36 536.225 1569.72 565.928 1591.43 594.373 C 1589.72 598.483 1584.82 600.23 1580.7 602.17 C 1585.41 609.513 1590.47 617.138 1594.99 624.55 C 1591.25 626.507 1586.08 629.036 1582.68 631.31 C 1586.11 636.226 1592.8 645.324 1595.48 650.222 C 1590.54 653.21 1588.33 654.312 1582.97 656.467 L 1594.54 676.401 C 1591 678.214 1586.46 680.38 1583.11 682.353 C 1587.11 688.662 1591.48 695.253 1595.08 701.757 L 1583.43 708.068 C 1588.27 714.475 1591.82 718.898 1595.53 726.041 C 1580.1 735.715 1553.91 748.384 1536.72 757.444 L 1425.88 815.322 C 1410.13 823.5 1393.58 831.391 1378.09 839.867 C 1377.94 833.613 1377.02 815.634 1379.06 810.693 L 1378.6 807.72 C 1377.69 801.986 1377.37 779.549 1379.02 774.475 L 1378.18 771.948 C 1377.99 765.666 1376.65 743.606 1379.52 739.653 L 1378.55 736.967 C 1377.1 727.674 1378.89 713.209 1379.9 703.803 C 1376.47 705.349 1370.9 708.885 1367.49 710.915 C 1336.89 652.827 1302.92 595.803 1272.04 537.834 C 1267.4 529.116 1262.78 520.356 1257.97 511.73 L 1224.88 453.289 C 1221.35 447.043 1214.18 436.058 1211.7 430.176 L 1210.9 430.321 C 1207.35 428.312 1204.73 427.104 1201.76 424.324 z" fill="rgb(252,250,247)" transform="translate(0,0)"></path>
<path d="M 1201.76 424.324 C 1222.04 415.35 1243.6 402.133 1263.25 391.098 C 1297.78 371.839 1332.53 352.967 1367.49 334.485 C 1381.54 326.992 1404.08 313.932 1417.79 307.799 C 1459.21 370.52 1496.25 441.465 1535.78 505.934 C 1554.36 536.225 1569.72 565.928 1591.43 594.373 C 1589.72 598.483 1584.82 600.23 1580.7 602.17 C 1585.41 609.513 1590.47 617.138 1594.99 624.55 C 1591.25 626.507 1586.08 629.036 1582.68 631.31 C 1586.11 636.226 1592.8 645.324 1595.48 650.222 C 1590.54 653.21 1588.33 654.312 1582.97 656.467 L 1594.54 676.401 C 1591 678.214 1586.46 680.38 1583.11 682.353 C 1587.11 688.662 1591.48 695.253 1595.08 701.757 L 1583.43 708.068 C 1588.27 714.475 1591.82 718.898 1595.53 726.041 C 1580.1 735.715 1553.91 748.384 1536.72 757.444 L 1425.88 815.322 C 1410.13 823.5 1393.58 831.391 1378.09 839.867 C 1377.94 833.613 1377.02 815.634 1379.06 810.693 L 1378.6 807.72 C 1377.69 801.986 1377.37 779.549 1379.02 774.475 L 1378.18 771.948 C 1377.99 765.666 1376.65 743.606 1379.52 739.653 L 1378.55 736.967 C 1377.1 727.674 1378.89 713.209 1379.9 703.803 C 1420.42 679.468 1461.2 655.563 1502.23 632.095 C 1525.66 618.551 1549.39 603.384 1573.38 591.2 C 1560.38 571.21 1546.55 545.611 1534.05 524.682 C 1494.57 457.386 1454.67 390.341 1414.34 323.552 C 1384.16 340.917 1346.85 359.465 1315.81 375.511 L 1211.7 430.176 L 1210.9 430.321 C 1207.35 428.312 1204.73 427.104 1201.76 424.324 z" fill="rgb(0,0,68)" transform="translate(0,0)"></path>
<path d="M 1378.6 807.72 L 1504 741.323 C 1513.9 736.059 1570.22 704.696 1575.38 705.648 C 1574.47 710.324 1554.12 718.13 1548.93 720.931 C 1534.89 728.516 1520.66 735.889 1506.57 743.375 L 1419.39 789.657 C 1410.52 794.364 1386.84 807.831 1379.06 810.693 L 1378.6 807.72 z" fill="rgb(3,213,171)" transform="translate(0,0)"></path>
<path d="M 1378.55 736.967 C 1399.84 726.606 1568.32 633.941 1574.16 634.806 C 1569.13 641.445 1538.57 655.524 1529.79 660.103 L 1452.62 701.031 L 1402.26 728.04 C 1397.98 730.323 1383.39 738.441 1379.52 739.653 L 1378.55 736.967 z" fill="rgb(3,213,171)" transform="translate(0,0)"></path>
<path d="M 1378.18 771.948 C 1403.24 761.62 1565.45 667.859 1572.69 670.05 C 1570.85 674.198 1534.72 691.863 1528.31 695.228 L 1445.7 738.654 C 1431.78 745.929 1417.97 753.395 1404.26 761.049 C 1398.15 764.44 1385.2 772.278 1379.02 774.475 L 1378.18 771.948 z" fill="rgb(13,148,136)" transform="translate(0,0)"></path>
<path d="M 1432.47 419.07 C 1444.18 421.709 1448.86 436.115 1437.48 442.966 C 1428.85 448.158 1419.76 452.584 1410.8 457.189 L 1362.9 481.778 C 1345.89 490.535 1312.76 509.413 1296.62 515.689 C 1288.57 512.332 1281.99 505.224 1286.55 495.624 C 1287.35 493.95 1289.2 492.613 1290.8 491.691 C 1314.48 478.017 1339.45 466.589 1363.52 453.609 C 1376.73 446.849 1420.17 422.597 1432.47 419.07 z" fill="rgb(0,0,68)" transform="translate(0,0)"></path>
<path d="M 1476.25 493.071 C 1489.13 495.027 1495.27 509.595 1482.44 516.835 C 1463.88 527.308 1444.52 537.647 1425.41 547.069 C 1396.69 561.224 1368.47 577.07 1339.67 590.879 C 1326.96 588.854 1321.89 574.275 1332.58 568.061 C 1346.81 559.782 1362.18 552.652 1376.81 544.845 L 1442.27 510.729 C 1453.31 505 1465.06 498.217 1476.25 493.071 z" fill="rgb(0,0,68)" transform="translate(0,0)"></path>
<path d="M 1509.06 567.103 C 1509.92 567.277 1510.75 567.45 1511.6 567.678 C 1515.76 568.83 1519.25 571.657 1521.23 575.482 C 1524.12 581.15 1520.9 587.307 1515.8 590.229 C 1479.57 610.964 1442.7 630.913 1405.9 650.624 C 1396.24 655.793 1385.33 661.905 1375.53 666.237 C 1364.31 663.356 1356.35 650.15 1366.91 644.403 C 1402.39 625.085 1438.02 606.036 1473.34 586.408 C 1484.85 580.011 1497.19 572.497 1509.06 567.103 z" fill="rgb(0,0,68)" transform="translate(0,0)"></path>
<path d="M 1441.52 447.983 C 1458.49 447.813 1458.7 465.673 1450.01 470.26 C 1406.7 493.126 1357.23 520.684 1313.41 541.125 C 1304.23 541.389 1298.89 533.194 1300.09 525.734 C 1301.48 517.089 1329.65 505.035 1336.98 501.537 C 1372.03 484.824 1406 463.21 1441.52 447.983 z" fill="rgb(0,0,68)" transform="translate(0,0)"></path>
<path d="M 1492.97 543.117 C 1499.93 544.175 1507.48 548.132 1507.11 556.509 C 1506.51 563.477 1496.37 569.458 1490.7 572.396 C 1448.67 594.185 1407.07 619.793 1364.86 640.83 C 1355.29 641.106 1345.27 625.131 1356.95 618.271 C 1393.74 596.656 1431.67 577.111 1468.75 555.997 C 1476.18 551.768 1485.16 546.342 1492.97 543.117 z" fill="rgb(0,0,68)" transform="translate(0,0)"></path>
<path d="M 1387.54 371.053 C 1402.5 374.569 1408.2 388.654 1392.29 397.372 C 1369.36 409.941 1345.77 421.805 1322.3 433.402 C 1304.65 442.126 1286.1 453.798 1268.33 461.371 C 1254.37 462.67 1250.37 445.787 1259.17 440.47 C 1273.85 431.601 1289.54 423.116 1304.71 415.069 L 1387.54 371.053 z" fill="rgb(0,0,68)" transform="translate(0,0)"></path>
<path d="M 1392.5 403.9 C 1408.46 404.791 1411.36 420.776 1400.49 427.827 C 1387.2 436.448 1370.85 443.896 1356.54 451.158 L 1283.9 488.704 C 1271.3 487.078 1263.98 472.328 1276.85 465.124 C 1293.06 456.05 1309.87 447.035 1326.47 438.692 C 1348.56 427.597 1370.28 414.519 1392.5 403.9 z" fill="rgb(0,0,68)" transform="translate(0,0)"></path>
<path d="M 1444.81 480.039 C 1459.07 480.717 1458.34 495.255 1450.88 499.391 C 1409.3 522.427 1366.69 543.613 1323.5 563.512 C 1322.17 563.431 1320.9 563.308 1319.61 562.94 C 1316.69 562.115 1314.28 560.057 1313 557.303 C 1310.56 552.025 1314.7 546.885 1319.14 544.308 C 1335.26 535.404 1351.9 526.537 1368.44 518.439 C 1393.76 506.05 1419.13 491.49 1444.81 480.039 z" fill="rgb(0,0,68)" transform="translate(0,0)"></path>
<path d="M 1466.68 530.853 C 1472.98 530.279 1476.41 532.698 1477.13 539.102 C 1477.42 541.777 1476.63 544.457 1474.94 546.548 C 1469.87 552.701 1419.76 577.19 1408.94 583.765 C 1400.92 588.632 1356.05 613.561 1350.39 614.264 C 1343.8 612.528 1336.4 609.126 1338.83 600.518 C 1339.76 597.245 1342.78 594.784 1345.58 592.99 C 1361.13 583.049 1378.4 575.79 1394.71 567.174 C 1418.7 555.141 1442.45 542.255 1466.68 530.853 z" fill="rgb(0,0,68)" transform="translate(0,0)"></path>
<path d="M 1198.36 425.322 C 1199.63 424.982 1200.51 424.756 1201.76 424.324 C 1204.73 427.104 1207.35 428.312 1210.9 430.321 L 1211.7 430.176 C 1214.18 436.058 1221.35 447.043 1224.88 453.289 L 1257.97 511.73 C 1262.78 520.356 1267.4 529.116 1272.04 537.834 C 1302.92 595.803 1336.89 652.827 1367.49 710.915 C 1370.9 708.885 1376.47 705.349 1379.9 703.803 C 1378.89 713.209 1377.1 727.674 1378.55 736.967 L 1379.52 739.653 C 1376.65 743.606 1377.99 765.666 1378.18 771.948 L 1379.02 774.475 C 1377.37 779.549 1377.69 801.986 1378.6 807.72 L 1379.06 810.693 C 1377.02 815.634 1377.94 833.613 1378.09 839.867 C 1370.33 844.335 1362.66 848.186 1354.93 852.504 C 1356.35 814.592 1355.79 773.727 1355.91 735.588 C 1341.83 716.217 1320.38 676.317 1307.95 654.185 L 1220.29 495.431 C 1212.31 480.938 1191.44 438.086 1181.7 429.1 L 1182.14 427.015 C 1184.82 425.444 1185.68 426.001 1189.1 426.021 C 1192.43 425.669 1195.01 425.439 1198.36 425.322 z" fill="rgb(3,213,171)" transform="translate(0,0)"></path>
<path d="M 1198.36 425.322 C 1199.63 424.982 1200.51 424.756 1201.76 424.324 C 1204.73 427.104 1207.35 428.312 1210.9 430.321 C 1204.27 433.189 1204.07 433.73 1196.39 431.005 C 1197.2 428.94 1197.71 427.478 1198.36 425.322 z" fill="rgb(5,87,117)" transform="translate(0,0)"></path>
<path d="M 1189.1 426.021 C 1192.43 425.669 1195.01 425.439 1198.36 425.322 C 1197.71 427.478 1197.2 428.94 1196.39 431.005 C 1193.09 429.649 1190.04 429.863 1189.1 426.021 z" fill="rgb(13,148,136)" transform="translate(0,0)"></path>
<path d="M 1350.89 705.048 C 1307.85 630.155 1265.93 554.618 1225.17 478.462 C 1221.77 472.182 1202.2 438.443 1201.47 434.696 C 1208.8 436.707 1225.23 470.908 1229.63 479.078 L 1268.57 551.743 L 1352.27 703.992 L 1350.89 705.048 z" fill="rgb(252,250,247)" transform="translate(0,0)"></path>
<path d="M 1352.27 703.992 C 1358.82 713.663 1356.45 716.539 1350.89 705.048 L 1352.27 703.992 z" fill="rgb(102,232,210)" transform="translate(0,0)"></path>
<path d="M 1046.15 387.557 C 1050.57 396.181 1056.85 438.434 1059.82 450.734 C 1068.22 485.472 1077.66 520.032 1086.29 554.68 L 1100.52 611.424 C 1102.82 620.333 1106.57 636.151 1110.19 643.954 C 1130.93 639.85 1171.92 626.892 1193.2 620.755 C 1200.9 642.012 1209.07 674.288 1215.6 696.451 L 1266.25 871.565 C 1203.49 889.369 1140.48 906.267 1077.24 922.254 C 1062.35 925.685 1047.54 929.436 1032.82 933.504 C 1026.15 900.036 1014.9 858.836 1006.48 825.315 L 951.309 608.751 C 990.974 600.389 1032.18 588.431 1071.49 577.789 C 1074.19 577.057 1075.84 574.485 1076.78 572.04 C 1072.35 561.918 1053.61 570.574 1045.22 572.758 L 990.445 586.936 C 1010.93 521.185 1023.21 452.509 1046.15 387.557 z" fill="rgb(252,250,247)" transform="translate(0,0)"></path>
<path d="M 1187.99 741.298 C 1203.74 743.402 1204.82 761.078 1192.6 765.057 C 1177.26 770.051 1160.51 774.184 1144.83 778.467 C 1109.3 788.378 1073.63 797.771 1037.84 806.646 C 1030.88 806.429 1027.39 803.11 1025.2 796.571 C 1019.91 780.803 1049.15 777.367 1060.2 774.339 C 1080.31 768.88 1100.46 763.576 1120.65 758.427 C 1138.22 753.874 1171.47 743.887 1187.99 741.298 z" fill="rgb(0,0,68)" transform="translate(0,0)"></path>
<path d="M 1166.45 679.129 C 1183.51 677.656 1184.74 700.47 1172.52 704.414 C 1156.13 709.703 1139.02 714.339 1122.4 719.099 C 1090.29 728.234 1058.23 737.542 1026.22 747.025 C 1011.15 749.422 1009.45 732.567 1013.29 728.096 C 1019.49 720.876 1059.22 710.975 1068.66 708.122 C 1101.59 698.17 1133.82 688.047 1166.45 679.129 z" fill="rgb(0,0,68)" transform="translate(0,0)"></path>
<path d="M 1166.15 712.107 C 1183.13 709.587 1187.18 733.17 1170.93 737.704 C 1126.96 749.975 1081.89 764.872 1037.69 775.839 C 1020.93 777.914 1018.78 756.513 1030.92 752.025 C 1046.14 746.394 1062.65 742.068 1078.3 737.548 L 1166.15 712.107 z" fill="rgb(0,0,68)" transform="translate(0,0)"></path>
<path d="M 1189.4 805.085 C 1200.73 803.588 1207.3 815.138 1202.8 823.905 C 1201.65 826.15 1199.79 827.945 1197.5 829.004 C 1191.68 831.727 1170.7 836.678 1163.77 838.459 C 1144.44 843.471 1125.08 848.368 1105.7 853.15 C 1089.94 857.002 1072.33 860.782 1057.23 866.317 C 1042.14 868.986 1035.59 847.722 1051.94 842.041 C 1067.78 836.535 1083.92 832.982 1100.14 828.775 C 1129.97 821.169 1159.73 813.272 1189.4 805.085 z" fill="rgb(0,0,68)" transform="translate(0,0)"></path>
<path d="M 1149.41 651.07 C 1165.4 650.674 1166.12 670.363 1155.68 674.601 C 1144.08 679.306 1129.7 682.783 1117.55 686.455 C 1084.44 696.633 1051.16 706.272 1017.73 715.369 C 999.874 714.426 1000.02 695.757 1011.55 691.35 C 1027.51 685.253 1045.8 680.845 1062.39 676.145 L 1149.41 651.07 z" fill="rgb(0,0,68)" transform="translate(0,0)"></path>
<path d="M 1170.8 778.196 C 1189.05 774.605 1191.45 798.006 1180.02 801.744 C 1167.31 805.902 1152.11 809.602 1139.09 813.029 C 1109.26 820.926 1079.36 828.538 1049.39 835.866 C 1029.51 837.845 1031.23 815.85 1040.46 812.636 C 1053.64 808.048 1071.04 804.024 1084.77 800.524 C 1113.51 793.31 1142.19 785.867 1170.8 778.196 z" fill="rgb(0,0,68)" transform="translate(0,0)"></path>
<path d="M 1198.77 835.234 C 1201.15 834.907 1203.3 834.88 1205.52 835.973 C 1208.2 837.301 1210.04 840.913 1210.81 843.711 C 1211.68 846.821 1211.29 850.758 1209.45 853.465 C 1204.1 861.331 1077.4 890.99 1061.09 894.395 C 1049.92 895.496 1046.55 883.798 1050.67 876.76 C 1053.84 871.356 1075.2 866.62 1081.14 865.199 C 1120.52 855.777 1159.44 844.693 1198.77 835.234 z" fill="rgb(0,0,68)" transform="translate(0,0)"></path>
<path d="M 1065.95 642.203 C 1077.67 640.474 1084.32 656.383 1080.95 663.18 C 1074.22 668.295 1022.59 681.071 1011.49 683.863 C 996.193 685.993 994.326 668.236 997.392 664.561 C 1004.64 655.875 1055.57 644.883 1065.95 642.203 z" fill="rgb(0,0,68)" transform="translate(0,0)"></path>
<path d="M 1064.45 610.103 C 1077.89 608.676 1085.5 628.913 1067.71 634.902 C 1047.13 641.836 1025.93 646.18 1005.12 652.477 C 1001.79 653.427 1000.11 654.191 996.676 653.342 C 990.966 649.435 989.626 638.359 992.711 632.445 C 998.324 626.66 1052.57 613.366 1064.45 610.103 z" fill="rgb(0,0,68)" transform="translate(0,0)"></path>
<path d="M 830.07 366.53 C 842.784 367.95 943.678 406.302 957.627 414.024 C 959.178 416.333 960.871 419.76 962.217 422.288 C 967.427 423.273 974.342 424.337 978.658 426.308 C 989.579 431.517 986.115 449.854 974.128 451.722 C 970.848 452.233 968.902 462.662 959.828 460.706 C 939.716 456.371 919.88 450.562 899.977 445.271 C 870.841 437.525 840.798 431.644 812.303 421.784 C 808.709 410.335 812.471 397.03 826.454 400.35 C 870.86 410.895 915.022 423.527 959.205 435.095 C 964.087 436.373 970.734 441.436 974.602 438.573 L 974.676 436.254 C 968.306 430.71 953.801 428.891 945.6 426.647 C 926.99 421.553 831.989 398.367 824.566 390.147 C 822.567 387.934 822.179 384.923 822.433 382.052 C 823.023 375.379 824.927 370.773 830.07 366.53 z" fill="rgb(0,0,68)" transform="translate(0,0)"></path>
<path d="M 696.257 250.802 C 698.304 250.78 699.902 251.109 701.276 253.012 C 705.476 258.83 709.628 268.707 713.013 274.591 C 723.384 292.622 751.789 356.174 763.851 367.752 L 759.016 387.513 C 751.993 377.526 738.315 349.16 732.23 337.052 C 720.471 313.655 706.741 288.562 695.921 265.004 C 681.894 270.294 646.864 290.062 631.114 298.04 C 582.39 323.006 533.512 347.671 484.484 372.034 C 493.135 385.321 505.545 409.866 513.676 424.633 C 522.848 440.365 570.209 520.694 573.037 532.672 C 571.851 536.156 572.743 534.935 569.423 537.152 C 565.621 537.703 563.319 537.101 561.416 533.56 C 554.705 521.068 547.839 508.631 541.003 496.21 L 502.092 425.955 C 495.814 414.545 474.037 377.505 471.22 367.942 C 473.823 364.014 680.96 258.379 696.257 250.802 z" fill="rgb(0,0,68)" transform="translate(0,0)"></path>
<path d="M 925.863 693.924 C 942.2 693.277 946.314 712.677 934.413 718.784 C 887.391 742.915 840.29 770.824 792.742 793.626 C 787.42 793.597 782.534 792.627 779.589 787.536 C 776.758 782.64 777.248 773.667 782.59 770.677 C 799.519 761.2 816.714 752.143 833.86 743.055 L 925.863 693.924 z" fill="rgb(0,0,68)" transform="translate(0,0)"></path>
<path d="M 704.528 363.095 C 718.599 366.272 721.433 380.578 709.992 388.414 C 703.139 393.107 693.283 397.159 685.68 401.126 C 660.159 414.443 634.375 427.318 608.515 439.963 C 595.649 446.183 582.581 453.533 569.365 458.819 C 560.411 456.806 552.25 449.575 557.381 439.188 C 558.809 436.298 562.689 433.916 565.589 432.361 C 591.03 418.711 617.052 406.057 642.741 392.873 C 654.804 386.893 693.34 366.194 704.528 363.095 z" fill="rgb(0,0,68)" transform="translate(0,0)"></path>
<path d="M 690.982 610.046 C 692.638 609.939 694.409 609.84 696.049 610.115 C 699.478 610.68 702.503 612.681 704.364 615.616 C 709.013 622.831 706.469 629.844 699.263 633.578 C 652.322 657.904 604.072 678.939 556.956 703.072 C 555.074 703.175 552.594 702.972 550.768 702.418 C 547.602 701.457 545.611 699.416 544.175 696.516 C 542.227 692.582 540.655 688.247 542.224 683.926 C 544.241 678.369 675.147 616.941 690.982 610.046 z" fill="rgb(0,0,68)" transform="translate(0,0)"></path>
<path d="M 952.532 752.939 C 957.963 753.195 961.435 754.046 964.392 759.323 C 966.131 762.37 966.418 766.033 965.174 769.313 C 964.081 772.188 961.13 775.54 958.377 777.029 C 919.555 798.025 879.629 817.062 840.736 838.004 C 833.997 841.633 826.748 845.404 819.658 848.251 C 806.529 845.987 799.451 832.509 811.672 824.761 C 827.159 814.942 845.246 806.888 861.743 798.623 L 952.532 752.939 z" fill="rgb(0,0,68)" transform="translate(0,0)"></path>
<path d="M 803.497 454.686 C 822.482 460.388 961.544 497.696 967.761 504.169 C 970.104 506.608 971.761 509.743 971.621 513.184 C 971.393 518.8 968.925 521.85 964.987 525.502 C 957.347 527.04 913.584 513.108 904.285 510.074 C 870.481 499.047 833.898 491.64 802.708 474.171 C 796.215 470.535 799.672 459.335 803.497 454.686 z" fill="rgb(0,0,68)" transform="translate(0,0)"></path>
<path d="M 723.815 424.98 C 740.588 423.03 742.9 443.898 733.641 448.494 C 691.651 469.338 641.496 496.403 599.86 515.864 C 585.764 517.06 579.544 497.212 591.198 491.487 C 635.242 469.851 679.229 445.322 723.815 424.98 z" fill="rgb(0,0,68)" transform="translate(0,0)"></path>
<path d="M 650.645 554.9 C 666.406 554.169 670.657 573.197 658.588 579.64 C 614.74 603.048 569.501 623.857 526.073 648.163 C 512.112 647.15 503.662 631.652 518.48 622.96 C 531.65 615.235 545.352 608.67 558.905 601.632 C 589.366 585.823 619.947 570.245 650.645 554.9 z" fill="rgb(0,0,68)" transform="translate(0,0)"></path>
<path d="M 811.717 427.925 C 824.583 429.783 858.401 439.533 872.288 443.209 L 928.67 458.704 C 939.602 461.64 950.918 464.038 961.696 467.314 C 975.94 471.644 972.529 485.565 963.093 493.169 C 951.541 493.129 811.761 454.033 807.769 450.26 C 805.341 447.965 804.148 444.175 804.29 440.915 C 804.542 435.153 807.587 431.517 811.717 427.925 z" fill="rgb(0,0,68)" transform="translate(0,0)"></path>
<path d="M 708.4 396.122 C 710.218 396.164 712.018 396.481 713.741 397.059 C 724.054 400.567 725.67 415.82 714.631 421.196 C 672.01 441.953 627.691 468.55 584.37 487.127 C 570.836 484.393 565.306 468.016 578.599 460.969 C 610.968 443.811 644.209 428.217 676.685 411.192 C 685.953 406.334 698.664 399.466 708.4 396.122 z" fill="rgb(0,0,68)" transform="translate(0,0)"></path>
<path d="M 1238.15 351.278 C 1245.47 350.056 1251.91 352.257 1253.94 360.472 C 1256.47 370.715 1250.02 374.076 1241.37 376.267 C 1225.49 380.289 1209.18 383.07 1193.08 386.695 C 1162.5 393.805 1131.98 401.201 1101.54 408.883 C 1081.49 411.201 1080.76 387.22 1096.32 383.716 C 1143.19 373.166 1191.07 360.461 1238.15 351.278 z" fill="rgb(0,0,68)" transform="translate(0,0)"></path>
<path d="M 927.862 729.915 C 937.047 730.38 944.025 737.902 941.306 745.481 C 937.725 755.464 909.321 767.961 900.065 773.062 C 869.098 790.077 837.978 806.811 806.707 823.262 C 791.787 822.919 785.294 805.434 798.794 798.398 C 841.536 776.118 884.636 750.991 927.862 729.915 z" fill="rgb(0,0,68)" transform="translate(0,0)"></path>
<path d="M 669.897 341.942 C 684.493 342.728 690.84 358.867 679.192 366.604 C 660.264 379.176 638.32 388.709 617.925 398.761 C 597.717 408.721 577.703 420.164 557.278 429.537 C 553.384 430.083 547.173 429.293 545.349 425.594 C 541.357 417.502 540.415 409.782 548.972 404.753 C 564.116 395.853 580.007 388.209 595.502 380.343 L 669.897 341.942 z" fill="rgb(0,0,68)" transform="translate(0,0)"></path>
<path d="M 902.472 671.018 C 907.858 672.514 911.714 675.09 914.504 679.813 C 919.031 687.477 913.348 692.856 907.263 696.42 C 892.26 705.206 876.12 713.22 860.714 721.124 C 833.312 734.938 806.178 749.276 779.326 764.13 C 777.99 763.874 776.668 763.547 775.366 763.152 C 764.263 759.819 761.414 746.623 773.101 739.863 C 799.535 724.574 826.595 709.49 853.982 695.957 C 869.314 688.381 886.805 677.04 902.472 671.018 z" fill="rgb(0,0,68)" transform="translate(0,0)"></path>
<path d="M 882.053 564.399 C 861.566 556.98 840.959 549.896 820.24 543.149 C 810.017 539.78 799.129 536.478 788.974 532.712 C 777.895 528.603 778.2 505.824 792.962 509.005 C 802.576 511.077 813.13 514.923 822.675 518.004 L 877.508 535.955 C 897.149 542.451 917.142 548.535 936.55 555.503 C 943.317 557.933 937.705 578.216 929.43 578.239 C 917.351 578.271 905.707 571.483 893.822 568.191 C 889.832 566.642 886.159 565.601 882.053 564.399 z" fill="rgb(0,0,68)" transform="translate(0,0)"></path>
<path d="M 872.418 614.298 C 874.59 617.736 875.374 619.239 878.021 622.563 C 880.437 635.571 876.764 639.588 865.646 645.592 C 827.08 666.417 788.108 687.535 748.677 706.581 C 737.264 712.093 725.756 691.09 739.334 683.798 C 749.399 678.393 759.878 672.913 770.021 667.446 C 791.256 655.92 812.593 644.58 834.028 633.428 C 846.995 626.811 859.548 621.302 872.418 614.298 z" fill="rgb(0,0,68)" transform="translate(0,0)"></path>
<path d="M 957.817 786.031 C 959.871 785.76 961.831 785.784 963.866 786.177 C 967.142 786.809 969.597 788.674 971.363 791.491 C 973.253 794.507 974.087 798.585 973.066 802.023 C 969.815 812.963 897.45 843.546 883.117 850.613 C 867.718 858.205 852.652 866.645 837.529 874.777 C 835.365 875.434 833.102 875.834 830.859 875.284 C 827.894 874.557 825.09 871.611 823.681 868.966 C 821.874 865.571 821.102 861.169 822.355 857.511 C 824.23 852.035 943.352 793.17 957.817 786.031 z" fill="rgb(0,0,68)" transform="translate(0,0)"></path>
<path d="M 657.215 588.052 C 672.861 588.827 678.153 606.229 664.209 612.975 C 623.25 632.789 581.75 656.637 540.281 674.963 C 527.633 674.831 518.736 659.088 531.821 651.494 C 545.867 643.344 560.665 636.46 575.18 629.149 C 602.39 615.181 629.736 601.482 657.215 588.052 z" fill="rgb(0,0,68)" transform="translate(0,0)"></path>
<path d="M 851.206 305.985 C 859.556 305.614 875.663 314.201 883.659 317.893 L 927.525 338.174 C 944.638 346.065 961.926 353.732 979.102 361.495 C 992.197 367.413 999.697 372.694 995.026 388.583 C 992.416 391.404 993.77 390.77 989.984 390.98 C 967.924 383.604 939.431 369.154 917.248 360.027 C 896.737 350.772 875.479 342.74 855.145 333.151 C 848.367 329.955 841.518 326.946 842.379 318.363 C 843.051 311.667 845.902 309.063 851.206 305.985 z" fill="rgb(0,0,68)" transform="translate(0,0)"></path>
<path d="M 662.034 312.007 C 663.365 312.199 664.771 312.345 666.029 312.832 C 672.756 315.439 676.567 323.993 673.916 330.722 C 672.849 333.429 670.825 335.636 668.291 336.971 C 646.279 348.57 623.588 358.816 601.322 369.91 C 582.658 379.079 560.935 393.123 542.286 400.845 C 540.713 400.67 539.065 400.496 537.575 399.941 C 534.009 398.613 530.678 394.379 529.449 390.818 C 528.469 387.977 528.771 385.1 530.314 382.508 C 534.52 375.44 647.184 316.093 662.034 312.007 z" fill="rgb(0,0,68)" transform="translate(0,0)"></path>
<path d="M 875.523 647.991 C 889.64 647.038 893.76 661.168 890.023 666.096 C 882.936 675.443 844.325 693.708 833.846 699.052 C 809.77 711.331 786.939 724.766 763.499 735.545 C 750.176 736.961 742.963 718.439 755.934 711.241 C 781.878 696.843 808.382 683.235 834.517 669.146 C 847.913 661.924 861.736 654.255 875.523 647.991 z" fill="rgb(0,0,68)" transform="translate(0,0)"></path>
<path d="M 1213.56 323.141 C 1220.95 321.942 1227.72 323.243 1230.1 331.284 C 1232.49 339.375 1228.76 345.041 1221.12 347.642 C 1206.31 352.681 1190.73 355.783 1175.47 359.208 C 1149.65 364.901 1123.9 370.896 1098.22 377.19 C 1076.95 382.929 1076.26 357.36 1089.01 353.285 C 1100.34 349.662 1115.01 346.36 1126.79 343.499 L 1213.56 323.141 z" fill="rgb(0,0,68)" transform="translate(0,0)"></path>
<path d="M 1210.23 290.211 C 1212.99 289.917 1215.39 289.845 1217.94 291.223 C 1221.19 293.01 1223.52 296.113 1224.32 299.738 C 1225.22 303.831 1224.28 308.112 1221.76 311.456 C 1218.29 316.007 1171.01 325.954 1161.5 328.165 C 1137.32 333.787 1111.56 341.487 1087.24 345.678 C 1068.57 349.022 1066.97 326 1080.55 321.836 C 1094.37 317.599 1109.41 314.5 1123.52 311.085 L 1210.23 290.211 z" fill="rgb(0,0,68)" transform="translate(0,0)"></path>
<path d="M 837.81 335.741 C 841.225 335.53 844.373 335.833 847.626 336.892 C 858.907 340.565 967.256 385.357 973.159 390.737 C 974.944 392.364 975.479 394.403 975.377 396.778 C 975.139 402.365 971.09 407.589 967.245 411.265 C 966.589 411.359 965.933 411.453 965.277 411.547 C 963.397 411.897 960.279 411.341 958.553 410.556 C 948.492 405.982 930.972 399.594 921.608 395.223 C 905.253 387.589 843.915 366.308 833.176 357.828 C 828.004 348.746 830.986 342.583 837.81 335.741 z" fill="rgb(0,0,68)" transform="translate(0,0)"></path>
<path d="M 960.956 818.927 C 962.219 819 963.54 819.082 964.761 819.435 C 968.005 820.373 970.804 824.11 972.083 827.122 C 973.424 830.28 973.735 835.787 972.136 838.83 C 969.951 842.989 859.103 899.269 848.304 903.577 C 838 902.887 829.335 887.964 840.592 881.389 C 853.447 873.881 866.891 867.348 880.146 860.548 L 960.956 818.927 z" fill="rgb(0,0,68)" transform="translate(0,0)"></path>
<path d="M 976.87 844.828 C 983.787 844.781 988.871 857.269 987.732 863.672 C 982.719 870.653 870.643 925.022 858.395 930.055 C 847.666 927.254 842 915.612 852.477 909.182 C 865.208 901.368 879.391 894.553 892.73 887.683 L 976.87 844.828 z" fill="rgb(0,0,68)" transform="translate(0,0)"></path>
<path d="M 798.535 481.594 C 821.161 482.473 895.207 517.454 920.733 521.776 C 935.411 524.261 938.559 535.245 928.892 547.759 C 915.997 546.143 798.694 507.013 794.426 502.992 C 792.574 501.247 791.522 498.617 791.475 496.08 C 791.366 490.193 794.855 485.784 798.535 481.594 z" fill="rgb(0,0,68)" transform="translate(0,0)"></path>
<path d="M 1227.24 383.086 C 1232.66 382.361 1235.36 381.944 1238.46 386.579 C 1238.48 388.012 1238.78 390.696 1237.48 391.566 C 1224.08 400.516 1206.85 407.947 1192.14 414.599 C 1188.69 416.092 1184.43 421.563 1181.01 422.431 C 1156.27 428.704 1130.92 435.697 1105.89 440.459 C 1088.85 438.641 1090.73 418.166 1101.31 415.146 C 1142.74 403.314 1185.9 395.45 1227.24 383.086 z" fill="rgb(0,0,68)" transform="translate(0,0)"></path>
<path d="M 653.909 661.998 C 669.203 659.687 675.197 678.154 664.611 684.68 C 655.464 690.318 642.995 695.735 633.141 700.482 L 570.651 730.641 C 554.979 732.767 549.04 714.265 561.702 706.936 C 572.325 700.788 583.782 695.653 594.877 690.366 L 653.909 661.998 z" fill="rgb(0,0,68)" transform="translate(0,0)"></path>
<path d="M 699.672 767.976 C 709.408 767.557 716.321 774.257 714.882 783.088 C 713.661 790.579 688.144 801.893 681.901 805.159 C 663.814 814.673 645.647 824.032 627.4 833.236 C 612.74 836.835 609.567 816.022 615.597 812.816 C 642.8 798.353 671.974 780.956 699.672 767.976 z" fill="rgb(0,0,68)" transform="translate(0,0)"></path>
<path d="M 661.76 692.988 C 672.921 691.851 678.994 701.947 675.327 708.566 C 670.235 717.756 641.512 728.157 632.108 732.71 C 616.216 740.404 600.885 748.569 585.368 755.222 C 567.156 756.705 568.196 736.402 576.43 732.64 C 602.487 720.736 635.95 703.605 661.76 692.988 z" fill="rgb(0,0,68)" transform="translate(0,0)"></path>
<path d="M 688.587 740.885 C 699.37 741.649 704.725 759.934 692.784 765.314 C 669.335 775.88 633.497 801.36 610.297 808.867 C 598.785 806.356 591.351 794.093 601.92 788.114 C 629.074 772.754 660.382 753.558 688.587 740.885 z" fill="rgb(0,0,68)" transform="translate(0,0)"></path>
<path d="M 717.706 792.945 C 719.762 792.847 722.077 792.635 724.086 793.147 C 726.898 793.865 728.863 795.669 730.165 798.208 C 731.56 800.927 732.529 804.628 731.353 807.571 C 728.499 814.709 651.548 854.204 640.408 859.058 C 623.39 861.407 622.133 843.469 630.306 839.198 C 659.452 823.966 688.456 807.966 717.706 792.945 z" fill="rgb(0,0,68)" transform="translate(0,0)"></path>
<path d="M 677.685 717.002 C 686.527 720.082 685.554 727.77 686.297 735.89 C 677.354 742.704 604.037 780.617 595.701 781.522 C 586.258 777.237 580.921 764.176 590.288 759.094 C 617.104 744.545 649.521 728.122 677.685 717.002 z" fill="rgb(0,0,68)" transform="translate(0,0)"></path>
<path d="M 850.889 582.472 C 837.516 580.078 793.666 565.645 781.194 559.799 C 777.541 558.087 774.909 556.083 773.637 552.063 C 772.598 548.78 772.758 544.381 774.468 541.324 C 775.737 539.056 778.214 537.38 780.675 536.671 C 789.477 534.135 861.125 561.501 872.926 567.363 L 873.146 568.738 L 874.017 569.259 C 879.14 569.665 887.479 569.53 891.685 571.115 L 889.441 571.925 C 887.836 572.496 887.454 572.524 885.836 572.623 C 880.983 574.579 879.972 575.236 875.967 578.486 C 870.769 582.183 869.306 582.982 862.742 582.683 C 858.331 581.603 855.4 582.099 850.889 582.472 z" fill="rgb(0,0,68)" transform="translate(0,0)"></path>
<path d="M 873.146 568.738 L 874.017 569.259 C 879.14 569.665 887.479 569.53 891.685 571.115 L 889.441 571.925 C 887.836 572.496 887.454 572.524 885.836 572.623 C 880.983 574.579 879.972 575.236 875.967 578.486 C 871.325 574.791 872.636 574.299 873.146 568.738 z" fill="rgb(48,55,132)" transform="translate(0,0)"></path>
<path d="M 874.017 569.259 C 879.14 569.665 887.479 569.53 891.685 571.115 L 889.441 571.925 C 887.836 572.496 887.454 572.524 885.836 572.623 C 884.824 568.709 877.612 572.607 874.017 569.259 z" fill="rgb(127,126,149)" transform="translate(0,0)"></path>
<path d="M 872.418 614.298 C 872.965 613.981 883.661 607.627 883.896 607.61 C 888.545 607.259 929.752 571.6 922.454 593.948 C 921.195 597.803 884.665 618.073 878.021 622.563 C 875.374 619.239 874.59 617.736 872.418 614.298 z" fill="rgb(3,213,171)" transform="translate(0,0)"></path>
<path d="M 850.889 582.472 C 855.4 582.099 858.331 581.603 862.742 582.683 C 847.686 588.999 811.747 611.179 799.27 611.239 C 801.397 609.476 803.51 606.722 805.324 604.559 C 813.226 601.895 847.596 587.735 850.889 582.472 z" fill="rgb(3,213,171)" transform="translate(0,0)"></path>
<metadata><recraft-signature>{"signed_by": "recraft", "signature_b64": "i3d5ts0RLgwRt858tJ5AxFW5TslXhRxp1GHqWxLlim8ecqzRI7sgLE7udDhY4G2/X0Q4jchtBctqAeN1KU3NCQ==", "signing_algo": "Ed25519", "generation_timestamp": 1781847503, "identifier": "d13275a9-bbfd-405d-9899-b7a3f0191c0e"}</recraft-signature></metadata></svg>