<svg xmlns="http://www.w3.org/2000/svg" height="768" preserveAspectRatio="none" style="display: block;" version="1.1" viewBox="0 0 2048 1170" width="1344">
<path d="M 0 0 L 1189.6 0 L 1197.24 0 L 1303.86 0 L 1312.7 0 L 1364.97 0 L 1373.34 0 L 1423.87 0 L 1432.1 0 L 1488.01 0 L 1496.45 0 L 1550.83 0 L 1559.69 0 L 1672.86 0 L 1678.69 0 L 1731.92 0 L 1738.73 0 L 1889.02 0 L 1897.45 0 L 1952.15 0 L 1960.81 0 L 2013.34 0 L 2023.37 0 L 2048 0 L 2048 11.3876 L 2048 15.4775 L 2048 40.6671 L 2048 44.8304 L 2048 145.789 L 2048 150.727 L 2048 1170 L 947.221 1170 L 939.101 1170 L 834.166 1170 L 825.245 1170 L 745.589 1170 L 734.859 1170 L 646.584 1170 L 637.863 1170 L 507.048 1170 L 500.103 1170 L 425.558 1170 L 204.408 1170 L 200.146 1170 L 132.235 1170 L 124.461 1170 L 73.7204 1170 L 66.7949 1170 L 0 1170 L 0 1080.07 L 0 0 z" fill="rgb(252,250,247)" transform="translate(0,0)"></path>
<path d="M 819.042 876.787 C 830.413 881.697 844.347 889.278 855.603 894.991 C 873.235 903.924 890.94 912.713 908.715 921.359 C 976.154 954.511 1036.55 983.816 1105.27 1014.21 C 1112.12 1016.97 1122.81 1021.55 1129.87 1023.38 C 1128.79 1026.52 1099.24 1047.84 1094.42 1051.28 C 1041.66 1088.86 991.739 1132.53 939.101 1170 L 834.166 1170 C 816.881 1159.8 788.319 1147.41 769.721 1138.3 C 711.676 1109.87 648.91 1084.35 592.042 1053.94 C 616.048 1037.54 643.35 1015.46 666.485 997.587 C 717.805 957.914 768.661 917.645 819.042 876.787 z" fill="rgb(254,117,97)" transform="translate(0,0)"></path>
<path d="M 807.774 939.959 C 813.103 940.108 842.546 955.152 849.456 958.407 L 945.633 1004.43 L 996.728 1029.39 C 1002.84 1032.37 1009.28 1035.11 1015.39 1038.06 C 1017.69 1039.17 1017.32 1039.72 1017.85 1042.09 C 1016.04 1042.04 1014.26 1041.78 1012.18 1040.77 C 944.533 1007.74 876.051 976.002 808.756 942.371 C 808.364 941.407 808.036 940.603 807.774 939.959 z" fill="rgb(1,0,2)" transform="translate(0,0)"></path>
<path d="M 788.283 958.95 C 788.776 958.854 790.66 958.569 791.437 958.926 C 859.043 990.033 926.014 1022.65 993.625 1053.74 C 994.409 1054.89 995.017 1055.78 995.449 1056.41 C 988.094 1057.76 903.659 1015.54 890.444 1009.37 C 868.008 999.074 845.642 988.625 823.347 978.026 C 817.472 975.235 790.257 963.66 788.283 958.95 z" fill="rgb(1,0,2)" transform="translate(0,0)"></path>
<path d="M 763.19 983.016 C 769.992 983.212 880.649 1034.56 897.891 1042.27 C 915.797 1050.22 933.648 1058.29 951.441 1066.49 C 957.35 1069.21 963.96 1072.09 969.849 1074.89 C 972.016 1075.92 971.717 1076.91 972.149 1079.18 C 964.338 1077.65 939.684 1065.22 931.326 1061.42 L 864.637 1031.43 L 801.359 1003.03 C 790.426 998.125 779.247 993.185 768.423 988.035 C 764.64 986.235 764.465 986.142 763.19 983.016 z" fill="rgb(1,0,2)" transform="translate(0,0)"></path>
<path d="M 832.09 922.893 C 835.22 923.348 892.65 950.734 897.444 953.764 C 916.589 965.867 1028.14 1013.69 1035.2 1023.02 C 1029.93 1023.7 1012.91 1014.41 1007.1 1011.62 C 989.601 1003.22 972.143 994.734 954.729 986.161 L 880.382 949.668 C 871.946 945.521 835.072 928.886 832.09 922.893 z" fill="rgb(1,0,2)" transform="translate(0,0)"></path>
<path d="M 735.359 1005.97 C 737.731 1005.8 739.505 1006.35 742.348 1007.66 C 806.913 1037.47 872.44 1066.47 936.176 1097.93 C 936.656 1099.11 937.058 1100.1 937.38 1100.9 C 930.995 1099.77 914.273 1091.13 907.623 1088.03 L 852.468 1062.34 L 779.094 1028.52 C 771.923 1025.23 737.765 1010.97 735.359 1005.97 z" fill="rgb(1,0,2)" transform="translate(0,0)"></path>
<path d="M 714.386 1028.08 C 726.798 1030.07 868.845 1100.54 891.686 1110.67 C 894.168 1111.78 894.278 1112.96 894.778 1115.02 C 889.485 1114.21 721.781 1035.8 714.661 1030.74 L 714.386 1028.08 z" fill="rgb(1,0,2)" transform="translate(0,0)"></path>
<path d="M 694.302 1046.08 C 694.674 1046.18 696.315 1046.62 696.801 1046.86 C 737.956 1066.9 780.893 1085.04 821.24 1106.45 C 821.757 1107.66 822.181 1108.65 822.512 1109.42 C 817.661 1108.87 699.27 1052.85 694.414 1048.74 L 694.302 1046.08 z" fill="rgb(1,0,2)" transform="translate(0,0)"></path>
<path d="M 126.117 984.361 C 214.721 1027.28 305.39 1065.3 392.729 1110.93 C 414.073 1122.09 436.583 1131.46 458.058 1142.38 C 448.792 1151.35 435.742 1161.59 425.558 1170 L 204.408 1170 L 200.146 1170 L 132.235 1170 L 124.461 1170 L 73.7204 1170 L 66.7949 1170 L 0 1170 L 0 1080.07 C 42.4175 1051.58 84.767 1013.02 126.117 984.361 z" fill="rgb(0,0,68)" transform="translate(0,0)"></path>
<path d="M 179.747 1160.31 C 156.868 1149.9 133.91 1139.67 110.874 1129.61 C 104.823 1126.94 69.4919 1111.97 68.5949 1108.2 L 68.5783 1109.23 L 67.1237 1107.93 C 73.6716 1107.24 168.942 1152.5 181.565 1158.56 C 186.93 1160.98 199.746 1166.63 204.408 1170 L 200.146 1170 C 197.429 1168.2 183.485 1162.04 179.747 1160.31 z" fill="rgb(252,250,247)" transform="translate(0,0)"></path>
<path d="M 124.461 1170 C 112.593 1163.3 46.7895 1135.32 42.8646 1130.62 C 47.1667 1128.05 100.912 1156.21 109.39 1158.9 C 112.529 1159.9 129.605 1168.17 132.235 1170 L 124.461 1170 z" fill="rgb(252,250,247)" transform="translate(0,0)"></path>
<path d="M 66.7949 1170 C 51.5407 1162.52 33.3737 1157.39 19.2056 1148.26 C 18.8461 1148.03 19.4332 1146.71 20.2588 1146.97 C 35.305 1151.64 49.7223 1159.36 64.173 1165.72 C 67.3812 1167.14 70.5702 1168.4 73.7204 1170 L 66.7949 1170 z" fill="rgb(252,250,247)" transform="translate(0,0)"></path>
<path d="M 143.14 1042.96 C 148.515 1043.88 164.893 1051.66 170.389 1054.13 L 218.948 1076.19 L 312.338 1118.39 C 326.468 1124.86 340.748 1131.34 354.795 1137.98 C 358.96 1139.95 359.328 1139.82 361.309 1143.14 C 353.327 1142.71 224.346 1082.8 205.606 1074.23 L 163.735 1055.15 C 157.593 1052.35 150.745 1049.52 144.8 1046.37 C 143.286 1045.57 143.621 1045.09 143.14 1042.96 z" fill="rgb(252,250,247)" transform="translate(0,0)"></path>
<path d="M 115.995 1057.01 C 123.996 1059.48 320.311 1151.85 325.03 1156 L 324.714 1158.67 L 180.756 1090.82 C 171.089 1086.33 121.981 1064.36 115.592 1059.45 L 115.995 1057.01 z" fill="rgb(252,250,247)" transform="translate(0,0)"></path>
<path d="M 89.2542 1081.04 C 102.862 1083.1 268.199 1157.35 272.433 1164.84 C 267.695 1163.61 234.338 1146.79 227.573 1143.61 C 193.724 1127.64 159.547 1112.37 125.063 1097.82 C 118.341 1095.02 92.0271 1085.2 89.2542 1081.04 z" fill="rgb(252,250,247)" transform="translate(0,0)"></path>
<path d="M 1738.73 0 L 1889.02 0 L 1897.45 0 L 1952.15 0 L 1960.81 0 L 2013.34 0 L 2023.37 0 L 2048 0 L 2048 11.3876 L 2048 15.4775 L 2048 40.6671 L 2048 44.8304 L 2048 145.789 C 2032.22 156.96 1999.83 184.27 1985.01 197.421 C 1973.03 192.422 1957.76 184.508 1945.86 178.759 L 1871.06 142.82 C 1805.1 111.557 1737.15 80.7835 1671.84 48.3795 C 1692.7 32.4766 1717.11 15.9018 1738.73 0 z" fill="rgb(252,250,247)" transform="translate(0,0)"></path>
<path d="M 1960.81 0 L 2013.34 0 L 2023.37 0 L 2048 0 L 2048 11.3876 L 2048 15.4775 L 2048 40.6671 C 2024.5 30.4401 1982.79 11.8823 1960.81 0 z" fill="rgb(252,250,247)" transform="translate(0,0)"></path>
<path d="M 2023.37 0 L 2048 0 L 2048 11.3876 C 2040.5 7.85208 2030.43 4.14962 2023.37 0 z" fill="rgb(252,250,247)" transform="translate(0,0)"></path>
<path d="M 2013.34 0 L 2023.37 0 C 2030.43 4.14962 2040.5 7.85208 2048 11.3876 L 2048 15.4775 C 2037.76 10.9098 2022.85 5.38444 2013.34 0 z" fill="rgb(0,0,68)" transform="translate(0,0)"></path>
<path d="M 1889.02 0 L 1897.45 0 C 1906.03 5.17964 1926.08 14.1612 1935.73 18.8078 L 2009.22 54.3099 C 2016.47 57.819 2038.49 67.9502 2043.45 71.9673 L 2042.79 73.61 C 2038.32 73.6937 1904.91 8.61784 1889.02 0 z" fill="rgb(0,0,68)" transform="translate(0,0)"></path>
<path d="M 1952.15 0 L 1960.81 0 C 1982.79 11.8823 2024.5 30.4401 2048 40.6671 L 2048 44.8304 C 2019.31 32.1035 1979.55 14.1877 1952.15 0 z" fill="rgb(0,0,68)" transform="translate(0,0)"></path>
<path d="M 1819.6 2.0416 C 1835.89 9.25139 1854.16 18.7277 1870.38 26.5689 C 1891.75 36.752 1913.19 46.7899 1934.7 56.6819 L 1987.43 80.9741 C 1997.24 85.4834 2007.38 90.0404 2016.96 95.0456 C 2020.14 96.7076 2019.82 97.4515 2020.64 100.482 C 2002.92 94.2982 1825.26 10.7522 1819.42 5.35408 L 1819.6 2.0416 z" fill="rgb(0,0,68)" transform="translate(0,0)"></path>
<path d="M 1798.57 23.6591 C 1804.26 25.4788 1817.29 32.388 1823.08 35.291 L 1869.18 58.4072 L 1939.87 93.4899 C 1951.9 99.4423 1964.11 105.385 1976.05 111.521 C 1980.04 113.573 1980.17 113.72 1981.14 117.094 C 1974.09 115.804 1946.55 101.656 1939.31 97.7456 C 1894.19 73.4034 1843.75 52.6331 1799.4 27.4365 L 1798.57 23.6591 z" fill="rgb(0,0,68)" transform="translate(0,0)"></path>
<path d="M 1775.44 43.1321 C 1781.82 44.7724 1812.79 59.5112 1820.51 62.937 C 1842.97 72.9063 1866.86 83.9668 1889.28 94.3672 C 1892.38 95.806 1892.46 96.3428 1894.07 98.9899 C 1887.24 100.033 1831.51 71.0076 1820.9 67.3712 C 1818.34 66.4946 1777.22 47.7197 1775.53 46.2871 L 1775.44 43.1321 z" fill="rgb(0,0,68)" transform="translate(0,0)"></path>
<path d="M 1197.24 0 L 1303.86 0 L 1312.7 0 L 1364.97 0 L 1373.34 0 L 1423.87 0 L 1432.1 0 L 1488.01 0 L 1496.45 0 L 1550.83 0 L 1559.69 0 L 1672.86 0 C 1631.85 31.8535 1591.18 64.1313 1550.84 96.8284 C 1530.01 113.744 1510.72 127.912 1491.07 146.411 C 1484.58 143.686 1477.22 139.689 1470.93 136.395 C 1438.17 119.254 1405.41 102.115 1372.66 84.9694 C 1315.4 54.9959 1254.34 29.9647 1197.24 0 z" fill="rgb(7,254,241)" transform="translate(0,0)"></path>
<path d="M 1364.97 0 L 1373.34 0 C 1388.54 10.0949 1483.54 52.223 1488.42 59.1882 L 1487.75 60.8814 C 1487.15 60.9465 1486.54 61.0117 1485.94 61.0768 C 1454.24 43.182 1393.37 15.8713 1364.97 0 z" fill="rgb(1,0,2)" transform="translate(0,0)"></path>
<path d="M 1303.86 0 L 1312.7 0 C 1317.38 3.18992 1337.58 12.2328 1343.32 14.8783 C 1364.11 24.7141 1385.07 34.1637 1406.21 43.222 C 1409.1 44.4768 1415.5 48.4065 1416.67 51.3569 C 1412.96 51.5885 1314.36 5.99928 1303.86 0 z" fill="rgb(1,0,2)" transform="translate(0,0)"></path>
<path d="M 1423.87 0 L 1432.1 0 C 1458.95 16.2572 1495.66 30.6551 1523.18 46.901 L 1523.27 48.1127 L 1525.03 48.335 L 1524.5 47.8224 L 1524.49 48.4756 C 1513.69 47.4209 1436.38 7.26747 1423.87 0 z" fill="rgb(1,0,2)" transform="translate(0,0)"></path>
<path d="M 1488.01 0 L 1496.45 0 C 1503.52 4.49385 1547.65 24.6868 1549.4 27.4323 L 1548.51 28.7245 C 1544.18 29.2493 1495.04 3.98686 1488.01 0 z" fill="rgb(1,0,2)" transform="translate(0,0)"></path>
<path d="M 1550.83 0 L 1559.69 0 C 1562.37 1.7484 1576.62 7.83892 1574.46 10.0863 C 1572.06 12.5942 1553.42 1.66481 1550.83 0 z" fill="rgb(1,0,2)" transform="translate(0,0)"></path>
<path d="M 589.006 1104.88 C 597.284 1109.5 612.368 1115.67 621.524 1119.72 L 680.802 1145.88 C 694.552 1151.9 722.649 1163.25 734.859 1170 L 646.584 1170 L 637.863 1170 L 507.048 1170 C 528.679 1151.12 565.767 1121.88 589.006 1104.88 z" fill="rgb(7,254,241)" transform="translate(0,0)"></path>
<path d="M 637.863 1170 C 627.132 1164.47 613.581 1160.97 603.398 1154.45 C 602.984 1154.18 603.537 1152.04 604.991 1152.15 C 607.424 1152.34 609.373 1153.78 611.579 1154.72 C 621.983 1160.04 636.755 1164.49 646.584 1170 L 637.863 1170 z" fill="rgb(1,0,2)" transform="translate(0,0)"></path>
<path d="M 818.918 871.853 C 913.882 920.77 1010.16 967.1 1107.63 1010.79 C 1111.52 1012.23 1127.11 1017.7 1129.94 1019.26 C 1133.09 1020.23 1135.41 1020.49 1137.25 1023.07 C 1135.67 1027.46 966.066 1151.98 947.221 1170 L 939.101 1170 C 991.739 1132.53 1041.66 1088.86 1094.42 1051.28 C 1099.24 1047.84 1128.79 1026.52 1129.87 1023.38 C 1122.81 1021.55 1112.12 1016.97 1105.27 1014.21 C 1036.55 983.816 976.154 954.511 908.715 921.359 C 890.94 912.713 873.235 903.924 855.603 894.991 C 844.347 889.278 830.413 881.697 819.042 876.787 C 768.661 917.645 717.805 957.914 666.485 997.587 C 643.35 1015.46 616.048 1037.54 592.042 1053.94 C 648.91 1084.35 711.676 1109.87 769.721 1138.3 C 788.319 1147.41 816.881 1159.8 834.166 1170 L 825.245 1170 C 817.833 1165.35 801.852 1157.96 793.517 1153.98 C 776.553 1145.87 759.545 1137.84 742.494 1129.92 C 689.464 1105.82 636.82 1080.88 584.58 1055.11 C 591.302 1048.99 607.809 1037.42 616.038 1031.11 C 639.204 1013.07 662.508 995.207 685.947 977.521 C 730.283 943.368 774.831 905.312 818.918 871.853 z" fill="rgb(0,0,68)" transform="translate(0,0)"></path>
<path d="M 1189.6 0 L 1197.24 0 C 1254.34 29.9647 1315.4 54.9959 1372.66 84.9694 C 1405.41 102.115 1438.17 119.254 1470.93 136.395 C 1477.22 139.689 1484.58 143.686 1491.07 146.411 C 1510.72 127.912 1530.01 113.744 1550.84 96.8284 C 1591.18 64.1313 1631.85 31.8535 1672.86 0 L 1678.69 0 C 1661.9 15.3536 1635.6 34.6134 1617.13 49.3576 C 1574.51 83.3611 1532.25 115.782 1491.01 151.557 C 1436.98 125.325 1383.53 94.8141 1328.45 67.9452 L 1240.44 25.6834 C 1226.79 19.1599 1201.45 7.78247 1189.6 0 z" fill="rgb(0,0,68)" transform="translate(0,0)"></path>
<path d="M 1731.92 0 L 1738.73 0 C 1717.11 15.9018 1692.7 32.4766 1671.84 48.3795 C 1737.15 80.7835 1805.1 111.557 1871.06 142.82 L 1945.86 178.759 C 1957.76 184.508 1973.03 192.422 1985.01 197.421 C 1999.83 184.27 2032.22 156.96 2048 145.789 L 2048 150.727 C 2030.22 165.395 2002.56 186.41 1987 202.083 C 1975.45 198.609 1951.73 186.298 1939.94 180.521 L 1873.03 148.335 C 1803.69 115.123 1731.22 83.1139 1663.03 48.4128 C 1669.74 45.2251 1682.92 35.283 1689.48 30.5648 L 1731.92 0 z" fill="rgb(0,0,68)" transform="translate(0,0)"></path>
<path d="M 588.405 1100.17 C 599.757 1106.2 614.432 1111.97 626.408 1117.25 L 686.852 1144.07 C 697.025 1148.44 738.142 1165.35 745.589 1170 L 734.859 1170 C 722.649 1163.25 694.552 1151.9 680.802 1145.88 L 621.524 1119.72 C 612.368 1115.67 597.284 1109.5 589.006 1104.88 C 565.767 1121.88 528.679 1151.12 507.048 1170 L 500.103 1170 C 528.501 1147.62 559.423 1121.26 588.405 1100.17 z" fill="rgb(0,0,68)" transform="translate(0,0)"></path>
<path d="M 838.853 681.271 C 840.376 679.463 840.475 679.402 840.475 676.485 C 840.474 643.795 840.212 610.753 840.172 578.098 L 839.792 367.555 C 839.76 353.989 838.389 292.382 841.216 283.237 C 846.542 276.889 893.48 264.105 904.131 261.124 C 926.603 270.198 957.424 285.924 979.812 296.632 L 1124.16 366.148 L 1192.75 398.41 C 1202.03 402.876 1217.67 409.808 1225.46 415.559 C 1228.47 420.802 1227.29 472.744 1227.36 482.821 C 1268.27 448.85 1309.56 415.895 1352.3 384.245 C 1376.58 366.265 1401.72 345.748 1426.89 329.142 C 1439.09 336.646 1466.69 349.656 1480.45 356.808 C 1526.93 381.373 1573.96 404.891 1621.5 427.345 L 1680.11 455.749 C 1695.47 463.218 1710.66 471.045 1726.78 476.704 C 1731.37 477.833 1732.21 477.287 1735.26 480.085 C 1735 482.457 1734.53 483.875 1732.19 485.442 C 1723.48 491.282 1715.52 497.497 1707.28 503.95 C 1667.14 535.901 1626.61 567.363 1585.7 598.328 C 1558.86 618.427 1528.01 638.759 1502.95 660.157 L 1343.6 582.76 C 1307.65 565.394 1263.59 545.412 1229.01 526.122 C 1227.33 534.087 1228.78 598.093 1228.84 609.174 L 1229.92 821.745 C 1229.99 834.529 1231.59 946.758 1229.08 950.113 C 1222.66 952.982 1212.07 946.053 1205.36 944.984 C 1198.77 943.934 1201.64 950.631 1195.84 950.432 C 1193.66 950.255 1187.06 948.271 1184.74 947.624 C 1184.9 951.7 1185.59 956.725 1183.65 960.138 C 1178.83 963.392 1173.84 959.542 1168.93 957.012 C 1168.54 963.042 1168.08 969.168 1167.94 975.201 C 1161.63 972.437 1125.12 955.83 1120.89 952.809 L 1110.03 947.518 C 1098.2 942.748 1078.11 932.352 1066.04 926.58 L 961.258 875.382 L 866.777 829.319 C 851.913 821.937 833.643 813.32 819.571 805.05 C 807.238 816.13 781.22 835.233 766.931 846.713 L 727.191 878.601 C 720.32 884.095 708.289 894.096 700.992 898.201 C 636.693 864.752 571.576 832.9 505.701 802.674 C 462.2 782.602 417.666 764.108 374.567 743.211 L 388.662 732.25 C 390.891 729.566 411.902 713.442 416.552 709.425 C 444.347 685.414 474.374 663.597 503.63 641.401 C 536.985 615.687 570.499 590.179 604.171 564.88 L 752.699 638.639 C 780.683 652.441 811.56 666.741 838.853 681.271 z" fill="rgb(0,0,68)" transform="translate(0,0)"></path>
<path d="M 401.756 726.406 C 420.294 712.816 441.245 693.83 460.076 679.191 C 508.143 642.041 556.601 605.399 605.442 569.272 C 610.668 573.153 628.241 581.484 634.715 584.7 L 692.034 613.069 L 810.804 671.691 C 847.156 689.564 877.008 704.72 914.541 720.054 C 901.244 732.666 884.477 746.071 870.283 757.802 C 844.989 778.955 819.363 799.708 793.415 820.055 C 764.746 842.832 730.751 871.804 701.783 893.148 C 675.092 880.84 647.292 865.786 620.712 852.613 C 582.841 834.03 544.728 815.946 506.381 798.367 C 468.651 780.913 430.38 764.608 392.613 747.232 C 389.338 745.725 385.945 744.225 382.934 742.231 C 389.178 736.92 395.452 731.645 401.756 726.406 z" fill="rgb(7,254,241)" transform="translate(0,0)"></path>
<path d="M 590.27 638.981 C 593.615 638.713 596.307 640.088 599.251 641.472 C 665.139 672.457 731.239 703.003 796.964 734.331 C 800.023 735.789 802.778 737.256 804.814 740.033 C 798.308 740.111 772.901 727.017 765.665 723.625 L 696.336 690.985 L 628.027 658.958 C 621.05 655.691 592.752 643.883 590.27 638.981 z" fill="rgb(1,0,2)" transform="translate(0,0)"></path>
<path d="M 543.716 683.207 C 548.994 684.585 573.458 695.45 579.791 698.135 L 658.368 731.419 L 726.015 759.597 C 735.64 763.611 746.251 767.901 755.75 772.239 C 758.273 773.39 758.051 773.8 758.629 775.901 C 752.772 775.883 713.753 758.513 705.496 755.07 L 607.2 713.731 L 564.29 695.4 C 560.005 693.559 546.679 688.108 543.565 686.008 L 543.716 683.207 z" fill="rgb(1,0,2)" transform="translate(0,0)"></path>
<path d="M 612.536 619.185 C 621.173 621.526 659.428 641.091 669.103 645.846 L 775.441 697.199 C 785.181 701.815 794.974 706.32 804.816 710.714 C 810 712.996 818.513 714.565 819.713 720.035 C 812.301 719.622 625.091 629.988 612.614 621.827 L 612.536 619.185 z" fill="rgb(1,0,2)" transform="translate(0,0)"></path>
<path d="M 519.704 701.951 C 524.986 702.127 544.411 711.519 550.488 714.227 L 604.315 738.23 L 684.621 773.95 C 691.7 777.067 731.004 792.923 733.362 797.431 C 727.741 798.337 667.117 770.283 658.287 766.349 L 572.67 728.081 C 564.633 724.489 523.425 707.536 519.704 701.951 z" fill="rgb(1,0,2)" transform="translate(0,0)"></path>
<path d="M 567.731 660.183 C 573.502 661.268 611.764 678.821 620.032 682.494 L 732.415 732.241 C 744.564 737.714 768.63 748.308 781.313 755.359 C 781.708 756.403 782.048 757.302 782.333 758.054 C 778.031 757.309 573.783 666.818 567.849 662.44 L 567.731 660.183 z" fill="rgb(1,0,2)" transform="translate(0,0)"></path>
<path d="M 503.285 721.062 C 509.149 721.382 542.675 738.18 551.234 742.109 C 584.945 757.343 618.493 772.934 651.872 788.881 C 666.7 795.965 683.096 803.316 698.1 810.215 C 699.905 811.045 699.658 812.168 700.02 814.151 C 690.698 813.208 633.015 783.585 620.335 777.948 C 583.84 761.723 545.875 743.519 509.599 726.389 C 506.11 724.742 504.842 724.325 503.285 721.062 z" fill="rgb(1,0,2)" transform="translate(0,0)"></path>
<path d="M 482.037 742.096 C 489.521 742.632 507.181 750.704 514.904 753.855 C 534.915 761.974 554.867 770.237 574.758 778.645 C 583.341 782.27 622.588 797.331 625.367 802.013 C 618.955 802.932 561.595 776.647 549.832 772.128 C 529.898 764.472 505.818 753.848 485.522 745.585 C 483.855 744.906 482.818 743.682 482.037 742.096 z" fill="rgb(1,0,2)" transform="translate(0,0)"></path>
<path d="M 1427.33 333.675 C 1466.67 354.647 1506.22 375.231 1545.96 395.426 C 1575.75 410.046 1605.63 424.475 1635.61 438.714 C 1661.31 451.128 1704.08 473.78 1729.24 481.532 C 1722.91 487.37 1715.25 492.669 1708.43 497.98 C 1646.19 546.387 1584.72 595.436 1520.17 640.812 C 1514.27 644.958 1507.52 650.203 1502.18 655.048 C 1484.88 647.275 1467.69 638.484 1450.71 630.013 C 1377.5 593.496 1302.47 559.934 1229.91 522.181 C 1226.97 519.149 1227.94 493.828 1227.91 487.759 C 1292.65 434.187 1359.16 382.797 1427.33 333.675 z" fill="rgb(254,117,97)" transform="translate(0,0)"></path>
<path d="M 1371.19 436.006 C 1377.61 436.489 1426.22 461.433 1435.64 466.063 C 1468.96 482.259 1502.19 498.629 1535.33 515.172 C 1541.99 518.523 1573.55 533.432 1576.1 537 C 1573.42 537.982 1566.61 535.157 1564.57 533.806 C 1545.03 520.828 1377.88 446.719 1371.19 436.006 z" fill="rgb(1,0,2)" transform="translate(0,0)"></path>
<path d="M 1417.06 399.042 C 1421.65 399.482 1435.08 406.737 1440.08 409.168 L 1487.55 432.348 L 1570.17 472.939 C 1585.85 480.576 1601.71 488.188 1617.35 495.938 C 1621.4 497.946 1621.66 497.92 1623.46 501.328 C 1617.61 500.648 1602.14 492.619 1596.21 489.756 L 1544.69 464.34 C 1504.62 444.627 1463.87 425.402 1424.11 405.038 C 1420.3 403.084 1418.87 402.444 1417.06 399.042 z" fill="rgb(1,0,2)" transform="translate(0,0)"></path>
<path d="M 1430.35 379.015 C 1435.35 378.265 1456 389.221 1461.41 391.818 L 1521.28 421.07 L 1600.15 459.531 C 1606.96 462.929 1634.36 475.441 1636.73 480.03 C 1631.64 480.301 1617.34 472.247 1612.17 469.678 L 1568.48 448.05 C 1523.82 426.094 1478.73 404.533 1434.1 382.495 C 1432.11 381.509 1431.51 380.98 1430.35 379.015 z" fill="rgb(1,0,2)" transform="translate(0,0)"></path>
<path d="M 1346.45 456.978 C 1349.86 457.841 1379.49 472.797 1385.3 475.677 L 1476.62 520.689 L 1519.11 541.314 C 1524.19 543.769 1540.57 550.173 1541.59 554.94 C 1534.06 553.678 1500.12 536.529 1491.81 532.464 L 1389.97 482.107 C 1376.53 475.455 1361.4 468.133 1348.07 461.114 C 1346.23 460.143 1346.61 459.018 1346.45 456.978 z" fill="rgb(1,0,2)" transform="translate(0,0)"></path>
<path d="M 1394.78 415.891 C 1394.93 415.908 1396.53 416.11 1396.75 416.214 C 1463.14 446.382 1529.39 478.517 1594.86 510.699 C 1595.57 511.852 1596.13 512.761 1596.54 513.427 C 1587.94 512.323 1504.93 470.78 1489.46 463.684 C 1463.49 451.768 1428.03 433.965 1401.18 421.657 C 1396.74 419.622 1396 419.581 1394.78 415.891 z" fill="rgb(1,0,2)" transform="translate(0,0)"></path>
<path d="M 1324.95 478.991 C 1328.58 479.099 1332.71 481.347 1335.99 482.934 C 1387.99 508.143 1439.46 534.482 1490.84 560.945 C 1496.13 563.673 1501.64 565.098 1503.64 570.685 C 1496.31 568.937 1485.53 562.596 1478.54 558.985 L 1434.49 536.355 L 1363.43 500.512 C 1352.47 495.02 1341.34 489.664 1330.4 484.117 C 1326.56 482.169 1326.53 482.27 1324.95 478.991 z" fill="rgb(1,0,2)" transform="translate(0,0)"></path>
<path d="M 1302.17 499.038 C 1304.78 499.194 1306.78 499.922 1309.15 501.032 C 1349.04 519.739 1388.78 538.914 1428.22 558.55 C 1429.51 559.19 1430.4 560.744 1430.91 562.023 C 1420.72 562.254 1351.96 523.663 1337.38 518.666 C 1332.39 516.954 1303.84 503.068 1302.17 499.038 z" fill="rgb(1,0,2)" transform="translate(0,0)"></path>
<path d="M 898.783 279.031 C 902.195 279.012 947.742 301.401 953.924 304.333 C 994.553 323.344 1035.08 342.573 1075.5 362.019 L 1153.38 398.592 C 1166.55 404.812 1183.22 412.083 1195.5 419.115 L 1196.21 779.398 L 1196.09 888.774 C 1196.13 905.462 1196.2 922.677 1196.61 939.398 C 1196.67 941.946 1194.85 943.304 1193.26 944.787 C 1189.09 945.518 1190.79 945.669 1186.81 944.22 C 1182.72 938.807 1184.65 895.017 1184.71 884.727 L 1184.83 793.563 C 1184.86 671.039 1186.44 545.235 1184.81 422.986 C 1157.96 412.167 1125.38 395.376 1098.98 382.599 L 960.872 316.637 L 920.539 297.801 C 912.803 294.131 902.246 288.322 894.419 286.053 L 893.255 286.755 C 895.302 289.996 908.866 295.458 913.335 297.61 C 979.318 330.381 1046.8 360.969 1112.9 393.597 C 1135.39 404.696 1158.88 415.83 1181.85 425.875 L 1181.08 727.907 C 1180.69 802.274 1178.68 883.532 1180.73 957.232 C 1176.93 955.682 1172.95 953.763 1169.2 952.038 C 1168.85 908.237 1170.16 862.844 1170.73 818.999 C 1173.27 692.173 1174.76 565.327 1175.2 438.476 C 1168.27 434.698 1156.52 429.8 1149.1 426.393 L 1099.19 403.203 L 964.282 338.852 C 932.49 323.738 897.056 307.685 866.113 291.22 L 898.783 279.031 z" fill="rgb(252,250,247)" transform="translate(0,0)"></path>
<path d="M 1198.92 417.444 C 1202.31 418.293 1205.75 418.805 1208.29 421.154 C 1210.16 425.099 1209.29 484.629 1209.31 495.806 L 1210.09 614.631 L 1211.83 942.486 C 1209.67 942.75 1202.81 940.446 1200.28 939.703 L 1198.92 417.444 z" fill="rgb(252,250,247)" transform="translate(0,0)"></path>
<path d="M 1113.38 945.59 L 1113.08 609.389 C 1113.07 588.739 1112.14 419.028 1114.44 415.596 C 1120.55 416.62 1121.39 422.719 1121.37 428.116 C 1121.32 442.959 1121.1 457.749 1121.21 472.601 C 1121.61 516.832 1121.73 561.065 1121.59 605.297 L 1121.96 948.536 L 1113.38 945.59 z" fill="rgb(254,117,97)" transform="translate(0,0)"></path>
<path d="M 1658.24 90.7587 C 1662.98 91.3007 1713.95 117.554 1722.48 121.589 C 1809.15 161.787 1895.56 202.517 1981.72 243.777 C 1974.43 250.96 1963.56 258.612 1955.23 265.034 C 1939.32 277.303 1923.12 289.241 1907.26 301.601 L 1794.87 388.816 C 1780.25 400.099 1766.37 411.607 1751.5 422.656 C 1746.46 424.214 1708.7 403.375 1701.25 399.571 C 1646.08 371.215 1590.31 344.016 1534 317.991 C 1501.05 302.554 1460.66 284.911 1428.72 268.34 C 1439.01 257.751 1454.32 246.782 1466.22 237.824 L 1505.94 207.367 C 1554.31 169.872 1608.62 126.136 1658.24 90.7587 z" fill="rgb(0,0,68)" transform="translate(0,0)"></path>
<path d="M 1642.82 155.938 C 1643.36 156.036 1644.88 156.279 1645.63 156.638 C 1714.53 189.645 1783.48 223.813 1851.41 258.734 C 1851.89 259.884 1852.29 260.833 1852.61 261.583 C 1846.81 260.459 1807.32 240.293 1799.43 236.385 L 1660.13 167.249 C 1654.49 164.495 1644.55 160.987 1642.82 155.938 z" fill="rgb(252,250,247)" transform="translate(0,0)"></path>
<path d="M 1665.33 142.065 C 1665.93 142.042 1668.13 142.053 1668.97 142.435 C 1737.05 173.63 1804.88 206.673 1871.99 239.965 C 1872.54 241.094 1872.99 242.02 1873.35 242.743 C 1869.49 242.658 1852.23 233.754 1847.93 231.687 L 1801.16 209.17 C 1757.39 188.073 1713.17 167.206 1669.54 145.809 C 1667.41 144.766 1666.57 144.144 1665.33 142.065 z" fill="rgb(252,250,247)" transform="translate(0,0)"></path>
<path d="M 1617.18 183.973 C 1617.69 183.925 1620.1 183.81 1620.96 184.142 C 1686.67 209.44 1750.12 243.336 1813.7 273.72 C 1814.43 274.884 1815.01 275.806 1815.44 276.487 C 1807.73 277.268 1684.59 211.724 1666.82 206.392 C 1662.69 205.151 1619.49 186.388 1617.18 183.973 z" fill="rgb(252,250,247)" transform="translate(0,0)"></path>
<path d="M 1589.51 207.941 C 1603.02 208.315 1769.78 294.361 1793.49 306.859 C 1790.55 306.578 1788.1 305.717 1785.47 304.399 C 1722.04 272.595 1658.17 241.76 1593.99 211.509 C 1592.01 210.577 1590.92 209.618 1589.51 207.941 z" fill="rgb(252,250,247)" transform="translate(0,0)"></path>
<path d="M 1549.01 246.936 C 1554.28 246.517 1613.87 274.534 1623 278.595 C 1645.55 288.534 1668.01 298.683 1690.37 309.042 C 1697.39 312.29 1726.88 324.726 1729.27 329.825 C 1725.79 329.264 1679.09 307.466 1672.36 304.361 C 1633.89 286.624 1594.83 269.259 1556.27 251.634 C 1553.28 250.269 1551.39 249.216 1549.01 246.936 z" fill="rgb(252,250,247)" transform="translate(0,0)"></path>
<path d="M 1566.3 226.056 C 1569.95 226.248 1582.82 232.838 1587.05 234.842 C 1606.08 243.772 1624.95 253.019 1643.66 262.578 C 1655.28 268.412 1728.34 303.385 1732.13 308.862 C 1731.39 308.655 1730.58 308.469 1729.89 308.121 C 1679.99 283.103 1629.58 259.074 1579.4 234.64 C 1575.33 232.659 1567.81 230.054 1566.3 226.056 z" fill="rgb(252,250,247)" transform="translate(0,0)"></path>
<path d="M 1528.42 262.988 C 1529.56 263.099 1531.5 263.355 1532.53 263.845 C 1572.37 282.827 1612.48 301.463 1651.77 321.562 C 1653.06 322.222 1653.99 323.714 1654.58 324.987 C 1652.85 324.739 1651.31 324.421 1649.74 323.638 C 1610.53 304.145 1570.27 286.684 1531.39 266.578 C 1529.84 265.776 1529.02 264.587 1528.42 262.988 z" fill="rgb(252,250,247)" transform="translate(0,0)"></path>
<path d="M 1162.96 30.8096 C 1174.33 38.1021 1189.81 46.3837 1201.75 53.1374 C 1226.2 67.2625 1251.1 80.572 1276.43 93.0438 C 1333.21 120.526 1395.23 144.479 1452.28 172.123 C 1459.49 175.616 1477.37 178.053 1480.95 185.665 C 1476.17 192.104 1443.07 216.451 1434.82 222.802 C 1401.54 248.418 1368.82 274.438 1335.39 299.883 C 1307.26 321.295 1272.51 341.421 1248.92 366.445 C 1244.4 365.447 1208.63 346.464 1203.05 343.572 C 1179 331.266 1154.86 319.138 1130.64 307.187 C 1063.83 274.998 996.733 243.434 929.34 212.5 C 955.462 194.131 982.76 170.549 1008.4 150.934 C 1060.08 111.407 1110.92 69.7335 1162.96 30.8096 z" fill="rgb(0,0,68)" transform="translate(0,0)"></path>
<path d="M 1163.07 35.9982 C 1168.5 38.4559 1183.02 47.2319 1188.82 50.5167 C 1207.51 61.1783 1226.3 71.6484 1245.2 81.9251 C 1297.07 109.528 1353.34 130.755 1406.48 155.891 C 1430 167.012 1452.18 177.476 1477.27 184.652 C 1457.49 201.372 1434.63 217.139 1414.11 233.36 C 1376.18 263.336 1338.16 293.593 1298.66 321.459 C 1280.38 334.355 1264.95 344.46 1248.82 360.264 C 1244.9 361.392 1198.94 336.798 1191.48 333.023 C 1107.55 290.886 1022.76 250.465 937.18 211.785 C 1012.91 154.027 1086.95 93.3472 1163.07 35.9982 z" fill="rgb(252,250,247)" transform="translate(0,0)"></path>
<path d="M 1094.1 147.044 C 1094.48 147.032 1094.86 147.008 1095.23 147.007 C 1102.5 146.999 1312.8 239.965 1317.42 244.4 L 1317.37 246.948 C 1309.49 245.923 1251.42 218.147 1239.95 213.127 L 1145.39 171.859 C 1129.7 165.043 1113.71 158.164 1098.08 151.185 C 1094.94 149.781 1094.93 149.591 1094.1 147.044 z" fill="rgb(0,0,68)" transform="translate(0,0)"></path>
<path d="M 1169 83.8819 C 1182.33 86.3273 1348.65 167.296 1377.36 179.747 C 1378.87 180.402 1378.74 182.402 1378.91 183.988 C 1373.45 182.507 1360.93 176.233 1355.03 173.457 C 1341.98 167.275 1328.88 161.181 1315.74 155.175 L 1218.69 110.293 C 1203.54 103.241 1187.67 95.9608 1172.66 88.51 C 1169.38 86.8813 1169.74 86.6778 1169 83.8819 z" fill="rgb(0,0,68)" transform="translate(0,0)"></path>
<path d="M 1147.87 104.96 C 1151.15 104.623 1153.94 105.856 1156.88 107.241 C 1224.11 138.961 1291.74 170.014 1358.61 202.47 C 1361.93 204.082 1362.17 204.62 1363.42 207.851 C 1360.01 207.882 1347 200.997 1343.21 199.169 C 1330.8 193.16 1318.34 187.258 1305.83 181.465 L 1223.53 142.681 C 1200.31 131.949 1176.94 121.156 1153.89 110.039 C 1151.12 108.703 1149.31 107.735 1147.87 104.96 z" fill="rgb(0,0,68)" transform="translate(0,0)"></path>
<path d="M 1073.58 165.162 C 1085.22 169.46 1101.13 178.002 1112.8 183.459 C 1140.94 196.552 1169 209.795 1196.99 223.189 C 1223.98 236.088 1251.66 248.966 1278.51 262.207 C 1280.43 263.155 1281.48 264.06 1282.33 266.058 C 1271.81 266.301 1185.63 220.731 1166.34 213.048 C 1157.53 209.538 1075.7 170.559 1073.18 167.925 L 1073.58 165.162 z" fill="rgb(0,0,68)" transform="translate(0,0)"></path>
<path d="M 1125.91 126.823 C 1132.31 128.047 1178.99 149.59 1189.28 154.132 C 1235.48 174.522 1281.89 196.431 1328.21 216.664 C 1330.83 217.81 1333.57 219.21 1335.33 221.506 L 1334.85 224 C 1319.19 217.682 1300.97 208.855 1285.37 201.813 L 1191.2 159.409 L 1148.95 140.482 C 1143.93 138.258 1129.56 132.34 1125.69 129.547 L 1125.91 126.823 z" fill="rgb(0,0,68)" transform="translate(0,0)"></path>
<path d="M 1058.72 188.006 C 1059.37 188.02 1062.09 188.058 1062.4 188.218 C 1082.44 198.691 1230.17 263.13 1236.06 272.035 C 1224.1 273.007 1086.49 200.289 1066.88 193.855 C 1064.49 193.069 1060.32 190.247 1058.72 188.006 z" fill="rgb(0,0,68)" transform="translate(0,0)"></path>
<path d="M 1041.11 207.916 C 1045.32 208.676 1049.7 210.627 1053.61 212.38 C 1089.93 228.675 1126.6 244.508 1162.54 261.554 C 1162.54 261.554 1163.78 264.657 1163.9 264.96 C 1143.08 259.911 1114.13 242.139 1093.01 234.22 C 1076.43 228.003 1058.52 218.44 1042.24 211.125 C 1041.38 210.736 1041.32 208.928 1041.11 207.916 z" fill="rgb(0,0,68)" transform="translate(0,0)"></path>
<path d="M 362.969 773.688 C 369.274 775.616 382.28 782.366 388.297 785.646 C 472.05 831.305 560.722 865.806 645.994 908.222 C 658.388 914.387 672.594 919.041 685.694 923.687 C 679.296 930.856 658.241 946.395 649.542 953.051 L 581.512 1004.76 C 539.762 1036.64 498.24 1071.59 457.702 1105.09 C 454.833 1105.73 453.145 1104.97 450.302 1103.56 C 387.544 1072.5 324.986 1040.84 262.188 1009.87 C 220.68 989.782 178.896 970.27 136.847 951.339 C 141.13 947.141 151.971 939.074 157.235 934.853 L 201.364 899.665 C 254.688 857.608 310.332 815.804 362.969 773.688 z" fill="rgb(0,0,68)" transform="translate(0,0)"></path>
<path d="M 363.812 778.647 C 367.558 779.383 379.245 785.336 383.161 787.491 C 464.007 831.986 549.754 865.831 632.569 906.172 C 648.342 913.855 661.326 919.221 677.79 925.204 C 666.052 935.969 646.421 950.213 633.352 960.164 C 607.612 979.465 582.066 999.023 556.717 1018.84 C 524.368 1044.05 488.624 1076.99 457.002 1100.22 C 454.23 1101.08 451.333 1099.3 448.76 1098.04 C 358.557 1053.67 269.368 1007.03 177.767 965.577 C 166.387 960.427 155.251 955.179 143.66 950.468 C 168.202 932.609 195.614 909.5 219.794 890.392 C 267.336 852.55 315.346 815.298 363.812 778.647 z" fill="rgb(252,250,247)" transform="translate(0,0)"></path>
<path d="M 300.132 881.98 C 305.433 882.084 321.07 889.904 327.113 892.612 L 381.182 916.847 C 425.272 936.584 469.654 955.482 513.792 975.082 C 516.601 976.329 518.362 977.3 519.896 980.052 C 518.682 980.123 516.68 980.401 515.556 979.919 C 448.083 950.947 380.961 921.148 314.005 890.999 C 308.778 888.645 302.966 886.777 300.132 881.98 z" fill="rgb(0,0,68)" transform="translate(0,0)"></path>
<path d="M 356.391 840.876 C 357.955 841.199 359.437 841.826 361.599 842.832 C 430.096 874.701 498.948 906.842 566.495 940.611 C 566.946 941.765 567.322 942.73 567.624 943.505 C 563.559 942.952 555.502 939.375 551.734 937.548 C 506.374 915.551 460.789 893.705 415.266 872.106 C 409.448 869.346 358.726 845.903 356.587 844.182 L 356.391 840.876 z" fill="rgb(0,0,68)" transform="translate(0,0)"></path>
<path d="M 376.653 821.857 C 377.567 821.972 379.945 822.241 381.145 822.808 C 448.075 854.426 516.102 885.263 581.759 919.361 C 582.184 920.416 582.537 921.292 582.818 921.989 C 579.252 922.075 576.358 920.536 573.229 918.986 C 509.308 887.313 444.71 857.034 380.25 826.484 C 377.039 824.963 377.611 825.007 376.653 821.857 z" fill="rgb(0,0,68)" transform="translate(0,0)"></path>
<path d="M 333.037 863.039 C 338.707 862.556 353.822 870.496 359.681 873.161 C 373.961 879.723 388.28 886.196 402.639 892.582 C 432.382 905.834 462.055 919.244 491.656 932.81 C 498.273 935.821 539.309 953.233 541.369 957.341 C 534.205 958.202 487.982 935.402 478.792 931.193 L 370.219 882.434 C 360.871 878.219 344.614 871.07 334.751 866.088 C 334.078 864.891 333.507 863.875 333.037 863.039 z" fill="rgb(0,0,68)" transform="translate(0,0)"></path>
<path d="M 282.581 904.816 C 294.425 906.379 455.587 987.286 479.432 997.545 C 480.646 998.067 480.445 999.44 480.662 1001.09 C 472.133 999.927 371.86 949.646 357.59 943.436 C 341.17 936.29 303.762 917.572 286.193 909.598 C 282.866 908.089 283.491 907.926 282.581 904.816 z" fill="rgb(0,0,68)" transform="translate(0,0)"></path>
<path d="M 261.671 925.117 C 271.996 927.845 430.069 1005.76 436.751 1010.96 L 436.927 1014.11 C 432.592 1013.26 402.984 997.837 396.643 994.695 L 300.179 947.441 C 291.783 943.39 270.214 933.693 261.415 928.717 C 260.665 928.292 261.393 926.383 261.671 925.117 z" fill="rgb(0,0,68)" transform="translate(0,0)"></path>
<path d="M 241.017 945.961 C 244.548 945.937 248.292 947.76 251.442 949.28 C 288.736 967.273 326.389 984.729 363.22 1003.63 C 363.22 1003.63 364.395 1005.99 364.508 1006.22 C 362.534 1006.21 360.261 1006.03 358.455 1005.16 C 320.932 987.005 283.321 969.027 245.818 950.839 C 242.422 949.192 242.016 949.316 241.017 945.961 z" fill="rgb(0,0,68)" transform="translate(0,0)"></path>
<metadata><recraft-signature>{"signed_by": "recraft", "signature_b64": "lzM+PW3faHGvhOe5Tq7fmANtEKUSnv4g+xAW7hI8iScMFZnmHMkBwYxIaMKJ+ilm134R2lCLOJID5ZoGVcjHDA==", "signing_algo": "Ed25519", "generation_timestamp": 1781847503, "identifier": "d5c21ed7-4ad4-40ed-81a6-cd2ed31df6a1"}</recraft-signature></metadata></svg>