<svg xmlns="http://www.w3.org/2000/svg" height="768" preserveAspectRatio="none" style="display: block;" version="1.1" viewBox="0 0 2048 1170" width="1344">
<defs>
	<linearGradient gradientUnits="userSpaceOnUse" id="Gradient1" x1="869.512" x2="885.62" y1="511.723" y2="524.381">
		<stop class="stop0" offset="0" stop-color="rgb(13,86,95)" stop-opacity="1"></stop>
		<stop class="stop1" offset="1" stop-color="rgb(18,110,127)" stop-opacity="1"></stop>
	</linearGradient>
</defs>
<path d="M 0 0 L 2048 0 L 2048 1170 L 0 1170 L 0 0 z" fill="rgb(252,250,247)" transform="translate(0,0)"></path>
<path d="M 1085.45 199.997 L 1088.12 200.748 C 1091.69 204.359 1114.4 275.601 1118.11 286.459 C 1127.62 283.094 1181.98 267.005 1188.11 268.413 C 1190.59 272.623 1206.42 328.648 1209.08 337.826 C 1231.05 331.757 1259.23 323.102 1281.08 318.556 C 1287.17 348.495 1295.82 378.57 1302.56 408.333 C 1315.99 404.501 1384.16 383.52 1392.42 383.318 C 1397.15 391.864 1405.61 429.731 1408.82 441.51 C 1419.74 481.593 1429.27 527.695 1443.41 566.683 C 1447.03 563.985 1451.16 560.378 1454.7 557.455 C 1463.21 558.297 1478.77 562.213 1487.52 564.248 L 1539.84 576.469 C 1555.25 580.079 1689.47 610.209 1692.82 612.579 C 1696.43 620.532 1689.09 624.852 1683.61 629.645 C 1688.6 633.456 1692.36 635.087 1692.04 641.904 C 1689.35 646.986 1684.01 649.916 1679.18 653.434 C 1712.06 661.745 1683.92 667.197 1681.95 676.504 C 1683.34 680.299 1687.3 681.222 1690.63 683.872 C 1692.59 685.409 1693.71 687.785 1693.63 690.274 C 1693.47 696.346 1686.49 702.992 1682.52 707.204 C 1703.86 716.073 1691.88 725.19 1680.32 735.858 C 1704.4 744.707 1693.85 754.366 1678.75 764.855 C 1684.95 767.911 1690.73 768.554 1693 775.592 C 1692.87 782.463 1686.2 787.859 1681.38 792.921 C 1690.32 797.352 1699.78 802.469 1688.63 812.347 C 1670.2 828.672 1650.26 843.321 1630.75 858.324 L 1552.23 919.829 C 1530.27 937.007 1500.31 960.039 1480.65 978.735 C 1456.66 974.874 1417.07 963.371 1392.19 957.325 C 1365.74 951.114 1339.33 944.723 1312.97 938.154 C 1254.99 923.978 1215.3 913.78 1192.92 851.927 C 1189.3 866.116 1190.64 876.648 1173.32 873.367 C 1155.23 869.941 1137.29 866.309 1119.26 862.582 C 1081.35 854.55 1043.38 846.777 1005.35 839.264 C 1002.36 849.345 999.032 869.801 992.579 877.174 L 807.622 838.357 C 801.65 858.558 795.914 882.261 789.124 901.874 C 771.323 900.293 738.594 891.819 719.588 887.648 L 576.408 855.668 C 557.062 851.332 537.673 847.192 518.244 843.247 C 502.218 840.118 484.757 837.953 469.572 832.443 C 468.074 828.078 491.569 737.836 494.754 726.38 C 469.661 714.319 385.901 581.281 361.582 551.437 C 347.059 533.615 317.112 489.131 304.02 469.001 C 309.937 462.754 325.759 452.424 333.598 447.026 L 384.238 412.352 C 410.992 393.596 437.843 374.978 464.788 356.497 C 479.21 346.665 497.294 334.041 512.381 325.671 C 525.436 342.511 536.736 359.571 548.483 377.331 C 590.099 341.738 629.884 304.213 671.167 268.313 C 684.097 257.069 712.178 227.734 725.924 223.007 C 730.033 223.787 782.354 283.286 792.073 292.21 C 804.024 284.19 816.729 270.139 829.286 261.107 C 836.417 266.942 847.64 281.359 853.89 288.967 L 850.777 274.088 C 867.668 267.861 889.947 262.399 907.749 256.346 C 965.964 236.553 1027.52 219.966 1085.45 199.997 z" fill="rgb(0,0,68)" transform="translate(0,0)"></path>
<path d="M 828.883 271.039 C 851.779 302.595 885.896 341.102 911.367 371.875 C 930.775 394.51 950.632 416.196 970.802 438.143 C 983.824 452.311 997.247 468.873 1011.24 482.049 C 982.368 512.02 950.18 556.655 922.275 589.667 L 898.996 584.944 C 896.482 584.975 891.418 584.362 888.703 584.106 C 883.983 588.071 869.175 641.865 866.132 652.017 C 854.16 644.752 844.784 635.887 834.227 627.089 C 800.453 598.938 773.151 565.49 742.228 534.897 C 732.892 525.768 720.855 510.948 712.076 500.927 C 690.474 476.33 669.392 451.282 648.844 425.798 C 663.118 412.633 682.268 397.267 697.301 384.387 L 768.701 322.347 C 788.957 304.999 808.911 288.925 828.883 271.039 z" fill="rgb(252,250,247)" transform="translate(0,0)"></path>
<path d="M 828.883 271.039 C 851.779 302.595 885.896 341.102 911.367 371.875 C 896.605 381.005 884.689 391.41 872.343 399.152 C 839.515 427.17 806.465 460.182 776.721 491.487 C 766.787 501.944 755.253 512.514 746.479 523.748 C 744.028 528.381 743.113 529.8 742.228 534.897 C 732.892 525.768 720.855 510.948 712.076 500.927 C 690.474 476.33 669.392 451.282 648.844 425.798 C 663.118 412.633 682.268 397.267 697.301 384.387 L 768.701 322.347 C 788.957 304.999 808.911 288.925 828.883 271.039 z" fill="rgb(0,248,177)" transform="translate(0,0)"></path>
<path d="M 746.479 523.748 C 744.051 521.593 742.936 520.988 741.932 517.905 C 742.99 514.672 745.203 512.204 747.369 509.638 C 761.893 492.44 875.383 376.835 889.889 375.572 L 889.955 374.972 L 888.558 375.17 L 889.687 376.409 C 885.841 386.16 873.793 393.743 872.343 399.152 C 839.515 427.17 806.465 460.182 776.721 491.487 C 766.787 501.944 755.253 512.514 746.479 523.748 z" fill="rgb(3,74,96)" transform="translate(0,0)"></path>
<path d="M 822.863 317.867 C 825.84 320.138 826.805 321.585 826.565 325.109 C 822.649 329.946 812.541 338.158 807.517 342.549 C 797.291 351.561 787.111 360.627 776.979 369.745 L 731.693 410.456 C 723.396 418.031 713.322 428.115 704.714 434.825 C 702.227 432.88 700.729 431.592 700.463 428.468 C 709.216 414.617 806.809 331.031 822.863 317.867 z" fill="rgb(3,74,96)" transform="translate(0,0)"></path>
<path d="M 837.484 344.727 L 840.427 345.164 C 842.834 347.498 842.356 346.349 842.501 349.327 C 841.087 352.352 838.389 355.344 835.865 357.524 C 806.405 382.957 777.005 408.576 748.88 435.491 C 742.749 441.36 736.473 447.628 729.762 452.792 C 727.01 450.831 726.497 450.513 724.574 447.763 C 725.489 439.286 822.96 356.716 837.484 344.727 z" fill="rgb(0,0,68)" transform="translate(0,0)"></path>
<path d="M 845.545 377.635 C 847.954 377.462 848.249 377.822 850.483 379.014 L 851.038 381.035 C 848.239 388.188 763.34 465.535 750.65 477.261 L 748.582 476.987 C 746.001 474.391 746.53 475.624 746.213 472.404 C 748.888 466.83 835.048 387.679 845.545 377.635 z" fill="rgb(3,74,96)" transform="translate(0,0)"></path>
<path d="M 888.703 584.106 C 893.402 580.769 897.737 574.363 901.171 571.214 C 913.182 560.197 973.615 489.053 984.395 485.685 L 985.729 486.364 C 985.691 487.123 985.654 487.883 985.617 488.643 C 964.006 514.657 920.055 561.832 898.996 584.944 C 896.482 584.975 891.418 584.362 888.703 584.106 z" fill="rgb(3,74,96)" transform="translate(0,0)"></path>
<path d="M 905.024 409.839 C 907.114 411.197 907.163 411.457 908.541 413.61 C 907.672 416.945 907.034 417.097 904.328 419.619 C 879.681 442.198 854.952 464.548 830.585 487.44 C 816.33 500.833 801.138 516.337 786.091 528.481 C 783.904 527.483 783.886 527.259 782.554 525.139 C 783.262 520.927 893.646 418.313 905.024 409.839 z" fill="rgb(3,74,96)" transform="translate(0,0)"></path>
<path d="M 921.983 435.749 C 922.373 436.077 922.946 437.015 923.271 437.488 C 921.066 441.173 890.437 470.797 885.826 475.083 C 859.005 500.019 832.584 528.293 806.017 553.056 C 803.708 550.206 803.875 551.213 803.401 548.016 C 807.584 542.196 829.574 521.697 835.895 515.58 C 854.056 497.799 872.511 480.321 891.252 463.152 C 899.903 455.132 912.833 442.501 921.983 435.749 z" fill="rgb(13,148,136)" transform="translate(0,0)"></path>
<path d="M 938.92 455.886 L 938.961 457.631 C 937.073 461.092 821.742 579.843 818.626 581.357 C 817.882 580.224 817.369 579.143 816.746 577.943 C 820.244 569.145 925.772 466.578 938.92 455.886 z" fill="url(#Gradient1)" transform="translate(0,0)"></path>
<path d="M 922.013 512.652 C 923.633 513.523 923 512.873 923.655 514.925 C 920.843 521.09 854.511 591.423 845.612 600.26 C 844.431 598.894 844.066 598.045 843.241 596.483 C 846.102 589.961 911.799 523.105 922.013 512.652 z" fill="rgb(13,148,136)" transform="translate(0,0)"></path>
<path d="M 870.429 587.556 C 871.065 587.908 874.612 589.634 873.956 590.632 C 869.561 597.32 858.359 608.193 852.685 613.222 C 851.796 612.306 848.905 609.748 849.385 608.926 C 852.218 604.072 866.699 590.494 870.429 587.556 z" fill="rgb(3,74,96)" transform="translate(0,0)"></path>
<path d="M 511.374 335.274 C 536.355 370.441 560.025 406.086 585.429 441.274 C 595.902 456.037 609.449 475.943 621.579 489.138 C 604.309 532.612 582.636 575.284 566.961 619.064 C 559.294 618.254 555.005 618.038 547.303 618.164 C 544.5 618.324 536.438 618.768 534.128 617.724 C 531.156 617.204 526.163 616.892 523.002 616.6 L 519.676 621.324 C 518.304 626.83 511.21 656.485 509.286 660.269 C 508.853 666.614 509.757 667.153 507.651 673.064 C 504.885 679.182 497.775 713.827 496.085 721.648 C 463.53 682.131 427.432 628.919 397.722 586.824 C 370.376 551.224 340.993 507.652 314.615 470.889 C 355.141 443.587 395.415 415.912 435.43 387.866 C 460.976 370.255 486.587 353.972 511.374 335.274 z" fill="rgb(0,248,177)" transform="translate(0,0)"></path>
<path d="M 557.813 455.397 C 563.729 452.913 578.008 444.823 585.429 441.274 C 595.902 456.037 609.449 475.943 621.579 489.138 C 604.309 532.612 582.636 575.284 566.961 619.064 C 559.294 618.254 555.005 618.038 547.303 618.164 C 544.5 618.324 536.438 618.768 534.128 617.724 C 531.156 617.204 526.163 616.892 523.002 616.6 L 519.676 621.324 C 518.304 626.83 511.21 656.485 509.286 660.269 C 508.853 666.614 509.757 667.153 507.651 673.064 C 504.885 679.182 497.775 713.827 496.085 721.648 C 463.53 682.131 427.432 628.919 397.722 586.824 L 406.547 574.17 C 455.402 532.623 505.863 493.002 557.813 455.397 z" fill="rgb(252,250,247)" transform="translate(0,0)"></path>
<path d="M 519.676 621.324 C 511.29 622.285 490.546 654.379 480.506 650.582 L 480.142 649.06 C 482.906 641.446 552.291 581.907 561.802 577.356 C 552.994 590.129 534.463 604.079 523.002 616.6 L 519.676 621.324 z" fill="rgb(3,74,96)" transform="translate(0,0)"></path>
<path d="M 534.128 617.724 C 542.646 616.208 547.008 607.32 553.573 602.242 C 556.335 600.106 562.486 589.595 564.094 597.519 C 564.773 600.861 549.867 615.041 547.303 618.164 C 544.5 618.324 536.438 618.768 534.128 617.724 z" fill="rgb(3,74,96)" transform="translate(0,0)"></path>
<path d="M 507.651 673.064 C 497.379 668.234 503.295 665.332 509.286 660.269 C 508.853 666.614 509.757 667.153 507.651 673.064 z" fill="rgb(3,74,96)" transform="translate(0,0)"></path>
<path d="M 571.458 486.786 C 573.709 487.405 573.021 487.219 574.888 489.021 L 574.69 491.332 C 571.974 495.311 546.807 514.123 540.81 518.782 L 444.118 593.392 C 441.797 591.302 440.894 590.921 440.342 588.05 C 442.514 580.59 554.867 499.125 571.458 486.786 z" fill="rgb(3,74,96)" transform="translate(0,0)"></path>
<path d="M 589.621 515.751 L 591.343 516.345 L 592.002 517.923 C 589.766 521.985 468.56 619.503 461.728 622.912 C 458.789 620.046 458.852 620.941 458.029 617.431 C 462.2 608.994 576.167 525.592 589.621 515.751 z" fill="rgb(3,74,96)" transform="translate(0,0)"></path>
<path d="M 406.547 574.17 L 402.754 571.227 C 400.383 565.603 408.212 561.557 412.594 557.944 C 450.964 526.314 490.909 497.091 530.806 467.47 C 535.24 464.178 549.975 451.786 554.089 450.461 C 556.806 451.965 556.287 452.227 557.813 455.397 C 505.863 493.002 455.402 532.623 406.547 574.17 z" fill="rgb(3,74,96)" transform="translate(0,0)"></path>
<path d="M 499.467 375.837 C 503.166 376.758 501.935 375.969 504.295 378.64 L 504.132 381.149 C 502.765 383.468 499.907 386.543 497.682 388.011 C 452.165 418.042 408.411 455.483 362.507 484.407 C 359.627 484.017 358.044 482.502 356.869 479.983 C 357.997 475.428 375.947 463.953 380.697 460.485 C 395.285 449.655 409.986 438.978 424.798 428.456 C 447.768 412.057 475.986 390.229 499.467 375.837 z" fill="rgb(3,74,96)" transform="translate(0,0)"></path>
<path d="M 509.998 404.665 L 513.079 405.528 C 515.078 408.034 514.653 406.795 514.485 410.268 C 508.946 419.492 452.413 456.74 439.751 467.186 C 425.758 478.731 398.825 498.214 383.616 508.235 C 380.829 508.072 379.144 506.339 378.029 503.959 C 379.118 499.822 383.994 496.631 387.455 494.083 C 428.024 464.22 468.67 433.424 509.998 404.665 z" fill="rgb(3,74,96)" transform="translate(0,0)"></path>
<path d="M 484.852 460.636 C 487.002 460.746 487.464 461.226 489.268 462.343 L 489.766 464.585 C 487.329 472.274 415.298 526.382 403.501 534.807 C 400.864 532.799 399.907 532.254 398.211 529.276 C 399.049 526.465 475.53 467.955 484.852 460.636 z" fill="rgb(3,74,96)" transform="translate(0,0)"></path>
<path d="M 526.728 450.781 C 533.925 452.254 527.299 456.141 524.279 458.38 C 516.417 464.209 508.663 470.214 500.743 475.958 C 499.465 475.621 497.226 473.832 498.1 472.943 C 505.79 465.115 517.691 457.232 526.728 450.781 z" fill="rgb(3,74,96)" transform="translate(0,0)"></path>
<path d="M 523.638 431.648 C 532.816 434.197 524.257 437.7 520.629 440.666 C 516.024 444.431 511.264 448.176 506.485 451.712 C 505.265 452.034 504.472 452.381 503.475 451.445 C 502.404 447.16 519.902 434.548 523.638 431.648 z" fill="rgb(3,74,96)" transform="translate(0,0)"></path>
<path d="M 1177.46 451.078 C 1246.67 430.677 1318.08 412.894 1388.01 392.835 C 1397.01 430.836 1406.42 468.736 1416.26 506.527 L 1418.39 512.411 C 1422.48 531.53 1429.84 553.611 1435.69 572.435 C 1410.3 590.587 1383.39 613.255 1358.91 632.814 C 1327.11 658.213 1293.83 683.006 1262.48 708.728 C 1239.98 676.186 1223.02 642.161 1211.94 604.137 C 1210.24 598.312 1206.21 585.989 1205.51 580.535 C 1192.05 539.813 1184.74 493.407 1177.46 451.078 z" fill="rgb(0,248,177)" transform="translate(0,0)"></path>
<path d="M 1418.39 512.411 C 1422.48 531.53 1429.84 553.611 1435.69 572.435 C 1410.3 590.587 1383.39 613.255 1358.91 632.814 C 1327.11 658.213 1293.83 683.006 1262.48 708.728 C 1239.98 676.186 1223.02 642.161 1211.94 604.137 C 1210.24 598.312 1206.21 585.989 1205.51 580.535 L 1206.81 579.792 C 1227.23 575.33 1268.43 561.921 1289 555.173 C 1329.54 541.87 1378.92 527.747 1418.39 512.411 z" fill="rgb(252,250,247)" transform="translate(0,0)"></path>
<path d="M 1393.53 555.004 C 1396.71 554.7 1397.25 555.086 1398.22 557.865 C 1394.47 562.61 1266.84 600.235 1251.31 604.724 L 1249.49 604.811 C 1247.16 603.253 1247.93 604.29 1247.12 601.568 C 1247.54 600.964 1247.95 600.361 1248.37 599.757 C 1288.5 586.223 1355.79 566.474 1393.53 555.004 z" fill="rgb(3,74,96)" transform="translate(0,0)"></path>
<path d="M 1382.05 591.12 C 1384.23 590.659 1383.1 590.704 1385.54 591.479 L 1386.53 593.411 C 1381.8 599.035 1274.3 629.07 1257.08 633.84 C 1254.59 634.029 1253.28 632.921 1251.95 631.108 L 1252.53 629.085 C 1257.73 624.377 1365.24 595.926 1382.05 591.12 z" fill="rgb(3,74,96)" transform="translate(0,0)"></path>
<path d="M 1334.37 637.954 C 1334.76 638.07 1336 639.036 1336.4 639.322 L 1336.35 641.122 C 1330.98 646.017 1277.55 663.581 1267.23 666.987 L 1265.18 665.81 L 1264.92 663.779 C 1268.34 660.052 1324.84 641.299 1334.37 637.954 z" fill="rgb(3,74,96)" transform="translate(0,0)"></path>
<path d="M 1416.26 506.527 L 1418.39 512.411 C 1378.92 527.747 1329.54 541.87 1289 555.173 C 1268.43 561.921 1227.23 575.33 1206.81 579.792 C 1205.57 575.346 1205.3 576.781 1206.87 573.624 C 1210.24 571.404 1260.51 556.684 1268.48 554.113 L 1359.63 524.528 C 1375.81 519.169 1400.03 510.211 1416.26 506.527 z" fill="rgb(3,74,96)" transform="translate(0,0)"></path>
<path d="M 1363.55 429.1 L 1365.95 429.528 L 1367.56 431.848 C 1368.34 441.581 1344.2 443.745 1336.55 445.98 C 1298.08 457.225 1259.08 468.277 1220.23 478.164 C 1218.34 477.651 1217.74 476.904 1216.1 475.685 C 1215.26 473.143 1215.31 474.424 1216.16 471.712 C 1222.24 466.561 1260.79 457.687 1271.65 454.661 C 1302.21 445.896 1332.85 437.375 1363.55 429.1 z" fill="rgb(3,74,96)" transform="translate(0,0)"></path>
<path d="M 1366.08 460.158 C 1369.64 459.943 1368.37 459.536 1370.98 461.438 C 1372.11 464.708 1372.16 463.322 1370.71 466.623 C 1366.52 469.991 1246.29 503.457 1230.6 507.943 C 1227.4 508.194 1226.23 506.477 1224.81 504.206 L 1225.5 501.855 C 1231.78 496.105 1349.62 464.549 1366.08 460.158 z" fill="rgb(3,74,96)" transform="translate(0,0)"></path>
<path d="M 1311.18 504.963 C 1312.95 505.432 1312.97 505.805 1314.43 507.151 L 1314.36 509.51 C 1310.19 516.267 1244.68 536.047 1233.38 538.899 C 1230.94 536.995 1229.42 535.221 1229.67 532.127 C 1236.27 527.689 1297.77 509.791 1311.18 504.963 z" fill="rgb(3,74,96)" transform="translate(0,0)"></path>
<path d="M 1369.73 496.124 C 1375.36 501.256 1367.72 503.711 1363.53 505.123 C 1352.83 508.724 1341.97 511.825 1331.21 515.241 C 1319.42 511.998 1367.21 496.791 1369.73 496.124 z" fill="rgb(3,74,96)" transform="translate(0,0)"></path>
<path d="M 891.949 591.407 C 898.715 592.782 911.13 594.489 917.428 596.962 C 918.128 597.237 922.435 606.479 924.386 608.369 C 939.139 622.662 953.612 639.694 969.475 652.661 L 972.851 655.327 C 978.399 660.248 985.531 666.975 991.168 671.496 C 993.963 673.28 996.356 674.464 998.266 677.134 C 1006.71 683.978 1017.35 692.821 1026.07 699.204 C 1028.71 700.852 1030.86 702.066 1033.13 704.229 C 1036.64 706.836 1057.92 722.058 1061.11 723.375 C 1063.56 724.635 1065.18 725.266 1067.15 727.229 C 1073.75 731.362 1081.45 736.447 1088.33 739.79 C 1089.06 740.197 1093.96 742.876 1094.28 743.155 C 1102.63 747.751 1111.01 752.517 1119.65 756.493 C 1122.01 757.374 1124.58 758.1 1126.5 759.644 C 1131.07 761.79 1148.98 770.543 1152.79 771.217 C 1155.79 771.851 1155.93 771.76 1158.59 773.327 C 1167.45 777.705 1187.76 783.41 1197.81 786.494 C 1190.47 805.473 1191.48 812.288 1188.47 831.665 C 1186.56 843.98 1183.97 854.132 1182.46 867.323 C 1171.69 864.267 1156.54 861.508 1145.36 859.162 C 1121.96 854.257 1098.54 849.471 1075.09 844.802 L 933.826 815.644 C 901.665 809.113 866.883 802.883 835.188 795.543 C 852.685 727.791 873.036 658.9 891.949 591.407 z" fill="rgb(252,250,247)" transform="translate(0,0)"></path>
<path d="M 991.168 671.496 C 993.963 673.28 996.356 674.464 998.266 677.134 C 989.03 706.286 985.815 740.774 976.001 770.054 C 973.732 776.823 973.884 793.146 966.632 796.119 L 964.315 794.744 C 962.01 788.936 970.618 759.069 972.601 750.77 C 978.973 724.389 985.162 697.963 991.168 671.496 z" fill="rgb(3,74,96)" transform="translate(0,0)"></path>
<path d="M 969.475 652.661 L 972.851 655.327 C 966.603 689.466 951.718 726.262 944.99 760.838 C 943.776 767.075 940.664 782.307 934.988 785.141 L 933.483 783.533 C 931.164 773.368 936.045 764.03 938.654 754.258 C 943.197 736.686 947.954 719.17 952.923 701.713 C 955.322 693.315 964.771 655.664 969.475 652.661 z" fill="rgb(3,74,96)" transform="translate(0,0)"></path>
<path d="M 1026.07 699.204 C 1028.71 700.852 1030.86 702.066 1033.13 704.229 C 1029.41 711.096 1019.24 768.479 1015.97 780.437 C 1014.62 785.784 1014.14 791.801 1012.41 797.012 C 1011.37 800.136 1008.52 802.632 1005.16 801.198 C 1002.5 795.691 1023.07 711.301 1026.07 699.204 z" fill="rgb(3,74,96)" transform="translate(0,0)"></path>
<path d="M 1061.11 723.375 C 1063.56 724.635 1065.18 725.266 1067.15 727.229 C 1060.74 738.063 1056.2 777.729 1050.68 791.327 C 1048.2 797.413 1050.19 804.457 1042.48 806.061 L 1041.2 804.768 C 1040.35 794.624 1057.1 736.3 1061.11 723.375 z" fill="rgb(3,74,96)" transform="translate(0,0)"></path>
<path d="M 1088.33 739.79 C 1089.06 740.197 1093.96 742.876 1094.28 743.155 C 1092.94 745.57 1091.66 753.289 1090.81 755.954 C 1087.56 766.15 1081.08 806.791 1075.06 813.697 C 1072.12 814.103 1073.41 814.409 1071.01 812.98 C 1070.32 811.362 1069.98 808.496 1070.54 806.854 C 1077.64 785.837 1080.74 760.288 1088.33 739.79 z" fill="rgb(3,74,96)" transform="translate(0,0)"></path>
<path d="M 1119.65 756.493 C 1122.01 757.374 1124.58 758.1 1126.5 759.644 C 1123.27 777.195 1118 795.655 1114.76 813.369 C 1114.21 816.399 1112.39 818.311 1109.35 818.881 C 1105.2 814.1 1117.93 765.238 1119.65 756.493 z" fill="rgb(3,74,96)" transform="translate(0,0)"></path>
<path d="M 1152.79 771.217 C 1155.79 771.851 1155.93 771.76 1158.59 773.327 C 1156.23 787.727 1150.78 807.685 1147.6 822.387 C 1147.22 824.118 1144.73 825.502 1143.04 826.118 C 1137.7 824.083 1151.02 778.74 1152.79 771.217 z" fill="rgb(3,74,96)" transform="translate(0,0)"></path>
<path d="M 939.44 637.165 C 942.356 638.414 943.563 638.705 945.445 641.295 C 945.191 645.936 940.397 662.103 938.625 667.717 C 927.51 702.931 920.67 742.809 908.554 777.269 C 905.104 777.424 904.701 777.075 902.521 775.428 C 900.788 768.873 935.567 650.005 939.44 637.165 z" fill="rgb(3,74,96)" transform="translate(0,0)"></path>
<path d="M 911.962 620.213 C 914.201 621.176 914.177 621.044 915.437 623.063 C 912.667 640.632 902.764 670.501 898.325 689.442 C 892.731 713.316 884.805 739.636 878.435 763.563 C 877.515 767.017 876.389 767.659 873.833 769.614 L 870.937 767.054 C 869.006 760.563 906.195 637.724 911.962 620.213 z" fill="rgb(3,74,96)" transform="translate(0,0)"></path>
<path d="M 1170.55 778.644 C 1172.36 784.305 1167.17 800.228 1162.15 804.239 C 1160.47 797.459 1165.78 783.883 1170.55 778.644 z" fill="rgb(13,148,136)" transform="translate(0,0)"></path>
<path d="M 1046.74 389.094 C 1075.46 383.315 1104.91 374.353 1133.25 366.769 L 1274.99 329.138 C 1279.92 354.704 1287.83 384.901 1293.92 410.529 L 1218.3 430.913 C 1203.23 434.992 1181.63 440.291 1167.71 446.186 C 1168.33 450.236 1168.99 452.185 1170.22 456.059 C 1170.89 459.453 1171.25 461.421 1171.51 464.906 C 1172.54 471.3 1174.3 483.728 1176.22 489.367 C 1176.95 492.298 1177.87 495.345 1177.99 498.331 C 1180 509.019 1182.84 526.091 1185.88 536.113 C 1186.81 539.564 1187.09 539.774 1187.34 543.592 C 1188.49 551.004 1191.41 564.064 1193.9 571.117 C 1194.7 574.323 1195.14 575.595 1195.41 579.034 C 1197.61 586.659 1202.09 602.551 1205.37 609.444 C 1207.13 613.203 1207.77 613.236 1207.79 617.382 C 1209.02 624.098 1214.63 636.609 1217.48 643.5 C 1219.2 646.249 1220.25 649.201 1221.3 652.254 C 1225.51 661.186 1229.73 668.705 1234.57 677.291 L 1236.89 680.841 C 1243.32 691.778 1249.55 702.703 1256.8 713.123 C 1242.75 724.038 1230.67 736.107 1218.51 748.997 C 1203.93 740.182 1190.33 727.664 1178.35 715.666 C 1123.93 661.172 1106.89 596.446 1085.81 525.232 L 1046.74 389.094 z" fill="rgb(252,250,247)" transform="translate(0,0)"></path>
<path d="M 1171.51 464.906 C 1158.75 466.81 1112.13 485.196 1103.99 479.013 L 1104.05 477.004 C 1109.14 471.499 1160.32 458.319 1170.22 456.059 C 1170.89 459.453 1171.25 461.421 1171.51 464.906 z" fill="rgb(3,74,96)" transform="translate(0,0)"></path>
<path d="M 1177.99 498.331 C 1159.99 502.258 1135.75 512.609 1117.06 514.919 C 1115.59 515.1 1115.66 514.551 1114.45 513.154 L 1114.82 510.379 C 1119.08 504.242 1127.74 503.805 1134.78 501.749 L 1176.22 489.367 C 1176.95 492.298 1177.87 495.345 1177.99 498.331 z" fill="rgb(3,74,96)" transform="translate(0,0)"></path>
<path d="M 1185.88 536.113 C 1186.81 539.564 1187.09 539.774 1187.34 543.592 C 1180.47 546.811 1139.18 561.252 1133.49 560.009 C 1132.42 559.777 1131.67 559.179 1131.11 558.249 C 1130.64 557.461 1130.5 556.725 1130.84 555.847 C 1131.84 553.223 1179.17 539.546 1185.88 536.113 z" fill="rgb(3,74,96)" transform="translate(0,0)"></path>
<path d="M 1193.9 571.117 C 1194.7 574.323 1195.14 575.595 1195.41 579.034 C 1181.14 583.249 1159.54 590.889 1144.48 593.241 C 1143.04 593.466 1141.68 589.076 1142.44 588.64 C 1156.44 580.624 1178.4 578.377 1193.11 571.491 L 1193.9 571.117 z" fill="rgb(3,74,96)" transform="translate(0,0)"></path>
<path d="M 1217.48 643.5 C 1219.2 646.249 1220.25 649.201 1221.3 652.254 C 1219.02 652.774 1183.82 663.844 1183.63 663.68 C 1178.47 659.327 1175.51 656.395 1186.16 653.382 C 1195.72 650.675 1207.46 646.721 1217.48 643.5 z" fill="rgb(3,74,96)" transform="translate(0,0)"></path>
<path d="M 1205.37 609.444 C 1207.13 613.203 1207.77 613.236 1207.79 617.382 C 1193.06 620.287 1178.14 626.35 1163.53 627.764 C 1162.29 627.885 1160.18 623.988 1161.4 623.388 C 1173.81 617.247 1191.86 612.876 1205.37 609.444 z" fill="rgb(3,74,96)" transform="translate(0,0)"></path>
<path d="M 1240.56 368.111 C 1243.45 367.834 1243.78 367.653 1246.36 368.749 C 1247.53 371.351 1247.45 370.045 1246.54 372.795 C 1241.64 377.318 1199.94 386.806 1189.94 389.4 L 1095.26 414.373 L 1092.46 414.839 C 1089.62 413.59 1090.62 414.368 1088.72 411.748 L 1089.23 409.503 C 1094.14 404.323 1223.93 372.464 1240.56 368.111 z" fill="rgb(3,74,96)" transform="translate(0,0)"></path>
<path d="M 1242.57 399.09 C 1247.12 398.882 1246.05 398.227 1248.95 400.587 L 1248.54 402.7 C 1241.93 408.609 1120.99 441.019 1101.49 446.656 C 1097.12 447.169 1098.36 447.638 1095.4 445.884 C 1094.46 442.676 1094.35 443.95 1095.67 441.081 C 1102.72 435.572 1223.24 404.31 1242.57 399.09 z" fill="rgb(3,74,96)" transform="translate(0,0)"></path>
<path d="M 1230.04 677.967 C 1233.18 678.8 1233.02 679.069 1235.68 681.341 C 1233.39 686.537 1208.47 694.573 1206.51 693.74 C 1194.62 688.69 1226.45 679.215 1230.04 677.967 z" fill="rgb(3,74,96)" transform="translate(0,0)"></path>
<path d="M 527.663 624.16 C 537.846 625.808 553.847 627.186 563.875 627.336 C 561.432 633.725 553.339 652.786 552.354 658.272 C 556.848 662.816 655.591 698.266 669.106 703.278 L 694.435 712.352 C 696.427 713.071 698.801 713.814 700.598 714.867 C 707.636 717.886 717.069 722.283 724.054 724.85 C 716.992 750.527 706.4 781.843 701.184 807.105 C 702.607 813.093 705.448 811.771 707.187 816.491 C 714.388 818.706 723.295 820.303 730.805 821.835 C 735.175 822.78 734.593 822.747 738.908 823.052 L 755.107 827.381 C 757.772 828.099 759.529 827.911 762.156 828.456 C 772.834 831.262 788.965 834.721 800.006 836.54 C 794.689 855.454 789.11 874.481 785.399 893.784 C 733.551 881.656 681.594 870.003 629.533 858.825 C 579.43 847.228 528.998 837.102 478.302 828.46 C 483.382 803.054 492.223 771.064 498.606 745.549 C 508.781 705.205 518.468 664.739 527.663 624.16 z" fill="rgb(0,248,177)" transform="translate(0,0)"></path>
<path d="M 669.106 703.278 L 694.435 712.352 C 696.427 713.071 698.801 713.814 700.598 714.867 C 707.636 717.886 717.069 722.283 724.054 724.85 C 716.992 750.527 706.4 781.843 701.184 807.105 C 702.607 813.093 705.448 811.771 707.187 816.491 C 714.388 818.706 723.295 820.303 730.805 821.835 C 735.175 822.78 734.593 822.747 738.908 823.052 L 755.107 827.381 C 757.772 828.099 759.529 827.911 762.156 828.456 C 772.834 831.262 788.965 834.721 800.006 836.54 C 794.689 855.454 789.11 874.481 785.399 893.784 C 733.551 881.656 681.594 870.003 629.533 858.825 C 631.067 847.994 638.661 820.239 641.471 808.799 C 649.821 773.405 659.036 738.221 669.106 703.278 z" fill="rgb(252,250,247)" transform="translate(0,0)"></path>
<path d="M 694.435 712.352 C 696.427 713.071 698.801 713.814 700.598 714.867 C 692.267 739.781 687.95 767.686 681.076 793.098 C 678.634 802.125 675.288 829.743 667.32 832.905 C 664.755 831.514 665.618 832.31 664.228 829.572 C 666.899 812.432 676.234 781.318 680.207 763.39 C 682.573 752.714 690.78 721.489 694.435 712.352 z" fill="rgb(3,74,96)" transform="translate(0,0)"></path>
<path d="M 730.805 821.835 C 735.175 822.78 734.593 822.747 738.908 823.052 C 734.723 829.733 734.921 841.405 730.09 848.074 C 728.684 850.015 725.065 848.885 724.914 847.35 C 724.212 840.188 728.837 828.681 730.805 821.835 z" fill="rgb(3,74,96)" transform="translate(0,0)"></path>
<path d="M 707.187 816.491 C 704.091 821.351 704.356 836.315 699.514 835.831 C 690.557 834.938 700.132 814.346 701.184 807.105 C 702.607 813.093 705.448 811.771 707.187 816.491 z" fill="rgb(3,74,96)" transform="translate(0,0)"></path>
<path d="M 755.107 827.381 C 757.772 828.099 759.529 827.911 762.156 828.456 C 761.635 830.576 759.189 847.668 753.526 838.566 C 752.153 836.36 754.33 830.133 755.107 827.381 z" fill="rgb(3,74,96)" transform="translate(0,0)"></path>
<path d="M 582.091 687.43 C 585.835 687.888 587.317 688.152 589.025 691.331 C 588.545 699.89 563.431 807.249 560.983 811.886 C 558.022 810.88 555.034 810.369 553.44 807.937 C 554.522 797.208 562.357 766.747 565.472 754.611 C 570.794 733.881 575.948 707.42 582.091 687.43 z" fill="rgb(0,0,68)" transform="translate(0,0)"></path>
<path d="M 651.161 705.579 C 654.124 706.353 655.654 706.458 657.533 708.947 C 658.489 713.875 634.151 820.059 629.463 832.613 C 626.194 831.888 625.776 831.73 622.967 829.912 C 620.25 823.358 647.621 721.251 651.161 705.579 z" fill="rgb(0,0,68)" transform="translate(0,0)"></path>
<path d="M 550.697 673.249 C 553.949 674.897 554.225 674.403 555.981 677.253 C 555.442 686.267 529.784 799.39 526.997 803.536 C 524.146 802.378 523.757 802.362 521.648 800.237 C 520.145 791.677 547.058 685.587 550.697 673.249 z" fill="rgb(0,0,68)" transform="translate(0,0)"></path>
<path d="M 613.799 713.253 C 617.575 714.675 618.499 714.833 620.17 717.777 C 618.789 728.717 598.637 818.253 594.679 824.128 C 591.18 822.989 589.901 822.899 588.198 820.184 C 588.499 809.06 609.163 726.089 613.799 713.253 z" fill="rgb(0,0,68)" transform="translate(0,0)"></path>
<path d="M 1457.15 566.182 L 1591.98 597.26 C 1612.83 601.933 1649.78 608.878 1668.93 614.649 L 1668.88 615.607 C 1665.49 618.912 1662.29 621.316 1658.33 623.91 C 1644.01 633.213 1608.16 663.198 1593.73 674.698 C 1552.97 707.187 1511.84 739.213 1470.35 770.77 C 1423.47 758.574 1376.5 746.734 1329.45 735.25 C 1308.45 730.229 1284.54 725.588 1264.15 719.963 C 1279.49 705.063 1317.52 676.231 1335.38 662.292 C 1375.7 630.81 1416.48 596.904 1457.15 566.182 z" fill="rgb(0,248,177)" transform="translate(0,0)"></path>
<path d="M 1658.33 623.91 C 1661.38 616.13 1660.67 615.317 1668.88 615.607 C 1665.49 618.912 1662.29 621.316 1658.33 623.91 z" fill="rgb(252,250,247)" transform="translate(0,0)"></path>
<path d="M 1461.3 591.195 C 1466.66 592.166 1493.08 598.498 1496.48 599.862 C 1509.32 605.015 1593.78 620.999 1599.67 626.62 C 1600.44 630.104 1600.02 629.493 1598.7 633.328 C 1588.12 633.496 1469.98 603.844 1459.69 599.178 C 1458.91 595.817 1459.96 594.945 1461.3 591.195 z" fill="rgb(0,0,68)" transform="translate(0,0)"></path>
<path d="M 1440.14 614.959 C 1456.2 617.284 1477.26 623.658 1493.5 627.551 C 1516.7 633.112 1540.13 639.167 1563.27 645.02 C 1567.69 646.137 1571.07 646.689 1573.19 650.402 C 1572.96 653.376 1571.76 654.276 1569.81 656.598 C 1555.62 653.867 1440.61 624.923 1437.57 621.418 C 1437.55 618.25 1438.27 617.594 1440.14 614.959 z" fill="rgb(0,0,68)" transform="translate(0,0)"></path>
<path d="M 1359.67 678.597 C 1370.07 679.527 1478.86 709.163 1484.73 713.886 C 1485.5 717.665 1485.14 716.773 1483.37 720.909 C 1454.92 712.4 1425.88 705.192 1397.28 697.371 C 1388.56 694.988 1363.9 689.136 1356.76 685.844 C 1356.41 683.525 1358.42 680.807 1359.67 678.597 z" fill="rgb(0,0,68)" transform="translate(0,0)"></path>
<path d="M 1385.67 660.77 C 1398.54 660.609 1500.55 687.211 1511.3 693.003 C 1512.45 695.897 1511.77 696.002 1510.78 699.499 C 1502.21 701.719 1415.89 673.06 1401.16 671.123 C 1398.89 670.824 1389.79 667.797 1387.4 666.809 C 1385.33 664.171 1385.93 664.449 1385.67 660.77 z" fill="rgb(0,0,68)" transform="translate(0,0)"></path>
<path d="M 1413.45 636.857 C 1428.25 640.05 1536.76 667.793 1539.96 671.415 C 1540.18 675.274 1539.71 674.8 1537.77 678.688 C 1532.68 677.934 1494.16 667.081 1488.02 665.081 C 1469.79 659.143 1427.39 650.374 1411.72 643.101 C 1410.91 640.06 1411.59 640.288 1413.45 636.857 z" fill="rgb(3,74,96)" transform="translate(0,0)"></path>
<path d="M 1331.36 702.443 C 1342.04 702.595 1445.49 730.513 1455.18 734.394 C 1457.13 737.32 1456.7 735.914 1456.09 740.306 C 1446.11 743.354 1388.42 723.19 1372.98 720.454 C 1365.26 719.086 1340.54 711.767 1332.47 708.684 C 1330.45 706.209 1331.13 706.35 1331.36 702.443 z" fill="rgb(0,0,68)" transform="translate(0,0)"></path>
<path d="M 646.186 452.469 C 654.19 455.97 659.155 458.102 667.489 460.55 C 684.49 479.509 701.183 500.006 718.289 519.307 C 719.032 520.177 720.88 522.244 721.4 523.089 C 727.814 530.302 734.439 538.006 741.263 544.771 C 742.375 545.942 744.35 547.841 745.068 549.131 C 753.134 558.066 761.365 566.849 769.759 575.476 C 774.437 579.649 787.389 593.855 792.425 599.161 C 782.668 597.243 772.423 594.12 762.908 595.022 C 762.694 595.987 757.976 607.904 757.385 609.118 C 747.912 645.893 737.295 680.724 726.365 717.018 C 713.336 711.808 700.297 706.61 687.282 701.367 C 644.448 684.112 599.644 671.237 556.487 655.115 C 589.125 591.282 615.099 516.215 646.186 452.469 z" fill="rgb(252,250,247)" transform="translate(0,0)"></path>
<path d="M 754.934 609.724 C 752.223 619.015 727.506 672.47 722.115 679.528 C 720.284 681.926 717.999 684.813 714.852 685.204 C 710.139 677.364 754.807 597.433 759.894 583.432 C 761.787 578.222 763.341 574.696 768.8 576.26 L 769.759 575.476 C 774.437 579.649 787.389 593.855 792.425 599.161 C 782.668 597.243 772.423 594.12 762.908 595.022 C 762.694 595.987 757.976 607.904 757.385 609.118 L 754.934 609.724 z" fill="rgb(3,74,96)" transform="translate(0,0)"></path>
<path d="M 769.759 575.476 C 774.437 579.649 787.389 593.855 792.425 599.161 C 782.668 597.243 772.423 594.12 762.908 595.022 L 761.399 593.378 C 762.774 590.549 767.393 580.987 768.081 578.69 L 768.8 576.26 L 769.759 575.476 z" fill="rgb(0,248,177)" transform="translate(0,0)"></path>
<path d="M 761.399 593.378 L 762.908 595.022 C 762.694 595.987 757.976 607.904 757.385 609.118 L 754.934 609.724 C 756.587 604.493 759.185 598.405 761.399 593.378 z" fill="rgb(88,232,210)" transform="translate(0,0)"></path>
<path d="M 718.289 519.307 C 719.032 520.177 720.88 522.244 721.4 523.089 C 710.19 539.655 668.045 651.875 661.835 654.998 C 658.394 654.769 659.601 655.274 657.091 653.318 C 656.291 649.232 661.057 639.36 662.819 635.132 C 673.557 609.549 684.675 584.126 696.168 558.873 C 701.292 547.386 706.866 534.093 712.976 523.07 C 714.446 520.418 715.62 520.405 718.289 519.307 z" fill="rgb(3,74,96)" transform="translate(0,0)"></path>
<path d="M 741.263 544.771 C 742.375 545.942 744.35 547.841 745.068 549.131 C 741.345 557.062 737.56 566.538 733.987 574.722 C 725.401 594.114 716.578 613.401 707.521 632.578 C 704.194 639.807 696.398 661.209 690.071 663.69 L 688.073 662.486 C 687.206 660.71 686.266 659.437 687.291 657.378 C 704.85 622.103 720.027 585.78 736.265 549.889 C 737.792 546.513 738.121 546.447 741.263 544.771 z" fill="rgb(3,74,96)" transform="translate(0,0)"></path>
<path d="M 659.314 490.475 C 661.841 491.815 662.011 491.836 663.687 494.075 C 663.853 496.912 605.475 626.265 599.971 634.587 C 597.288 633.195 596.461 632.962 594.961 630.394 C 595.428 623.077 653.28 503.033 659.314 490.475 z" fill="rgb(3,74,96)" transform="translate(0,0)"></path>
<path d="M 685.133 508.529 C 688.329 511.973 685.717 517.301 684.126 521.204 C 667.277 562.55 649.338 603.537 631.366 644.391 C 630.223 646.989 628.532 647.227 626.153 648.301 C 625.358 647.243 624.39 646.016 623.997 644.737 C 622.692 640.486 677.035 522.217 685.133 508.529 z" fill="rgb(3,74,96)" transform="translate(0,0)"></path>
<path d="M 701.818 519.25 L 704.36 520.416 C 704.51 520.974 704.66 521.531 704.811 522.089 C 694.695 545.157 678.406 578.142 669.646 600.781 C 668.103 601.196 668.937 601.158 667.052 600.122 C 666.406 590.891 695.774 530.604 701.818 519.25 z" fill="rgb(3,74,96)" transform="translate(0,0)"></path>
<path d="M 768.428 601.771 C 778.55 603.537 789.878 606.068 799.895 607.324 C 820.572 625.94 839.994 643.735 862.865 659.677 C 848.064 702.947 841.925 745.234 828.023 788.571 C 827.197 791.145 825.579 795.464 825.606 797.988 C 834.768 805.789 886.914 814.48 902.01 817.491 L 997.985 837.259 C 994.935 845.713 991.652 858.678 989.192 867.505 L 980.274 865.708 L 708.151 809.361 C 728.876 740.35 748.969 671.15 768.428 601.771 z" fill="rgb(0,248,177)" transform="translate(0,0)"></path>
<path d="M 827.318 657.143 C 830.497 657.888 830.86 658.159 833.478 660.136 C 835.848 667.042 802.913 777.831 797.372 791.334 C 796.365 791.455 794.581 791.251 793.496 791.175 C 792.408 790.465 791.348 790.111 790.89 788.844 C 789.35 784.586 822.696 668.177 827.318 657.143 z" fill="rgb(0,0,68)" transform="translate(0,0)"></path>
<path d="M 789.506 650.346 C 793.976 651.363 793.656 650.585 796.454 653.42 C 797.094 660.23 768.18 769.469 764.599 779.677 C 761.6 779.11 760.09 779.04 757.617 777.134 C 755.963 773.203 785.206 666.411 789.506 650.346 z" fill="rgb(0,0,68)" transform="translate(0,0)"></path>
<path d="M 1042.33 456.853 C 1049.16 463.696 1052.96 467.462 1060.83 472.983 C 1071.54 506.703 1083.18 552.903 1095.14 584.703 L 1097.04 590.803 C 1099.25 597.343 1102.75 608.467 1105.89 614.445 C 1090.96 619.811 1071.32 658.628 1058.76 671.395 C 1053.55 675.306 1045.77 686.441 1041.61 692.105 L 1037.14 697.316 C 1020.79 684.253 1004.25 671.951 988.369 658.214 C 966.167 639.006 946.344 618.821 926.405 597.365 C 934.261 586.43 948.339 571.033 957.185 560.226 C 985.089 526.136 1016.32 492.388 1042.33 456.853 z" fill="rgb(0,248,177)" transform="translate(0,0)"></path>
<path d="M 1095.14 584.703 L 1097.04 590.803 C 1091.37 599.869 1058.5 647.701 1050 646.459 C 1049.64 645.453 1048.93 644.118 1049.31 643.307 C 1054.04 633.29 1089.72 588.914 1095.14 584.703 z" fill="rgb(3,74,96)" transform="translate(0,0)"></path>
<path d="M 1042.5 503.505 C 1045.85 503.943 1046.87 504.842 1047.84 507.65 C 1046.08 514.5 984.508 587.618 976.132 597.45 C 973.206 595.605 971.234 594.861 970.001 591.722 C 972.221 585.767 1035.59 511.692 1042.5 503.505 z" fill="rgb(3,74,96)" transform="translate(0,0)"></path>
<path d="M 1056.83 534.495 C 1059.58 535.951 1059.95 536.147 1061.7 538.696 C 1061.12 546.018 1010.64 606.386 1002.86 616.237 C 998.795 614.127 997.383 613.581 997.048 609.197 C 1000.92 602.645 1013.56 588.294 1018.94 581.662 C 1030.98 566.812 1043.9 548.309 1056.83 534.495 z" fill="rgb(3,74,96)" transform="translate(0,0)"></path>
<path d="M 1061.75 579.489 C 1062.65 579.601 1068.18 580.656 1066.91 582.573 C 1056.19 598.768 1041.02 619.907 1027.32 633.487 C 1025.95 632.719 1020.98 629.663 1021.9 628.402 C 1030.57 616.464 1052.35 589.174 1061.75 579.489 z" fill="rgb(3,74,96)" transform="translate(0,0)"></path>
<path d="M 725.476 231.694 C 736.03 244.548 774.483 288.484 786.807 296.297 C 738.826 336.867 692.156 379.037 644.896 420.417 C 642.927 422.141 642.147 425.152 641.865 427.631 C 642.497 428.816 643.035 429.851 643.596 431.067 L 656.459 447.16 C 651.569 445.802 646.185 444.587 641.221 443.36 C 635.869 451.72 626.932 475.367 622.931 485.337 C 613.362 473.81 599.421 452.437 590.449 439.2 C 579.516 423.07 561.023 398.313 552.095 381.976 C 610.943 335.236 667.928 279.526 725.476 231.694 z" fill="rgb(252,250,247)" transform="translate(0,0)"></path>
<path d="M 641.865 427.631 C 642.497 428.816 643.035 429.851 643.596 431.067 C 637.29 436.795 630.903 442.464 624.821 448.434 C 623.473 449.757 621.328 452.828 618.981 450.919 C 618.718 450.705 618.399 449.91 618.518 449.65 C 622.573 440.807 635.37 434.074 641.865 427.631 z" fill="rgb(3,74,96)" transform="translate(0,0)"></path>
<path d="M 715.588 277.612 C 718.877 279.066 717.761 278.163 719.881 280.994 C 719.357 283.945 718.994 284.508 716.482 286.516 C 673.296 321.028 632.524 361.645 589.628 396.099 C 586.88 394.337 586.095 393.689 585.589 390.633 C 587.855 385.625 702.324 288.961 715.588 277.612 z" fill="rgb(3,74,96)" transform="translate(0,0)"></path>
<path d="M 733.361 305.72 C 736.508 306.204 735.518 305.611 737.613 307.634 C 736.018 312.221 622.494 413.876 609.18 423.405 C 606.306 421.618 605.177 421.195 604.446 418.469 C 609.356 411.922 635.655 389.87 643.848 382.769 L 733.361 305.72 z" fill="rgb(3,74,96)" transform="translate(0,0)"></path>
<path d="M 856.154 276.682 C 865.242 274.82 875.092 272.085 884.021 269.424 C 950.338 249.661 1017.7 231.558 1083.46 210.059 C 1092.18 231.356 1102.53 265.967 1109.92 288.606 C 1064.89 303.12 1013.68 316.676 969.626 335.094 C 967.842 335.84 967.909 337.797 967.672 339.484 C 968.954 342.072 969.05 342.253 969.668 345.018 C 972.009 352.66 974.389 360.958 977.12 368.409 C 978.002 370.585 978.03 370.982 978.421 373.364 C 964.5 378.768 949.329 382.625 936.475 387.549 C 935.383 386.239 934.468 385.203 933.522 383.786 L 889.926 332.569 C 881.051 322.224 869.141 309.459 862.274 297.908 C 860.731 295.311 857.143 280.588 856.154 276.682 z" fill="rgb(252,250,247)" transform="translate(0,0)"></path>
<path d="M 977.12 368.409 C 978.002 370.585 978.03 370.982 978.421 373.364 C 964.5 378.768 949.329 382.625 936.475 387.549 C 935.383 386.239 934.468 385.203 933.522 383.786 C 939.522 377.48 966.687 372.968 977.12 368.409 z" fill="rgb(3,74,96)" transform="translate(0,0)"></path>
<path d="M 967.672 339.484 C 968.954 342.072 969.05 342.253 969.668 345.018 C 965.44 346.248 932.415 356.451 930.969 355.961 C 916.741 351.147 964.43 341.301 967.091 339.813 L 967.672 339.484 z" fill="rgb(3,74,96)" transform="translate(0,0)"></path>
<path d="M 1049.44 250.03 C 1052.54 250.208 1051.42 249.734 1053.8 251.574 C 1054.95 256.746 1049.49 258.444 1045.13 259.783 C 1030.71 264.208 1015.99 267.628 1001.49 271.83 C 970.816 281.037 940.047 289.926 909.188 298.495 C 905.43 298.68 904.818 297.685 903.512 294.628 L 904.44 292.939 C 910.147 290.001 941.179 281.386 949.145 279.067 L 1049.44 250.03 z" fill="rgb(3,74,96)" transform="translate(0,0)"></path>
<path d="M 1068.2 277.077 C 1069.13 277.531 1069.32 278.045 1070.08 278.973 L 1069.64 281.006 C 1068.57 282.123 1067.28 283.09 1065.78 283.532 C 1016.12 298.15 967.015 314.909 917.463 329.821 C 915.564 327.402 915.364 326.44 916.287 323.777 C 926.256 316.713 1048.2 283.285 1068.2 277.077 z" fill="rgb(3,74,96)" transform="translate(0,0)"></path>
<path d="M 974.002 337.846 C 1043.6 315.036 1114.25 298.085 1183.62 275.84 C 1187.87 295.81 1195.42 320.299 1202.5 339.533 C 1191.51 342.123 1181.7 344.544 1170.81 347.73 C 1165.53 349.903 1132.26 357.96 1126.79 358.432 C 1121.8 360.048 1116.12 361.737 1111.3 363.683 C 1103.72 368.059 1059.84 380.108 1048.74 383.076 C 1045.22 383.627 1042.61 382.986 1039.09 382.447 C 1035.66 383.62 1033.08 384.058 1030.86 386.806 L 1030.94 388.612 C 1036.82 393.713 1037.88 390.032 1039.33 394.261 C 1045.46 417.024 1051.86 439.711 1058.54 462.318 L 1040.42 449.302 C 1033.27 455.816 1025.63 464.867 1019.48 472.253 C 1007.74 427.299 987.805 381.858 974.002 337.846 z" fill="rgb(0,248,177)" transform="translate(0,0)"></path>
<path d="M 1039.09 382.447 C 1058.79 376.573 1086.8 365.819 1107.2 360.5 C 1108.38 360.193 1110.09 362.46 1111.3 363.683 C 1103.72 368.059 1059.84 380.108 1048.74 383.076 C 1045.22 383.627 1042.61 382.986 1039.09 382.447 z" fill="rgb(3,74,96)" transform="translate(0,0)"></path>
<path d="M 1126.79 358.432 C 1139.05 352.554 1152.63 348.934 1165.07 343.281 C 1167.34 342.249 1167.33 346.125 1170.81 347.73 C 1165.53 349.903 1132.26 357.96 1126.79 358.432 z" fill="rgb(3,74,96)" transform="translate(0,0)"></path>
<path d="M 1162.89 310.122 C 1166.74 311.702 1167.02 315.035 1165.7 318.449 C 1159.02 323.065 1125.77 332.016 1115.5 335.183 C 1085.8 344.554 1056.04 353.715 1026.21 362.666 C 1023.97 360.502 1022.97 359.924 1022.2 356.9 C 1024.89 352.308 1145.84 315.382 1162.89 310.122 z" fill="rgb(3,74,96)" transform="translate(0,0)"></path>
<path d="M 1105.89 614.445 L 1107.09 617.001 C 1109.91 623.981 1112.72 630.26 1115.88 637.096 C 1117.77 640.129 1119.01 642.464 1120.1 645.902 C 1124.12 654.687 1128.45 663.691 1134.27 671.462 C 1135.63 673.537 1136.85 675.791 1137.73 678.113 C 1144.57 688.862 1149.54 695.308 1157.22 705.311 C 1158.7 707.01 1160.15 708.467 1161.46 710.295 C 1167.44 716.573 1173.59 722.677 1179.92 728.601 C 1181.5 730 1182.55 731.1 1183.96 732.652 C 1193.05 741.201 1203.9 749.174 1214.09 756.332 C 1209.14 763.191 1205.84 770.473 1202.32 778.107 C 1151.29 770.009 1080.06 725.935 1037.14 697.316 L 1041.61 692.105 C 1045.77 686.441 1053.55 675.306 1058.76 671.395 C 1071.32 658.628 1090.96 619.811 1105.89 614.445 z" fill="rgb(252,250,247)" transform="translate(0,0)"></path>
<path d="M 1105.89 614.445 L 1107.09 617.001 C 1088.58 641.978 1070.18 666.956 1052.82 692.762 C 1051.26 695.082 1050.52 695.377 1048 696.033 L 1044.33 694.805 C 1045.98 690.521 1055.84 675.895 1058.76 671.395 C 1071.32 658.628 1090.96 619.811 1105.89 614.445 z" fill="rgb(3,74,96)" transform="translate(0,0)"></path>
<path d="M 1120.1 645.902 C 1117.25 650.394 1092.16 689.125 1090.47 689.815 C 1089.55 690.191 1088.39 689.93 1087.56 689.454 C 1086.44 688.809 1085.48 687.8 1085.24 686.484 C 1084.64 683.273 1111.86 642.618 1115.88 637.096 C 1117.77 640.129 1119.01 642.464 1120.1 645.902 z" fill="rgb(3,74,96)" transform="translate(0,0)"></path>
<path d="M 1134.27 671.462 C 1135.63 673.537 1136.85 675.791 1137.73 678.113 C 1134.99 682.617 1120.03 708.736 1116.98 709.153 C 1103.4 711.013 1131.55 675.217 1134.27 671.462 z" fill="rgb(3,74,96)" transform="translate(0,0)"></path>
<path d="M 1157.22 705.311 C 1158.7 707.01 1160.15 708.467 1161.46 710.295 C 1159.84 712.578 1153.24 724.189 1151 723.918 C 1140.07 722.597 1154.22 708.168 1157.22 705.311 z" fill="rgb(3,74,96)" transform="translate(0,0)"></path>
<path d="M 1179.92 728.601 C 1181.5 730 1182.55 731.1 1183.96 732.652 C 1177.62 743.152 1170.22 737.43 1179.92 728.601 z" fill="rgb(3,74,96)" transform="translate(0,0)"></path>
<path d="M 1249.86 731.021 L 1250.55 731.926 C 1252.92 742.496 1239.07 752.795 1234.16 761.447 C 1216.2 793.044 1209.95 828.58 1225.96 862.314 C 1248.28 909.348 1302.87 918.679 1348.41 930.055 C 1389.53 940.324 1429.43 950.911 1470.32 961.529 C 1473.23 962.28 1475.47 964.024 1476.73 966.705 L 1475.29 968.441 C 1472.03 969.789 1468.49 968.012 1465.03 966.829 C 1454.09 963.707 1441.65 961.189 1430.45 958.409 L 1319.92 931.951 C 1300.47 927.193 1274.48 922.276 1257.13 913.997 C 1240.82 906.336 1226.65 894.767 1215.88 880.316 C 1178.75 829.976 1203.25 765.029 1249.86 731.021 z" fill="rgb(253,52,18)" transform="translate(0,0)"></path>
<path d="M 936.475 387.549 C 949.329 382.625 964.5 378.768 978.421 373.364 C 985.737 396.548 992.588 418.575 1001.16 441.348 L 988.532 445.93 C 972.732 427.334 953.166 405.403 936.475 387.549 z" fill="rgb(252,250,247)" transform="translate(0,0)"></path>
<path d="M 1256.45 842.815 C 1263.56 842.593 1307.03 853.929 1316.47 856.279 C 1367.14 868.898 1417.21 881.668 1468.17 893.201 C 1470.66 895.752 1469.89 895.346 1470.17 899.836 C 1415.64 886.972 1361.24 873.558 1306.99 859.595 C 1297.32 857.101 1265.24 850.479 1258.04 847.389 L 1256.45 842.815 z" fill="rgb(252,250,247)" transform="translate(0,0)"></path>
<path d="M 1256.51 806.95 C 1310.37 821.535 1412.24 845.476 1470.06 860.464 C 1470.98 860.701 1471.07 864.812 1471.25 866.432 C 1401.75 847.514 1328.27 832.122 1258.32 813.153 C 1255.84 810.735 1256.59 811.467 1256.51 806.95 z" fill="rgb(252,250,247)" transform="translate(0,0)"></path>
<path d="M 1256.52 742.922 C 1276.9 749.101 1466.63 794.814 1470.65 797.953 L 1470.97 802.958 C 1448.8 798.38 1261.48 751.508 1257.62 748.091 C 1256.77 747.335 1256.69 744.141 1256.52 742.922 z" fill="rgb(252,250,247)" transform="translate(0,0)"></path>
<path d="M 1256.66 774.294 C 1325.16 793.41 1399.88 810.362 1469.44 828.195 C 1471.55 830.158 1470.95 831.179 1471.31 834.788 C 1442.44 826.219 1260.32 783.019 1256.16 778.512 L 1256.66 774.294 z" fill="rgb(252,250,247)" transform="translate(0,0)"></path>
<path d="M 1256.06 873.941 C 1261.93 873.877 1296.77 883.872 1305.13 885.815 C 1359.26 898.392 1413.98 913.916 1468.16 925.807 C 1470.79 928.161 1470 927.469 1470.4 931.959 C 1466.76 931.592 1448.96 926.904 1444.05 925.734 C 1421.42 920.403 1398.84 914.87 1376.31 909.135 C 1348.56 902.398 1320.87 895.422 1293.24 888.21 C 1282.43 885.304 1271.26 882.225 1260.52 878.953 C 1257.17 877.932 1257.47 877.049 1256.06 873.941 z" fill="rgb(252,250,247)" transform="translate(0,0)"></path>
<path d="M 1664.78 707.105 L 1666.56 709.17 C 1665.44 713.266 1659.46 716.996 1656.01 719.645 C 1597.6 764.497 1541.26 812.716 1482.58 857.153 C 1482.18 857.062 1481.21 856.318 1480.8 856.043 C 1481.19 853.942 1481.33 853.304 1483.35 851.682 C 1501.78 836.826 1520.9 821.775 1539.41 807.087 C 1581.42 774.038 1623.21 740.71 1664.78 707.105 z" fill="rgb(252,250,247)" transform="translate(0,0)"></path>
<path d="M 1664.77 739.954 L 1665.7 741.223 C 1665.62 741.826 1665.55 742.429 1665.47 743.032 C 1616.95 782.588 1528.3 854.897 1482.52 890.543 C 1481.35 888.287 1481.57 889.445 1481.76 886.962 C 1488.03 880.731 1501.24 870.589 1508.42 864.869 L 1554.48 828.299 C 1590.74 799.471 1628.04 767.799 1664.77 739.954 z" fill="rgb(252,250,247)" transform="translate(0,0)"></path>
<path d="M 1663.61 676.76 C 1664.71 676.992 1665.22 677.401 1666.26 677.965 C 1665.69 680.386 1664.76 680.924 1662.74 682.465 C 1601.87 728.961 1543.17 778.892 1482.52 825.571 C 1481.7 825.9 1481.28 825.781 1480.31 825.8 C 1481.25 820.602 1496.64 809.95 1501.52 805.973 C 1515.67 794.404 1529.91 782.937 1544.22 771.574 L 1663.61 676.76 z" fill="rgb(252,250,247)" transform="translate(0,0)"></path>
<path d="M 1663.98 767.924 C 1665.33 769.678 1664.92 768.65 1664.75 771.26 C 1662.72 773.563 1660.62 775.388 1658.2 777.247 C 1599.03 822.661 1541.6 872.264 1481.88 916.844 L 1481.03 916.103 C 1482.75 909.288 1643.39 785.933 1663.98 767.924 z" fill="rgb(252,250,247)" transform="translate(0,0)"></path>
<path d="M 1664.13 645.753 L 1665.49 646.466 L 1665.78 648.335 C 1663.22 652.014 1643.97 666.592 1638.99 670.456 C 1586.5 711.162 1535.11 754.857 1481.66 794.152 L 1480.53 793.544 C 1483.96 787.384 1645.64 660.454 1664.13 645.753 z" fill="rgb(252,250,247)" transform="translate(0,0)"></path>
<path d="M 1663.04 798.768 C 1664.55 799.122 1664.54 799.429 1665.61 800.623 C 1664.14 804.38 1497.58 933.119 1484.24 943.338 L 1482.84 943.709 L 1482.42 942.736 C 1486.67 937.802 1523.71 909.02 1531.06 903.152 L 1663.04 798.768 z" fill="rgb(252,250,247)" transform="translate(0,0)"></path>
<path d="M 1002.02 446.056 C 1002.6 446.508 1015.05 474.332 1006.5 465.301 C 1001.44 460.055 996.806 455.191 991.954 449.733 C 995.284 448.443 998.639 447.217 1002.02 446.056 z" fill="rgb(252,250,247)" transform="translate(0,0)"></path>
<metadata><recraft-signature>{"signed_by": "recraft", "signature_b64": "L0w498XT+IyGgqz64q/Qd7AYJO45ybELeriC4TaFSds4Ox2o/fPSsBOAhksPAJUFBBFG1iSwloNNBPU/7IRgAw==", "signing_algo": "Ed25519", "generation_timestamp": 1781847503, "identifier": "e9423d99-5fa6-462a-9a13-15357b161dcc"}</recraft-signature></metadata></svg>