<svg xmlns="http://www.w3.org/2000/svg" height="768" preserveAspectRatio="none" style="display: block;" version="1.1" viewBox="0 0 2048 1170" width="1344">
<path d="M 0 0 L 2048 0 L 2048 1170 L 0 1170 L 0 0 z" fill="rgb(252,250,247)" transform="translate(0,0)"></path>
<path d="M 1126.13 318.633 C 1190.85 344.817 1259.7 380.767 1324.5 405.23 L 1324.35 366.55 C 1334.48 366.518 1352.79 366.226 1362.27 367.368 C 1363.84 367.427 1364.66 367.327 1366.2 367.183 C 1399.42 365.995 1439.44 367.022 1473.16 367.11 L 1656.22 366.815 L 1656.93 803.657 L 1366.3 803.91 C 1366.15 815.048 1366.58 829.077 1366.03 840.334 C 1365.97 841.664 1365.32 841.711 1364.26 842.325 C 1359.78 836.097 1364.64 813.563 1361.96 803.756 L 1324.91 803.751 L 1324.8 752.933 C 1284.25 769.753 1244.72 789.285 1203.34 806.065 C 1214.06 822.852 1230.33 839.737 1245.14 852.928 C 1167.34 898.714 1082.72 942.033 1003.02 985.478 C 959.249 942.949 928.902 885.388 913.327 826.592 C 907.132 803.207 904.228 781.046 900.904 757.147 C 946.812 739.371 1011.24 715.181 1058.46 701.342 C 1050.97 672.998 1048.4 643.768 1046.12 614.683 C 1084.77 602.816 1123.23 592.032 1161.85 579.821 C 1131.91 572.355 1078.62 562.306 1048.01 557.548 C 1046.83 463.81 1076.14 395.055 1126.13 318.633 z" fill="rgb(0,0,68)" transform="translate(0,0)"></path>
<path d="M 1366.2 367.183 C 1399.42 365.995 1439.44 367.022 1473.16 367.11 L 1656.22 366.815 L 1656.93 803.657 L 1366.3 803.91 L 1366.23 762.061 L 1365.91 753.024 L 1366.25 733.663 C 1365.96 729.194 1365.99 726.688 1366.56 722.256 C 1367.41 714.671 1366.73 687.792 1366.72 678.986 L 1366.7 591.343 L 1366.9 461.537 C 1366.85 442.225 1367.27 420.101 1366.34 401.127 C 1365.39 393.731 1366.07 375.3 1366.2 367.183 z" fill="rgb(252,250,247)" transform="translate(0,0)"></path>
<path d="M 1366.2 367.183 C 1399.42 365.995 1439.44 367.022 1473.16 367.11 L 1656.22 366.815 L 1656.93 803.657 L 1366.3 803.91 L 1366.23 762.061 C 1451.81 761.281 1537.4 761.213 1622.98 761.857 C 1623.18 719.348 1624.75 676.375 1625.06 633.642 C 1625.38 556.15 1624.78 478.657 1623.26 401.179 C 1538.2 400.047 1451.56 401.132 1366.34 401.127 C 1365.39 393.731 1366.07 375.3 1366.2 367.183 z" fill="rgb(0,0,68)" transform="translate(0,0)"></path>
<path d="M 1366.56 722.256 C 1376.09 729.834 1375.73 729.207 1366.25 733.663 C 1365.96 729.194 1365.99 726.688 1366.56 722.256 z" fill="rgb(0,0,68)" transform="translate(0,0)"></path>
<path d="M 1382.39 596.981 L 1603.97 597.324 C 1604.08 603.08 1604.26 608.092 1603.65 613.855 C 1530.36 613.487 1455.67 612.935 1382.43 613.681 L 1382.39 596.981 z" fill="rgb(4,254,213)" transform="translate(0,0)"></path>
<path d="M 1382.12 511.333 C 1454.91 512.912 1530.77 511.881 1603.82 511.78 C 1603.9 516.93 1603.88 522.081 1603.77 527.231 L 1382.09 527.74 L 1382.12 511.333 z" fill="rgb(4,254,213)" transform="translate(0,0)"></path>
<path d="M 1382.06 469.802 L 1603.78 469.84 L 1603.61 485.749 C 1580.9 486.517 1550.84 485.358 1527.41 485.268 L 1382.09 485.221 L 1382.06 469.802 z" fill="rgb(4,254,213)" transform="translate(0,0)"></path>
<path d="M 1382 553.736 L 1603.82 553.908 L 1603.75 569.12 C 1580.9 570.005 1550.95 569.176 1527.5 569.193 L 1382.12 569.181 L 1382 553.736 z" fill="rgb(4,254,213)" transform="translate(0,0)"></path>
<path d="M 1381.03 687.56 C 1453.67 688.956 1530.37 687.843 1603.37 687.931 C 1603.65 692.457 1603.59 697.576 1603.65 702.154 L 1381.11 702.993 L 1381.03 687.56 z" fill="rgb(4,254,213)" transform="translate(0,0)"></path>
<path d="M 1381.81 429.032 L 1603.67 430.164 L 1603.74 444.103 C 1581.59 445.036 1552.55 444.153 1529.83 444.138 L 1381.84 444.027 L 1381.81 429.032 z" fill="rgb(4,254,213)" transform="translate(0,0)"></path>
<path d="M 1492.83 642.853 C 1529.28 643.113 1565.73 643.178 1602.18 643.048 L 1602.01 658.924 L 1492.82 658.927 L 1492.83 642.853 z" fill="rgb(4,254,213)" transform="translate(0,0)"></path>
<path d="M 1383.36 642.897 L 1471.65 642.745 C 1471.88 647.989 1471.9 653.535 1472.01 658.81 L 1383.43 658.909 L 1383.36 642.897 z" fill="rgb(4,254,213)" transform="translate(0,0)"></path>
<path d="M 1366.2 367.183 C 1366.07 375.3 1365.39 393.731 1366.34 401.127 C 1367.27 420.101 1366.85 442.225 1366.9 461.537 L 1366.7 591.343 L 1366.72 678.986 C 1366.73 687.792 1367.41 714.671 1366.56 722.256 C 1365.99 726.688 1365.96 729.194 1366.25 733.663 L 1365.91 753.024 L 1366.23 762.061 L 1366.3 803.91 C 1366.15 815.048 1366.58 829.077 1366.03 840.334 C 1365.97 841.664 1365.32 841.711 1364.26 842.325 C 1359.78 836.097 1364.64 813.563 1361.96 803.756 L 1362.12 802.758 C 1363 787.135 1362.37 765.922 1362.4 749.939 L 1362.48 651.164 L 1362.27 367.368 C 1363.84 367.427 1364.66 367.327 1366.2 367.183 z" fill="rgb(240,81,60)" transform="translate(0,0)"></path>
<path d="M 1362.12 802.758 C 1363.81 799.839 1362.59 744.637 1364.46 734.107 C 1365.78 736.225 1365.64 749.314 1365.91 753.024 L 1366.23 762.061 L 1366.3 803.91 C 1366.15 815.048 1366.58 829.077 1366.03 840.334 C 1365.97 841.664 1365.32 841.711 1364.26 842.325 C 1359.78 836.097 1364.64 813.563 1361.96 803.756 L 1362.12 802.758 z" fill="rgb(248,91,78)" transform="translate(0,0)"></path>
<path d="M 1137.25 354.5 C 1203.77 381.998 1278.33 412.676 1346.94 433.501 C 1327.68 465.216 1311.1 499.8 1301.14 535.648 C 1297.97 546.722 1295.77 558.053 1294.57 569.511 C 1294.14 573.865 1294.08 595.019 1292.97 596.552 L 1290.6 595.819 C 1270.49 587.019 1248.24 581.125 1227.56 573.697 C 1177.92 555.865 1129.09 542.312 1077.83 530.198 C 1083.53 458.167 1100.37 415.713 1137.25 354.5 z" fill="rgb(252,250,247)" transform="translate(0,0)"></path>
<path d="M 1149.35 373.458 C 1152.88 374.018 1158 376.284 1161.47 377.671 C 1133.87 429.128 1118.03 463.835 1106.72 521.826 L 1093.83 518.318 C 1100.83 475.006 1125.16 410.622 1149.35 373.458 z" fill="rgb(4,254,213)" transform="translate(0,0)"></path>
<path d="M 1175.8 384.184 C 1179.38 385.473 1185.09 388.179 1188.75 389.765 C 1166.02 430.581 1144.01 485.32 1136.39 531.165 C 1134.55 531.118 1126.78 528.858 1124.52 528.245 C 1135.3 466.363 1150 440.47 1175.8 384.184 z" fill="rgb(4,254,213)" transform="translate(0,0)"></path>
<path d="M 1262.71 418.962 L 1273.37 424.309 C 1259.29 451.811 1246.29 485.098 1237.55 514.954 C 1235.25 522.813 1231.21 555.287 1229.69 558.739 L 1217.52 556.053 C 1226.25 500.816 1234.98 469.157 1262.71 418.962 z" fill="rgb(4,254,213)" transform="translate(0,0)"></path>
<path d="M 1234.86 407.746 L 1245.96 412.947 C 1240.95 421.048 1236.88 431.295 1232.69 439.872 C 1214.31 477.544 1206.78 509.979 1198.31 550.53 C 1195.93 550.137 1189.87 547.946 1187.28 547.073 C 1196.01 495.576 1210.78 454.172 1234.86 407.746 z" fill="rgb(4,254,213)" transform="translate(0,0)"></path>
<path d="M 1208.59 397.542 L 1219.32 402.038 C 1193.69 446.87 1180.36 490.233 1168.21 539.78 C 1165.48 540.457 1161.07 539.341 1158.83 537.587 C 1157.33 531.593 1160.82 520.758 1162.26 514.391 C 1171.79 472.179 1188.72 435.603 1208.59 397.542 z" fill="rgb(4,254,213)" transform="translate(0,0)"></path>
<path d="M 1213.6 590.014 C 1220.03 589.607 1287.13 609.431 1298.23 612.343 C 1306.01 651.304 1334.12 689.084 1356.22 720.303 C 1302.28 737.387 1252.6 757.718 1200.75 780.331 C 1182.98 787.968 1162.95 796.494 1144.91 803.001 C 1104.26 763.097 1081.52 689.295 1076.54 633.575 C 1090 628.354 1108.99 623.508 1123.28 619.009 L 1213.6 590.014 z" fill="rgb(252,250,247)" transform="translate(0,0)"></path>
<path d="M 1103.52 639.974 L 1104.38 640.014 C 1105.1 640.494 1106.01 640.786 1106.17 641.611 C 1115.51 692.105 1137.13 737.23 1162.64 781.331 L 1153.03 786.664 C 1152.61 786.301 1152.41 786.158 1152.04 785.629 C 1128.19 751.32 1110.24 710.06 1099.92 669.638 C 1097.88 661.641 1094.03 651.322 1094.6 643.736 C 1096.42 641.795 1100.74 640.855 1103.52 639.974 z" fill="rgb(4,254,213)" transform="translate(0,0)"></path>
<path d="M 1135.61 629.005 C 1136.67 630.97 1139.78 648.35 1140.56 652.224 C 1149.36 696.094 1169.64 731.296 1194.28 767.958 L 1182.64 773.667 C 1147.87 724.863 1136.37 691.473 1124 634.191 L 1135.61 629.005 z" fill="rgb(4,254,213)" transform="translate(0,0)"></path>
<path d="M 1222.5 601.05 L 1223.14 601.107 C 1224.96 602.447 1231.25 630.979 1233.3 636.667 C 1244.84 668.762 1259.17 702.115 1280.54 728.945 L 1271.24 733.061 C 1265.18 733.077 1258.19 719.146 1254.97 714.013 C 1233.86 680.344 1220.27 643.493 1212.91 604.49 L 1222.5 601.05 z" fill="rgb(4,254,213)" transform="translate(0,0)"></path>
<path d="M 1167.76 619.19 C 1169.25 620.86 1174.6 648.172 1175.85 652.91 C 1185.13 688.131 1203.05 725.957 1226.34 753.914 L 1215.31 758.7 L 1213.42 758.552 C 1209.09 753.586 1203.9 744.116 1200.25 738.26 C 1176.54 700.23 1166.37 665.489 1158.26 622.152 L 1167.76 619.19 z" fill="rgb(4,254,213)" transform="translate(0,0)"></path>
<path d="M 1193.56 611.019 L 1195.55 611.365 C 1197.3 614.537 1205.83 646.099 1207.95 652.845 C 1219.53 689.622 1232.09 709.895 1252.91 741.085 C 1250.46 742.611 1247.05 744.382 1244.45 745.819 C 1243.9 745.798 1243.01 745.479 1242.7 745.071 C 1219.12 713.757 1202.88 677.137 1191.79 639.663 C 1189.41 631.624 1186.17 622.856 1185.51 614.709 C 1187.2 612.41 1190.59 611.906 1193.56 611.019 z" fill="rgb(4,254,213)" transform="translate(0,0)"></path>
<path d="M 932.284 775.184 C 976.13 758.224 1019.25 740.134 1063.17 723.297 C 1069.15 741.148 1076.23 756.809 1083.88 773.965 C 1094.68 793.096 1107.23 811.19 1121.36 828.019 C 1124.66 831.199 1129.47 835.319 1130.74 839.652 C 1135.73 838.533 1187.35 813.844 1196.91 809.673 C 1204.72 821.054 1213.37 831.836 1222.78 841.93 C 1192.63 856.827 1161.61 870.905 1131.25 885.705 C 1090.16 906.134 1048.92 926.274 1007.55 946.124 C 978.995 913.147 953.701 862.734 942.229 820.922 C 938.419 807.037 935.96 789.918 932.284 775.184 z" fill="rgb(252,250,247)" transform="translate(0,0)"></path>
<path d="M 1083.88 773.965 C 1094.68 793.096 1107.23 811.19 1121.36 828.019 C 1122.77 832.908 1127.09 838.436 1130.19 842.637 C 1135.54 850.019 1141.52 857.228 1147.26 864.328 L 1135.48 871.122 C 1116.82 850.255 1089.88 800.594 1083.88 773.965 z" fill="rgb(4,254,213)" transform="translate(0,0)"></path>
<path d="M 990.948 764.153 C 992.712 766.76 996.67 783.409 997.687 787.761 C 1008.76 835.155 1028.86 869.389 1058.11 907.562 L 1047.38 912.477 C 1046.71 912.584 1046.06 912.191 1045.25 911.905 C 1005.47 861.354 993.268 831.864 980.167 768.396 L 990.948 764.153 z" fill="rgb(4,254,213)" transform="translate(0,0)"></path>
<path d="M 962.147 776.054 C 964.801 777.606 969.833 804.066 971.222 809.216 C 982.715 851.825 1003.15 886.769 1027.55 922.7 L 1016.84 928.477 C 979.437 877.559 965.715 841.264 950.938 780.585 L 962.147 776.054 z" fill="rgb(4,254,213)" transform="translate(0,0)"></path>
<path d="M 1023.36 751.822 L 1023.99 751.928 C 1026.14 754.204 1028.98 767.157 1029.83 771.379 C 1039 816.82 1061.35 854.856 1087.96 892.331 L 1077.64 897.298 C 1071.8 891.085 1063.57 878.029 1059.07 870.759 C 1036.86 834.855 1023.26 798.676 1013.17 757.743 L 1023.36 751.822 z" fill="rgb(4,254,213)" transform="translate(0,0)"></path>
<path d="M 1051.46 741.874 C 1055.99 742.781 1057.32 756.993 1059.36 762.32 C 1063.28 772.531 1065.88 783.819 1069.62 794.307 C 1080.36 824.837 1096.43 853.222 1117.07 878.149 L 1108.52 883.095 L 1106.39 883.475 C 1101.94 879.927 1096.66 870.467 1093.17 865.467 C 1066.56 827.327 1055.43 789.721 1042.78 745.773 C 1045.13 744.565 1048.95 742.997 1051.46 741.874 z" fill="rgb(4,254,213)" transform="translate(0,0)"></path>
<path d="M 1323.48 498.713 C 1324.5 503.233 1324.17 537.376 1324.17 544.753 C 1324.33 581.46 1324.23 618.168 1323.86 654.874 C 1321.14 650.153 1318.48 644.669 1315.97 639.777 C 1309.25 624.238 1300.76 595.878 1300.62 578.978 C 1300.44 557.871 1313.38 516.729 1323.48 498.713 z" fill="rgb(252,250,247)" transform="translate(0,0)"></path>
<path d="M 1352.28 437.568 C 1353.49 440.591 1354.07 698.371 1352.66 702.31 L 1351.39 702.386 C 1348.21 694.469 1349.31 680.169 1349.34 671.372 L 1349.55 613.469 L 1349.24 503.076 C 1349.22 490.825 1347.46 445.027 1352.28 437.568 z" fill="rgb(248,91,78)" transform="translate(0,0)"></path>
<path d="M 1350.91 739.298 C 1352.48 740.093 1354.03 740.386 1353.84 742.417 C 1353.29 748.435 1355.11 757.237 1352.61 762.61 C 1352.02 762.271 1349.56 761.005 1349.54 760.453 C 1349.29 753.894 1348.8 745.239 1350.91 739.298 z" fill="rgb(248,91,78)" transform="translate(0,0)"></path>
<path d="M 1350.99 399.632 C 1355.09 402.74 1353.54 415.371 1351.58 419.533 C 1347.91 415.329 1348.01 403.683 1350.99 399.632 z" fill="rgb(240,81,60)" transform="translate(0,0)"></path>
<path d="M 635.654 454.24 L 638.454 453.909 C 641.193 457.059 638.802 468.761 638.675 473.312 C 636.6 547.789 657.57 634.895 700.864 695.835 C 676.551 704.316 648.394 711.927 623.451 719.316 C 552.514 740.332 480.626 758.049 409.27 777.508 C 407.537 777.911 407.806 777.748 405.953 777.387 C 401.944 773.226 392.876 749.907 390.276 743.559 C 358.639 666.305 345.712 592.795 342.61 509.948 C 439.571 489.805 538.035 473.525 635.654 454.24 z" fill="rgb(0,0,68)" transform="translate(0,0)"></path>
<path d="M 629.083 476.178 C 630.058 477.428 631.615 514.264 632.187 520.637 C 633.243 532.129 634.837 543.566 636.964 554.909 C 645.891 602.553 659.155 638.563 681.217 681.599 C 659.431 687.991 626.707 693.493 603.533 698.554 C 545.723 711.346 487.781 723.535 429.717 735.117 C 426.179 735.797 426.933 736.182 424.007 735.118 C 418.147 728.136 413.627 711.14 410.421 702.059 C 390.93 646.859 381.17 593.04 377.915 534.509 C 456.596 519.338 553.092 499.977 629.083 476.178 z" fill="rgb(252,250,247)" transform="translate(0,0)"></path>
<path d="M 444.621 535.334 C 446.081 535.089 445.705 535.252 447.342 535.844 C 448.408 538.638 450.875 572.863 452.004 580.711 C 458.098 623.084 469.014 664.751 486.925 703.708 L 474.426 708.247 L 473.495 708.467 L 471.697 707.249 C 444.468 648.417 437.898 600.496 432.797 537.36 C 436.49 536.58 440.845 535.961 444.621 535.334 z" fill="rgb(4,254,213)" transform="translate(0,0)"></path>
<path d="M 544.173 515.397 C 545.909 515.158 551.194 514.292 551.766 515.046 C 554.603 521.484 554.637 535.667 555.382 542.801 C 560.084 587.844 574.201 632.736 592.722 673.875 C 593.698 676.043 593.568 677.262 592.506 679.156 L 589.043 679.709 C 585.582 680.42 584.296 680.763 580.65 680.64 C 572.9 673.69 560.896 634.299 557.031 625.643 C 550.974 612.08 534.457 525.208 539.064 516.41 L 544.173 515.397 z" fill="rgb(4,254,213)" transform="translate(0,0)"></path>
<path d="M 409.612 542.281 C 411.346 541.97 410.559 542.085 412.537 542.763 C 414.015 546.956 414.16 560.256 414.694 565.901 C 415.722 576.198 417.092 586.459 418.802 596.666 C 425.6 637.567 436.207 673.184 450.597 711.84 L 439.216 714.943 L 436.743 714.548 C 431.967 707.915 427.884 694.152 425.371 686.236 C 410.2 638.451 402.243 594.214 397.982 544.481 L 409.612 542.281 z" fill="rgb(4,254,213)" transform="translate(0,0)"></path>
<path d="M 479.948 528.345 C 482.235 527.779 482.69 527.858 485.076 527.919 C 486.102 529.36 489.102 563.391 489.878 569.348 C 493.698 598.646 499.976 626.965 510.259 654.584 C 514.104 664.911 523.341 686.172 524.427 694.465 C 522.304 696.824 519.082 696.99 515.768 697.681 C 513.56 697.966 513.185 698.159 511.156 697.149 C 496.014 674.644 469.735 560.393 471.438 531.005 C 473.863 528.664 476.038 529.025 479.948 528.345 z" fill="rgb(4,254,213)" transform="translate(0,0)"></path>
<path d="M 519.293 521.201 L 519.904 521.424 C 521.596 524.084 522.392 540.249 522.759 544.422 C 524.092 561.02 526.523 577.511 530.036 593.788 C 537.663 629.288 547.028 653.274 560.94 686.189 L 548.189 689.633 C 519.879 627.031 514.188 590.854 504.924 524.701 L 519.293 521.201 z" fill="rgb(4,254,213)" transform="translate(0,0)"></path>
<path d="M 821.59 764.922 C 823.188 769.317 826.064 785.951 828.029 792.673 C 847.61 859.657 901.641 941.721 962.541 976.294 C 948 988.123 925.343 1002.68 909.599 1013.35 L 811.84 1078.67 L 745.89 1122.01 C 738.477 1126.89 726.138 1136.22 719.354 1140.02 C 715.559 1139.93 716.71 1140 713.21 1137.41 C 663.704 1094.18 623.375 1041.45 594.613 982.356 C 584.417 961.862 575.282 939.788 566.047 918.725 C 589.498 903.264 614.456 889.649 638.051 874.576 C 698.111 836.21 761.111 802.366 821.59 764.922 z" fill="rgb(0,0,68)" transform="translate(0,0)"></path>
<path d="M 817.524 788.836 C 819.436 790.376 827.985 817.596 830.024 822.755 C 833.881 832.339 838.159 841.748 842.845 850.954 C 864.777 893.526 900.528 941.209 938.689 970.876 L 724.428 1096.5 L 720.785 1098.38 C 714.526 1096.74 704.18 1083.07 699.133 1077.77 C 658.399 1034.98 629.127 981.527 606.535 927.277 C 657.701 893.599 711.862 863.989 762.759 829.641 C 781.915 816.714 799.279 802.956 817.524 788.836 z" fill="rgb(252,250,247)" transform="translate(0,0)"></path>
<path d="M 641.829 919.209 C 644.028 921.851 653.213 944.35 655.624 949.536 C 660.168 959.15 664.978 968.636 670.048 977.983 C 690.881 1016.08 710.85 1039.02 738.868 1071.28 C 734.756 1074.73 730.881 1077.42 726.514 1080.5 C 721.502 1076.98 711.155 1063.92 706.824 1058.51 C 674.176 1017.73 649.93 974.736 629.553 926.626 L 641.829 919.209 z" fill="rgb(4,254,213)" transform="translate(0,0)"></path>
<path d="M 672.167 902.776 C 675.785 904.157 690.031 940.057 693.57 946.824 C 712.957 983.895 737.71 1024.35 769.76 1051.48 L 758.365 1058.11 L 755.601 1057.87 C 744.828 1050.49 736.708 1039.27 728.655 1029.2 C 697.672 990.461 680.199 953.611 660.876 908.659 L 672.167 902.776 z" fill="rgb(4,254,213)" transform="translate(0,0)"></path>
<path d="M 764.45 849.91 C 767.805 851.14 770.171 859.174 771.58 862.841 C 790.914 913.165 818.71 956.304 854.659 996.611 L 842.509 1004.45 C 795.857 955.129 779.99 917.04 751.818 856.78 L 764.45 849.91 z" fill="rgb(4,254,213)" transform="translate(0,0)"></path>
<path d="M 736.47 865.965 C 737.708 866.953 754.312 907.187 757.54 913.27 C 777.502 950.893 801.49 982.985 829.922 1014.41 L 816.906 1021.84 C 789.296 991.234 765.328 952.757 745.898 916.505 C 738.197 902.137 731.432 887.369 723.552 873.037 L 736.47 865.965 z" fill="rgb(4,254,213)" transform="translate(0,0)"></path>
<path d="M 705.227 884.163 C 707.191 885.625 724.753 924.494 728.154 931.103 C 747.517 968.73 770.535 1001.71 800.809 1031.41 C 797.605 1034.01 793.919 1036.69 790.603 1039.21 C 787.714 1038.81 778.899 1027.43 776.274 1024.5 C 740.123 984.17 717.581 938.498 695.16 889.782 L 705.227 884.163 z" fill="rgb(4,254,213)" transform="translate(0,0)"></path>
<path d="M 706.712 442.427 C 800.95 448.53 903.909 455.695 998.248 456.106 C 973.132 529.765 980.629 629.382 1012.78 699.792 C 1013.37 701.082 1012.43 701.891 1011.75 702.788 L 1006.5 703.046 C 913.479 708.765 820.431 710.514 727.275 713.303 C 720.223 698.83 713.263 684.153 708.504 668.745 C 686.246 596.687 696.455 515.801 706.712 442.427 z" fill="rgb(0,0,68)" transform="translate(0,0)"></path>
<path d="M 983.402 470.395 L 984.426 470.455 C 985.468 473.437 981.678 483.865 981.05 487.815 C 970.973 551.144 974.874 624.78 997.874 684.929 C 917.943 686.544 830.11 680.511 748.75 680.1 C 741.418 679.942 740.613 674.374 738.678 668.112 C 718.654 603.31 724.708 536.682 735.567 471.141 C 758.778 473.478 789.442 474.161 813.236 474.822 C 867.423 476.33 929.814 478.053 983.402 470.395 z" fill="rgb(252,250,247)" transform="translate(0,0)"></path>
<path d="M 783.47 489.77 L 796.693 490.339 C 789.453 531.85 788.631 574.227 794.254 615.987 C 795.899 628.177 801.686 652.32 802.08 662.499 L 800.854 663.751 L 788.53 663.569 C 772.719 604.404 772.778 549.62 783.47 489.77 z" fill="rgb(4,254,213)" transform="translate(0,0)"></path>
<path d="M 885.359 489.962 L 898.728 489.759 C 891.758 548.897 896.507 608.829 912.705 666.131 L 898.622 666.05 C 879.562 608.304 879.013 549.646 885.359 489.962 z" fill="rgb(4,254,213)" transform="translate(0,0)"></path>
<path d="M 751.435 489.204 L 765.047 489.626 C 757.24 532.229 754.696 565.321 759.011 609.119 C 760.617 625.428 764.614 646.448 765.588 661.892 L 752.611 661.755 C 747.708 646.252 747.44 635.842 745.351 620.714 C 738.624 571.996 744.717 536.529 751.435 489.204 z" fill="rgb(4,254,213)" transform="translate(0,0)"></path>
<path d="M 852.975 489.985 L 865.532 490.142 C 860.249 553.773 861.479 602.861 878.37 664.939 C 874.36 665.211 872.148 665.541 868.207 664.647 C 864.175 659.179 861.493 644.68 860.104 637.856 C 851.138 593.82 846.963 534.671 852.975 489.985 z" fill="rgb(4,254,213)" transform="translate(0,0)"></path>
<path d="M 821.33 489.603 C 825.025 489.559 827.396 489.332 830.941 490.439 C 830.02 488.985 826.927 570.455 828.054 581.327 C 831.051 610.223 835.07 635.646 841.68 663.988 L 829.838 663.859 C 813.586 607.83 812.976 547.011 821.33 489.603 z" fill="rgb(4,254,213)" transform="translate(0,0)"></path>
<path d="M 578.58 42.5371 C 584.766 44.8561 601.587 54.4551 607.681 57.8794 L 657.932 86.2771 C 716.889 119.527 776.035 152.443 835.366 185.021 C 834.733 185.512 834.117 186.024 833.517 186.556 C 828.721 190.79 819.459 201.979 814.98 207.224 C 776.187 252.659 728.933 338.517 725.705 398.263 L 715.348 393.913 C 671.03 376.319 627.097 354.052 584.234 333.173 C 540.988 312.3 497.63 291.66 454.163 271.254 C 461.359 251.398 467.772 232.578 476.07 213.071 C 502.612 151.976 537.078 94.6391 578.58 42.5371 z" fill="rgb(0,0,68)" transform="translate(0,0)"></path>
<path d="M 590.8 81.4303 C 595.499 82.6434 625.38 100.463 631.448 103.857 L 717.872 151.178 C 750.05 168.453 781.032 181.394 815.234 194.135 C 770.737 240.122 734.962 316.695 721.277 378.249 C 674.493 353.21 627.272 323.929 580.61 298.278 C 552.478 282.814 523.965 267.933 496.003 252.303 C 518.903 190.936 550.856 133.341 590.8 81.4303 z" fill="rgb(252,250,247)" transform="translate(0,0)"></path>
<path d="M 631.075 117.002 C 635.375 118.984 640.977 122.467 645.19 124.918 C 606.788 175.903 584.502 211.764 562.458 271.514 L 548.916 264.29 C 566.936 204.448 594.1 165.558 631.075 117.002 z" fill="rgb(4,254,213)" transform="translate(0,0)"></path>
<path d="M 602.464 99.4973 C 606.119 100.801 611.686 104.911 615.114 107.225 C 581.298 153.707 551.047 199.979 532.159 254.689 C 527.971 253.261 522.313 250.38 518.187 248.433 C 531.308 211.443 551.235 175.057 572.048 141.728 C 581.023 127.355 592.424 113.286 602.464 99.4973 z" fill="rgb(4,254,213)" transform="translate(0,0)"></path>
<path d="M 719.448 166.603 C 723.072 167.355 729.014 170.517 732.553 172.227 C 696.927 221.706 672.286 259.619 655.802 319.773 C 652.643 320.362 646.576 315.868 643.507 313.953 C 654.816 265.443 686.527 204.408 719.448 166.603 z" fill="rgb(4,254,213)" transform="translate(0,0)"></path>
<path d="M 664.253 136.155 C 667.105 137.12 673.778 140.814 676.739 142.354 C 636.62 190.599 618.099 231.403 595.058 288.153 C 591.575 287.134 586.728 284.039 583.429 282.115 C 594.264 236.543 634.037 172.691 664.253 136.155 z" fill="rgb(4,254,213)" transform="translate(0,0)"></path>
<path d="M 693.853 151.437 C 696.863 152.806 702.822 156.405 705.938 158.155 C 690.189 182.727 672.584 205.762 659.049 231.832 C 646.801 255.424 635.54 278.571 627.207 303.884 C 622.452 302 619.508 300.644 614.987 298.252 C 634.15 238.281 659.398 202.898 693.853 151.437 z" fill="rgb(4,254,213)" transform="translate(0,0)"></path>
<path d="M 892.825 120.133 C 897.255 121.511 911.501 129.052 916.211 131.465 L 960.562 154.191 C 1002.69 175.312 1044.57 196.932 1086.19 219.046 C 1103.44 228.021 1121.34 236.638 1138.34 245.856 C 1100.64 284.452 1063.66 360.962 1048.79 413.383 C 1045.21 425.973 1043.27 441.14 1041.61 454.255 L 1031.26 449.659 C 985.013 430.194 939.038 410.098 893.343 389.376 C 857.638 373.573 817.087 356.474 782.489 339.122 C 800.164 275.622 827.425 220.279 862.387 164.733 C 870.662 151.585 882.633 131.443 892.825 120.133 z" fill="rgb(0,0,68)" transform="translate(0,0)"></path>
<path d="M 903.181 156.525 C 949.434 184.326 1006.9 206.75 1055.56 230.619 C 1074.83 240.075 1098.46 247.915 1118.64 256.694 C 1079.15 313.624 1051.21 365.07 1036.31 433.777 C 1019.5 423.845 1000.78 415.107 983.248 406.187 C 959.011 394.087 935.358 380.997 911.232 368.675 C 881.036 353.254 849.385 339.462 820.123 322.344 C 833.003 268.053 873.588 202.692 903.181 156.525 z" fill="rgb(252,250,247)" transform="translate(0,0)"></path>
<path d="M 946.092 191.48 C 950.073 192.921 955.499 196.522 959.259 198.823 C 929.763 234.128 897.517 295.891 884.155 339.206 C 881.687 340.541 874.591 337.263 871.796 336.218 C 890.622 274.749 909.062 242.508 946.092 191.48 z" fill="rgb(4,254,213)" transform="translate(0,0)"></path>
<path d="M 918.441 176.668 L 930.428 183.035 C 925.352 193.033 911.9 209.72 905.136 220.352 C 883.721 253.86 867.223 290.266 856.147 328.459 C 852.081 326.75 847.058 324.134 843.002 322.17 C 856.494 273.833 888.362 216.552 918.441 176.668 z" fill="rgb(4,254,213)" transform="translate(0,0)"></path>
<path d="M 1030.8 233.865 L 1042.89 239.504 C 1021.24 272.077 1001.18 307.859 986.538 344.303 C 981.533 356.757 978.171 372.046 974.305 385.096 L 962.319 379.254 C 973.615 324.075 999.933 279.737 1030.8 233.865 z" fill="rgb(4,254,213)" transform="translate(0,0)"></path>
<path d="M 976.459 207.501 C 980.558 209.417 985.053 211.944 989.091 214.09 C 954.992 267.001 937.089 292.682 917.248 354.502 C 914.544 354.845 909.349 351.96 906.381 350.65 C 912.391 331.749 918.974 310.854 927.206 292.979 C 940.944 263.151 959.564 235.634 976.459 207.501 z" fill="rgb(4,254,213)" transform="translate(0,0)"></path>
<path d="M 1004.83 221.691 C 1008.38 222.922 1013.65 225.731 1017.18 227.473 C 1004.19 249.222 989.418 270.925 977.54 293.246 C 965.024 316.769 955.269 343.268 947.517 368.744 L 946.381 370.016 C 942.972 369.921 940.07 367.991 936.932 366.378 C 948.484 316.862 977.34 264.203 1004.83 221.691 z" fill="rgb(4,254,213)" transform="translate(0,0)"></path>
<path d="M 1362.27 367.368 C 1362.22 361.821 1361.84 330.507 1362.86 326.916 L 1364.85 326.416 C 1367.32 329.217 1366.28 361.72 1366.2 367.183 C 1364.66 367.327 1363.84 367.427 1362.27 367.368 z" fill="rgb(240,81,60)" transform="translate(0,0)"></path>
<metadata><recraft-signature>{"signed_by": "recraft", "signature_b64": "thIR85/TFo58JTckUPpcP+JmNJRUn4FNkHmW8Lr3LIWgKjwm4d4yyr52PkffPw6j4gRRHD2wIUqb294ia75DCw==", "signing_algo": "Ed25519", "generation_timestamp": 1781847502, "identifier": "ad6aac88-7189-46e3-b33b-c65760e2a809"}</recraft-signature></metadata></svg>